<svg xmlns="http://www.w3.org/2000/svg" width="180" height="180" viewBox="0 0 180 180"><defs><style>.a{fill:#fbffd8;}.b{fill:#97ac4c;}.c{fill:rgba(63,61,86,0.3);}.d{fill:#dfd48b;}.e{fill:#fff;}.f{fill:#e5b35c;}.g{fill:#5a612b;}.h{fill:#2f2e41;}.i{fill:#9f616a;}.j{fill:#ffb8b8;}.k{fill:#f6de9d;}</style></defs><g transform="translate(-445 -317)"><rect class="a" width="180" height="180" rx="20" transform="translate(445 317)"/><g transform="translate(471.976 347)"><path class="b" d="M857.52,714.036c-3,4.016-9.225,4.439-9.225,4.439s-1.363-6.089,1.636-10.106,9.225-4.439,9.225-4.439S860.519,710.019,857.52,714.036Z" transform="translate(-733.349 -583.513)"/><path class="b" d="M815.479,734.384c1.979,2.65,6.087,2.929,6.087,2.929s.9-4.018-1.08-6.669-6.087-2.929-6.087-2.929S813.5,731.734,815.479,734.384Z" transform="translate(-706.587 -602.351)"/><path class="c" d="M383.925,648.379H330.318v-.438H384Z" transform="translate(-261.615 -513.175)"/><path class="d" d="M0,0H120.289a0,0,0,0,1,0,0V62.827a4,4,0,0,1-4,4H4a4,4,0,0,1-4-4V0A0,0,0,0,1,0,0Z" transform="translate(0 3.869)"/><path class="e" d="M328.406,228.85H435.558V175.161H328.406Z" transform="translate(-321.837 -164.723)"/><path class="f" d="M4,0H115.938a4,4,0,0,1,4,4V5.979a0,0,0,0,1,0,0H0a0,0,0,0,1,0,0V4A4,4,0,0,1,4,0Z" transform="translate(0.176)"/><rect class="d" width="21.807" height="15.476" rx="2" transform="translate(12.648 29.369)"/><rect class="d" width="60.145" height="1.759" rx="0.879" transform="translate(47.496 29.369)"/><rect class="d" width="60.145" height="1.759" rx="0.879" transform="translate(47.496 36.403)"/><rect class="d" width="60.145" height="1.759" rx="0.879" transform="translate(47.496 43.438)"/><path class="g" d="M709.016,468.917l-.587,3.373s-2.787,7.773-2.053,15.106,1.32,12.466,1.32,12.466-2.2,18.479-1.32,25.079c0,0,2.347,3.227,5.427-.147l2.346-24.346,2.493-17.306,2.2,19.359,1.467,22a3.993,3.993,0,0,0,5.133.293l-.293-24.932s2.64-21.119,2.2-22.879-3.373-8.653-3.373-8.653Z" transform="translate(-621.029 -396.916)"/><path class="h" d="M710.137,739.541l.147,3.08s-2.235,3.486.551,3.486h0c2.015-.006,3.837.9,3.6-1.1l-.336-2.826-.587-3.08Z" transform="translate(-623.616 -611.369)"/><path class="h" d="M778.079,739.541l-.147,3.08s2.235,3.486-.551,3.486h0c-2.015-.006-3.837.9-3.6-1.1l.336-2.826.587-3.08Z" transform="translate(-674.563 -611.369)"/><circle class="i" cx="4.693" cy="4.693" r="4.693" transform="translate(90.114 37.169)"/><path class="j" d="M737.448,339.379s.587,6.746-1.173,7.773,7.333.587,7.333.587-2.053-7.92-1.907-8.8Z" transform="translate(-644.694 -294.437)"/><path class="k" d="M716.368,357.387s-5.867-2.64-14.08,0c0,0-3.593.953-4.033,2.127s4.913,14.593,4.326,16.939a12.737,12.737,0,0,0-.293,4.4s12.906-1.76,15.986-.44a20.067,20.067,0,0,1-.88-6.453c.293-2.64,2.786-14.959,2.786-14.959A6.787,6.787,0,0,0,716.368,357.387Z" transform="translate(-614.741 -308.119)"/><path class="i" d="M806.554,529.677s-2.2,6.746.147,6.893,1.32-5.133,1.32-5.133l-.293-1.76Z" transform="translate(-699.794 -445.503)"/><path class="k" d="M786.729,370.492l3.08-.88a4.5,4.5,0,0,1,1.76,3.08c0,1.76-.293,13.053-.293,13.053l2.2,16.866-3.373,1.173-3.96-18.186Z" transform="translate(-684.369 -318.73)"/><path class="i" d="M688.039,529.677s2.2,6.746-.147,6.893-1.32-5.133-1.32-5.133l.293-1.76Z" transform="translate(-605.331 -445.503)"/><path class="k" d="M689.939,370.492l-3.08-.88a4.5,4.5,0,0,0-1.76,3.08c0,1.76.293,13.053.293,13.053l-2.2,16.866,3.373,1.173,3.96-18.186Z" transform="translate(-602.832 -318.73)"/><path class="h" d="M728.523,292.979s-4.106-.733-4.986,4.693-.44,7.48-1.907,8.066-1.907,1.32-1.613,2.493,1.32,1.613-.147,3.813,3.227,1.613,7.04,3.373,12.613-.733,11.44-2.787-3.08-1.173-2.2-3.52,1.173-2.787,0-4.253S736.736,294.3,728.523,292.979Z" transform="translate(-631.663 -258.009)"/></g></g></svg>