<svg xmlns="http://www.w3.org/2000/svg" width="180" height="180" viewBox="0 0 180 180"><defs><style>.a{fill:#dcfaf5;}.b{fill:#bed6f1;}.c{fill:rgba(63,61,86,0.3);}.d{fill:#4d5b82;}.e{fill:#fff;}.f{fill:#6c63ff;}.g{fill:#b5ccee;}.h{fill:#2f2e41;}.i{fill:#fbbebe;}.j{fill:#79d89f;}.k{fill:#608adc;}</style></defs><g transform="translate(-1095 -317)"><rect class="a" width="180" height="180" rx="20" transform="translate(1095 317)"/><g transform="translate(1098 342.989)"><path class="b" d="M461.079,528.268h-1.45l.483-28.358h.483Z" transform="translate(-369.857 -402.271)"/><path class="b" d="M591.138,477.4l2.337-3.612a54.154,54.154,0,0,0-2.4-5.612l-1.511,1.221,1.2-1.849c-1.14-2.245-2.038-3.659-2.038-3.659a51.89,51.89,0,0,0-6.253,15.205l3,4.634-3.32-2.681a21.907,21.907,0,0,0-.182,2.747c0,9.261,3.025,16.769,6.756,16.769s6.756-7.508,6.756-16.769a28.84,28.84,0,0,0-1.545-8.653Z" transform="translate(-498.771 -397.638)"/><path class="b" d="M273.042,528.268h-1.45l.483-28.358h.483Z" transform="translate(-218.546 -402.271)"/><path class="b" d="M405.884,477.4l2.337-3.612a54.142,54.142,0,0,0-2.4-5.612l-1.511,1.221,1.2-1.849c-1.14-2.245-2.038-3.659-2.038-3.659a51.892,51.892,0,0,0-6.253,15.205l3,4.635-3.32-2.681a21.9,21.9,0,0,0-.182,2.747c0,9.261,3.025,16.769,6.756,16.769s6.756-7.508,6.756-16.769a28.841,28.841,0,0,0-1.546-8.653Z" transform="translate(-349.7 -397.638)"/><path class="b" d="M359.336,404.349h-2.9l.967-58.327h.967Z" transform="translate(-286.819 -278.439)"/><path class="b" d="M462.308,167.654l4.818-7.447a111.65,111.65,0,0,0-4.943-11.572l-3.116,2.517,2.467-3.813c-2.351-4.628-4.2-7.544-4.2-7.544s-9.664,15.228-12.892,31.352l6.183,9.556-6.845-5.529a45.168,45.168,0,0,0-.376,5.664c0,19.1,6.236,34.575,13.93,34.575s13.93-15.48,13.93-34.575a59.464,59.464,0,0,0-3.187-17.842Z" transform="translate(-387.27 -136.845)"/><circle class="b" cx="13.373" cy="13.373" r="13.373" transform="translate(45.064 0)"/><rect class="c" width="151.439" height="0.438" transform="translate(11 125.829)"/><path class="d" d="M691.861,353.544a.551.551,0,0,0,.551-.551v-5.878a.546.546,0,0,0-.735-.517V339.95a1.837,1.837,0,0,0-1.837-1.837H629.773a1.837,1.837,0,0,0-1.837,1.837v80.642a1.837,1.837,0,0,0,1.837,1.837h60.068a1.837,1.837,0,0,0,1.837-1.837V361.776a.546.546,0,0,0,.735-.517V355.38a.546.546,0,0,0-.735-.517V353.51A.546.546,0,0,0,691.861,353.544Z" transform="translate(-535.76 -296.429)"/><path class="e" d="M701.3,356.453a1.837,1.837,0,0,1,1.837,1.837v73.478A1.837,1.837,0,0,1,701.3,433.6h-52.72a1.837,1.837,0,0,1-1.837-1.837V358.29a1.837,1.837,0,0,1,1.837-1.837H701.3" transform="translate(-550.896 -311.187)"/><circle class="e" cx="0.735" cy="0.735" r="0.735" transform="translate(123.312 42.786)"/><rect class="f" width="45.15" height="4.487" transform="translate(100.711 54.905)"/><rect class="g" width="45.15" height="1.699" transform="translate(100.711 65.474)"/><rect class="g" width="45.15" height="1.699" transform="translate(100.711 70.661)"/><rect class="g" width="23.329" height="1.699" transform="translate(100.711 75.914)"/><rect class="g" width="45.15" height="1.699" transform="translate(100.711 81.26)"/><rect class="g" width="45.15" height="1.699" transform="translate(100.711 86.606)"/><rect class="g" width="22.548" height="1.699" transform="translate(100.711 91.952)"/><rect class="g" width="45.15" height="1.699" transform="translate(100.711 97.298)"/><rect class="g" width="45.15" height="1.699" transform="translate(100.711 102.645)"/><rect class="f" width="14.258" height="4.688" transform="translate(131.658 109.202)"/><path class="d" d="M277.493,421.079h-.321v-10.7a6.219,6.219,0,0,0-6.219-6.219H248.165a6.219,6.219,0,0,0-6.219,6.219v58.978a6.219,6.219,0,0,0,6.219,6.219h22.789a6.219,6.219,0,0,0,6.219-6.219V428.681h.321Z" transform="translate(-225.159 -349.578)"/><path class="e" d="M282.838,416.571v59.266a4.644,4.644,0,0,1-4.644,4.644H255.361a4.644,4.644,0,0,1-4.644-4.644V416.571a4.186,4.186,0,0,1,4.186-4.186h3.224a2.266,2.266,0,0,0,.1,1.9,2.215,2.215,0,0,0,1.812,1.1h13.284a2.215,2.215,0,0,0,1.812-1.1,2.266,2.266,0,0,0,.1-1.9h3.42a4.186,4.186,0,0,1,4.186,4.186Z" transform="translate(-232.217 -356.195)"/><path class="h" d="M517.841,349s-2.422-.865-3.979,2.6a68.26,68.26,0,0,1-3.979,7.267l1.384.346s.346-2.422,1.211-2.768l-.346,3.114s10.381,3.633,15.053-.346L527.011,358s.692.173.692,1.211l.519-.519a9.3,9.3,0,0,0-2.076-2.422,6.1,6.1,0,0,1-1.494-3.718A4.616,4.616,0,0,0,517.841,349Z" transform="translate(-440.764 -304.713)"/><path class="i" d="M321.794,375.359l2.265,2.883,1.442-1.647-1.236-2.059Z" transform="translate(-258.943 -301.383)"/><path class="i" d="M314.184,605.429l-.824,4.324,2.059,1.03,1.441-1.03v-4.324Z" transform="translate(-252.156 -487.18)"/><path class="i" d="M380.349,605.429l.824,4.324-2.059,1.03-1.442-1.03v-4.324Z" transform="translate(-303.907 -487.18)"/><path class="h" d="M319.306,406.165l-2.883,20.592L312.3,445.5l4.942.618,3.913-17.5,4.942-14.826-.618,17.709-1.03,14.62h3.706l2.677-19.768,2.96-14.7-.077-5.483Z" transform="translate(-251.308 -326.835)"/><path class="h" d="M454.6,746.9s-1.03-1.236-1.647-.618a26.043,26.043,0,0,0-2.059,3.089s-3.295,1.853-.618,2.265,3.5,0,3.5-.206a3.018,3.018,0,0,1,.412-.824l1.03.206,1.441-.412s.618-3.794,0-3.647S454.811,747.515,454.6,746.9Z" transform="translate(-391.96 -624.736)"/><path class="h" d="M534.6,746.9s1.03-1.236,1.647-.618a26.043,26.043,0,0,1,2.059,3.089s3.295,1.853.618,2.265-3.5,0-3.5-.206a3.018,3.018,0,0,0-.412-.824l-1.03.206-1.441-.412s-.618-3.794,0-3.647S534.395,747.515,534.6,746.9Z" transform="translate(-458.777 -624.736)"/><circle class="i" cx="4.118" cy="4.118" r="4.118" transform="translate(73.662 46.691)"/><path class="i" d="M543.013,398.016a25.054,25.054,0,0,0-.206,4.324c.206.824.618,2.059.618,2.059l-6.589-1.236s1.853-3.913,1.441-4.53S543.013,398.016,543.013,398.016Z" transform="translate(-462.453 -344.632)"/><path class="j" d="M527.512,417.38l-6.8-1.441L516.8,439.826a8.921,8.921,0,0,1,5.354.206c2.883,1.03,6.8,0,6.8,0l-.824-22.445Z" transform="translate(-446.334 -359.055)"/><path class="k" d="M493.255,406.253l-2.414,1.274-3.089.618-3.295,7.825.412,5.56s-3.5,6.384-3.913,9.884c0,0,.412,5.354,7.207,5.148L492.695,424s1.853-9.472,0-12.149C492.695,411.851,494.021,406.832,493.255,406.253Z" transform="translate(-417.489 -351.261)"/><path class="k" d="M471.986,415.47l-.667-.114-.569.114a6.651,6.651,0,0,0-3.089,1.647c-1.647,1.441-7.207,5.972-7.619,7.207a6.918,6.918,0,0,0,.412,4.53,24.02,24.02,0,0,0,1.853,2.883l.618,1.441,3.5-1.03s-2.265-4.324-2.059-6.178l4.118-3.295Z" transform="translate(-400.486 -358.586)"/><path class="k" d="M563.044,411.019l3.111,3.844,1.647,2.059-2.059,7-1.03,5.972s2.471,9.472.412,12.355c0,0-1.236,1.441-1.647-.206s-.412-9.472-.412-9.472-1.647-10.3-.824-12.973S562.2,411.5,563.044,411.019Z" transform="translate(-482.712 -355.096)"/><path class="i" d="M582.033,562.694v2.059s-.412,6.8,1.647,5.972.618-5.972.618-5.972l-.206-2.265Z" transform="translate(-498.796 -476.98)"/><path class="h" d="M530.068,364.251a12.115,12.115,0,0,0,3.673-3.992s2.874,3.194,4.631,3.353.16-3.832.16-3.832l-3.194-.8-3.034.319-2.4,1.6Z" transform="translate(-456.879 -313.222)"/><path class="k" d="M417.893,313.385l1.647.618.206,2.059.824,12.561-.412,9.473-3.089.206-1.03-10.5-.412-11.532Z" transform="translate(-334.45 -252.177)"/><rect class="f" width="25.03" height="2.487" transform="translate(22 72.987)"/><rect class="g" width="25.03" height="0.942" transform="translate(22 78.846)"/><rect class="g" width="25.03" height="0.942" transform="translate(22 81.721)"/><rect class="g" width="12.933" height="0.942" transform="translate(22 84.634)"/><rect class="g" width="25.03" height="0.942" transform="translate(22 87.597)"/><rect class="g" width="25.03" height="0.942" transform="translate(22 90.561)"/><rect class="g" width="12.5" height="0.942" transform="translate(22 93.525)"/><rect class="g" width="25.03" height="0.942" transform="translate(22 96.489)"/><rect class="g" width="25.03" height="0.942" transform="translate(22 99.452)"/><rect class="f" width="7.904" height="2.599" transform="translate(39.156 103.088)"/></g></g></svg>