<svg xmlns="http://www.w3.org/2000/svg" xmlns:xlink="http://www.w3.org/1999/xlink" width="522.414" height="374.137" viewBox="0 0 522.414 374.137"><defs><style>.a{fill:#4c6e8b;opacity:0.3;}.b{fill:#3d607e;}.c{fill:#c9c8c6;}.d{fill:#dee2ff;}.e{fill:#fea51d;}.f{fill:#ce4b17;}.g{fill:url(#a);}.h{fill:url(#b);}.i{fill:url(#c);}.j{fill:url(#d);}.k{fill:url(#e);}.l{fill:url(#f);}.m{fill:url(#g);}.n{fill:url(#h);}.o{fill:#ff9f57;opacity:0.5;}.o,.r,.z{mix-blend-mode:multiply;isolation:isolate;}.p{fill:#e3e3e3;}.q{fill:url(#i);}.r{fill:#8f888c;opacity:0.42;}.s{fill:url(#j);}.t{fill:#ffc880;}.u{fill:url(#k);}.v{fill:url(#l);}.w{fill:url(#m);}.x{fill:url(#n);}.y{fill:url(#o);}.z{opacity:0.72;}.aa{fill:#cc4915;}.ab{fill:#263554;}.ac{fill:url(#q);}.ad{fill:url(#r);}.ae{fill:#2b3c5e;}.af{fill:#eaeaea;}.ag{fill:url(#t);}.ah{fill:url(#u);}.ai{fill:url(#v);}.aj{fill:#f4a664;}.ak{fill:url(#w);}.al{fill:#4a4742;}.am{fill:#00a15b;}.an{fill:#0dc184;}.ao{fill:#00824a;}.ap{fill:#e89533;}</style><linearGradient id="a" x1="0.415" y1="-5.518" x2="0.415" y2="-4.039" gradientUnits="objectBoundingBox"><stop offset="0" stop-color="#e86328"/><stop offset="1" stop-color="#f99115"/></linearGradient><linearGradient id="b" x1="0" y1="0.5" x2="1" y2="0.5" xlink:href="#a"/><linearGradient id="c" x1="1.174" x2="0.11" y2="1.338" gradientUnits="objectBoundingBox"><stop offset="0" stop-color="#ffb666"/><stop offset="1" stop-color="#f99115"/></linearGradient><linearGradient id="d" x1="0.5" y1="-0.039" x2="0.5" y2="0.312" xlink:href="#a"/><linearGradient id="e" x1="0.02" y1="0.165" x2="1.104" y2="1.004" gradientUnits="objectBoundingBox"><stop offset="0" stop-color="#2b3c5e"/><stop offset="1" stop-color="#0a101e"/></linearGradient><linearGradient id="f" x1="0.675" y1="0.773" x2="0.448" y2="0.468" gradientUnits="objectBoundingBox"><stop offset="0" stop-color="#ffd6ae"/><stop offset="1" stop-color="#f9ba85"/></linearGradient><linearGradient id="g" x1="1.213" y1="0.206" x2="0" y2="0.911" gradientUnits="objectBoundingBox"><stop offset="0" stop-color="#b9b6b8"/><stop offset="1" stop-color="#e3e3e3"/></linearGradient><linearGradient id="h" x1="0.274" y1="0.264" x2="1.044" y2="0.951" xlink:href="#f"/><linearGradient id="i" x1="0.378" y1="1.056" x2="1.193" y2="0.108" xlink:href="#f"/><linearGradient id="j" x1="0.5" x2="0.5" y2="1" gradientUnits="objectBoundingBox"><stop offset="0" stop-color="#e3e3e3"/><stop offset="1" stop-color="#e3e3e3"/></linearGradient><linearGradient id="k" x1="3.657" y1="2.289" x2="-1.015" y2="-0.34" gradientUnits="objectBoundingBox"><stop offset="0" stop-color="#2e3d5b"/><stop offset="1" stop-color="#263554"/></linearGradient><linearGradient id="l" x1="0.045" y1="0.745" x2="0.502" y2="0.271" gradientUnits="objectBoundingBox"><stop offset="0" stop-color="#263554"/><stop offset="1" stop-color="#0e1f41"/></linearGradient><linearGradient id="m" x1="1.233" y1="1.918" x2="0.278" y2="-0.116" gradientUnits="objectBoundingBox"><stop offset="0" stop-color="#0e1f41"/><stop offset="1" stop-color="#202e4a"/></linearGradient><linearGradient id="n" x1="0.662" y1="4.762" x2="0.286" y2="-5.13" xlink:href="#a"/><linearGradient id="o" x1="0.5" y1="-0.062" x2="0.5" y2="0.807" xlink:href="#a"/><linearGradient id="q" x1="0.652" y1="0.812" x2="-0.053" y2="0.253" gradientUnits="objectBoundingBox"><stop offset="0" stop-color="#bfbdbb"/><stop offset="1" stop-color="#e2e2e2"/></linearGradient><linearGradient id="r" x1="0" y1="0.5" x2="1" y2="0.5" xlink:href="#q"/><linearGradient id="t" x1="0.974" y1="0.829" x2="-0.817" y2="-1.199" xlink:href="#f"/><linearGradient id="u" x1="1.712" y1="1.768" x2="-1.477" y2="-1.568" xlink:href="#f"/><linearGradient id="v" x1="3.02" y1="3.136" x2="-0.169" y2="-0.2" xlink:href="#f"/><linearGradient id="w" x1="1.134" y1="1.008" x2="0.01" y2="0.05" xlink:href="#f"/></defs><g transform="translate(-112.372 -41.974)"><g transform="translate(76 50.613)"><path class="a" d="M155.774,65.3c75.139-30.932,151.508-3.585,203.3,55.977s160.494-41.11,218.142,18.355c39.342,40.582,21.322,144.919-32.624,190.11C471.27,391.165,248.284,360,200.048,349.544c-55.571-12.043-96.2-48.583-112.7-92.931C47.571,149.757,122.569,78.968,155.774,65.3Z" transform="translate(-39.628 -9.964)"/><path class="b" d="M586.626,429c-34.711-1.7-152.793,1.178-188.7,2.3s-77.6-1.479-99.251-5.3-146.82.325-141.139,10.6,55.767,4.6,112.567,8.728,184.543-.516,213.358,0,55.238-1.032,92.372-3.1S606.747,429.979,586.626,429Z" transform="translate(-82.361 -81.553)"/></g><g transform="translate(230.926 41.974)"><circle class="c" cx="36.558" cy="36.558" r="36.558"/><circle class="d" cx="31.633" cy="31.633" r="31.633" transform="translate(4.925 4.925)"/><path class="e" d="M286.2,68.4a2.7,2.7,0,1,1-2.7-2.7A2.7,2.7,0,0,1,286.2,68.4Z" transform="translate(-246.943 -31.847)"/><path class="e" d="M272.864,77.348a.9.9,0,0,1-.637-1.538l9.634-9.634V42.511a.9.9,0,0,1,1.8,0V66.548a.9.9,0,0,1-.264.638l-9.9,9.9A.9.9,0,0,1,272.864,77.348Z" transform="translate(-246.251 -29.962)"/></g><g transform="translate(309.158 140.787)"><g transform="translate(80.539 131.254)"><path class="f" d="M470.213,428.625v4.444H431.418v-4.444a3.887,3.887,0,0,1,3.887-3.886h31.021A3.887,3.887,0,0,1,470.213,428.625Z" transform="translate(-417.493 -302.993)"/><path class="g" d="M461.628,429.871v3.3H431.4v-3.3a3.886,3.886,0,0,1,3.886-3.886h22.459A3.886,3.886,0,0,1,461.628,429.871Z" transform="translate(-417.492 -303.091)"/><path class="h" d="M495.859,292.664a8.814,8.814,0,0,0-8.814,8.822v28.622a15.752,15.752,0,0,1-15.753,15.753H436.866a13.723,13.723,0,0,0,4.317-2.668,17.931,17.931,0,0,0,5.858-13.086V301.486a8.823,8.823,0,0,1,8.813-8.822Z" transform="translate(-417.919 -292.664)"/><path class="i" d="M485.438,301.485v28.624a15.75,15.75,0,0,1-15.75,15.75H420.72a4.409,4.409,0,0,0-4.408,4.409h0a4.408,4.408,0,0,0,4.408,4.408h51.909a21.625,21.625,0,0,0,21.625-21.625V292.668h0A8.816,8.816,0,0,0,485.438,301.485Z" transform="translate(-416.312 -292.664)"/><rect class="j" width="4.445" height="65.146" transform="translate(31.91 62.013)"/></g><g transform="translate(0)"><path class="k" d="M455.038,229.853s6.953,7.2,17.734,2.45,12.811-20.992-3.242-32.414c-12.722-9.052-3.212-30.8-16.033-43.45-7.274-7.177-20.536-8.6-23.487-1.54,0,0-6.128-.834-10.268,6.77-4.509,8.286-6.353,31.22,7.124,38.407S419.057,231.068,455.038,229.853Z" transform="translate(-335.781 -150.274)"/><path class="l" d="M369.937,272.032c1.838.377,2.773.252,4.685.552a8.46,8.46,0,0,0,4.592-.767L414.3,257.645c4.041-1.779,4.041-1.779,7-4.222l21.688-24.109c6.794-6.653,9.109-14.774,5.111-19.16h0c-4.058-4.452-13.884-5.276-20.449,2.931l-16.921,30.544s-28.058,23.1-36.354,22.469c-7.153-.547-14.794,6.539-13.954,7.087,1.326.864,5.891-.764,5.891-.764Z" transform="translate(-331.397 -154.697)"/><path class="m" d="M26.062,45.93s-.979,3.17,2.764,8.23-.255,8.484,3.6,8.484c1.467,0,4.35-3.625,6.726-5.121C42.372,55.5,45.2,55.2,48.378,53.25c1.709-1.052,8.422-7.907,8.008-15.213,7.966-9.359,19.141-20.762,16.9-27.463C69.916.512,61.637-6.807,50.527,15.95,44.435,27.6,40.959,32.135,39.156,36.695A62.463,62.463,0,0,1,26.062,45.93Z" transform="translate(39.978 51.783)"/><g transform="translate(87.552 16.297)"><path class="n" d="M423.95,174.556s-1.524,27.836,17.169,19.607l-.342,8.026h13.679S448.536,189.9,451.38,183.5s-2.234-11.379-4.876-6.6l-.673,1.739s.8-1.127-5.524-2.69c-7.392-1.826-8.229-5.247-9.346-7.989C430.961,167.953,426.694,173.032,423.95,174.556Z" transform="translate(-423.921 -167.953)"/><path class="o" d="M447.263,191.23c-2.623,4.322-4.713,4.738-4.713,4.738l-.342,8.026h4.038C447.148,198.948,448.286,189.546,447.263,191.23Z" transform="translate(-425.351 -169.758)"/></g><path class="p" d="M440.824,204.659s-5.451,14.312-12.814,21.676-7.489,14.229,2,23.714.749,43.935.749,43.935h43.435s-8.787-16.047-5.825-40.481c3.994-32.951-5.879-47.742-15.28-52.006Z" transform="translate(-336.27 -154.28)"/><g transform="translate(46.978 55.783)"><path class="q" d="M452.258,275.782l-70.421,3.483a1.917,1.917,0,0,1-1.7-2.826c1.41-2.622,4.308-6.018,9.706-5.392a59.174,59.174,0,0,1,8.363,1.5l42.3-12.437-3.274-31.84c-2-10.319,5-17.269,11.019-17.474h0c5.932-.2,10.615,6.823,11.281,16.309l-.259,41.726A7.06,7.06,0,0,1,452.258,275.782Z" transform="translate(-379.904 -210.789)"/><path class="r" d="M465.092,233.083c2.812,14.13.464,36.076.464,36.076-.9,4.121-.517,8.161-7.168,11.11l-25.983,11.35c2.823-13.05,1.643-28.447,2.657-28.591a21.085,21.085,0,0,0,4.826-2.075c.657-.361,2.037-.981,2.833-1.375,1.4-1.7.163-3.507-.42-6.77s-5.744-22.059-1.13-31.646,14.607-6.759,17.333-3.073C462.583,225.24,462.281,218.953,465.092,233.083Z" transform="translate(-384.041 -211.514)"/><path class="s" d="M48.373,52.131s-4.331,6.247,0,10.971-5.6,9.292-3.537,11.635,27.826-7.6,32.944-10.751S81.7,18.222,78.331,8.16,56.966-8.381,56.1,17.828c.121,12.022,4.349,24.879,4.042,29.616C59.172,50.2,48.373,52.131,48.373,52.131Z"/></g><g transform="translate(0 131.093)"><g transform="translate(0 65.606)"><path class="t" d="M364.795,407.91s.03,15.313-9.135,11.472-23.939-6.777-26.124-8.242,1.968-4.435,7.058-3.814,13.482,1.988,14.7-3.66Z" transform="translate(-328.94 -366.79)"/><path class="u" d="M352.754,363.661c-.082,19.429.983,36,.983,36L371.46,405.7l4.945-33.982Z" transform="translate(-330.802 -363.661)"/></g><g transform="translate(17.683 8.611)"><path class="t" d="M388.768,428.612s4.965,14.486-4.948,13.8-24.846,1.3-27.386.619.433-4.833,5.452-5.887,13.4-2.463,12.737-8.2Z" transform="translate(-348.701 -311.745)"/><path class="v" d="M435.909,346.638l-58.163,1,13.23,71.206H372.255s-32.7-79.009-21.967-93.673c10.235-13.979,74.638-23.34,74.638-23.34h43.435S478.1,341.646,435.909,346.638Z" transform="translate(-348.123 -301.83)"/></g><path class="w" d="M425.4,301.1h43.435s.335,1.842.734,4.751c3.849,28.026-21.757,52.932-53.281,34.815-19.761-11.357-47.594-32.989-61.782-18.971,0,0-3.748-22.683,16.283-28.249a28.092,28.092,0,0,1,12.83-.406Z" transform="translate(-330.918 -292.488)"/></g></g></g><g transform="translate(240.206 156.681)"><g transform="translate(0 107.309)"><rect class="x" width="150.604" height="5.737"/><g transform="translate(6.643 5.688)"><path class="y" d="M266.1,422.853,295.049,290.1h-5.91L261.344,422.853Z" transform="translate(-261.344 -290.1)"/><path class="y" d="M418.864,422.853,391.07,290.1h-5.91L414.1,422.853Z" transform="translate(-271.027 -290.1)"/><g class="z" transform="translate(26.001)"><path class="aa" d="M295.387,298.634l1.868-8.533h-5.91l-1.794,8.533Z" transform="translate(-289.551 -290.1)"/><path class="aa" d="M392.863,298.634,391.07,290.1h-5.91l1.868,8.533Z" transform="translate(-297.028 -290.1)"/></g></g></g><g transform="translate(34.555)"><path class="ab" d="M376.576,279.991H349.608a2.129,2.129,0,0,0-2.129,2.129v1.467H378.7V282.12A2.129,2.129,0,0,0,376.576,279.991Z" transform="translate(-295.993 -176.312)"/><path class="ac" d="M338.86,276.908a1.938,1.938,0,0,1-1.939,1.939H308.2a15.856,15.856,0,0,1-5.75-1.108,17.3,17.3,0,0,1-10.7-18.3l3.839-32.413a8.821,8.821,0,0,1,8.757-7.782h1.734v3.877h-1.734a4.943,4.943,0,0,0-4.908,4.361L295.6,259.891a13.432,13.432,0,0,0,8.253,14.233,12.024,12.024,0,0,0,4.348.845h28.72a1.939,1.939,0,0,1,1.939,1.939Z" transform="translate(-291.624 -171.561)"/><g transform="translate(11.452)"><path class="ad" d="M304.072,179.344l3.55,56.781a12.765,12.765,0,0,0,12.567,11.828l-5.029-80.436A10.979,10.979,0,0,0,304.072,179.344Z" transform="translate(-304.048 -167.516)"/><path class="ad" d="M322.647,167.537l-6.544-.02,5.029,80.435,6.545.02Z" transform="translate(-304.991 -167.516)"/></g></g></g><g transform="translate(142.139 123.291)"><rect class="p" width="77.156" height="80.077" rx="11.376" transform="translate(0 21.657)"/><g transform="translate(8.841)"><path class="e" d="M207.186,213.87H171.18a1.931,1.931,0,1,1,0-3.79h36.006a1.931,1.931,0,1,1,0,3.79Z" transform="translate(-158.244 -137.455)"/><path class="e" d="M203.085,220.186H176.041a1.931,1.931,0,1,1,0-3.789h27.044a1.931,1.931,0,1,1,0,3.789Z" transform="translate(-158.624 -137.949)"/><g transform="translate(3.938 87.182)"><path class="e" d="M166.053,225.871l1.372,2.288,3.068.367-2.22,1.781.524,2.515-2.744-1.187-2.744,1.188.524-2.515-2.22-1.781,3.068-.367Z" transform="translate(-161.614 -225.871)"/><path class="e" d="M178.242,225.871l1.372,2.288,3.068.367-2.22,1.781.524,2.515-2.744-1.187-2.744,1.188.524-2.515-2.22-1.781,3.068-.367Z" transform="translate(-162.567 -225.871)"/><path class="e" d="M190.432,225.871l1.372,2.288,3.068.367-2.22,1.781.524,2.515-2.744-1.187-2.744,1.188.524-2.515-2.22-1.781,3.067-.367Z" transform="translate(-163.52 -225.871)"/><path class="e" d="M202.622,225.871l1.372,2.288,3.068.367-2.22,1.781.524,2.515-2.744-1.187-2.744,1.188.524-2.515-2.22-1.781,3.068-.367Z" transform="translate(-164.474 -225.871)"/><path class="e" d="M215,225.871l1.372,2.288,3.067.367-2.22,1.781.524,2.515L215,231.635l-2.744,1.188.524-2.515-2.22-1.781,3.067-.367Z" transform="translate(-165.442 -225.871)"/></g><path class="e" d="M212.944,174.181l-17.118-5.84-7.089-1.372v-.052l-.133.026-.133-.026v.052l-7.089,1.372-17.117,5.84a10.227,10.227,0,0,0-6.925,9.679v11.917h62.525V183.86A10.226,10.226,0,0,0,212.944,174.181Z" transform="translate(-157.342 -134.079)"/><g transform="translate(17.071)"><path class="ae" d="M176.674,149.473s-4.732-16.374,8.633-16.3c0,0,2.121-2.192,8.344-1.838s11.738,5.162,14.566.848c1.354-2.065,4.737,15.627-8.132,17.4l-14.142,1.06Z" transform="translate(-175.861 -131.293)"/><g transform="translate(0.629 8.877)"><g transform="translate(13.003 31.713)"><path class="af" d="M190.66,175.336v0l-.006.006-.006-.006,0-.008,0,0,0,.008Z" transform="translate(-190.649 -175.326)"/><path class="af" d="M190.658,175.334l0,0v0l-.006.006-.006-.006,0-.008,0,0Z" transform="translate(-190.649 -175.326)"/></g><path class="ag" d="M196.524,164.389v5.534h0c-1.128,2.71-3.987,5.743-6.221,5.786-2.358.045-5.2-2.864-6.592-5.786h0v-5.534a9.968,9.968,0,0,0,12.813,0Z" transform="translate(-177.104 -142.758)"/><g transform="translate(0 6.79)"><ellipse class="ah" cx="3.6" cy="3.441" rx="3.6" ry="3.441" transform="translate(18.829 0)"/><path class="ai" d="M183.742,151.731a3.6,3.6,0,1,0-3.6,3.441A3.523,3.523,0,0,0,183.742,151.731Z" transform="translate(-176.543 -148.289)"/></g><path class="aj" d="M183.711,164.389v1.538c1.632,1.108,3.723,2.515,6.406,2.493,2.684.021,4.776-1.385,6.406-2.493v-1.538a9.968,9.968,0,0,1-12.813,0Z" transform="translate(-177.104 -142.758)"/><path class="ak" d="M200,145.484s-9.316-.954-12.78-4.561c0,0-3.677,4.314-7.642,4.6l.006,8.03s.472,11.413,10.205,11.336c9.734.077,10.206-11.336,10.206-11.336Z" transform="translate(-176.781 -140.923)"/><path class="al" d="M176.743,151.015" transform="translate(-176.559 -141.712)"/></g></g></g></g><g transform="translate(-82.493 -27.026)"><path class="am" d="M598.663,310.486c8.613,7.865,4.868,15.729-1.5,30.335s-7.49,68.533-7.49,68.533l5.243-.749s-.749-55.426,6.366-70.406,10.112-22.47,16.478-17.6S598.663,310.486,598.663,310.486Z"/><path class="an" d="M593.931,300.3c1.046-4.661,7.258-9.7,15.565-13.982-1.235,6.875-5.195,18.114-1.1,20.419,5.527,3.109.538-12.583,2.671-21.208a102.615,102.615,0,0,1,25.825-8.472c-.012.032-.022.062-.034.1-4.869,12.358-11.235,17.227-8.614,19.1,1.972,1.409,8.4-12.867,16.879-20.184,6.367-.34,11.754.524,14.94,3.046,4.926,3.9,8.232,7.359,3.278,19.232a22.249,22.249,0,0,1-10.754,3.9c-11.235,1.124-16.478,1.5-8.614,5.243,3.851,1.834,10.306-.1,15.54-1.283-1.7,3.128-3.785,6.67-6.321,10.7a39.794,39.794,0,0,1-5.263,6.7c-3.622.694-6.778.7-8.45-.014-5.243-2.247-18.725-9.363-22.095-6.367-3.3,2.933,24.968,4.79,23.009,12.242-13.7,7.894-29.379,4.137-32.151-3.111C604.524,316.623,590.781,314.333,593.931,300.3Z"/><path class="am" d="M622.256,353.554c-14.98-11.235-30.334-.749-38.2,11.234s-2.247,38.948-2.247,38.948,3,0,3-1.123-8.239-31.832,11.235-45.689c12.183-8.668,20.972-4.494,22.1-.374s-4.869,11.609-4.869,11.609Z"/><path class="am" d="M587.8,330.459c14.98,0,19.849,23.219,15.729,36.7s-9.737,38.574-9.737,38.574l-3.745-3.746s14.231-35.2,10.861-50.931S589.3,332.706,587.8,332.706,587.8,330.459,587.8,330.459Z"/><path class="ao" d="M600.366,367.265a10.856,10.856,0,0,1,3.944-3.314,29.754,29.754,0,0,1-.779,3.209c-1.877,6.143-4.064,14.7-5.89,22.186-.167-.959-.422-2.437-.817-4.718-.093-.539-.166-1.123-.217-1.743A145.344,145.344,0,0,0,600.366,367.265Z"/><path class="an" d="M604.462,367.377c28.462-11.984,13.467-28.429,38.558-17.568,1.767.765,3.921,2.694,6.078,5.354a18.7,18.7,0,0,1-7.95.638c-7.49-1.124-4.869,4.868,7.489,6.366a27.83,27.83,0,0,1,5.792,1.222c5.887,11.308,8.541,26.188-3.919,31.36a28.2,28.2,0,0,1-8.868,1.819c-3.844-3.056.939-20.738-4.988-18.3-5.692,2.343,1.783,15.158.759,18.387a82.134,82.134,0,0,1-17.78-2.492c-2.352-1.319-4.147-3.086-4.7-5.409-1.873-7.865,10.486-12.733,10.86-19.474.345-6.2-4.53,13.633-17.442,16.552C596.675,380.381,591.158,372.979,604.462,367.377Z"/><path class="an" d="M584.182,346.188c3-6.366-4.869-7.864-4.494-2.995.332,4.313.369,14.8-4.056,17.655a69.424,69.424,0,0,1-25.86-8.588,3.176,3.176,0,0,1,.331-1.952c3.37-6.741,25.091-12.358,18.35-14.606-5.369-1.789-14.776,8.774-22.357,14.094-4.553-3.454-7.6-7.572-7.6-12.169,0-6.221,7.56-13.264,17.336-16.63,4.4.443,8.487,2.849,14.871,6.466,9.43,5.344,7.25-3.3-1.667-8.424a26.86,26.86,0,0,1,21.032,11.544s-.535,3.359,3.019,8.554c9.7,14.172-1.494,22.445-14.871,21.908C578.97,357.31,582.112,350.587,584.182,346.188Z"/><path class="am" d="M621.355,352.919c7.324,5.659,15.459,12.276,25.446,16.77s7.99,19.142,7.99,19.142,1.5-12.651-6.824-16.978-13.816-9.488-20.141-10.487a91.8,91.8,0,0,1-9.821-2s2-3.995.832-5.493S621.355,352.919,621.355,352.919Z"/><path class="am" d="M657.454,286.463c-26.8,7.157-46.44,24.3-50.1,28.463s-3.662,5.326-3.662,5.326l2.83,5.327,1.331-.666s-2.164-4.494,3.5-10.32c9.76-10.047,21.639-17.977,29.8-21.472S657.454,286.463,657.454,286.463Z"/><path class="ap" d="M14.814,0h6.975A14.814,14.814,0,0,1,36.6,14.814V36.707a0,0,0,0,1,0,0H0a0,0,0,0,1,0,0V14.814A14.814,14.814,0,0,1,14.814,0Z" transform="translate(606.902 434.8) rotate(180)"/><rect class="p" width="36.604" height="2.577" transform="translate(570.298 407.298)"/></g></g></svg>