<svg xmlns="http://www.w3.org/2000/svg" xmlns:xlink="http://www.w3.org/1999/xlink" width="266.749" height="245.794" viewBox="0 0 266.749 245.794"><defs><style>.a{opacity:0.88;}.b{fill:#f9fafb;}.c{fill:url(#a);}.d{fill:#efb7b9;}.aa,.e,.h,.y{opacity:0.1;}.f{fill:#dce6f2;}.g{fill:#965d7b;}.i{fill:#444053;}.j{fill:#757272;}.k{opacity:0.07;}.l{fill:#305574;}.m{fill:#466782;}.n{fill:#ebebec;}.o{fill:#496984;}.p{fill:#5c7991;}.aa,.q{fill:#6c63ff;}.r{fill:#a8a3fe;}.s{fill:#a29ff9;}.t{fill:#bcb8f9;}.u{fill:#bdb9ff;}.v{fill:#afabff;}.w{fill:#b0adff;opacity:0.05;}.x{fill:#c5c2f8;}.y{fill:#fff;}.z{fill:#c4d8ff;}.ab{fill:rgba(43,60,94,0.15);}.ac{fill:rgba(178,187,206,0.2);}.ad{fill:#c3cad5;font-size:18px;font-family:Roboto-Light, Roboto;font-weight:300;}</style><linearGradient id="a" y1="0.5" x2="1" y2="0.5" gradientUnits="objectBoundingBox"><stop offset="0" stop-color="gray" stop-opacity="0.251"/><stop offset="0.54" stop-color="gray" stop-opacity="0.122"/><stop offset="1" stop-color="gray" stop-opacity="0.102"/></linearGradient></defs><g class="a" transform="translate(-1002 -331.206)"><g transform="translate(1002.004 331.203)"><ellipse class="b" cx="46.531" cy="8.815" rx="46.531" ry="8.815" transform="translate(47.037 187.052)"/><path class="b" d="M250.21,84.467c-17.1-.592-33.388-6.114-48.94-12.154s-30.957-12.73-47.648-15.93c-10.736-2.058-23.014-2.352-31.662,3.4-8.326,5.549-11.016,15.1-12.461,23.971-1.089,6.674-1.728,13.7,1.252,19.949,2.072,4.339,5.744,7.985,8.286,12.141,8.844,14.459,2.592,32.289-6.989,46.406-4.492,6.622-9.71,12.947-13.18,19.989s-5.073,15.138-2.037,22.34c3.007,7.134,10.175,12.482,17.941,16.247,15.772,7.649,34.35,9.837,52.478,11.079,40.118,2.743,80.447,1.556,120.67.365,14.887-.439,29.837-.885,44.48-3.187,8.133-1.279,16.527-3.308,22.433-8.207,7.493-6.217,9.351-16.744,4.328-24.539-8.424-13.079-31.707-16.327-37.6-30.36-3.239-7.726.087-16.329,4.8-23.492,10.1-15.37,27.038-28.854,27.929-46.42C354.9,84,346.759,71.917,334.171,66.207c-13.193-5.985-31.491-5.232-41.22,4.674C282.924,81.069,265.31,84.993,250.21,84.467Z" transform="translate(-95.23 -55.03)"/><path class="c" d="M400.6,221.33l-8.093-5.456h0l4.082-6.077-21.376-1.7-7.681,5.94-9.615-5.39-8.019.964-.1-2.114a59.655,59.655,0,0,0-.663-6.579c.034-.661.058-1.419.055-2.243,0-3.475-.47-8.08-2.537-11.15l.476-4.275-3.858-4.558a29.166,29.166,0,0,1,2.114-3.557c.132-.19.264-.375.407-.555a9.594,9.594,0,0,0,8.957-9.512,6.093,6.093,0,0,0-.026-.695,2.518,2.518,0,0,0-.029-.28c.489.264.983.528,1.477.793.092.132.2.264.314.42h0l.024.029.148.182.048.055c.053.063.108.124.164.188l.037.042c.14.156.288.314.447.47a.475.475,0,0,1,.053.05l.2.185.055.05c.169.151.349.3.528.433l.058.042.227.156.074.048c.087.053.177.108.264.159l.032.018c.1.055.209.108.314.159l.053.021q.135.058.264.111l.082.029c.092.032.182.061.277.087l.058.016c.116.029.233.053.351.071h.013a2.88,2.88,0,0,0,.338.034h.077a2.908,2.908,0,0,0,.3,0h.066a3.131,3.131,0,0,0,.378-.045,4.17,4.17,0,0,0,1.665-.6,1.454,1.454,0,0,0,.338-.314,1.246,1.246,0,0,0-.053-1.451h0c-.206-.491-1.543-.838-1.543-.838s-4.228-1.765-4.228-3.171-1.057-8.7-11.967-10.366c0,0-7.1-.4-9.092,3.4L336.5,155c-.587.367-1.073,1.1-1.651,1.321a2.7,2.7,0,0,0-.716.264v-.05h0a.681.681,0,0,0-.161.209,2.114,2.114,0,0,0-.219.793,2.985,2.985,0,0,1-.346.959,2.133,2.133,0,0,1-.159.243h0l-.045.071a1.929,1.929,0,0,0,.9-.145,4.475,4.475,0,0,1-.264,1.057.877.877,0,0,0,.814-.486v-.021l.034-.048a2.229,2.229,0,0,0,.164-.383l-.029.032c.053-.172.1-.346.159-.515a.809.809,0,0,1,.129-.264.639.639,0,0,1,.547-.182l-.108,2.291h.048a3.126,3.126,0,0,1-.233.481c-.375.608-1.057,1.023-1.308,1.688a2.484,2.484,0,0,0-.122,1c0,.2.024.4.04.6v-.016a2.229,2.229,0,0,1-.238,1.456c-.2.291-.51.51-.618.84a.819.819,0,0,0-.04.285,3.2,3.2,0,0,0,.18.848.037.037,0,0,0,0-.016,1.289,1.289,0,0,1,.045.624c-.119.528-.761.97-.729,1.474a.567.567,0,0,0,.029.2,1.07,1.07,0,0,0,.6.528,2.325,2.325,0,0,0,1.342.3,1.766,1.766,0,0,0,.5-.172c-.185.425-.375.846-.568,1.245-.029.063-.061.127-.092.19,0,0-1.633-1.091-2.56,1.134a4.935,4.935,0,0,0-.573,1.49,3.549,3.549,0,0,1-.2.613,3.945,3.945,0,0,1-1.765,1.585c-1.892.867-9.533,10.4-9.668,12.865a14.4,14.4,0,0,1-.486,2.848,16.95,16.95,0,0,0-.454,6.735,12.885,12.885,0,0,0,.468,2.148,48.134,48.134,0,0,1,1.353,7.065l.877,7.985a22.724,22.724,0,0,0,.143,3.3c-.9,1.023-4.492,5.285-3.118,6.445,1.057.914,2.906.764,3.945.576a33.575,33.575,0,0,0-2.434,8.511c-.264,3.823.452,8.889,1.585,10.833s4.912,6.933,4.912,6.933-.177,6.844,1.173,9.33,1.895,7.644,1.895,7.644,1.26,4.354.629,5.956,1.171,2.933-.721,4-4.312,25.065-4.312,25.065-.975,15.729,0,16.53a.992.992,0,0,0,.166.1v5.285s-.676,1.11,2.074,1.334c1.884.151,7.224.491,10.392.69l2.455.153s5.813,1.157,8.381,0,7.121-1.131,6.445-4.188a8.7,8.7,0,0,0-.359-1.223c-.742-1.9-2-2.114-4.325-2.642-.135-.029-.264-.055-.383-.077-2.447-.425-3.25.713-4.621-.769-1.192-1.282-4.986-2.716-6.278-3.171.032-.1.071-.188.1-.285a1.935,1.935,0,0,1-.98-.478l3.5.222,2.085.129s4.941.986,7.134,0,6.051-.959,5.475-3.557a7.452,7.452,0,0,0-.3-1.041c-.632-1.612-1.7-1.789-3.678-2.235-.114-.024-.219-.048-.325-.066-2.079-.362-2.761.605-3.926-.653-1-1.073-4.151-2.275-5.285-2.685,0-.587-.793-1.422-1.292-2.259-.587-.978.5-4.4.5-4.4l.618-14.2a2.742,2.742,0,0,1,.74-.211s2.8-2.669,2.164-5.512a18.271,18.271,0,0,1-.2-2.6,13.344,13.344,0,0,0,2.545-2.891c.587-1.266,0-7.4,0-7.4v-23.45l4.677.473,4.243.436,1.292.132,4.243.428,9.753.986L380.883,244l3.8-.719,7.819-1.48v-19.13Zm-64.369-63.391-.544-.058C335.864,157.889,336.054,157.923,336.229,157.939Z" transform="translate(-259.207 -125.746)"/><path class="d" d="M501.494,437.123c-2.642,3.781-12.141,1.778-12.141,1.778l-7.361-6.888L481,431.08l1.662-3.53s.528.145,1.435.4C488.855,429.336,503.724,433.944,501.494,437.123Z" transform="translate(-379.072 -329.117)"/><path class="e" d="M484.091,427.954a15.5,15.5,0,0,1-2.1,4.059L481,431.08l1.662-3.53S483.2,427.7,484.091,427.954Z" transform="translate(-379.072 -329.117)"/><path class="f" d="M379.149,278.111s-6.785,3.01-6.452,10.4a121.85,121.85,0,0,0,1.554,14.2s-1.387,11.121,4.389,13.988,11.121,5.224,11.121,5.224,9.037.972,10.16,1.374,4.632-5.739,3.985-6.7-8.941-2.962-10-4.558a8.823,8.823,0,0,0-3.5-2.582s-2.523-1.527-2.7-2.906a6.274,6.274,0,0,1,.663-3.012c.169-.605.6-6.447.6-6.447S391.819,276.306,379.149,278.111Z" transform="translate(-299.377 -219.083)"/><path class="e" d="M390.517,370.39s-9.309,1.559-8.408,4.817A19.735,19.735,0,0,1,390.517,370.39Z" transform="translate(-306.265 -287.061)"/><path class="e" d="M402.545,375.38s-5.118,4.177-4.117,4.391S402.545,375.38,402.545,375.38Z" transform="translate(-318.222 -290.732)"/><path class="e" d="M421.446,380.89s-1.371,2.809-.528,2.618S421.446,380.89,421.446,380.89Z" transform="translate(-334.663 -294.786)"/><path class="e" d="M405.69,319.042l-.565-.161a1.616,1.616,0,0,0,.074-1.155c-.647-.957-8.936-2.959-9.99-4.558a8.776,8.776,0,0,0-3.5-2.582s-2.523-1.527-2.7-2.906a6.274,6.274,0,0,1,.663-3.012c.169-.605.6-6.45.6-6.45s2.84-20.792-9.829-18.987c0,0-6.785,3.012-6.455,10.4a121.5,121.5,0,0,0,1.556,14.2s-1.387,11.121,4.389,13.988,11.121,5.224,11.121,5.224,9.034.97,10.16,1.374c.425.153,1.194-.637,1.947-1.723l.428.4,7.361,6.886s9.5,2.005,12.141-1.776C425.324,325.029,410.459,320.421,405.69,319.042Z" transform="translate(-300.326 -219.907)"/><path class="g" d="M377.941,169.208a2.246,2.246,0,0,0-.732.283c-.264.219-.264.595-.33.922a3.033,3.033,0,0,1-.528,1.263,1.9,1.9,0,0,0,.88-.145,4.529,4.529,0,0,1-.264,1.057.856.856,0,0,0,.793-.484,5.09,5.09,0,0,0,.33-.927.764.764,0,0,1,.127-.264c.243-.288.695-.159,1.07-.122a1.757,1.757,0,0,0,1.607-.772c.4-.605.423-2.153-.528-2.317C379.37,167.538,378.752,168.907,377.941,169.208Z" transform="translate(-302.073 -137.919)"/><g class="h" transform="translate(74.316 31.504)"><path d="M378.338,174.644c.024-.129.04-.264.069-.394h0a1.55,1.55,0,0,0-.33.922,2.906,2.906,0,0,1-.156.558A3.028,3.028,0,0,0,378.338,174.644Z" transform="translate(-377.545 -174.25)"/><path d="M377.377,181.057a4.395,4.395,0,0,0,.264-1.057,1.892,1.892,0,0,1-.838.145,3.057,3.057,0,0,1-.3.528,1.881,1.881,0,0,0,.877-.143,4.393,4.393,0,0,1-.264,1.057.859.859,0,0,0,.793-.484,1.971,1.971,0,0,0,.159-.378.793.793,0,0,1-.687.33Z" transform="translate(-376.5 -178.481)"/><path d="M385.083,175.4c-.375-.037-.83-.166-1.073.122a.817.817,0,0,0-.127.264c-.024.069-.045.14-.063.211.251-.2.658-.092,1-.058a1.765,1.765,0,0,0,1.607-.772,1.464,1.464,0,0,0,.177-.415A1.76,1.76,0,0,1,385.083,175.4Z" transform="translate(-381.886 -174.618)"/></g><path class="f" d="M313.436,201l4.029,4.846-.526,4.891-4.87-7.623Z" transform="translate(-229.615 -147.888)"/><path class="e" d="M317.463,205.846l-.494,4.6-.032.291-4.394-6.88-.473-.742.137-.214,1.226-1.9.272.328Z" transform="translate(-229.615 -147.888)"/><path class="d" d="M389.151,211.371c-1.363.391-2.666,1.733-3.8,3.364a28.7,28.7,0,0,0-2.05,3.525c-.373.745-.7,1.461-.972,2.085l-.19.444c-.46,1.086-.716,1.813-.716,1.813s-10.437-7.848-8.786-8.376c.555-.177,1.284-1.366,2.005-2.864l.09-.19c.457-.962.906-2.035,1.305-3.044.816-2.074,1.422-3.876,1.422-3.876S393.312,210.182,389.151,211.371Z" transform="translate(-299.211 -164.819)"/><path class="i" d="M459.26,202.58s2.41,4.36,5.647,3.765S466.812,204,466.812,204Z" transform="translate(-363.076 -163.591)"/><path class="j" d="M387.54,745.079c-2.135.975-6.962,0-6.962,0l-2.035-.127c-2.642-.169-7.065-.454-8.63-.581-2.283-.188-1.723-1.123-1.723-1.123V737.6l11.076-2.806s4.378,1.5,5.578,2.806c1.139,1.247,1.8.288,3.837.647.1.018.206.04.317.066,1.929.441,2.975.616,3.594,2.214a7.426,7.426,0,0,1,.3,1.031C393.462,744.128,389.673,744.109,387.54,745.079Z" transform="translate(-296.025 -555.176)"/><path class="k" d="M392.592,750.14a8.273,8.273,0,0,1-1.247.639c-1.453.663-2.835,1.472-4.3,2.1a10.067,10.067,0,0,1-4.642.954,6.923,6.923,0,0,0-2.478-.026,5.725,5.725,0,0,0-1.377.764c-2.642-.169-7.065-.454-8.63-.581-2.283-.188-1.723-1.123-1.723-1.123V752.2c.082,0,.174-.024.28-.032a4.99,4.99,0,0,1,1.612.24c1.147.312,2.288.618,3.435.925a2.714,2.714,0,0,1,1.321-1.686,4.212,4.212,0,0,1,2.13-.489c1.778.024,3.461.867,5.237.951a2.885,2.885,0,0,0,1.451-.243c.243-.122.457-.3.695-.433a5.074,5.074,0,0,1,1.2-.4,26.35,26.35,0,0,0,3.422-1.1c.317-.124.687-.349.645-.687-.055-.449-.761-.5-.946-.914a.529.529,0,0,1,.021-.468c.1.018.206.04.317.066C390.928,748.367,391.974,748.542,392.592,750.14Z" transform="translate(-296.025 -564.793)"/><path class="j" d="M369.463,786.81c-2.51,1.147-8.191,0-8.191,0l-2.391-.14c-3.1-.2-8.313-.528-10.154-.684-2.687-.222-2.027-1.321-2.027-1.321V778l13.034-3.3s5.152,1.762,6.563,3.3c1.34,1.466,2.114.338,4.516.761.119.021.243.048.373.077,2.27.528,3.5.727,4.228,2.608a8.481,8.481,0,0,1,.351,1.213C376.421,785.689,371.974,785.665,369.463,786.81Z" transform="translate(-280.205 -584.541)"/><path class="k" d="M375.409,792.8a9.839,9.839,0,0,1-1.466.753c-1.71.779-3.337,1.731-5.065,2.468a11.875,11.875,0,0,1-5.464,1.123,7.971,7.971,0,0,0-2.906-.032,6.738,6.738,0,0,0-1.625.909c-3.1-.2-8.313-.528-10.154-.684-2.687-.222-2.027-1.321-2.027-1.321v-.777q.164-.027.33-.037a5.8,5.8,0,0,1,1.9.283l4.04,1.089a3.2,3.2,0,0,1,1.567-1.984,4.93,4.93,0,0,1,2.508-.576c2.093.029,4.072,1.02,6.162,1.12a3.412,3.412,0,0,0,1.7-.283c.288-.145.528-.354.819-.51a5.743,5.743,0,0,1,1.408-.476,31.631,31.631,0,0,0,4.006-1.3c.373-.148.809-.412.758-.809-.066-.528-.9-.592-1.115-1.078a.637.637,0,0,1,.026-.55c.119.021.243.048.373.077C373.451,790.714,374.682,790.92,375.409,792.8Z" transform="translate(-280.205 -595.894)"/><path class="i" d="M387.439,647.54l-.705,16.6s-1.057,3.39-.484,4.36,1.54,1.937,1.189,2.51-4.579,6.772-5.945,4.394-2.714-12.683-2.714-12.683l1.26-12.728Z" transform="translate(-303.861 -490.98)"/><path class="i" d="M412.093,491l1.961,2.621v22.8s.573,6.077,0,7.332-3.48,3.765-3.48,3.765l-2.444-12.551.528-13.277Z" transform="translate(-325.456 -375.802)"/><path class="l" d="M387.439,647.54l-.705,16.6s-1.057,3.39-.484,4.36,1.54,1.937,1.189,2.51-4.579,6.772-5.945,4.394-2.714-12.683-2.714-12.683l1.26-12.728Z" transform="translate(-303.861 -490.98)"/><path class="l" d="M412.093,491l1.961,2.621v22.8s.573,6.077,0,7.332-3.48,3.765-3.48,3.765l-2.444-12.551.528-13.277Z" transform="translate(-325.456 -375.802)"/><path class="m" d="M354.361,436.541v12.332l-2.2,9.6s-.706,23.165-.09,25.982-2.114,5.462-2.114,5.462-1.585.177-1.585,1.408-2.642,4.756-2.642,4.756l.087,6.87s1.147,12.86-.616,15.325.616,2.819.616,2.819c-2.2,7.221-12.77,5.549-13.724,4.756s0-16.382,0-16.382,2.362-23.78,4.212-24.837.09-2.378.706-3.963-.616-5.9-.616-5.9-.528-5.11-1.85-7.575-1.147-9.248-1.147-9.248-3.7-4.933-4.8-6.87-1.807-6.957-1.543-10.746a33.763,33.763,0,0,1,2.378-8.434c.41-1.028.706-1.694.706-1.694l.251.066,14.432,3.778Z" transform="translate(-265.763 -331.067)"/><path class="e" d="M399.106,211.319c-1.363.391-2.666,1.733-3.8,3.364h-.3a9.438,9.438,0,0,1-8.191-4.738,9.3,9.3,0,0,1-.83-1.889c.816-2.074,1.422-3.876,1.422-3.876S403.268,210.13,399.106,211.319Z" transform="translate(-309.166 -164.768)"/><path class="d" d="M403.272,179.876a9.446,9.446,0,1,1-17.672-4.629,9.231,9.231,0,0,1,1-1.443,9.559,9.559,0,0,1,2.172-1.908,9.446,9.446,0,0,1,14.488,7.287C403.264,179.417,403.272,179.646,403.272,179.876Z" transform="translate(-307.981 -139.93)"/><path class="e" d="M386.564,246.648l-.032.291-4.394-6.87c-.46,1.086-.716,1.813-.716,1.813s-10.437-7.858-8.786-8.387c.555-.177,1.284-1.366,2.005-2.864l.09-.19c.766,2.283,5.219,6.846,7.071,8.675.214.211.391.386.528.513l.283.264.148.148C383.436,240.734,386.279,243.8,386.564,246.648Z" transform="translate(-299.211 -184.089)"/><path class="n" d="M351.608,269.744l-.481,15.476-.085,2.756s-5.7-.528-11.013-1.11a71.717,71.717,0,0,1-8.936-1.268,16.819,16.819,0,0,0-3.831-.843c-1.036-.14-1.85-.214-1.85-.214s-.3.09-.772.174c-1.02.185-2.811.336-3.855-.571-1.334-1.16,2.172-5.374,3.047-6.386l.193-.219-.33-3.052-.859-7.914a48.286,48.286,0,0,0-1.321-7,12.911,12.911,0,0,1-.457-2.127,17.037,17.037,0,0,1,.444-6.674,14.558,14.558,0,0,0,.476-2.825c.132-2.444,7.6-11.89,9.446-12.749a3.921,3.921,0,0,0,1.892-1.887,3.6,3.6,0,0,0,.288-.822c.793-3.435,2.8-2.072,2.8-2.072.484,2.687,7.969,9.8,7.969,9.8l.148.148c.742.761,4.051,4.333,3.815,7.383a8.949,8.949,0,0,0,.5,3.34,56.479,56.479,0,0,1,2.6,14.8Z" transform="translate(-260.971 -183.876)"/><path class="e" d="M388.468,310.45s-1.85,4.492-3.237,5.219S389.128,317.2,388.468,310.45Z" transform="translate(-308.436 -242.958)"/><path class="e" d="M391.608,342.2s-4.228.528-4.228,1.321S391.608,342.2,391.608,342.2Z" transform="translate(-310.189 -266.319)"/><path class="e" d="M397.667,361.7s-6.143,13.079-7.861,13.476S397.667,361.7,397.667,361.7Z" transform="translate(-311.822 -280.667)"/><path class="e" d="M379.214,242.315l-5.081,2.209L368,235.26a3.6,3.6,0,0,0,.288-.822c.793-3.435,2.8-2.072,2.8-2.072.484,2.687,7.969,9.8,7.969,9.8Z" transform="translate(-295.93 -185.31)"/><path class="n" d="M380.214,240.315l-5.081,2.209L369,233.26a3.6,3.6,0,0,0,.288-.822c.793-3.435,2.8-2.072,2.8-2.072.484,2.687,7.969,9.8,7.969,9.8Z" transform="translate(-296.665 -183.839)"/><path class="e" d="M358.688,333.36s-5.7-.528-11.013-1.11l9.539,2.5v2.907c-.417.378-.779.573-1.015.473-1.1-.462-10.07-1.916-10.07-1.916s-5.211-2.642-10.833-5.813a4.348,4.348,0,0,1-.4-.248,6.247,6.247,0,0,1-1.665-1.667,11.833,11.833,0,0,1-1.765-5.329,23.052,23.052,0,0,1-.137-3.271,26.82,26.82,0,0,1,.338-3.7,121.559,121.559,0,0,1-.793-14.268c.066-7.4,7-10.041,7-10.041,12.749-1.123,8.8,19.487,8.8,19.487s-.737,5.813-.938,6.408a6.273,6.273,0,0,0-.824,2.973c.1,1.387,2.534,3.047,2.534,3.047a8.9,8.9,0,0,1,3.358,2.766c.713,1.218,5.348,2.87,7.966,4.048Z" transform="translate(-268.616 -229.26)"/><path class="e" d="M402.271,170.587a2.991,2.991,0,0,1-.264,1.263,7.806,7.806,0,0,1-.47.941,4.334,4.334,0,0,1-1.157,1.437,5.92,5.92,0,0,1-2.114.735,3.059,3.059,0,0,0-1.91,1.083,3.789,3.789,0,0,0-.447,1.295,2.785,2.785,0,0,1-.528,1.252,1.038,1.038,0,0,1-1.237.3,1.25,1.25,0,0,1-.478-.616,8.829,8.829,0,0,1-.5-2.164,4.6,4.6,0,0,0-.742-2.074,1.857,1.857,0,0,0-1.95-.748,1.879,1.879,0,0,0-1.057,1.025,5.876,5.876,0,0,0-.4,1.459q-.492,2.69-1.16,5.348a.491.491,0,0,1-.087.2.381.381,0,0,1-.264.111c-.592.079-1.16-.336-1.757-.291a1.01,1.01,0,0,0-.182.029,9.441,9.441,0,0,1,.954-10.781l.048-.013a2.848,2.848,0,0,0,1.057-.666,11.16,11.16,0,0,0,1.057-1.223l.211-.264a12.05,12.05,0,0,1,2.061-1.958,2.114,2.114,0,0,1,.7-.38,2.082,2.082,0,0,1,.666-.021,16.8,16.8,0,0,0,2.751.1,17.642,17.642,0,0,1,1.932-.2,5.946,5.946,0,0,1,4.156,2.523A3.908,3.908,0,0,1,402.271,170.587Z" transform="translate(-307.929 -136.507)"/><path class="g" d="M376.739,171.361c-.367.6-1.031,1.012-1.279,1.673-.365.959.251,2.153-.314,3.01-.188.288-.5.5-.6.832-.18.558.312,1.152.185,1.725s-.883,1.057-.682,1.617a1.057,1.057,0,0,0,.581.528,2.272,2.272,0,0,0,1.321.293c.721-.119,1.258-.827,1.99-.88.595-.042,1.163.37,1.754.293a.4.4,0,0,0,.264-.114.457.457,0,0,0,.087-.2q.666-2.655,1.163-5.348a5.761,5.761,0,0,1,.4-1.459,1.9,1.9,0,0,1,1.057-1.025,1.864,1.864,0,0,1,1.95.748,4.576,4.576,0,0,1,.745,2.074,8.947,8.947,0,0,0,.5,2.164,1.263,1.263,0,0,0,.481.618,1.035,1.035,0,0,0,1.234-.3,2.756,2.756,0,0,0,.528-1.255,3.774,3.774,0,0,1,.447-1.292,3.066,3.066,0,0,1,1.91-1.083,5.979,5.979,0,0,0,2.114-.737,4.349,4.349,0,0,0,1.157-1.435,4.224,4.224,0,0,0,.724-2.206,4.05,4.05,0,0,0-1.083-2.286A5.939,5.939,0,0,0,389.2,164.8a16.437,16.437,0,0,0-1.932.2,16.533,16.533,0,0,1-2.751-.106,2.161,2.161,0,0,0-.666.024,1.992,1.992,0,0,0-.7.38,12.056,12.056,0,0,0-2.064,1.955,15.148,15.148,0,0,1-1.274,1.48,2.867,2.867,0,0,1-1.057.668c-.264.074-.528.021-.779.1C377.2,169.746,377.1,170.764,376.739,171.361Z" transform="translate(-300.353 -135.793)"/><path class="o" d="M464.907,206.343c-2.114.388-3.866-1.321-4.835-2.568a10.361,10.361,0,0,1-.811-1.194l7.256,1.369.293.055S468.143,205.751,464.907,206.343Z" transform="translate(-363.076 -163.591)"/><g class="h" transform="translate(73.646 33.551)"><path d="M376.093,211.345a2.2,2.2,0,0,0-.153-1.015c0,.026-.024.053-.032.079a1.967,1.967,0,0,0,.137,1.089A.792.792,0,0,0,376.093,211.345Z" transform="translate(-375.365 -202.844)"/><path d="M379.055,197.8a5.872,5.872,0,0,0,.021,1.1A5.888,5.888,0,0,0,379.055,197.8Z" transform="translate(-377.698 -193.625)"/><path d="M393.671,183.7a4.334,4.334,0,0,1-1.157,1.437,5.9,5.9,0,0,1-2.114.735,3.052,3.052,0,0,0-1.91,1.083,3.806,3.806,0,0,0-.447,1.295,2.766,2.766,0,0,1-.528,1.255,1.031,1.031,0,0,1-1.234.3,1.263,1.263,0,0,1-.481-.618,8.8,8.8,0,0,1-.5-2.164,4.565,4.565,0,0,0-.745-2.074,1.857,1.857,0,0,0-1.95-.748,1.887,1.887,0,0,0-1.057,1.025,5.759,5.759,0,0,0-.4,1.459q-.494,2.692-1.163,5.348a.457.457,0,0,1-.087.2.4.4,0,0,1-.264.114c-.592.077-1.16-.336-1.754-.293-.732.053-1.268.761-1.99.877a2.233,2.233,0,0,1-1.321-.293,1.414,1.414,0,0,1-.484-.343.713.713,0,0,0-.1.616,1.03,1.03,0,0,0,.581.528,2.233,2.233,0,0,0,1.321.293c.721-.116,1.258-.824,1.99-.877.595-.042,1.163.37,1.754.293a.4.4,0,0,0,.264-.114.457.457,0,0,0,.087-.2q.666-2.642,1.163-5.348a5.761,5.761,0,0,1,.4-1.459A1.887,1.887,0,0,1,382.608,185a1.859,1.859,0,0,1,1.95.748,4.577,4.577,0,0,1,.745,2.074,8.946,8.946,0,0,0,.5,2.164,1.263,1.263,0,0,0,.481.618,1.035,1.035,0,0,0,1.234-.3,2.766,2.766,0,0,0,.528-1.255,3.807,3.807,0,0,1,.447-1.295,3.078,3.078,0,0,1,1.91-1.083,6.026,6.026,0,0,0,2.114-.735,4.333,4.333,0,0,0,1.157-1.437,4.207,4.207,0,0,0,.724-2.2,2.833,2.833,0,0,0-.032-.3,5.192,5.192,0,0,1-.692,1.7Z" transform="translate(-373.964 -182)"/></g><path class="e" d="M405.447,175.271a9.335,9.335,0,0,1,1.176,3.924c-2.354-1.321-4.568-2.772-5.686-3.276-1.947-.88-9.229-.748-11.967-.666a9.229,9.229,0,0,1,1-1.443,9.559,9.559,0,0,1,2.18-1.908,9.451,9.451,0,0,1,13.312,3.364Z" transform="translate(-311.359 -139.936)"/><path class="e" d="M465.567,205.222c-1.271.391-3.345-.365-5.5-1.448a10.361,10.361,0,0,1-.811-1.194l7.256,1.369C467,204.276,467.118,204.744,465.567,205.222Z" transform="translate(-363.076 -163.591)"/><path class="p" d="M394.875,154.047s-6.936-.4-8.886,3.369l-.314,3.337-.528-.058-.106,2.27s10.6-.462,13.013.626,9.909,6.574,12.913,5.649-.264-1.784-.264-1.784-4.135-1.752-4.135-3.126S405.541,155.7,394.875,154.047Z" transform="translate(-308.467 -127.872)"/><path class="e" d="M371.63,622.28s4.426,4.294,6.341,3.963C377.971,626.243,372.555,625.781,371.63,622.28Z" transform="translate(-298.6 -472.394)"/><path class="e" d="M368.13,629.81s.4,2.209,1.453,1.992S368.13,629.81,368.13,629.81Z" transform="translate(-296.025 -477.935)"/><path class="e" d="M379.5,769.53s-6.283,4.888-5.224,5.02S379.5,769.53,379.5,769.53Z" transform="translate(-300.458 -580.737)"/><path class="q" d="M330.96,338.111l20.346-3.311v19.262l-19.331-1.012Z" transform="translate(-243.514 -246.334)"/><path class="r" d="M330.96,338.111l20.346-3.311v19.262l-19.331-1.012Z" transform="translate(-243.514 -246.334)"/><path class="q" d="M407.96,334.8l24.4,1.826-1.35,16.763-23.049.674Z" transform="translate(-300.169 -246.334)"/><path class="s" d="M407.96,334.8l24.4,1.826-1.35,16.763-23.049.674Z" transform="translate(-300.169 -246.334)"/><path class="t" d="M415.461,312.55l-7.5,5.879,24.4,1.826,3.987-6.016Z" transform="translate(-300.169 -229.963)"/><path class="t" d="M303.08,316.82l18.316-2.23,9.4,5.34-20.346,3.311Z" transform="translate(-223.001 -231.464)"/><path class="u" d="M355.766,349.021v26.336l-9.531-.978-4.146-.423-1.263-.132-4.143-.425-5.723-.587V347.33l20.343,1.385Z" transform="translate(-243.514 -255.553)"/><path class="v" d="M444.779,341.71v25.683l-7.639,1.466-3.715.713-8.585,1.649V344.886Z" transform="translate(-312.589 -251.418)"/><path class="w" d="M444.779,341.71v25.683l-7.639,1.466-3.715.713-8.585,1.649V344.886Z" transform="translate(-312.589 -251.418)"/><path class="q" d="M303.08,352.873l7.367-5.543,24.806,1.691-3.652,6.151Z" transform="translate(-223.001 -255.553)"/><path class="x" d="M303.08,352.873l7.367-5.543,24.806,1.691-3.652,6.151Z" transform="translate(-223.001 -255.553)"/><path class="q" d="M444.779,341.71l-19.939,3.176,6.489,5.813,21.358-3.583Z" transform="translate(-312.589 -251.418)"/><path class="x" d="M444.779,341.71l-19.939,3.176,6.489,5.813,21.358-3.583Z" transform="translate(-312.589 -251.418)"/><path class="y" d="M461.045,428.722l-3.715.713v-5.488l3.48-.877Z" transform="translate(-336.494 -311.281)"/><path class="y" d="M377.226,435.96v3.63l-4.146-.423V435.96Z" transform="translate(-274.505 -320.765)"/><path class="y" d="M356.763,440.29v1.931l-4.143-.425V440.29Z" transform="translate(-259.451 -323.951)"/><path class="e" d="M454.557,454.269c-2.84,3.633-12.221,1.123-12.221,1.123l-6.97-7.272-.946-.986,1.85-3.435s.528.174,1.411.481C442.352,445.814,456.948,451.212,454.557,454.269Z" transform="translate(-344.8 -341)"/><path class="d" d="M453.557,452.269c-2.84,3.633-12.221,1.123-12.221,1.123l-6.97-7.272-.946-.986,1.85-3.435s.528.174,1.411.481C441.352,443.814,455.948,449.212,453.557,452.269Z" transform="translate(-344.064 -339.529)"/><path class="e" d="M436.641,442.181a15.619,15.619,0,0,1-2.315,3.94l-.946-.986,1.85-3.435S435.761,441.874,436.641,442.181Z" transform="translate(-344.034 -339.529)"/><path class="n" d="M338.88,287.874s-6.936,2.642-7,10.041a121.56,121.56,0,0,0,.793,14.268s-1.982,11.031,3.633,14.2,10.833,5.813,10.833,5.813,8.971,1.453,10.072,1.916,4.93-5.483,4.336-6.474-8.762-3.435-9.732-5.086a8.8,8.8,0,0,0-3.358-2.764s-2.436-1.662-2.534-3.049a6.242,6.242,0,0,1,.824-2.973c.2-.595.941-6.408.941-6.408S351.629,286.738,338.88,287.874Z" transform="translate(-269.352 -226.314)"/><path class="e" d="M346.172,380.7s-9.38,1.057-8.653,4.36A19.734,19.734,0,0,1,346.172,380.7Z" transform="translate(-273.472 -294.646)"/><path class="e" d="M357.943,385.7s-5.324,3.9-4.347,4.162S357.943,385.7,357.943,385.7Z" transform="translate(-285.244 -298.325)"/><path class="e" d="M376.808,391.7s-1.519,2.732-.661,2.589S376.808,391.7,376.808,391.7Z" transform="translate(-301.731 -302.74)"/><path class="z" d="M724.042,167.384s-10.041-.605-8.867,6.439a1.718,1.718,0,0,0,.893,1.81s.018-.528,1.031-.346a4.626,4.626,0,0,0,1.091.053,2.264,2.264,0,0,0,1.337-.552h0s2.825-1.165,3.924-5.784c0,0,.814-1.009.793-1.268l-1.7.727a3.04,3.04,0,0,1,.122,2.241s-.053-2.2-.38-2.146c-.066,0-.88.425-.88.425s1,2.13.243,3.681c0,0,.285-2.626-.555-3.527l-1.194.7s1.165,2.2.375,4c0,0,.2-2.756-.626-3.829l-1.083.843s1.1,2.172.428,3.662c0,0-.087-3.208-.663-3.451a6.536,6.536,0,0,0-1.089,1.178s.748,1.585.283,2.407c0,0-.285-2.138-.529-2.148a7.113,7.113,0,0,0-1.041,2.378,5.141,5.141,0,0,1,.811-2.521,2.83,2.83,0,0,0-1.443.748s.145-1,1.675-1.089a7.226,7.226,0,0,1,.988-1.141,6.2,6.2,0,0,0-2.444.283,2.769,2.769,0,0,1,2.724-.528l1.057-.872a9.117,9.117,0,0,0-2.854.029s.978-.835,3.142-.227l1.163-.695a10.438,10.438,0,0,0-2.724-.235,4.18,4.18,0,0,1,3.065.048l.832-.373s-1.252-.246-1.617-.285-.386-.14-.386-.14a4.323,4.323,0,0,1,2.349.264A10.368,10.368,0,0,0,724.042,167.384Z" transform="translate(-551.301 -137.685)"/><path class="aa" d="M839.5,300.724s-10.041-.605-8.867,6.439a1.718,1.718,0,0,0,.893,1.81s.018-.528,1.033-.346a4.624,4.624,0,0,0,1.091.053,2.261,2.261,0,0,0,1.321-.55h0s2.827-1.168,3.926-5.787c0,0,.811-1.007.779-1.266l-1.7.724a3.049,3.049,0,0,1,.124,2.241s-.056-2.2-.38-2.146c-.066,0-.883.425-.883.425s1,2.132.246,3.681c0,0,.285-2.626-.557-3.527l-1.181.69s1.165,2.2.375,4c0,0,.2-2.756-.626-3.829l-1.081.846s1.094,2.169.428,3.66c0,0-.087-3.208-.663-3.451a6.627,6.627,0,0,0-1.091,1.178s.75,1.585.285,2.407c0,0-.285-2.138-.528-2.148a7.113,7.113,0,0,0-1.041,2.378,5.158,5.158,0,0,1,.814-2.521,2.843,2.843,0,0,0-1.445.748s.148-1,1.678-1.089a6.6,6.6,0,0,1,.988-1.141,6.2,6.2,0,0,0-2.444.283,2.745,2.745,0,0,1,2.722-.515l1.057-.872a9.12,9.12,0,0,0-2.854.029s.978-.835,3.142-.227l1.163-.695a10.588,10.588,0,0,0-2.727-.235,4.188,4.188,0,0,1,3.068.048l.832-.373s-1.252-.246-1.62-.285-.386-.14-.386-.14a4.331,4.331,0,0,1,2.352.264A10.659,10.659,0,0,0,839.5,300.724Z" transform="translate(-636.253 -235.793)"/><path class="aa" d="M614.527,249.435s2.312-9.8-4.833-9.835a1.716,1.716,0,0,0-1.934.571s.51.108.164,1.075a4.7,4.7,0,0,0-.238,1.057,2.27,2.27,0,0,0,.314,1.408h0s.669,2.986,5.02,4.856c0,0,.856.972,1.115.983l-.423-1.794a3.036,3.036,0,0,1-2.23-.264s2.175.32,2.177,0c0-.066-.264-.941-.264-.941s-2.27.618-3.67-.388c0,0,2.539.729,3.572.055l-.476-1.3s-2.378.774-4.006-.312c0,0,2.682.671,3.881.037l-.647-1.21s-2.325.708-3.681-.2c0,0,3.171.46,3.514-.063a6.564,6.564,0,0,0-.975-1.276s-1.68.47-2.42-.129c0,0,2.153.082,2.2-.145a7.123,7.123,0,0,0-2.175-1.435,5.179,5.179,0,0,1,2.349,1.231,2.851,2.851,0,0,0-.491-1.551s.962.317.793,1.85a6.582,6.582,0,0,1,.954,1.168,6.214,6.214,0,0,0,.137-2.457,2.746,2.746,0,0,1,.045,2.772l.676,1.2a8.769,8.769,0,0,0,.457-2.817s.658,1.1-.312,3.134l.489,1.266a10.581,10.581,0,0,0,.695-2.642,4.177,4.177,0,0,1-.571,3.015l.227.883s.454-1.192.555-1.546.2-.357.2-.357a4.328,4.328,0,0,1-.658,2.272A10.494,10.494,0,0,0,614.527,249.435Z" transform="translate(-472.275 -190.758)"/><path class="aa" d="M518.58,282.662s-8.064-6.032-10.947.5a1.72,1.72,0,0,0-.248,2s.3-.425,1.057.28a4.625,4.625,0,0,0,.883.645,2.267,2.267,0,0,0,1.419.264h0s3,.579,6.458-2.674c0,0,1.234-.4,1.35-.629l-1.82-.32a3.053,3.053,0,0,1-1.128,1.939s1.16-1.865.859-2c-.061-.029-.97-.132-.97-.132s-.338,2.331-1.818,3.21c0,0,1.683-2.037,1.474-3.253l-1.382-.074s-.235,2.481-1.884,3.549c0,0,1.683-2.19,1.585-3.543l-1.369.111s-.277,2.412-1.654,3.29c0,0,1.688-2.727,1.342-3.245a6.642,6.642,0,0,0-1.559.383s-.24,1.728-1.086,2.167c0,0,.938-1.942.748-2.077a7.1,7.1,0,0,0-2.182,1.419,5.16,5.16,0,0,1,2.066-1.659,2.846,2.846,0,0,0-1.617-.169s.671-.756,2,.013a6.67,6.67,0,0,1,1.453-.41,6.183,6.183,0,0,0-2.2-1.107,2.751,2.751,0,0,1,2.56,1.057l1.371-.14a9.05,9.05,0,0,0-2.4-1.543s1.276-.161,2.748,1.535l1.353.061a10.547,10.547,0,0,0-2.146-1.7,4.178,4.178,0,0,1,2.534,1.725l.9.145s-.912-.893-1.2-1.126-.246-.33-.246-.33a4.341,4.341,0,0,1,1.82,1.511A10.684,10.684,0,0,0,518.58,282.662Z" transform="translate(-398.317 -220.645)"/><path class="aa" d="M620.19,70.549s-8.064-6.035-10.947.5a1.72,1.72,0,0,0-.248,2s.3-.425,1.057.28a4.7,4.7,0,0,0,.885.642,2.265,2.265,0,0,0,1.419.264h0s3,.579,6.458-2.677c0,0,1.234-.394,1.348-.629l-1.821-.314a3.039,3.039,0,0,1-1.128,1.939s1.163-1.865.861-2c-.061-.029-.97-.132-.97-.132s-.349,2.336-1.828,3.21c0,0,1.68-2.037,1.474-3.253l-1.382-.074s-.238,2.481-1.884,3.546c0,0,1.683-2.19,1.585-3.543l-1.366.111s-.28,2.415-1.657,3.292c0,0,1.691-2.727,1.345-3.245a6.643,6.643,0,0,0-1.559.383s-.24,1.728-1.086,2.167c0,0,.938-1.942.748-2.079a7.129,7.129,0,0,0-2.183,1.422,5.137,5.137,0,0,1,2.066-1.659,2.827,2.827,0,0,0-1.62-.169s.674-.756,2,.013a6.527,6.527,0,0,1,1.453-.41,6.218,6.218,0,0,0-2.2-1.11,2.755,2.755,0,0,1,2.558,1.057l1.371-.14a9.06,9.06,0,0,0-2.4-1.546s1.276-.159,2.751,1.538l1.353.058A10.439,10.439,0,0,0,614.5,68.3a4.179,4.179,0,0,1,2.537,1.725l.9.145s-.914-.883-1.2-1.11-.246-.328-.246-.328a4.333,4.333,0,0,1,1.821,1.511A11.407,11.407,0,0,0,620.19,70.549Z" transform="translate(-473.079 -64.577)"/><path class="aa" d="M738.983,87.991s-3.224-9.541-9.3-5.792a1.737,1.737,0,0,0-1.34,1.509s.489-.18.705.824a4.759,4.759,0,0,0,.362,1.033,2.288,2.288,0,0,0,1.015,1.028h0s2.146,2.18,6.838,1.459c0,0,1.239.375,1.466.246L737.406,87a3.039,3.039,0,0,1-2.029.957s2.016-.877,1.85-1.16c-.034-.055-.724-.655-.724-.655s-1.6,1.725-3.319,1.612c0,0,2.539-.724,3.057-1.85l-1.094-.843s-1.6,1.908-3.564,1.85c0,0,2.642-.848,3.311-2.021L733.7,84.2s-1.585,1.831-3.229,1.773c0,0,2.938-1.287,2.946-1.91a6.605,6.605,0,0,0-1.5-.568s-1.178,1.287-2.114,1.171c0,0,1.871-1.07,1.791-1.289a7.089,7.089,0,0,0-2.6-.066,5.15,5.15,0,0,1,2.642-.2,2.851,2.851,0,0,0-1.239-1.057s.983-.24,1.641,1.144a6.655,6.655,0,0,1,1.427.486,6.21,6.21,0,0,0-1.181-2.159,2.752,2.752,0,0,1,1.5,2.33l1.21.661a8.919,8.919,0,0,0-1.1-2.642s1.144.592,1.393,2.825l1.083.816a10.5,10.5,0,0,0-.809-2.616,4.183,4.183,0,0,1,1.11,2.862l.658.629s-.243-1.252-.344-1.607-.019-.378-.019-.378a4.357,4.357,0,0,1,.642,2.278A10.531,10.531,0,0,0,738.983,87.991Z" transform="translate(-561.058 -74.375)"/><path class="aa" d="M663.282,108.153s-10.014-1.115-9.187,5.99a1.715,1.715,0,0,0,.793,1.85s.045-.528,1.057-.291a4.862,4.862,0,0,0,1.089.108,2.272,2.272,0,0,0,1.361-.484h0s2.883-1.023,4.228-5.58c0,0,.861-.964.843-1.226l-1.731.639a2.947,2.947,0,0,1,0,2.243s.055-2.2-.264-2.161c-.066,0-.9.38-.9.38s.888,2.18.058,3.7c0,0,.417-2.611-.378-3.551l-1.229.634s1.057,2.259.172,4.014c0,0,.344-2.743-.431-3.855l-1.123.793s.983,2.222.24,3.678c0,0,.077-3.208-.486-3.48a6.875,6.875,0,0,0-1.149,1.12s.669,1.612.164,2.418c0,0-.177-2.148-.41-2.169a7.105,7.105,0,0,0-1.163,2.33,5.144,5.144,0,0,1,.941-2.478,2.843,2.843,0,0,0-1.48.674s.2-.991,1.728-1c0,0,.832-1.033,1.057-1.089a6.212,6.212,0,0,0-2.457.159,2.741,2.741,0,0,1,2.745-.378l1.112-.816a8.569,8.569,0,0,0-2.862-.143s1.02-.793,3.15-.066l1.2-.637a10.52,10.52,0,0,0-2.711-.373,4.15,4.15,0,0,1,3.06.2l.851-.33s-1.239-.309-1.6-.367-.378-.159-.378-.159a4.347,4.347,0,0,1,2.336.38A10.807,10.807,0,0,0,663.282,108.153Z" transform="translate(-506.395 -94.067)"/><path class="aa" d="M994.9,402.323s-10.009-1.115-9.182,5.982a1.715,1.715,0,0,0,.793,1.85s.045-.528,1.057-.293a4.568,4.568,0,0,0,1.089.108,2.254,2.254,0,0,0,1.361-.484h0s2.883-1.023,4.214-5.578c0,0,.861-.967.843-1.226l-1.731.637a2.954,2.954,0,0,1,0,2.246s.055-2.2-.264-2.161c-.066,0-.9.378-.9.378s.888,2.18.058,3.7c0,0,.418-2.608-.378-3.551l-1.229.637s1.057,2.259.174,4.014c0,0,.341-2.743-.433-3.858l-1.123.793s.983,2.222.24,3.675c0,0,.077-3.208-.486-3.477a6.977,6.977,0,0,0-1.149,1.12s.671,1.612.164,2.418c0,0-.177-2.148-.41-2.169a7.105,7.105,0,0,0-1.163,2.331,5.145,5.145,0,0,1,.941-2.478,2.819,2.819,0,0,0-1.48.674s.2-.993,1.728-1c0,0,.835-1.033,1.057-1.086a6.191,6.191,0,0,0-2.457.156,2.749,2.749,0,0,1,2.748-.375l1.11-.816a8.83,8.83,0,0,0-2.851-.116s1.02-.793,3.15-.069l1.2-.634a10.521,10.521,0,0,0-2.711-.373,4.15,4.15,0,0,1,3.06.2l.851-.333s-1.239-.309-1.6-.365-.378-.159-.378-.159a4.33,4.33,0,0,1,2.336.378A10.353,10.353,0,0,0,994.9,402.323Z" transform="translate(-750.391 -310.509)"/><path class="aa" d="M1052.807,437.7s-10.009-1.112-9.182,5.982a1.72,1.72,0,0,0,.793,1.85s.045-.528,1.057-.291a4.664,4.664,0,0,0,1.086.106,2.283,2.283,0,0,0,1.355-.481h0s2.88-1.023,4.212-5.581c0,0,.864-.964.843-1.226l-1.731.637a2.954,2.954,0,0,1,0,2.246s.056-2.2-.264-2.161c-.066,0-.9.378-.9.378s.888,2.18.058,3.7c0,0,.417-2.608-.378-3.549l-1.229.634s1.057,2.259.174,4.014c0,0,.341-2.743-.433-3.855l-1.123.793s.983,2.222.243,3.678c0,0,.074-3.21-.489-3.48a6.977,6.977,0,0,0-1.149,1.12s.671,1.612.164,2.418c0,0-.177-2.148-.41-2.169a7.065,7.065,0,0,0-1.16,2.331,5.157,5.157,0,0,1,.938-2.478,2.843,2.843,0,0,0-1.48.674s.2-.993,1.731-1c0,0,.832-1.033,1.057-1.089a6.212,6.212,0,0,0-2.457.159,2.745,2.745,0,0,1,2.748-.378l1.11-.816a8.83,8.83,0,0,0-2.851-.116s1.02-.793,3.15-.066l1.2-.637a10.522,10.522,0,0,0-2.711-.373,4.15,4.15,0,0,1,3.06.2l.851-.33s-1.239-.309-1.6-.367-.38-.159-.38-.159a4.347,4.347,0,0,1,2.336.38A10.452,10.452,0,0,0,1052.807,437.7Z" transform="translate(-793 -336.541)"/><path class="aa" d="M918.13,132.8s-8.064-6.032-10.947.5a1.72,1.72,0,0,0-.248,2s.3-.425,1.057.28a4.623,4.623,0,0,0,.883.645,2.27,2.27,0,0,0,1.419.264h0s3,.579,6.46-2.674c0,0,1.231-.4,1.348-.629l-1.815-.328a3.053,3.053,0,0,1-1.128,1.939s1.16-1.865.859-2c-.061-.029-.967-.132-.967-.132s-.341,2.33-1.821,3.21c0,0,1.683-2.037,1.474-3.253l-1.382-.074s-.235,2.481-1.884,3.549c0,0,1.686-2.19,1.585-3.543l-1.369.111s-.264,2.412-1.654,3.29c0,0,1.691-2.727,1.342-3.245a6.642,6.642,0,0,0-1.559.383s-.238,1.728-1.083,2.167c0,0,.935-1.942.745-2.077a7.1,7.1,0,0,0-2.183,1.419,5.161,5.161,0,0,1,2.066-1.659,2.846,2.846,0,0,0-1.617-.169s.674-.756,2,.013a6.643,6.643,0,0,1,1.451-.41,6.183,6.183,0,0,0-2.2-1.107,2.751,2.751,0,0,1,2.56,1.057l1.371-.14a9,9,0,0,0-2.4-1.543s1.276-.161,2.748,1.535l1.356.061a10.593,10.593,0,0,0-2.148-1.7,4.171,4.171,0,0,1,2.534,1.725l.9.145s-.912-.893-1.2-1.126-.243-.309-.243-.309a4.344,4.344,0,0,1,1.818,1.511A10.611,10.611,0,0,0,918.13,132.8Z" transform="translate(-692.295 -110.382)"/><path class="aa" d="M944.45,285.317s-2.78-9.679-9.031-6.2a1.717,1.717,0,0,0-1.408,1.445s.5-.156.668.856a4.685,4.685,0,0,0,.317,1.057,2.27,2.27,0,0,0,.967,1.078h0s2.045,2.272,6.764,1.765c0,0,1.221.428,1.453.312l-1.25-1.358a3.038,3.038,0,0,1-2.069.867s2.05-.793,1.892-1.075c-.032-.058-.692-.69-.692-.69s-1.675,1.654-3.387,1.461c0,0,2.571-.608,3.136-1.7l-1.057-.893s-1.686,1.834-3.644,1.691c0,0,2.663-.732,3.4-1.871l-1.157-.737s-1.678,1.757-3.305,1.625c0,0,2.994-1.155,3.031-1.776a6.6,6.6,0,0,0-1.477-.634s-1.234,1.231-2.172,1.073c0,0,1.918-.986,1.85-1.208a7.136,7.136,0,0,0-2.6-.185,5.155,5.155,0,0,1,2.642-.077,2.835,2.835,0,0,0-1.189-1.11s.994-.2,1.585,1.215a6.592,6.592,0,0,1,1.4.55,6.18,6.18,0,0,0-1.083-2.209,2.745,2.745,0,0,1,1.4,2.394l1.178.716a8.788,8.788,0,0,0-.983-2.679s1.115.642,1.266,2.883l1.057.864a10.48,10.48,0,0,0-.69-2.642,4.175,4.175,0,0,1,.98,2.907l.629.661s-.185-1.263-.264-1.622,0-.41,0-.41a4.33,4.33,0,0,1,.542,2.3A10.489,10.489,0,0,0,944.45,285.317Z" transform="translate(-712.384 -219.348)"/><path class="aa" d="M707.411,373.2s-5.4-8.5-10.411-3.414a1.709,1.709,0,0,0-.946,1.784s.436-.291.885.634a4.523,4.523,0,0,0,.6.914,2.257,2.257,0,0,0,1.229.761h0s2.6,1.607,6.989-.211c0,0,1.292.069,1.482-.108l-1.585-.951a3.037,3.037,0,0,1-1.744,1.414s1.749-1.321,1.514-1.564c-.045-.048-.859-.465-.859-.465s-1.144,2.056-2.84,2.354c0,0,2.3-1.308,2.534-2.518l-1.266-.557s-1.1,2.233-3.02,2.642c0,0,2.352-1.451,2.735-2.751l-1.321-.38s-1.115,2.159-2.714,2.489c0,0,2.547-1.95,2.407-2.558a6.564,6.564,0,0,0-1.585-.193s-.838,1.53-1.784,1.641c0,0,1.564-1.485,1.435-1.68a7.119,7.119,0,0,0-2.544.555,5.142,5.142,0,0,1,2.521-.819,2.835,2.835,0,0,0-1.451-.732s.9-.468,1.85.721a6.527,6.527,0,0,1,1.5.132,6.082,6.082,0,0,0-1.662-1.815s1.242.106,2.013,1.905l1.334.354a8.834,8.834,0,0,0-1.7-2.293s1.25.3,2.024,2.412l1.247.528a10.531,10.531,0,0,0-1.408-2.346,4.163,4.163,0,0,1,1.757,2.513l.793.457s-.528-1.16-.716-1.48-.114-.394-.114-.394a4.333,4.333,0,0,1,1.165,2.058A10.748,10.748,0,0,0,707.411,373.2Z" transform="translate(-537.285 -285.425)"/><path class="z" d="M841.85,208.189s-5.134-8.664-10.3-3.734a1.718,1.718,0,0,0-1,1.754s.441-.28.864.658a4.567,4.567,0,0,0,.568.935,2.244,2.244,0,0,0,1.2.793h0s2.55,1.686,6.991,0c0,0,1.289.108,1.485-.063l-1.551-1a3.038,3.038,0,0,1-1.786,1.358s1.789-1.276,1.564-1.517c-.048-.05-.846-.494-.846-.494s-1.208,2.021-2.906,2.267c0,0,2.336-1.237,2.608-2.436l-1.247-.587s-1.171,2.2-3.1,2.552c0,0,2.4-1.377,2.819-2.663l-1.305-.423s-1.184,2.114-2.79,2.4c0,0,2.605-1.871,2.484-2.481a6.525,6.525,0,0,0-1.585-.243s-.885,1.5-1.834,1.585c0,0,1.609-1.432,1.488-1.633a7.112,7.112,0,0,0-2.56.476,5.158,5.158,0,0,1,2.544-.74,2.841,2.841,0,0,0-1.43-.777s.912-.441,1.85.777a6.694,6.694,0,0,1,1.5.18,6.32,6.32,0,0,0-1.6-1.865s1.237.143,1.953,1.966l1.321.4a8.784,8.784,0,0,0-1.625-2.346s1.242.341,1.95,2.473l1.229.573a10.618,10.618,0,0,0-1.321-2.378,4.18,4.18,0,0,1,1.68,2.566l.774.481s-.5-1.176-.671-1.5-.1-.4-.1-.4a4.341,4.341,0,0,1,1.1,2.093A10.229,10.229,0,0,0,841.85,208.189Z" transform="translate(-636.246 -163.854)"/><path class="z" d="M726.741,267.3s.264-10.067-6.73-8.648a1.722,1.722,0,0,0-1.781.954s.528,0,.38,1.017a4.639,4.639,0,0,0-.016,1.094,2.259,2.259,0,0,0,.595,1.321h0s1.26,2.785,5.913,3.731c0,0,1.033.779,1.292.737l-.793-1.67a3.05,3.05,0,0,1-2.235.2s2.193-.129,2.132-.452c0-.066-.454-.869-.454-.869s-2.1,1.07-3.67.367c0,0,2.642.2,3.506-.671l-.737-1.171s-2.161,1.237-3.985.507c0,0,2.761.111,3.807-.753l-.88-1.057s-2.132,1.168-3.644.55c0,0,3.2-.193,3.435-.777a6.854,6.854,0,0,0-1.215-1.057s-1.548.793-2.394.365c0,0,2.114-.354,2.127-.589a7.091,7.091,0,0,0-2.42-.962,5.144,5.144,0,0,1,2.55.729,2.839,2.839,0,0,0-.793-1.419s1.007.114,1.144,1.638a6.568,6.568,0,0,1,1.173.951,6.179,6.179,0,0,0-.365-2.434,2.742,2.742,0,0,1,.608,2.7l.906,1.041a8.845,8.845,0,0,0-.124-2.851s.867.949.333,3.131l.732,1.139a10.536,10.536,0,0,0,.145-2.732,4.193,4.193,0,0,1,.053,3.068l.4.819s.2-1.26.23-1.628.127-.391.127-.391a4.339,4.339,0,0,1-.182,2.36A10.067,10.067,0,0,0,726.741,267.3Z" transform="translate(-553.619 -204.743)"/><ellipse class="b" cx="7.116" cy="1.202" rx="7.116" ry="1.202" transform="translate(177.569 188.067)"/><ellipse class="b" cx="7.116" cy="1.202" rx="7.116" ry="1.202" transform="translate(151.629 206.319)"/><ellipse class="b" cx="7.116" cy="1.202" rx="7.116" ry="1.202" transform="translate(17.491 196.968)"/><ellipse class="b" cx="7.116" cy="1.202" rx="7.116" ry="1.202" transform="translate(205.601 205.117)"/><ellipse class="z" cx="10.625" cy="1.797" rx="10.625" ry="1.797" transform="translate(209.501 189.269)"/><path class="z" d="M917.633,753.373a3.068,3.068,0,0,0,1.012-1.527,1.357,1.357,0,0,0-.705-1.556,2,2,0,0,0-1.873.655,2.51,2.51,0,0,1-1.818.88,2.774,2.774,0,0,0,.856-2.592,1.086,1.086,0,0,0-.238-.528c-.362-.386-1.015-.219-1.448.085-1.374.967-1.757,2.833-1.765,4.513a8.482,8.482,0,0,1-.024-1.85,1.9,1.9,0,0,0-.7-1.643,2.09,2.09,0,0,0-1.057-.264,2.207,2.207,0,0,0-1.728.491,1.7,1.7,0,0,0,.066,2.114A6.832,6.832,0,0,0,910,753.582a4,4,0,0,1,1.279,1.218,1.241,1.241,0,0,1,.092.217h3.874a10.685,10.685,0,0,0,2.389-1.643Z" transform="translate(-693.103 -565.249)"/><path class="ab" d="M170.29,777.764s4.056-.124,5.285-1,6.244-1.91,6.548-.513,6.1,6.947,1.517,6.984-10.646-.713-11.866-1.459S170.29,777.764,170.29,777.764Z" transform="translate(-150.46 -585.182)"/><path class="ac" d="M183.715,788.844c-4.582.037-10.646-.713-11.866-1.459-.93-.565-1.3-2.6-1.424-3.535h-.135s.264,3.274,1.477,4.016,7.285,1.5,11.866,1.459c1.321,0,1.778-.481,1.754-1.178C185.2,788.572,184.7,788.836,183.715,788.844Z" transform="translate(-150.46 -591.273)"/></g><text class="ad" transform="translate(1075 572)"><tspan x="0" y="0">Tidak Ada Data</tspan></text></g></svg>