<svg id="OBJECTS" xmlns="http://www.w3.org/2000/svg" xmlns:xlink="http://www.w3.org/1999/xlink" viewBox="0 0 600.93 297"><defs><radialGradient id="radial-gradient" cx="542.8" cy="233.75" r="112.3" gradientTransform="matrix(1, 0, 0, -1, -92, 374.55)" gradientUnits="userSpaceOnUse"><stop offset="0.36" stop-color="#0693ff" stop-opacity="0.7"/><stop offset="0.44" stop-color="#0693ff" stop-opacity="0.61"/><stop offset="1" stop-color="#0693ff" stop-opacity="0"/></radialGradient><linearGradient id="linear-gradient" x1="728.52" y1="340.12" x2="729.22" y2="469.44" gradientTransform="matrix(0.71, 0.7, 0.7, -0.71, -363.47, -101.96)" gradientUnits="userSpaceOnUse"><stop offset="0.04" stop-color="#d600b6"/><stop offset="0.04" stop-color="#d201b5"/><stop offset="0.07" stop-color="#a913ae"/><stop offset="0.09" stop-color="#8422a8"/><stop offset="0.12" stop-color="#6330a3"/><stop offset="0.16" stop-color="#473b9e"/><stop offset="0.19" stop-color="#31449a"/><stop offset="0.23" stop-color="#204b97"/><stop offset="0.29" stop-color="#145095"/><stop offset="0.36" stop-color="#0d5394"/><stop offset="0.55" stop-color="#0b5494"/><stop offset="0.65" stop-color="#0d5394"/><stop offset="0.7" stop-color="#155096"/><stop offset="0.74" stop-color="#224b98"/><stop offset="0.77" stop-color="#34439b"/><stop offset="0.8" stop-color="#4c399f"/><stop offset="0.82" stop-color="#692da4"/><stop offset="0.84" stop-color="#8c1faa"/><stop offset="0.86" stop-color="#b30eb0"/><stop offset="0.88" stop-color="#d600b6"/></linearGradient><linearGradient id="linear-gradient-2" x1="754.72" y1="346.09" x2="755.42" y2="465.28" gradientTransform="matrix(0.71, 0.7, 0.7, -0.71, -363.47, -101.96)" gradientUnits="userSpaceOnUse"><stop offset="0" stop-color="#d600b6"/><stop offset="0" stop-color="#d201b5"/><stop offset="0.03" stop-color="#a913ae"/><stop offset="0.06" stop-color="#8422a8"/><stop offset="0.09" stop-color="#6330a3"/><stop offset="0.12" stop-color="#473b9e"/><stop offset="0.16" stop-color="#31449a"/><stop offset="0.21" stop-color="#204b97"/><stop offset="0.27" stop-color="#145095"/><stop offset="0.34" stop-color="#0d5394"/><stop offset="0.55" stop-color="#0b5494"/><stop offset="0.66" stop-color="#0d5394"/><stop offset="0.71" stop-color="#155096"/><stop offset="0.75" stop-color="#224b98"/><stop offset="0.79" stop-color="#34439b"/><stop offset="0.82" stop-color="#4c399f"/><stop offset="0.84" stop-color="#692da4"/><stop offset="0.87" stop-color="#8c1faa"/><stop offset="0.89" stop-color="#b30eb0"/><stop offset="0.91" stop-color="#d600b6"/></linearGradient><linearGradient id="linear-gradient-3" x1="782.48" y1="343.47" x2="779.68" y2="469.65" xlink:href="#linear-gradient-2"/><linearGradient id="linear-gradient-4" x1="696.49" y1="373.3" x2="819.84" y2="373.3" xlink:href="#linear-gradient-2"/><linearGradient id="linear-gradient-5" x1="697.62" y1="399.47" x2="824.17" y2="399.47" xlink:href="#linear-gradient-2"/><linearGradient id="linear-gradient-6" x1="697.66" y1="425.69" x2="823.89" y2="425.69" gradientTransform="matrix(0.71, 0.7, 0.7, -0.71, -363.47, -101.96)" gradientUnits="userSpaceOnUse"><stop offset="0" stop-color="#d600b6"/><stop offset="0" stop-color="#d201b5"/><stop offset="0.03" stop-color="#a913ae"/><stop offset="0.05" stop-color="#8422a8"/><stop offset="0.08" stop-color="#6330a3"/><stop offset="0.11" stop-color="#473b9e"/><stop offset="0.15" stop-color="#31449a"/><stop offset="0.19" stop-color="#204b97"/><stop offset="0.24" stop-color="#145095"/><stop offset="0.31" stop-color="#0d5394"/><stop offset="0.49" stop-color="#0b5494"/><stop offset="0.62" stop-color="#0d5394"/><stop offset="0.68" stop-color="#155096"/><stop offset="0.73" stop-color="#224b98"/><stop offset="0.77" stop-color="#34439b"/><stop offset="0.8" stop-color="#4c399f"/><stop offset="0.83" stop-color="#692da4"/><stop offset="0.86" stop-color="#8c1faa"/><stop offset="0.89" stop-color="#b30eb0"/><stop offset="0.91" stop-color="#d600b6"/></linearGradient><linearGradient id="linear-gradient-7" x1="831.78" y1="479.35" x2="695.53" y2="336.96" gradientTransform="matrix(0.71, 0.7, 0.7, -0.71, -271.47, 24.04)" gradientUnits="userSpaceOnUse"><stop offset="0.33" stop-color="#6bc7ee"/><stop offset="0.39" stop-color="#66c1ee"/><stop offset="0.46" stop-color="#59afef"/><stop offset="0.55" stop-color="#4392f0"/><stop offset="0.63" stop-color="#276df1"/></linearGradient><linearGradient id="linear-gradient-8" x1="728.62" y1="348.45" x2="767.21" y2="422.51" gradientTransform="matrix(0.71, 0.7, 0.7, -0.71, -271.47, 24.04)" gradientUnits="userSpaceOnUse"><stop offset="0.08" stop-color="#02085e"/><stop offset="0.22" stop-color="#02074d"/><stop offset="0.55" stop-color="#03042b"/><stop offset="0.82" stop-color="#040316"/><stop offset="1" stop-color="#04020e"/></linearGradient></defs><title>AI</title><g opacity="0.2"><image width="15" height="15" transform="translate(111 34)" opacity="0.9" xlink:href="9114427CCD34E0B6.png" style="isolation:isolate"/><path d="M210.6,166.5a1.2,1.2,0,1,1-1.2,1.2A1.16,1.16,0,0,1,210.6,166.5Z" transform="translate(-92 -126)" fill="#71f2ff"/></g><image width="15" height="15" transform="translate(130 47)" opacity="0.9" xlink:href="9114427CCD34E0BA.png" style="isolation:isolate"/><path d="M229.3,179.2a1.2,1.2,0,1,1-1.2,1.2A1.22,1.22,0,0,1,229.3,179.2Z" transform="translate(-92 -126)" fill="#71f2ff"/><image width="35" height="35" transform="translate(120)" opacity="0.9" xlink:href="9114427CCD34E0BB.png" style="isolation:isolate"/><path d="M229.3,141.3a2.25,2.25,0,1,1-2.3,2.2A2.3,2.3,0,0,1,229.3,141.3Z" transform="translate(-92 -126)" fill="#71f2ff"/><g opacity="0.1"><image width="35" height="35" transform="translate(154 32)" opacity="0.9" xlink:href="9114427CCD34E0BC.png" style="isolation:isolate"/><path d="M263.4,173a2.25,2.25,0,1,1-2.3,2.2A2.38,2.38,0,0,1,263.4,173Z" transform="translate(-92 -126)" fill="#71f2ff"/></g><g opacity="0.2"><image width="34" height="35" transform="translate(48 5)" opacity="0.9" xlink:href="9114427CCD34E0BD.png" style="isolation:isolate"/><path d="M157.1,147a1.55,1.55,0,1,1-1.6,1.5A1.56,1.56,0,0,1,157.1,147Z" transform="translate(-92 -126)" fill="#71f2ff"/></g><image width="36" height="35" transform="translate(0 39)" opacity="0.9" xlink:href="9114427CCD34E0B8.png" style="isolation:isolate"/><path d="M110.1,180.1a2.25,2.25,0,1,1-2.3,2.2A2.24,2.24,0,0,1,110.1,180.1Z" transform="translate(-92 -126)" fill="#71f2ff"/><g opacity="0.2"><image width="15" height="15" transform="translate(104 246)" opacity="0.9" xlink:href="9114427CCD34E0B9.png" style="isolation:isolate"/><path d="M203.3,380.8a1.21,1.21,0,0,1-1.3-1.1,1.16,1.16,0,0,1,1.1-1.3,1.21,1.21,0,0,1,1.3,1.1A1.23,1.23,0,0,1,203.3,380.8Z" transform="translate(-92 -126)" fill="#71f2ff"/></g><image width="15" height="16" transform="translate(84 235)" opacity="0.9" xlink:href="9114427CCD34E0A8.png" style="isolation:isolate"/><path d="M183.3,370.2a1.21,1.21,0,0,1-1.3-1.1,1.2,1.2,0,1,1,1.3,1.1Z" transform="translate(-92 -126)" fill="#71f2ff"/><image width="36" height="35" transform="translate(77 262)" opacity="0.9" xlink:href="9114427CCD34E0A9.png" style="isolation:isolate"/><path d="M187.2,407.9a2.21,2.21,0,1,1,2-2.4A2.23,2.23,0,0,1,187.2,407.9Z" transform="translate(-92 -126)" fill="#71f2ff"/><g opacity="0.1"><image width="36" height="35" transform="translate(40 234)" opacity="0.9" xlink:href="F7ED9C09A8A479CE.png" style="isolation:isolate"/><path d="M150,379.8a2.21,2.21,0,1,1,2-2.4A2.16,2.16,0,0,1,150,379.8Z" transform="translate(-92 -126)" fill="#71f2ff"/></g><g opacity="0.2"><image width="34" height="34" transform="translate(149 250)" opacity="0.9" xlink:href="F7ED9C09A8A479CA.png" style="isolation:isolate"/><path d="M258.5,394.8a1.56,1.56,0,1,1,1.4-1.7A1.51,1.51,0,0,1,258.5,394.8Z" transform="translate(-92 -126)" fill="#71f2ff"/></g><image width="35" height="36" transform="translate(192 211)" opacity="0.9" xlink:href="F7ED9C09A8A479C9.png" style="isolation:isolate"/><path d="M301.8,357.1a2.21,2.21,0,1,1,2-2.4A2.17,2.17,0,0,1,301.8,357.1Z" transform="translate(-92 -126)" fill="#71f2ff"/><g opacity="0.2"><image width="15" height="15" transform="translate(512 180)" opacity="0.9" xlink:href="F7ED9C09A8A479C6.png" style="isolation:isolate"/><path d="M612.8,313.8a1.18,1.18,0,1,1-.9-1.4A1.18,1.18,0,0,1,612.8,313.8Z" transform="translate(-92 -126)" fill="#71f2ff"/></g><image width="16" height="15" transform="translate(496 196)" opacity="0.9" xlink:href="F7ED9C09A8A479D9.png" style="isolation:isolate"/><path d="M597,329.9a1.18,1.18,0,1,1-.9-1.4A1.3,1.3,0,0,1,597,329.9Z" transform="translate(-92 -126)" fill="#71f2ff"/><image width="36" height="35" transform="translate(522 193)" opacity="0.9" xlink:href="F7ED9C09A8A479DE.png" style="isolation:isolate"/><path d="M634.2,336.8a2.2,2.2,0,0,1-4.3-.9,2.17,2.17,0,0,1,2.6-1.7A2.12,2.12,0,0,1,634.2,336.8Z" transform="translate(-92 -126)" fill="#71f2ff"/><g opacity="0.1"><image width="35" height="36" transform="translate(485 220)" opacity="0.9" xlink:href="F7ED9C09A8A479DC.png" style="isolation:isolate"/><path d="M596.8,364.6a2.2,2.2,0,1,1-1.7-2.6A2.12,2.12,0,0,1,596.8,364.6Z" transform="translate(-92 -126)" fill="#71f2ff"/></g><g opacity="0.2"><image width="34" height="34" transform="translate(531 121)" opacity="0.9" xlink:href="F7ED9C09A8A479D4.png" style="isolation:isolate"/><path d="M641.7,264.7a1.59,1.59,0,1,1-1.2-1.9A1.63,1.63,0,0,1,641.7,264.7Z" transform="translate(-92 -126)" fill="#71f2ff"/></g><image width="35" height="36" transform="translate(506 68)" opacity="0.9" xlink:href="F7ED9C09A8A479D5.png" style="isolation:isolate"/><path d="M617.7,212.6A2.2,2.2,0,1,1,616,210,2.12,2.12,0,0,1,617.7,212.6Z" transform="translate(-92 -126)" fill="#71f2ff"/><g opacity="0.2"><image width="16" height="16" transform="translate(393 73)" opacity="0.9" xlink:href="F7ED9C09A8A479D6.png" style="isolation:isolate"/><path d="M491.9,206.2a1.17,1.17,0,1,1,.4,1.6A1.06,1.06,0,0,1,491.9,206.2Z" transform="translate(-92 -126)" fill="#71f2ff"/></g><image width="15" height="15" transform="translate(363 95)" opacity="0.9" xlink:href="F7ED9C09A8A479FF.png" style="isolation:isolate"/><path d="M461.2,227.8a1.17,1.17,0,1,1,.4,1.6A1.16,1.16,0,0,1,461.2,227.8Z" transform="translate(-92 -126)" fill="#71f2ff"/><image width="35" height="36" transform="translate(378 33)" opacity="0.9" xlink:href="F7ED9C09A8A479FC.png" style="isolation:isolate"/><path d="M485.4,175.7a2.25,2.25,0,1,1,.7,3.1A2.19,2.19,0,0,1,485.4,175.7Z" transform="translate(-92 -126)" fill="#71f2ff"/><g opacity="0.1"><image width="36" height="35" transform="translate(422 22)" opacity="0.9" xlink:href="F7ED9C09A8A479FB.png" style="isolation:isolate"/><path d="M530.1,164.4a2.25,2.25,0,1,1,.7,3.1A2.35,2.35,0,0,1,530.1,164.4Z" transform="translate(-92 -126)" fill="#71f2ff"/></g><g opacity="0.2"><image width="34" height="34" transform="translate(333 71)" opacity="0.9" xlink:href="F7ED9C09A8A479F4.png" style="isolation:isolate"/><path d="M440.3,212.8a1.6,1.6,0,1,1,.5,2.2A1.68,1.68,0,0,1,440.3,212.8Z" transform="translate(-92 -126)" fill="#71f2ff"/></g><image width="35" height="36" transform="translate(344 119)" opacity="0.9" xlink:href="F7ED9C09A8A479F7.png" style="isolation:isolate"/><path d="M451.8,262a2.25,2.25,0,1,1,.7,3.1A2.19,2.19,0,0,1,451.8,262Z" transform="translate(-92 -126)" fill="#71f2ff"/><circle cx="450.8" cy="140.8" r="112.3" fill="url(#radial-gradient)"/><polyline points="481.3 169.8 508.1 196.2 501.5 227.4 529.1 254.6" fill="none" stroke="#71f2ff" stroke-linejoin="round" stroke-width="0.75" opacity="0.4" style="isolation:isolate"/><polyline points="505.5 231.8 505.7 263 521.9 279" fill="none" stroke="#71f2ff" stroke-linejoin="round" stroke-width="0.75" opacity="0.4" style="isolation:isolate"/><path d="M616.9,408a2.9,2.9,0,1,1,0-4.1A3,3,0,0,1,616.9,408Z" transform="translate(-92 -126)" fill="#71f2ff"/><path d="M622.9,382.9a2.9,2.9,0,1,1,0-4.1A3,3,0,0,1,622.9,382.9Z" transform="translate(-92 -126)" fill="#71f2ff"/><polyline points="462.5 188.9 511.8 237.6 538.3 235.4 556.9 253.6" fill="none" stroke="#71f2ff" stroke-linejoin="round" stroke-width="0.75" opacity="0.4" style="isolation:isolate"/><path d="M650,381.2a1.91,1.91,0,1,1,0-2.7A2,2,0,0,1,650,381.2Z" transform="translate(-92 -126)" fill="#71f2ff"/><polyline points="499.2 151.6 548.6 200.4 578.2 195 596.7 213.3" fill="none" stroke="#71f2ff" stroke-linejoin="round" stroke-width="0.75" opacity="0.4" style="isolation:isolate"/><polyline points="539.3 191.2 539.5 222.4 555.7 238.4" fill="none" stroke="#71f2ff" stroke-linejoin="round" stroke-width="0.75" opacity="0.4" style="isolation:isolate"/><path d="M692.1,342.7a2.9,2.9,0,1,1,0-4.1A3,3,0,0,1,692.1,342.7Z" transform="translate(-92 -126)" fill="#71f2ff"/><circle cx="555.7" cy="238.4" r="1.9" fill="#71f2ff"/><path d="M603.2,164a2.9,2.9,0,1,1,0,4.1A3,3,0,0,1,603.2,164Z" transform="translate(-92 -126)" fill="#71f2ff"/><path d="M600.5,198.5a2.9,2.9,0,1,1,0,4.1A3,3,0,0,1,600.5,198.5Z" transform="translate(-92 -126)" fill="#71f2ff"/><polyline points="464.2 96.9 486.2 74.7 510.6 74.5" fill="none" stroke="#71f2ff" stroke-linejoin="round" stroke-width="0.75" opacity="0.4" style="isolation:isolate"/><polyline points="500.4 74.6 500.3 53.1 513.2 40" fill="none" stroke="#71f2ff" stroke-linejoin="round" stroke-width="0.75" opacity="0.4" style="isolation:isolate"/><path d="M626.1,178.5a2.9,2.9,0,1,1,0,4.1A3,3,0,0,1,626.1,178.5Z" transform="translate(-92 -126)" fill="#71f2ff"/><circle cx="554.8" cy="71" r="2" fill="#71f2ff"/><polyline points="482.9 115.3 526.4 71.2 554.8 71" fill="none" stroke="#71f2ff" stroke-linejoin="round" stroke-width="0.75" opacity="0.4" style="isolation:isolate"/><line x1="535.9" y1="71.2" x2="535.8" y2="55.7" fill="none" stroke="#71f2ff" stroke-linejoin="round" stroke-width="0.75" opacity="0.4" style="isolation:isolate"/><path d="M608.5,221.5a2.69,2.69,0,1,1,0,3.8A2.78,2.78,0,0,1,608.5,221.5Z" transform="translate(-92 -126)" fill="#71f2ff"/><path d="M638.6,232.1a2.19,2.19,0,1,1,3.1,3.1,2.2,2.2,0,0,1-3.1,0A2.3,2.3,0,0,1,638.6,232.1Z" transform="translate(-92 -126)" fill="#71f2ff"/><polyline points="501.5 133.7 518.6 116.5 518.4 97.4" fill="none" stroke="#71f2ff" stroke-linejoin="round" stroke-width="0.75" opacity="0.4" style="isolation:isolate"/><line x1="548.2" y1="107.6" x2="518.5" y2="107.8" fill="none" stroke="#71f2ff" stroke-linejoin="round" stroke-width="0.75" opacity="0.4" style="isolation:isolate"/><polyline points="430.6 120.8 403.9 94.3 410.4 63.1 382.9 35.9" fill="none" stroke="#71f2ff" stroke-linejoin="round" stroke-width="0.75" opacity="0.4" style="isolation:isolate"/><path d="M473.1,159.7a2.9,2.9,0,1,1,0,4.1A3,3,0,0,1,473.1,159.7Z" transform="translate(-92 -126)" fill="#71f2ff"/><polyline points="449.5 101.7 400.1 52.9 373.6 55.2 355.1 36.9" fill="none" stroke="#71f2ff" stroke-linejoin="round" stroke-width="0.75" opacity="0.4" style="isolation:isolate"/><polyline points="406.4 58.7 406.2 27.5 390.1 11.5" fill="none" stroke="#71f2ff" stroke-linejoin="round" stroke-width="0.75" opacity="0.4" style="isolation:isolate"/><path d="M479,134.5a2.9,2.9,0,1,1,0,4.1A3,3,0,0,1,479,134.5Z" transform="translate(-92 -126)" fill="#71f2ff"/><circle cx="355.3" cy="36.6" r="1.9" fill="#71f2ff"/><polyline points="412.7 138.9 363.3 90.2 333.8 95.5 262.2 77.2" fill="none" stroke="#71f2ff" stroke-linejoin="round" stroke-width="0.75" opacity="0.4" style="isolation:isolate"/><polyline points="372.6 99.3 372.4 68.1 356.2 52.1" fill="none" stroke="#71f2ff" stroke-linejoin="round" stroke-width="0.75" opacity="0.4" style="isolation:isolate"/><path d="M350.8,199.9a2.9,2.9,0,1,1,0,4.1A3,3,0,0,1,350.8,199.9Z" transform="translate(-92 -126)" fill="#71f2ff"/><circle cx="356.2" cy="52.1" r="1.9" fill="#71f2ff"/><path d="M479.6,386.7a2.9,2.9,0,1,1,0-4.1A3,3,0,0,1,479.6,386.7Z" transform="translate(-92 -126)" fill="#71f2ff"/><path d="M482.3,352.2a2.9,2.9,0,1,1,0-4.1A3,3,0,0,1,482.3,352.2Z" transform="translate(-92 -126)" fill="#71f2ff"/><polyline points="434.5 201.7 412.5 224 388.2 224.2" fill="none" stroke="#71f2ff" stroke-linejoin="round" stroke-width="0.75" opacity="0.4" style="isolation:isolate"/><polyline points="398.3 224.1 398.5 245.6 385.5 258.7" fill="none" stroke="#71f2ff" stroke-linejoin="round" stroke-width="0.75" opacity="0.4" style="isolation:isolate"/><circle cx="362.6" cy="244.1" r="2.9" fill="#71f2ff"/><circle cx="343.9" cy="227.6" r="2" fill="#71f2ff"/><polyline points="415.9 183.3 372.3 227.5 343.9 227.6" fill="none" stroke="#71f2ff" stroke-linejoin="round" stroke-width="0.75" opacity="0.4" style="isolation:isolate"/><line x1="362.9" y1="227.5" x2="363" y2="242.9" fill="none" stroke="#71f2ff" stroke-linejoin="round" stroke-width="0.75" opacity="0.4" style="isolation:isolate"/><path d="M474.2,329.1a2.69,2.69,0,0,1-3.8,0,2.69,2.69,0,1,1,3.8,0Z" transform="translate(-92 -126)" fill="#71f2ff"/><circle cx="350.5" cy="191" r="2.2" fill="#71f2ff"/><polyline points="397.3 164.9 380.2 182.2 380.3 201.3" fill="none" stroke="#71f2ff" stroke-linejoin="round" stroke-width="0.75" opacity="0.4" style="isolation:isolate"/><line x1="350.5" y1="191" x2="380.3" y2="190.8" fill="none" stroke="#71f2ff" stroke-linejoin="round" stroke-width="0.75" opacity="0.4" style="isolation:isolate"/><polygon points="400.4 168.1 394.1 161.8 471.3 83.6 477.6 89.9 400.4 168.1" stroke="#fff" stroke-linejoin="round" stroke-width="0.75" fill="url(#linear-gradient)"/><polygon points="419.1 186.5 412.7 180.2 489.9 102 496.2 108.3 419.1 186.5" stroke="#fff" stroke-linejoin="round" stroke-width="0.75" fill="url(#linear-gradient-2)"/><polygon points="437.7 204.9 431.4 198.6 508.6 120.4 514.9 126.7 437.7 204.9" stroke="#fff" stroke-linejoin="round" stroke-width="0.75" fill="url(#linear-gradient-3)"/><polygon points="478.3 198.3 472 204.6 393.9 127.5 400.1 121.1 478.3 198.3" stroke="#fff" stroke-linejoin="round" stroke-width="0.75" fill="url(#linear-gradient-4)"/><polygon points="496.7 179.7 490.4 186 412.3 108.8 418.5 102.5 496.7 179.7" stroke="#fff" stroke-linejoin="round" stroke-width="0.75" fill="url(#linear-gradient-5)"/><polygon points="515.1 161 508.9 167.4 430.7 90.2 436.9 83.9 515.1 161" stroke="#fff" stroke-linejoin="round" stroke-width="0.75" fill="url(#linear-gradient-6)"/><path d="M604.2,273.9l-53.9,54.6a5.13,5.13,0,0,1-7.4,0l-54.6-54a5.13,5.13,0,0,1,0-7.4l53.9-54.6a5.13,5.13,0,0,1,7.4,0l54.6,54A5.31,5.31,0,0,1,604.2,273.9Z" transform="translate(-92 -126)" stroke="#fff" stroke-linejoin="round" stroke-width="0.75" fill="url(#linear-gradient-7)"/><path d="M542.4,318.9,497.9,275a5.82,5.82,0,0,1-.1-8.2l43.9-44.5a5.82,5.82,0,0,1,8.2-.1l44.5,43.9a5.82,5.82,0,0,1,.1,8.2l-43.9,44.5A5.83,5.83,0,0,1,542.4,318.9Z" transform="translate(-92 -126)" fill="none" stroke="#0f172e" stroke-linecap="round" stroke-linejoin="round" stroke-width="5" stroke-dasharray="0.1 20.34"/><path d="M542.3,310.5l-36-35.6a5.82,5.82,0,0,1-.1-8.2l35.6-36a5.82,5.82,0,0,1,8.2-.1l36,35.6a5.82,5.82,0,0,1,.1,8.2l-35.6,36A5.73,5.73,0,0,1,542.3,310.5Z" transform="translate(-92 -126)" fill="#fff" opacity="0.4" style="isolation:isolate"/><path d="M561.4,317.3l-11.1,11.2a5.13,5.13,0,0,1-7.4,0l-54.6-54a5.13,5.13,0,0,1,0-7.4l53.9-54.6a5.13,5.13,0,0,1,7.4,0l8.5,8.3C548.3,237.7,530.8,278.5,561.4,317.3Z" transform="translate(-92 -126)" opacity="0.3" fill="url(#linear-gradient-8)" style="isolation:isolate"/><text transform="translate(433.4 156.44)" font-size="40" fill="#fff" font-family="Roboto-Bold, Roboto" font-weight="700">AI</text></svg>