<svg xmlns="http://www.w3.org/2000/svg" viewBox="0 0 19.5 19.5"><defs><style>.a,.b{fill:none;stroke:currentColor;stroke-linecap:round;stroke-linejoin:round;}.a{stroke-width:1.2px;}.b{stroke-width:1.5px;}</style></defs><g transform="translate(-258.75 -2951.75)"><path class="a" d="M11.112,8.752v1.358a.905.905,0,0,1-.986.905A8.955,8.955,0,0,1,6.22,9.625,8.824,8.824,0,0,1,3.5,6.91,8.955,8.955,0,0,1,2.116,2.986.905.905,0,0,1,3.016,2H4.374a.905.905,0,0,1,.905.778A5.81,5.81,0,0,0,5.6,4.05a.905.905,0,0,1-.2.955l-.575.575A7.24,7.24,0,0,0,7.532,8.294l.575-.575a.905.905,0,0,1,.955-.2,5.81,5.81,0,0,0,1.272.317A.905.905,0,0,1,11.112,8.752Z" transform="translate(262.388 2954.5)"/><path class="b" d="M21,11.5a8.38,8.38,0,0,1-.9,3.8A8.5,8.5,0,0,1,12.5,20a8.38,8.38,0,0,1-3.8-.9L3,21l1.9-5.7A8.38,8.38,0,0,1,4,11.5,8.5,8.5,0,0,1,8.7,3.9,8.38,8.38,0,0,1,12.5,3H13a8.48,8.48,0,0,1,8,8Z" transform="translate(256.5 2949.5)"/></g></svg>