<svg width="471" height="314" viewBox="0 0 471 314" fill="none" xmlns="http://www.w3.org/2000/svg">
<path d="M236 156.5V2H3L236 156.5Z" fill="white" stroke="black"/>
<path d="M3 2V156.5H236L3 2Z" fill="white" stroke="black"/>
<path d="M236 156.5V2H469L236 156.5Z" fill="white" stroke="black"/>
<path d="M469 2V156.5H236L469 2Z" fill="white" stroke="black"/>
<mask id="mask0" mask-type="alpha" maskUnits="userSpaceOnUse" x="138" y="62" width="196" height="196">
<circle r="97.5" transform="matrix(-1 0 0 1 236 160)" fill="#C4C4C4" stroke="#C32D29"/>
</mask>
<g mask="url(#mask0)">
<path d="M235 156.5V2H468L235 156.5Z" fill="#C4C4C4" stroke="black"/>
</g>
<circle r="97.5" transform="matrix(1 0 0 -1 235 160)" fill="#C4C4C4" stroke="#C32D29"/>
<path d="M236 156.5V311H3L236 156.5Z" fill="white" stroke="black"/>
<path d="M2.99998 311V157H237L2.99998 311Z" fill="#FFF6BE" stroke="black"/>
<mask id="mask1" mask-type="alpha" maskUnits="userSpaceOnUse" x="138" y="62" width="196" height="196">
<circle r="97.5" transform="matrix(1 0 0 -1 236 160)" fill="#C4C4C4" stroke="#C32D29"/>
</mask>
<g mask="url(#mask1)">
<path d="M237 163.5V318H4L237 163.5Z" fill="#C4C4C4" stroke="black"/>
</g>
<path d="M236 156.5V311H469L236 156.5Z" fill="white" stroke="black"/>
<path d="M469 311V156.5H236L469 311Z" fill="white" stroke="black"/>
<mask id="mask2" mask-type="alpha" maskUnits="userSpaceOnUse" x="139" y="62" width="196" height="196">
<circle cx="237" cy="160" r="97.5" transform="rotate(-180 237 160)" fill="#C4C4C4" stroke="#C32D29"/>
</mask>
<g mask="url(#mask2)">
<path d="M236 163.5V318H469L236 163.5Z" fill="#C4C4C4" stroke="black"/>
</g>
<circle cx="236" cy="159" r="100" fill="white"/>
<mask id="mask3" mask-type="alpha" maskUnits="userSpaceOnUse" x="136" y="57" width="203" height="203">
<circle cx="237.5" cy="158.5" r="101" fill="#EEEEEE" stroke="#C32D29"/>
</mask>
<g mask="url(#mask3)">
<path d="M236 157V3H3.5V157H236Z" stroke="black"/>
</g>
<mask id="mask4" mask-type="alpha" maskUnits="userSpaceOnUse" x="133" y="54" width="203" height="203">
<circle cx="234.5" cy="155.5" r="101" transform="rotate(-180 234.5 155.5)" fill="#EEEEEE" stroke="#C32D29"/>
</mask>
<g mask="url(#mask4)">
<path d="M236 157V311H468.5V157H236Z" fill="white" stroke="black"/>
</g>
<mask id="mask5" mask-type="alpha" maskUnits="userSpaceOnUse" x="135" y="55" width="203" height="203">
<circle r="101" transform="matrix(1 0 0 -1 236.5 156.5)" fill="#EEEEEE" stroke="#C32D29"/>
</mask>
<g mask="url(#mask5)">
<path d="M236 157V312H2V157H236Z" fill="#DAB746" stroke="black"/>
</g>
<mask id="mask6" mask-type="alpha" maskUnits="userSpaceOnUse" x="136" y="57" width="203" height="203">
<circle cx="237.5" cy="158.5" r="101" fill="#EEEEEE" stroke="#C32D29"/>
</mask>
<g mask="url(#mask6)">
<path d="M236 157V3H468V157H236Z" stroke="black"/>
</g>
<mask id="mask7" mask-type="alpha" maskUnits="userSpaceOnUse" x="136" y="57" width="203" height="203">
<circle cx="237.5" cy="158.5" r="101" fill="#EEEEEE" stroke="#C32D29"/>
</mask>
<g mask="url(#mask7)">
<path d="M236 157V3H468V157H236Z" stroke="black"/>
</g>
<path d="M174.695 133.232H171.115V137H169.99V128.469H175.275V129.395H171.115V132.312H174.695V133.232ZM180.168 137C180.105 136.875 180.055 136.652 180.016 136.332C179.512 136.855 178.91 137.117 178.211 137.117C177.586 137.117 177.072 136.941 176.67 136.59C176.271 136.234 176.072 135.785 176.072 135.242C176.072 134.582 176.322 134.07 176.822 133.707C177.326 133.34 178.033 133.156 178.943 133.156H179.998V132.658C179.998 132.279 179.885 131.979 179.658 131.756C179.432 131.529 179.098 131.416 178.656 131.416C178.27 131.416 177.945 131.514 177.684 131.709C177.422 131.904 177.291 132.141 177.291 132.418H176.201C176.201 132.102 176.312 131.797 176.535 131.504C176.762 131.207 177.066 130.973 177.449 130.801C177.836 130.629 178.26 130.543 178.721 130.543C179.451 130.543 180.023 130.727 180.438 131.094C180.852 131.457 181.066 131.959 181.082 132.6V135.518C181.082 136.1 181.156 136.562 181.305 136.906V137H180.168ZM178.369 136.174C178.709 136.174 179.031 136.086 179.336 135.91C179.641 135.734 179.861 135.506 179.998 135.225V133.924H179.148C177.82 133.924 177.156 134.312 177.156 135.09C177.156 135.43 177.27 135.695 177.496 135.887C177.723 136.078 178.014 136.174 178.369 136.174ZM185.324 136.232C185.711 136.232 186.049 136.115 186.338 135.881C186.627 135.646 186.787 135.354 186.818 135.002H187.844C187.824 135.365 187.699 135.711 187.469 136.039C187.238 136.367 186.93 136.629 186.543 136.824C186.16 137.02 185.754 137.117 185.324 137.117C184.461 137.117 183.773 136.83 183.262 136.256C182.754 135.678 182.5 134.889 182.5 133.889V133.707C182.5 133.09 182.613 132.541 182.84 132.061C183.066 131.58 183.391 131.207 183.812 130.941C184.238 130.676 184.74 130.543 185.318 130.543C186.029 130.543 186.619 130.756 187.088 131.182C187.561 131.607 187.812 132.16 187.844 132.84H186.818C186.787 132.43 186.631 132.094 186.35 131.832C186.072 131.566 185.729 131.434 185.318 131.434C184.768 131.434 184.34 131.633 184.035 132.031C183.734 132.426 183.584 132.998 183.584 133.748V133.953C183.584 134.684 183.734 135.246 184.035 135.641C184.336 136.035 184.766 136.232 185.324 136.232ZM190.24 137H189.156V130.66H190.24V137ZM189.068 128.979C189.068 128.803 189.121 128.654 189.227 128.533C189.336 128.412 189.496 128.352 189.707 128.352C189.918 128.352 190.078 128.412 190.188 128.533C190.297 128.654 190.352 128.803 190.352 128.979C190.352 129.154 190.297 129.301 190.188 129.418C190.078 129.535 189.918 129.594 189.707 129.594C189.496 129.594 189.336 129.535 189.227 129.418C189.121 129.301 189.068 129.154 189.068 128.979ZM193.158 137H192.074V128H193.158V137ZM196.076 137H194.992V130.66H196.076V137ZM194.904 128.979C194.904 128.803 194.957 128.654 195.062 128.533C195.172 128.412 195.332 128.352 195.543 128.352C195.754 128.352 195.914 128.412 196.023 128.533C196.133 128.654 196.188 128.803 196.188 128.979C196.188 129.154 196.133 129.301 196.023 129.418C195.914 129.535 195.754 129.594 195.543 129.594C195.332 129.594 195.172 129.535 195.062 129.418C194.957 129.301 194.904 129.154 194.904 128.979ZM199.287 129.125V130.66H200.471V131.498H199.287V135.43C199.287 135.684 199.34 135.875 199.445 136.004C199.551 136.129 199.73 136.191 199.984 136.191C200.109 136.191 200.281 136.168 200.5 136.121V137C200.215 137.078 199.938 137.117 199.668 137.117C199.184 137.117 198.818 136.971 198.572 136.678C198.326 136.385 198.203 135.969 198.203 135.43V131.498H197.049V130.66H198.203V129.125H199.287ZM205.656 137C205.594 136.875 205.543 136.652 205.504 136.332C205 136.855 204.398 137.117 203.699 137.117C203.074 137.117 202.561 136.941 202.158 136.59C201.76 136.234 201.561 135.785 201.561 135.242C201.561 134.582 201.811 134.07 202.311 133.707C202.814 133.34 203.521 133.156 204.432 133.156H205.486V132.658C205.486 132.279 205.373 131.979 205.146 131.756C204.92 131.529 204.586 131.416 204.145 131.416C203.758 131.416 203.434 131.514 203.172 131.709C202.91 131.904 202.779 132.141 202.779 132.418H201.689C201.689 132.102 201.801 131.797 202.023 131.504C202.25 131.207 202.555 130.973 202.938 130.801C203.324 130.629 203.748 130.543 204.209 130.543C204.939 130.543 205.512 130.727 205.926 131.094C206.34 131.457 206.555 131.959 206.57 132.6V135.518C206.57 136.1 206.645 136.562 206.793 136.906V137H205.656ZM203.857 136.174C204.197 136.174 204.52 136.086 204.824 135.91C205.129 135.734 205.35 135.506 205.486 135.225V133.924H204.637C203.309 133.924 202.645 134.312 202.645 135.09C202.645 135.43 202.758 135.695 202.984 135.887C203.211 136.078 203.502 136.174 203.857 136.174ZM209.74 129.125V130.66H210.924V131.498H209.74V135.43C209.74 135.684 209.793 135.875 209.898 136.004C210.004 136.129 210.184 136.191 210.438 136.191C210.562 136.191 210.734 136.168 210.953 136.121V137C210.668 137.078 210.391 137.117 210.121 137.117C209.637 137.117 209.271 136.971 209.025 136.678C208.779 136.385 208.656 135.969 208.656 135.43V131.498H207.502V130.66H208.656V129.125H209.74ZM213.373 137H212.289V130.66H213.373V137ZM212.201 128.979C212.201 128.803 212.254 128.654 212.359 128.533C212.469 128.412 212.629 128.352 212.84 128.352C213.051 128.352 213.211 128.412 213.32 128.533C213.43 128.654 213.484 128.803 213.484 128.979C213.484 129.154 213.43 129.301 213.32 129.418C213.211 129.535 213.051 129.594 212.84 129.594C212.629 129.594 212.469 129.535 212.359 129.418C212.254 129.301 212.201 129.154 212.201 128.979ZM216.139 130.66L216.174 131.457C216.658 130.848 217.291 130.543 218.072 130.543C219.412 130.543 220.088 131.299 220.1 132.811V137H219.016V132.805C219.012 132.348 218.906 132.01 218.699 131.791C218.496 131.572 218.178 131.463 217.744 131.463C217.393 131.463 217.084 131.557 216.818 131.744C216.553 131.932 216.346 132.178 216.197 132.482V137H215.113V130.66H216.139ZM221.477 133.777C221.477 132.789 221.705 132.004 222.162 131.422C222.619 130.836 223.225 130.543 223.979 130.543C224.752 130.543 225.355 130.816 225.789 131.363L225.842 130.66H226.832V136.848C226.832 137.668 226.588 138.314 226.1 138.787C225.615 139.26 224.963 139.496 224.143 139.496C223.686 139.496 223.238 139.398 222.801 139.203C222.363 139.008 222.029 138.74 221.799 138.4L222.361 137.75C222.826 138.324 223.395 138.611 224.066 138.611C224.594 138.611 225.004 138.463 225.297 138.166C225.594 137.869 225.742 137.451 225.742 136.912V136.367C225.309 136.867 224.717 137.117 223.967 137.117C223.225 137.117 222.623 136.818 222.162 136.221C221.705 135.623 221.477 134.809 221.477 133.777ZM222.566 133.9C222.566 134.615 222.713 135.178 223.006 135.588C223.299 135.994 223.709 136.197 224.236 136.197C224.92 136.197 225.422 135.887 225.742 135.266V132.371C225.41 131.766 224.912 131.463 224.248 131.463C223.721 131.463 223.309 131.668 223.012 132.078C222.715 132.488 222.566 133.096 222.566 133.9Z" fill="black"/>
<path d="M124.99 47V38.4688H127.398C128.141 38.4688 128.797 38.6328 129.367 38.9609C129.938 39.2891 130.377 39.7559 130.686 40.3613C130.998 40.9668 131.156 41.6621 131.16 42.4473V42.9922C131.16 43.7969 131.004 44.502 130.691 45.1074C130.383 45.7129 129.939 46.1777 129.361 46.502C128.787 46.8262 128.117 46.9922 127.352 47H124.99ZM126.115 39.3945V46.0801H127.299C128.166 46.0801 128.84 45.8105 129.32 45.2715C129.805 44.7324 130.047 43.9648 130.047 42.9688V42.4707C130.047 41.502 129.818 40.75 129.361 40.2148C128.908 39.6758 128.264 39.4023 127.428 39.3945H126.115ZM135.326 47.1172C134.467 47.1172 133.768 46.8359 133.229 46.2734C132.689 45.707 132.42 44.9512 132.42 44.0059V43.8066C132.42 43.1777 132.539 42.6172 132.777 42.125C133.02 41.6289 133.355 41.2422 133.785 40.9648C134.219 40.6836 134.688 40.543 135.191 40.543C136.016 40.543 136.656 40.8145 137.113 41.3574C137.57 41.9004 137.799 42.6777 137.799 43.6895V44.1406H133.504C133.52 44.7656 133.701 45.2715 134.049 45.6582C134.4 46.041 134.846 46.2324 135.385 46.2324C135.768 46.2324 136.092 46.1543 136.357 45.998C136.623 45.8418 136.855 45.6348 137.055 45.377L137.717 45.8926C137.186 46.709 136.389 47.1172 135.326 47.1172ZM135.191 41.4336C134.754 41.4336 134.387 41.5938 134.09 41.9141C133.793 42.2305 133.609 42.6758 133.539 43.25H136.715V43.168C136.684 42.6172 136.535 42.1914 136.27 41.8906C136.004 41.5859 135.645 41.4336 135.191 41.4336ZM141.068 45.5293L142.639 40.6602H143.746L141.473 47H140.646L138.35 40.6602H139.457L141.068 45.5293ZM147.338 47.1172C146.479 47.1172 145.779 46.8359 145.24 46.2734C144.701 45.707 144.432 44.9512 144.432 44.0059V43.8066C144.432 43.1777 144.551 42.6172 144.789 42.125C145.031 41.6289 145.367 41.2422 145.797 40.9648C146.23 40.6836 146.699 40.543 147.203 40.543C148.027 40.543 148.668 40.8145 149.125 41.3574C149.582 41.9004 149.811 42.6777 149.811 43.6895V44.1406H145.516C145.531 44.7656 145.713 45.2715 146.061 45.6582C146.412 46.041 146.857 46.2324 147.396 46.2324C147.779 46.2324 148.104 46.1543 148.369 45.998C148.635 45.8418 148.867 45.6348 149.066 45.377L149.729 45.8926C149.197 46.709 148.4 47.1172 147.338 47.1172ZM147.203 41.4336C146.766 41.4336 146.398 41.5938 146.102 41.9141C145.805 42.2305 145.621 42.6758 145.551 43.25H148.727V43.168C148.695 42.6172 148.547 42.1914 148.281 41.8906C148.016 41.5859 147.656 41.4336 147.203 41.4336ZM152.248 47H151.164V38H152.248V47ZM153.701 43.7715C153.701 43.1504 153.822 42.5918 154.064 42.0957C154.311 41.5996 154.65 41.2168 155.084 40.9473C155.521 40.6777 156.02 40.543 156.578 40.543C157.441 40.543 158.139 40.8418 158.67 41.4395C159.205 42.0371 159.473 42.832 159.473 43.8242V43.9004C159.473 44.5176 159.354 45.0723 159.115 45.5645C158.881 46.0527 158.543 46.4336 158.102 46.707C157.664 46.9805 157.16 47.1172 156.59 47.1172C155.73 47.1172 155.033 46.8184 154.498 46.2207C153.967 45.623 153.701 44.832 153.701 43.8477V43.7715ZM154.791 43.9004C154.791 44.6035 154.953 45.168 155.277 45.5938C155.605 46.0195 156.043 46.2324 156.59 46.2324C157.141 46.2324 157.578 46.0176 157.902 45.5879C158.227 45.1543 158.389 44.5488 158.389 43.7715C158.389 43.0762 158.223 42.5137 157.891 42.084C157.562 41.6504 157.125 41.4336 156.578 41.4336C156.043 41.4336 155.611 41.6465 155.283 42.0723C154.955 42.498 154.791 43.1074 154.791 43.9004ZM166.188 43.9004C166.188 44.8652 165.967 45.6426 165.525 46.2324C165.084 46.8223 164.486 47.1172 163.732 47.1172C162.963 47.1172 162.357 46.873 161.916 46.3848V49.4375H160.832V40.6602H161.822L161.875 41.3633C162.316 40.8164 162.93 40.543 163.715 40.543C164.477 40.543 165.078 40.8301 165.52 41.4043C165.965 41.9785 166.188 42.7773 166.188 43.8008V43.9004ZM165.104 43.7773C165.104 43.0625 164.951 42.498 164.646 42.084C164.342 41.6699 163.924 41.4629 163.393 41.4629C162.736 41.4629 162.244 41.7539 161.916 42.3359V45.3652C162.24 45.9434 162.736 46.2324 163.404 46.2324C163.924 46.2324 164.336 46.0273 164.641 45.6172C164.949 45.2031 165.104 44.5898 165.104 43.7773ZM170.201 47.1172C169.342 47.1172 168.643 46.8359 168.104 46.2734C167.564 45.707 167.295 44.9512 167.295 44.0059V43.8066C167.295 43.1777 167.414 42.6172 167.652 42.125C167.895 41.6289 168.23 41.2422 168.66 40.9648C169.094 40.6836 169.562 40.543 170.066 40.543C170.891 40.543 171.531 40.8145 171.988 41.3574C172.445 41.9004 172.674 42.6777 172.674 43.6895V44.1406H168.379C168.395 44.7656 168.576 45.2715 168.924 45.6582C169.275 46.041 169.721 46.2324 170.26 46.2324C170.643 46.2324 170.967 46.1543 171.232 45.998C171.498 45.8418 171.73 45.6348 171.93 45.377L172.592 45.8926C172.061 46.709 171.264 47.1172 170.201 47.1172ZM170.066 41.4336C169.629 41.4336 169.262 41.5938 168.965 41.9141C168.668 42.2305 168.484 42.6758 168.414 43.25H171.59V43.168C171.559 42.6172 171.41 42.1914 171.145 41.8906C170.879 41.5859 170.52 41.4336 170.066 41.4336ZM176.998 41.6328C176.834 41.6055 176.656 41.5918 176.465 41.5918C175.754 41.5918 175.271 41.8945 175.018 42.5V47H173.934V40.6602H174.988L175.006 41.3926C175.361 40.8262 175.865 40.543 176.518 40.543C176.729 40.543 176.889 40.5703 176.998 40.625V41.6328Z" fill="black"/>
<path d="M260.812 43.0566H257.115V46.0801H261.41V47H255.99V38.4688H261.352V39.3945H257.115V42.1367H260.812V43.0566ZM264.768 42.9746L266.174 40.6602H267.439L265.365 43.7949L267.504 47H266.25L264.785 44.627L263.32 47H262.061L264.199 43.7949L262.125 40.6602H263.379L264.768 42.9746ZM271.107 47.1172C270.248 47.1172 269.549 46.8359 269.01 46.2734C268.471 45.707 268.201 44.9512 268.201 44.0059V43.8066C268.201 43.1777 268.32 42.6172 268.559 42.125C268.801 41.6289 269.137 41.2422 269.566 40.9648C270 40.6836 270.469 40.543 270.973 40.543C271.797 40.543 272.438 40.8145 272.895 41.3574C273.352 41.9004 273.58 42.6777 273.58 43.6895V44.1406H269.285C269.301 44.7656 269.482 45.2715 269.83 45.6582C270.182 46.041 270.627 46.2324 271.166 46.2324C271.549 46.2324 271.873 46.1543 272.139 45.998C272.404 45.8418 272.637 45.6348 272.836 45.377L273.498 45.8926C272.967 46.709 272.17 47.1172 271.107 47.1172ZM270.973 41.4336C270.535 41.4336 270.168 41.5938 269.871 41.9141C269.574 42.2305 269.391 42.6758 269.32 43.25H272.496V43.168C272.465 42.6172 272.316 42.1914 272.051 41.8906C271.785 41.5859 271.426 41.4336 270.973 41.4336ZM277.383 46.2324C277.77 46.2324 278.107 46.1152 278.396 45.8809C278.686 45.6465 278.846 45.3535 278.877 45.002H279.902C279.883 45.3652 279.758 45.7109 279.527 46.0391C279.297 46.3672 278.988 46.6289 278.602 46.8242C278.219 47.0195 277.812 47.1172 277.383 47.1172C276.52 47.1172 275.832 46.8301 275.32 46.2559C274.812 45.6777 274.559 44.8887 274.559 43.8887V43.707C274.559 43.0898 274.672 42.541 274.898 42.0605C275.125 41.5801 275.449 41.207 275.871 40.9414C276.297 40.6758 276.799 40.543 277.377 40.543C278.088 40.543 278.678 40.7559 279.146 41.1816C279.619 41.6074 279.871 42.1602 279.902 42.8398H278.877C278.846 42.4297 278.689 42.0938 278.408 41.832C278.131 41.5664 277.787 41.4336 277.377 41.4336C276.826 41.4336 276.398 41.6328 276.094 42.0312C275.793 42.4258 275.643 42.998 275.643 43.748V43.9531C275.643 44.6836 275.793 45.2461 276.094 45.6406C276.395 46.0352 276.824 46.2324 277.383 46.2324ZM285.035 46.373C284.613 46.8691 283.994 47.1172 283.178 47.1172C282.502 47.1172 281.986 46.9219 281.631 46.5312C281.279 46.1367 281.102 45.5547 281.098 44.7852V40.6602H282.182V44.7559C282.182 45.7168 282.572 46.1973 283.354 46.1973C284.182 46.1973 284.732 45.8887 285.006 45.2715V40.6602H286.09V47H285.059L285.035 46.373ZM289.213 39.125V40.6602H290.396V41.498H289.213V45.4297C289.213 45.6836 289.266 45.875 289.371 46.0039C289.477 46.1289 289.656 46.1914 289.91 46.1914C290.035 46.1914 290.207 46.168 290.426 46.1211V47C290.141 47.0781 289.863 47.1172 289.594 47.1172C289.109 47.1172 288.744 46.9707 288.498 46.6777C288.252 46.3848 288.129 45.9688 288.129 45.4297V41.498H286.975V40.6602H288.129V39.125H289.213ZM292.846 47H291.762V40.6602H292.846V47ZM291.674 38.9785C291.674 38.8027 291.727 38.6543 291.832 38.5332C291.941 38.4121 292.102 38.3516 292.312 38.3516C292.523 38.3516 292.684 38.4121 292.793 38.5332C292.902 38.6543 292.957 38.8027 292.957 38.9785C292.957 39.1543 292.902 39.3008 292.793 39.418C292.684 39.5352 292.523 39.5938 292.312 39.5938C292.102 39.5938 291.941 39.5352 291.832 39.418C291.727 39.3008 291.674 39.1543 291.674 38.9785ZM296.678 45.5293L298.248 40.6602H299.355L297.082 47H296.256L293.959 40.6602H295.066L296.678 45.5293ZM302.947 47.1172C302.088 47.1172 301.389 46.8359 300.85 46.2734C300.311 45.707 300.041 44.9512 300.041 44.0059V43.8066C300.041 43.1777 300.16 42.6172 300.398 42.125C300.641 41.6289 300.977 41.2422 301.406 40.9648C301.84 40.6836 302.309 40.543 302.812 40.543C303.637 40.543 304.277 40.8145 304.734 41.3574C305.191 41.9004 305.42 42.6777 305.42 43.6895V44.1406H301.125C301.141 44.7656 301.322 45.2715 301.67 45.6582C302.021 46.041 302.467 46.2324 303.006 46.2324C303.389 46.2324 303.713 46.1543 303.979 45.998C304.244 45.8418 304.477 45.6348 304.676 45.377L305.338 45.8926C304.807 46.709 304.01 47.1172 302.947 47.1172ZM302.812 41.4336C302.375 41.4336 302.008 41.5938 301.711 41.9141C301.414 42.2305 301.23 42.6758 301.16 43.25H304.336V43.168C304.305 42.6172 304.156 42.1914 303.891 41.8906C303.625 41.5859 303.266 41.4336 302.812 41.4336Z" fill="black"/>
<path d="M383.266 99.293C383.16 100.195 382.826 100.893 382.264 101.385C381.705 101.873 380.961 102.117 380.031 102.117C379.023 102.117 378.215 101.756 377.605 101.033C377 100.311 376.697 99.3438 376.697 98.1328V97.3125C376.697 96.5195 376.838 95.8223 377.119 95.2207C377.404 94.6191 377.807 94.1582 378.326 93.8379C378.846 93.5137 379.447 93.3516 380.131 93.3516C381.037 93.3516 381.764 93.6055 382.311 94.1133C382.857 94.6172 383.176 95.3164 383.266 96.2109H382.135C382.037 95.5312 381.824 95.0391 381.496 94.7344C381.172 94.4297 380.717 94.2773 380.131 94.2773C379.412 94.2773 378.848 94.543 378.438 95.0742C378.031 95.6055 377.828 96.3613 377.828 97.3418V98.168C377.828 99.0938 378.021 99.8301 378.408 100.377C378.795 100.924 379.336 101.197 380.031 101.197C380.656 101.197 381.135 101.057 381.467 100.775C381.803 100.49 382.025 99.9961 382.135 99.293H383.266ZM384.35 98.7715C384.35 98.1504 384.471 97.5918 384.713 97.0957C384.959 96.5996 385.299 96.2168 385.732 95.9473C386.17 95.6777 386.668 95.543 387.227 95.543C388.09 95.543 388.787 95.8418 389.318 96.4395C389.854 97.0371 390.121 97.832 390.121 98.8242V98.9004C390.121 99.5176 390.002 100.072 389.764 100.564C389.529 101.053 389.191 101.434 388.75 101.707C388.312 101.98 387.809 102.117 387.238 102.117C386.379 102.117 385.682 101.818 385.146 101.221C384.615 100.623 384.35 99.832 384.35 98.8477V98.7715ZM385.439 98.9004C385.439 99.6035 385.602 100.168 385.926 100.594C386.254 101.02 386.691 101.232 387.238 101.232C387.789 101.232 388.227 101.018 388.551 100.588C388.875 100.154 389.037 99.5488 389.037 98.7715C389.037 98.0762 388.871 97.5137 388.539 97.084C388.211 96.6504 387.773 96.4336 387.227 96.4336C386.691 96.4336 386.26 96.6465 385.932 97.0723C385.604 97.498 385.439 98.1074 385.439 98.9004ZM392.5 95.6602L392.529 96.3633C392.994 95.8164 393.621 95.543 394.41 95.543C395.297 95.543 395.9 95.8828 396.221 96.5625C396.432 96.2578 396.705 96.0117 397.041 95.8242C397.381 95.6367 397.781 95.543 398.242 95.543C399.633 95.543 400.34 96.2793 400.363 97.752V102H399.279V97.8164C399.279 97.3633 399.176 97.0254 398.969 96.8027C398.762 96.5762 398.414 96.4629 397.926 96.4629C397.523 96.4629 397.189 96.584 396.924 96.8262C396.658 97.0645 396.504 97.3867 396.461 97.793V102H395.371V97.8457C395.371 96.9238 394.92 96.4629 394.018 96.4629C393.307 96.4629 392.82 96.7656 392.559 97.3711V102H391.475V95.6602H392.5ZM407.359 98.9004C407.359 99.8652 407.139 100.643 406.697 101.232C406.256 101.822 405.658 102.117 404.904 102.117C404.135 102.117 403.529 101.873 403.088 101.385V104.438H402.004V95.6602H402.994L403.047 96.3633C403.488 95.8164 404.102 95.543 404.887 95.543C405.648 95.543 406.25 95.8301 406.691 96.4043C407.137 96.9785 407.359 97.7773 407.359 98.8008V98.9004ZM406.275 98.7773C406.275 98.0625 406.123 97.498 405.818 97.084C405.514 96.6699 405.096 96.4629 404.564 96.4629C403.908 96.4629 403.416 96.7539 403.088 97.3359V100.365C403.412 100.943 403.908 101.232 404.576 101.232C405.096 101.232 405.508 101.027 405.812 100.617C406.121 100.203 406.275 99.5898 406.275 98.7773ZM411.807 96.6328C411.643 96.6055 411.465 96.5918 411.273 96.5918C410.562 96.5918 410.08 96.8945 409.826 97.5V102H408.742V95.6602H409.797L409.814 96.3926C410.17 95.8262 410.674 95.543 411.326 95.543C411.537 95.543 411.697 95.5703 411.807 95.625V96.6328ZM412.404 98.7715C412.404 98.1504 412.525 97.5918 412.768 97.0957C413.014 96.5996 413.354 96.2168 413.787 95.9473C414.225 95.6777 414.723 95.543 415.281 95.543C416.145 95.543 416.842 95.8418 417.373 96.4395C417.908 97.0371 418.176 97.832 418.176 98.8242V98.9004C418.176 99.5176 418.057 100.072 417.818 100.564C417.584 101.053 417.246 101.434 416.805 101.707C416.367 101.98 415.863 102.117 415.293 102.117C414.434 102.117 413.736 101.818 413.201 101.221C412.67 100.623 412.404 99.832 412.404 98.8477V98.7715ZM413.494 98.9004C413.494 99.6035 413.656 100.168 413.98 100.594C414.309 101.02 414.746 101.232 415.293 101.232C415.844 101.232 416.281 101.018 416.605 100.588C416.93 100.154 417.092 99.5488 417.092 98.7715C417.092 98.0762 416.926 97.5137 416.594 97.084C416.266 96.6504 415.828 96.4336 415.281 96.4336C414.746 96.4336 414.314 96.6465 413.986 97.0723C413.658 97.498 413.494 98.1074 413.494 98.9004ZM420.555 95.6602L420.584 96.3633C421.049 95.8164 421.676 95.543 422.465 95.543C423.352 95.543 423.955 95.8828 424.275 96.5625C424.486 96.2578 424.76 96.0117 425.096 95.8242C425.436 95.6367 425.836 95.543 426.297 95.543C427.688 95.543 428.395 96.2793 428.418 97.752V102H427.334V97.8164C427.334 97.3633 427.23 97.0254 427.023 96.8027C426.816 96.5762 426.469 96.4629 425.98 96.4629C425.578 96.4629 425.244 96.584 424.979 96.8262C424.713 97.0645 424.559 97.3867 424.516 97.793V102H423.426V97.8457C423.426 96.9238 422.975 96.4629 422.072 96.4629C421.361 96.4629 420.875 96.7656 420.613 97.3711V102H419.529V95.6602H420.555ZM431.236 102H430.152V95.6602H431.236V102ZM430.064 93.9785C430.064 93.8027 430.117 93.6543 430.223 93.5332C430.332 93.4121 430.492 93.3516 430.703 93.3516C430.914 93.3516 431.074 93.4121 431.184 93.5332C431.293 93.6543 431.348 93.8027 431.348 93.9785C431.348 94.1543 431.293 94.3008 431.184 94.418C431.074 94.5352 430.914 94.5938 430.703 94.5938C430.492 94.5938 430.332 94.5352 430.223 94.418C430.117 94.3008 430.064 94.1543 430.064 93.9785ZM436.668 100.318C436.668 100.025 436.557 99.7988 436.334 99.6387C436.115 99.4746 435.73 99.334 435.18 99.2168C434.633 99.0996 434.197 98.959 433.873 98.7949C433.553 98.6309 433.314 98.4355 433.158 98.209C433.006 97.9824 432.93 97.7129 432.93 97.4004C432.93 96.8809 433.148 96.4414 433.586 96.082C434.027 95.7227 434.59 95.543 435.273 95.543C435.992 95.543 436.574 95.7285 437.02 96.0996C437.469 96.4707 437.693 96.9453 437.693 97.5234H436.604C436.604 97.2266 436.477 96.9707 436.223 96.7559C435.973 96.541 435.656 96.4336 435.273 96.4336C434.879 96.4336 434.57 96.5195 434.348 96.6914C434.125 96.8633 434.014 97.0879 434.014 97.3652C434.014 97.627 434.117 97.8242 434.324 97.957C434.531 98.0898 434.904 98.2168 435.443 98.3379C435.986 98.459 436.426 98.6035 436.762 98.7715C437.098 98.9395 437.346 99.1426 437.506 99.3809C437.67 99.6152 437.752 99.9023 437.752 100.242C437.752 100.809 437.525 101.264 437.072 101.607C436.619 101.947 436.031 102.117 435.309 102.117C434.801 102.117 434.352 102.027 433.961 101.848C433.57 101.668 433.264 101.418 433.041 101.098C432.822 100.773 432.713 100.424 432.713 100.049H433.797C433.816 100.412 433.961 100.701 434.23 100.916C434.504 101.127 434.863 101.232 435.309 101.232C435.719 101.232 436.047 101.15 436.293 100.986C436.543 100.818 436.668 100.596 436.668 100.318ZM441.795 102.117C440.936 102.117 440.236 101.836 439.697 101.273C439.158 100.707 438.889 99.9512 438.889 99.0059V98.8066C438.889 98.1777 439.008 97.6172 439.246 97.125C439.488 96.6289 439.824 96.2422 440.254 95.9648C440.688 95.6836 441.156 95.543 441.66 95.543C442.484 95.543 443.125 95.8145 443.582 96.3574C444.039 96.9004 444.268 97.6777 444.268 98.6895V99.1406H439.973C439.988 99.7656 440.17 100.271 440.518 100.658C440.869 101.041 441.314 101.232 441.854 101.232C442.236 101.232 442.561 101.154 442.826 100.998C443.092 100.842 443.324 100.635 443.523 100.377L444.186 100.893C443.654 101.709 442.857 102.117 441.795 102.117ZM441.66 96.4336C441.223 96.4336 440.855 96.5938 440.559 96.9141C440.262 97.2305 440.078 97.6758 440.008 98.25H443.184V98.168C443.152 97.6172 443.004 97.1914 442.738 96.8906C442.473 96.5859 442.113 96.4336 441.66 96.4336ZM448.592 96.6328C448.428 96.6055 448.25 96.5918 448.059 96.5918C447.348 96.5918 446.865 96.8945 446.611 97.5V102H445.527V95.6602H446.582L446.6 96.3926C446.955 95.8262 447.459 95.543 448.111 95.543C448.322 95.543 448.482 95.5703 448.592 95.625V96.6328Z" fill="black"/>
<path d="M381.701 192.773H378.127L377.324 195H376.164L379.422 186.469H380.406L383.67 195H382.516L381.701 192.773ZM378.467 191.848H381.367L379.914 187.857L378.467 191.848ZM388.492 194.373C388.07 194.869 387.451 195.117 386.635 195.117C385.959 195.117 385.443 194.922 385.088 194.531C384.736 194.137 384.559 193.555 384.555 192.785V188.66H385.639V192.756C385.639 193.717 386.029 194.197 386.811 194.197C387.639 194.197 388.189 193.889 388.463 193.271V188.66H389.547V195H388.516L388.492 194.373ZM392.67 187.125V188.66H393.854V189.498H392.67V193.43C392.67 193.684 392.723 193.875 392.828 194.004C392.934 194.129 393.113 194.191 393.367 194.191C393.492 194.191 393.664 194.168 393.883 194.121V195C393.598 195.078 393.32 195.117 393.051 195.117C392.566 195.117 392.201 194.971 391.955 194.678C391.709 194.385 391.586 193.969 391.586 193.43V189.498H390.432V188.66H391.586V187.125H392.67ZM394.721 191.771C394.721 191.15 394.842 190.592 395.084 190.096C395.33 189.6 395.67 189.217 396.104 188.947C396.541 188.678 397.039 188.543 397.598 188.543C398.461 188.543 399.158 188.842 399.689 189.439C400.225 190.037 400.492 190.832 400.492 191.824V191.9C400.492 192.518 400.373 193.072 400.135 193.564C399.9 194.053 399.562 194.434 399.121 194.707C398.684 194.98 398.18 195.117 397.609 195.117C396.75 195.117 396.053 194.818 395.518 194.221C394.986 193.623 394.721 192.832 394.721 191.848V191.771ZM395.811 191.9C395.811 192.604 395.973 193.168 396.297 193.594C396.625 194.02 397.062 194.232 397.609 194.232C398.16 194.232 398.598 194.018 398.922 193.588C399.246 193.154 399.408 192.549 399.408 191.771C399.408 191.076 399.242 190.514 398.91 190.084C398.582 189.65 398.145 189.434 397.598 189.434C397.062 189.434 396.631 189.646 396.303 190.072C395.975 190.498 395.811 191.107 395.811 191.9ZM404.395 194.232C404.781 194.232 405.119 194.115 405.408 193.881C405.697 193.646 405.857 193.354 405.889 193.002H406.914C406.895 193.365 406.77 193.711 406.539 194.039C406.309 194.367 406 194.629 405.613 194.824C405.23 195.02 404.824 195.117 404.395 195.117C403.531 195.117 402.844 194.83 402.332 194.256C401.824 193.678 401.57 192.889 401.57 191.889V191.707C401.57 191.09 401.684 190.541 401.91 190.061C402.137 189.58 402.461 189.207 402.883 188.941C403.309 188.676 403.811 188.543 404.389 188.543C405.1 188.543 405.689 188.756 406.158 189.182C406.631 189.607 406.883 190.16 406.914 190.84H405.889C405.857 190.43 405.701 190.094 405.42 189.832C405.143 189.566 404.799 189.434 404.389 189.434C403.838 189.434 403.41 189.633 403.105 190.031C402.805 190.426 402.654 190.998 402.654 191.748V191.953C402.654 192.684 402.805 193.246 403.105 193.641C403.406 194.035 403.836 194.232 404.395 194.232ZM411.197 189.633C411.033 189.605 410.855 189.592 410.664 189.592C409.953 189.592 409.471 189.895 409.217 190.5V195H408.133V188.66H409.188L409.205 189.393C409.561 188.826 410.064 188.543 410.717 188.543C410.928 188.543 411.088 188.57 411.197 188.625V189.633ZM415.879 195C415.816 194.875 415.766 194.652 415.727 194.332C415.223 194.855 414.621 195.117 413.922 195.117C413.297 195.117 412.783 194.941 412.381 194.59C411.982 194.234 411.783 193.785 411.783 193.242C411.783 192.582 412.033 192.07 412.533 191.707C413.037 191.34 413.744 191.156 414.654 191.156H415.709V190.658C415.709 190.279 415.596 189.979 415.369 189.756C415.143 189.529 414.809 189.416 414.367 189.416C413.98 189.416 413.656 189.514 413.395 189.709C413.133 189.904 413.002 190.141 413.002 190.418H411.912C411.912 190.102 412.023 189.797 412.246 189.504C412.473 189.207 412.777 188.973 413.16 188.801C413.547 188.629 413.971 188.543 414.432 188.543C415.162 188.543 415.734 188.727 416.148 189.094C416.562 189.457 416.777 189.959 416.793 190.6V193.518C416.793 194.1 416.867 194.562 417.016 194.906V195H415.879ZM414.08 194.174C414.42 194.174 414.742 194.086 415.047 193.91C415.352 193.734 415.572 193.506 415.709 193.225V191.924H414.859C413.531 191.924 412.867 192.312 412.867 193.09C412.867 193.43 412.98 193.695 413.207 193.887C413.434 194.078 413.725 194.174 414.08 194.174ZM419.963 187.125V188.66H421.146V189.498H419.963V193.43C419.963 193.684 420.016 193.875 420.121 194.004C420.227 194.129 420.406 194.191 420.66 194.191C420.785 194.191 420.957 194.168 421.176 194.121V195C420.891 195.078 420.613 195.117 420.344 195.117C419.859 195.117 419.494 194.971 419.248 194.678C419.002 194.385 418.879 193.969 418.879 193.43V189.498H417.725V188.66H418.879V187.125H419.963ZM423.596 195H422.512V188.66H423.596V195ZM422.424 186.979C422.424 186.803 422.477 186.654 422.582 186.533C422.691 186.412 422.852 186.352 423.062 186.352C423.273 186.352 423.434 186.412 423.543 186.533C423.652 186.654 423.707 186.803 423.707 186.979C423.707 187.154 423.652 187.301 423.543 187.418C423.434 187.535 423.273 187.594 423.062 187.594C422.852 187.594 422.691 187.535 422.582 187.418C422.477 187.301 422.424 187.154 422.424 186.979ZM427.879 194.232C428.266 194.232 428.604 194.115 428.893 193.881C429.182 193.646 429.342 193.354 429.373 193.002H430.398C430.379 193.365 430.254 193.711 430.023 194.039C429.793 194.367 429.484 194.629 429.098 194.824C428.715 195.02 428.309 195.117 427.879 195.117C427.016 195.117 426.328 194.83 425.816 194.256C425.309 193.678 425.055 192.889 425.055 191.889V191.707C425.055 191.09 425.168 190.541 425.395 190.061C425.621 189.58 425.945 189.207 426.367 188.941C426.793 188.676 427.295 188.543 427.873 188.543C428.584 188.543 429.174 188.756 429.643 189.182C430.115 189.607 430.367 190.16 430.398 190.84H429.373C429.342 190.43 429.186 190.094 428.904 189.832C428.627 189.566 428.283 189.434 427.873 189.434C427.322 189.434 426.895 189.633 426.59 190.031C426.289 190.426 426.139 190.998 426.139 191.748V191.953C426.139 192.684 426.289 193.246 426.59 193.641C426.891 194.035 427.32 194.232 427.879 194.232Z" fill="black"/>
<path d="M259.99 287V278.469H262.779C263.705 278.469 264.4 278.66 264.865 279.043C265.334 279.426 265.568 279.992 265.568 280.742C265.568 281.141 265.455 281.494 265.229 281.803C265.002 282.107 264.693 282.344 264.303 282.512C264.764 282.641 265.127 282.887 265.393 283.25C265.662 283.609 265.797 284.039 265.797 284.539C265.797 285.305 265.549 285.906 265.053 286.344C264.557 286.781 263.855 287 262.949 287H259.99ZM261.115 283.01V286.08H262.973C263.496 286.08 263.908 285.945 264.209 285.676C264.514 285.402 264.666 285.027 264.666 284.551C264.666 283.523 264.107 283.01 262.99 283.01H261.115ZM261.115 282.107H262.814C263.307 282.107 263.699 281.984 263.992 281.738C264.289 281.492 264.438 281.158 264.438 280.736C264.438 280.268 264.301 279.928 264.027 279.717C263.754 279.502 263.338 279.395 262.779 279.395H261.115V282.107ZM269.928 287.117C269.068 287.117 268.369 286.836 267.83 286.273C267.291 285.707 267.021 284.951 267.021 284.006V283.807C267.021 283.178 267.141 282.617 267.379 282.125C267.621 281.629 267.957 281.242 268.387 280.965C268.82 280.684 269.289 280.543 269.793 280.543C270.617 280.543 271.258 280.814 271.715 281.357C272.172 281.9 272.4 282.678 272.4 283.689V284.141H268.105C268.121 284.766 268.303 285.271 268.65 285.658C269.002 286.041 269.447 286.232 269.986 286.232C270.369 286.232 270.693 286.154 270.959 285.998C271.225 285.842 271.457 285.635 271.656 285.377L272.318 285.893C271.787 286.709 270.99 287.117 269.928 287.117ZM269.793 281.434C269.355 281.434 268.988 281.594 268.691 281.914C268.395 282.23 268.211 282.676 268.141 283.25H271.316V283.168C271.285 282.617 271.137 282.191 270.871 281.891C270.605 281.586 270.246 281.434 269.793 281.434ZM274.686 280.66L274.721 281.457C275.205 280.848 275.838 280.543 276.619 280.543C277.959 280.543 278.635 281.299 278.646 282.811V287H277.562V282.805C277.559 282.348 277.453 282.01 277.246 281.791C277.043 281.572 276.725 281.463 276.291 281.463C275.939 281.463 275.631 281.557 275.365 281.744C275.1 281.932 274.893 282.178 274.744 282.482V287H273.66V280.66H274.686ZM282.912 287.117C282.053 287.117 281.354 286.836 280.814 286.273C280.275 285.707 280.006 284.951 280.006 284.006V283.807C280.006 283.178 280.125 282.617 280.363 282.125C280.605 281.629 280.941 281.242 281.371 280.965C281.805 280.684 282.273 280.543 282.777 280.543C283.602 280.543 284.242 280.814 284.699 281.357C285.156 281.9 285.385 282.678 285.385 283.689V284.141H281.09C281.105 284.766 281.287 285.271 281.635 285.658C281.986 286.041 282.432 286.232 282.971 286.232C283.354 286.232 283.678 286.154 283.943 285.998C284.209 285.842 284.441 285.635 284.641 285.377L285.303 285.893C284.771 286.709 283.975 287.117 282.912 287.117ZM282.777 281.434C282.34 281.434 281.973 281.594 281.676 281.914C281.379 282.23 281.195 282.676 281.125 283.25H284.301V283.168C284.27 282.617 284.121 282.191 283.855 281.891C283.59 281.586 283.23 281.434 282.777 281.434ZM288.654 285.529L290.225 280.66H291.332L289.059 287H288.232L285.936 280.66H287.043L288.654 285.529ZM291.994 283.771C291.994 283.15 292.115 282.592 292.357 282.096C292.604 281.6 292.943 281.217 293.377 280.947C293.814 280.678 294.312 280.543 294.871 280.543C295.734 280.543 296.432 280.842 296.963 281.439C297.498 282.037 297.766 282.832 297.766 283.824V283.9C297.766 284.518 297.646 285.072 297.408 285.564C297.174 286.053 296.836 286.434 296.395 286.707C295.957 286.98 295.453 287.117 294.883 287.117C294.023 287.117 293.326 286.818 292.791 286.221C292.26 285.623 291.994 284.832 291.994 283.848V283.771ZM293.084 283.9C293.084 284.604 293.246 285.168 293.57 285.594C293.898 286.02 294.336 286.232 294.883 286.232C295.434 286.232 295.871 286.018 296.195 285.588C296.52 285.154 296.682 284.549 296.682 283.771C296.682 283.076 296.516 282.514 296.184 282.084C295.855 281.65 295.418 281.434 294.871 281.434C294.336 281.434 293.904 281.646 293.576 282.072C293.248 282.498 293.084 283.107 293.084 283.9ZM300.303 287H299.219V278H300.303V287ZM304.674 287.117C303.814 287.117 303.115 286.836 302.576 286.273C302.037 285.707 301.768 284.951 301.768 284.006V283.807C301.768 283.178 301.887 282.617 302.125 282.125C302.367 281.629 302.703 281.242 303.133 280.965C303.566 280.684 304.035 280.543 304.539 280.543C305.363 280.543 306.004 280.814 306.461 281.357C306.918 281.9 307.146 282.678 307.146 283.689V284.141H302.852C302.867 284.766 303.049 285.271 303.396 285.658C303.748 286.041 304.193 286.232 304.732 286.232C305.115 286.232 305.439 286.154 305.705 285.998C305.971 285.842 306.203 285.635 306.402 285.377L307.064 285.893C306.533 286.709 305.736 287.117 304.674 287.117ZM304.539 281.434C304.102 281.434 303.734 281.594 303.438 281.914C303.141 282.23 302.957 282.676 302.887 283.25H306.062V283.168C306.031 282.617 305.883 282.191 305.617 281.891C305.352 281.586 304.992 281.434 304.539 281.434ZM309.432 280.66L309.467 281.457C309.951 280.848 310.584 280.543 311.365 280.543C312.705 280.543 313.381 281.299 313.393 282.811V287H312.309V282.805C312.305 282.348 312.199 282.01 311.992 281.791C311.789 281.572 311.471 281.463 311.037 281.463C310.686 281.463 310.377 281.557 310.111 281.744C309.846 281.932 309.639 282.178 309.49 282.482V287H308.406V280.66H309.432ZM316.498 279.125V280.66H317.682V281.498H316.498V285.43C316.498 285.684 316.551 285.875 316.656 286.004C316.762 286.129 316.941 286.191 317.195 286.191C317.32 286.191 317.492 286.168 317.711 286.121V287C317.426 287.078 317.148 287.117 316.879 287.117C316.395 287.117 316.029 286.971 315.783 286.678C315.537 286.385 315.414 285.969 315.414 285.43V281.498H314.26V280.66H315.414V279.125H316.498ZM326.811 284.773H323.236L322.434 287H321.273L324.531 278.469H325.516L328.779 287H327.625L326.811 284.773ZM323.576 283.848H326.477L325.023 279.857L323.576 283.848ZM333.602 286.373C333.18 286.869 332.561 287.117 331.744 287.117C331.068 287.117 330.553 286.922 330.197 286.531C329.846 286.137 329.668 285.555 329.664 284.785V280.66H330.748V284.756C330.748 285.717 331.139 286.197 331.92 286.197C332.748 286.197 333.299 285.889 333.572 285.271V280.66H334.656V287H333.625L333.602 286.373ZM337.779 279.125V280.66H338.963V281.498H337.779V285.43C337.779 285.684 337.832 285.875 337.938 286.004C338.043 286.129 338.223 286.191 338.477 286.191C338.602 286.191 338.773 286.168 338.992 286.121V287C338.707 287.078 338.43 287.117 338.16 287.117C337.676 287.117 337.311 286.971 337.064 286.678C336.818 286.385 336.695 285.969 336.695 285.43V281.498H335.541V280.66H336.695V279.125H337.779ZM339.83 283.771C339.83 283.15 339.951 282.592 340.193 282.096C340.439 281.6 340.779 281.217 341.213 280.947C341.65 280.678 342.148 280.543 342.707 280.543C343.57 280.543 344.268 280.842 344.799 281.439C345.334 282.037 345.602 282.832 345.602 283.824V283.9C345.602 284.518 345.482 285.072 345.244 285.564C345.01 286.053 344.672 286.434 344.23 286.707C343.793 286.98 343.289 287.117 342.719 287.117C341.859 287.117 341.162 286.818 340.627 286.221C340.096 285.623 339.83 284.832 339.83 283.848V283.771ZM340.92 283.9C340.92 284.604 341.082 285.168 341.406 285.594C341.734 286.02 342.172 286.232 342.719 286.232C343.27 286.232 343.707 286.018 344.031 285.588C344.355 285.154 344.518 284.549 344.518 283.771C344.518 283.076 344.352 282.514 344.02 282.084C343.691 281.65 343.254 281.434 342.707 281.434C342.172 281.434 341.74 281.646 341.412 282.072C341.084 282.498 340.92 283.107 340.92 283.9ZM349.504 286.232C349.891 286.232 350.229 286.115 350.518 285.881C350.807 285.646 350.967 285.354 350.998 285.002H352.023C352.004 285.365 351.879 285.711 351.648 286.039C351.418 286.367 351.109 286.629 350.723 286.824C350.34 287.02 349.934 287.117 349.504 287.117C348.641 287.117 347.953 286.83 347.441 286.256C346.934 285.678 346.68 284.889 346.68 283.889V283.707C346.68 283.09 346.793 282.541 347.02 282.061C347.246 281.58 347.57 281.207 347.992 280.941C348.418 280.676 348.92 280.543 349.498 280.543C350.209 280.543 350.799 280.756 351.268 281.182C351.74 281.607 351.992 282.16 352.023 282.84H350.998C350.967 282.43 350.811 282.094 350.529 281.832C350.252 281.566 349.908 281.434 349.498 281.434C348.947 281.434 348.52 281.633 348.215 282.031C347.914 282.426 347.764 282.998 347.764 283.748V283.953C347.764 284.684 347.914 285.246 348.215 285.641C348.516 286.035 348.945 286.232 349.504 286.232ZM356.307 281.633C356.143 281.605 355.965 281.592 355.773 281.592C355.062 281.592 354.58 281.895 354.326 282.5V287H353.242V280.66H354.297L354.314 281.393C354.67 280.826 355.174 280.543 355.826 280.543C356.037 280.543 356.197 280.57 356.307 280.625V281.633ZM360.988 287C360.926 286.875 360.875 286.652 360.836 286.332C360.332 286.855 359.73 287.117 359.031 287.117C358.406 287.117 357.893 286.941 357.49 286.59C357.092 286.234 356.893 285.785 356.893 285.242C356.893 284.582 357.143 284.07 357.643 283.707C358.146 283.34 358.854 283.156 359.764 283.156H360.818V282.658C360.818 282.279 360.705 281.979 360.479 281.756C360.252 281.529 359.918 281.416 359.477 281.416C359.09 281.416 358.766 281.514 358.504 281.709C358.242 281.904 358.111 282.141 358.111 282.418H357.021C357.021 282.102 357.133 281.797 357.355 281.504C357.582 281.207 357.887 280.973 358.27 280.801C358.656 280.629 359.08 280.543 359.541 280.543C360.271 280.543 360.844 280.727 361.258 281.094C361.672 281.457 361.887 281.959 361.902 282.6V285.518C361.902 286.1 361.977 286.562 362.125 286.906V287H360.988ZM359.189 286.174C359.529 286.174 359.852 286.086 360.156 285.91C360.461 285.734 360.682 285.506 360.818 285.225V283.924H359.969C358.641 283.924 357.977 284.312 357.977 285.09C357.977 285.43 358.09 285.695 358.316 285.887C358.543 286.078 358.834 286.174 359.189 286.174ZM365.072 279.125V280.66H366.256V281.498H365.072V285.43C365.072 285.684 365.125 285.875 365.23 286.004C365.336 286.129 365.516 286.191 365.77 286.191C365.895 286.191 366.066 286.168 366.285 286.121V287C366 287.078 365.723 287.117 365.453 287.117C364.969 287.117 364.604 286.971 364.357 286.678C364.111 286.385 363.988 285.969 363.988 285.43V281.498H362.834V280.66H363.988V279.125H365.072ZM368.705 287H367.621V280.66H368.705V287ZM367.533 278.979C367.533 278.803 367.586 278.654 367.691 278.533C367.801 278.412 367.961 278.352 368.172 278.352C368.383 278.352 368.543 278.412 368.652 278.533C368.762 278.654 368.816 278.803 368.816 278.979C368.816 279.154 368.762 279.301 368.652 279.418C368.543 279.535 368.383 279.594 368.172 279.594C367.961 279.594 367.801 279.535 367.691 279.418C367.586 279.301 367.533 279.154 367.533 278.979ZM372.988 286.232C373.375 286.232 373.713 286.115 374.002 285.881C374.291 285.646 374.451 285.354 374.482 285.002H375.508C375.488 285.365 375.363 285.711 375.133 286.039C374.902 286.367 374.594 286.629 374.207 286.824C373.824 287.02 373.418 287.117 372.988 287.117C372.125 287.117 371.438 286.83 370.926 286.256C370.418 285.678 370.164 284.889 370.164 283.889V283.707C370.164 283.09 370.277 282.541 370.504 282.061C370.73 281.58 371.055 281.207 371.477 280.941C371.902 280.676 372.404 280.543 372.982 280.543C373.693 280.543 374.283 280.756 374.752 281.182C375.225 281.607 375.477 282.16 375.508 282.84H374.482C374.451 282.43 374.295 282.094 374.014 281.832C373.736 281.566 373.393 281.434 372.982 281.434C372.432 281.434 372.004 281.633 371.699 282.031C371.398 282.426 371.248 282.998 371.248 283.748V283.953C371.248 284.684 371.398 285.246 371.699 285.641C372 286.035 372.43 286.232 372.988 286.232Z" fill="black"/>
<path d="M110.99 287V278.469H113.779C114.705 278.469 115.4 278.66 115.865 279.043C116.334 279.426 116.568 279.992 116.568 280.742C116.568 281.141 116.455 281.494 116.229 281.803C116.002 282.107 115.693 282.344 115.303 282.512C115.764 282.641 116.127 282.887 116.393 283.25C116.662 283.609 116.797 284.039 116.797 284.539C116.797 285.305 116.549 285.906 116.053 286.344C115.557 286.781 114.855 287 113.949 287H110.99ZM112.115 283.01V286.08H113.973C114.496 286.08 114.908 285.945 115.209 285.676C115.514 285.402 115.666 285.027 115.666 284.551C115.666 283.523 115.107 283.01 113.99 283.01H112.115ZM112.115 282.107H113.814C114.307 282.107 114.699 281.984 114.992 281.738C115.289 281.492 115.438 281.158 115.438 280.736C115.438 280.268 115.301 279.928 115.027 279.717C114.754 279.502 114.338 279.395 113.779 279.395H112.115V282.107ZM122.211 286.373C121.789 286.869 121.17 287.117 120.354 287.117C119.678 287.117 119.162 286.922 118.807 286.531C118.455 286.137 118.277 285.555 118.273 284.785V280.66H119.357V284.756C119.357 285.717 119.748 286.197 120.529 286.197C121.357 286.197 121.908 285.889 122.182 285.271V280.66H123.266V287H122.234L122.211 286.373ZM127.982 281.633C127.818 281.605 127.641 281.592 127.449 281.592C126.738 281.592 126.256 281.895 126.002 282.5V287H124.918V280.66H125.973L125.99 281.393C126.346 280.826 126.85 280.543 127.502 280.543C127.713 280.543 127.873 280.57 127.982 280.625V281.633ZM131.498 287.117C130.639 287.117 129.939 286.836 129.4 286.273C128.861 285.707 128.592 284.951 128.592 284.006V283.807C128.592 283.178 128.711 282.617 128.949 282.125C129.191 281.629 129.527 281.242 129.957 280.965C130.391 280.684 130.859 280.543 131.363 280.543C132.188 280.543 132.828 280.814 133.285 281.357C133.742 281.9 133.971 282.678 133.971 283.689V284.141H129.676C129.691 284.766 129.873 285.271 130.221 285.658C130.572 286.041 131.018 286.232 131.557 286.232C131.939 286.232 132.264 286.154 132.529 285.998C132.795 285.842 133.027 285.635 133.227 285.377L133.889 285.893C133.357 286.709 132.561 287.117 131.498 287.117ZM131.363 281.434C130.926 281.434 130.559 281.594 130.262 281.914C129.965 282.23 129.781 282.676 129.711 283.25H132.887V283.168C132.855 282.617 132.707 282.191 132.441 281.891C132.176 281.586 131.816 281.434 131.363 281.434ZM139.145 287C139.082 286.875 139.031 286.652 138.992 286.332C138.488 286.855 137.887 287.117 137.188 287.117C136.562 287.117 136.049 286.941 135.646 286.59C135.248 286.234 135.049 285.785 135.049 285.242C135.049 284.582 135.299 284.07 135.799 283.707C136.303 283.34 137.01 283.156 137.92 283.156H138.975V282.658C138.975 282.279 138.861 281.979 138.635 281.756C138.408 281.529 138.074 281.416 137.633 281.416C137.246 281.416 136.922 281.514 136.66 281.709C136.398 281.904 136.268 282.141 136.268 282.418H135.178C135.178 282.102 135.289 281.797 135.512 281.504C135.738 281.207 136.043 280.973 136.426 280.801C136.812 280.629 137.236 280.543 137.697 280.543C138.428 280.543 139 280.727 139.414 281.094C139.828 281.457 140.043 281.959 140.059 282.6V285.518C140.059 286.1 140.133 286.562 140.281 286.906V287H139.145ZM137.346 286.174C137.686 286.174 138.008 286.086 138.312 285.91C138.617 285.734 138.838 285.506 138.975 285.225V283.924H138.125C136.797 283.924 136.133 284.312 136.133 285.09C136.133 285.43 136.246 285.695 136.473 285.887C136.699 286.078 136.99 286.174 137.346 286.174ZM145.672 286.373C145.25 286.869 144.631 287.117 143.814 287.117C143.139 287.117 142.623 286.922 142.268 286.531C141.916 286.137 141.738 285.555 141.734 284.785V280.66H142.818V284.756C142.818 285.717 143.209 286.197 143.99 286.197C144.818 286.197 145.369 285.889 145.643 285.271V280.66H146.727V287H145.695L145.672 286.373ZM150.922 286.232C151.309 286.232 151.646 286.115 151.936 285.881C152.225 285.646 152.385 285.354 152.416 285.002H153.441C153.422 285.365 153.297 285.711 153.066 286.039C152.836 286.367 152.527 286.629 152.141 286.824C151.758 287.02 151.352 287.117 150.922 287.117C150.059 287.117 149.371 286.83 148.859 286.256C148.352 285.678 148.098 284.889 148.098 283.889V283.707C148.098 283.09 148.211 282.541 148.438 282.061C148.664 281.58 148.988 281.207 149.41 280.941C149.836 280.676 150.338 280.543 150.916 280.543C151.627 280.543 152.217 280.756 152.686 281.182C153.158 281.607 153.41 282.16 153.441 282.84H152.416C152.385 282.43 152.229 282.094 151.947 281.832C151.67 281.566 151.326 281.434 150.916 281.434C150.365 281.434 149.938 281.633 149.633 282.031C149.332 282.426 149.182 282.998 149.182 283.748V283.953C149.182 284.684 149.332 285.246 149.633 285.641C149.934 286.035 150.363 286.232 150.922 286.232ZM157.725 281.633C157.561 281.605 157.383 281.592 157.191 281.592C156.48 281.592 155.998 281.895 155.744 282.5V287H154.66V280.66H155.715L155.732 281.393C156.088 280.826 156.592 280.543 157.244 280.543C157.455 280.543 157.615 280.57 157.725 280.625V281.633ZM162.406 287C162.344 286.875 162.293 286.652 162.254 286.332C161.75 286.855 161.148 287.117 160.449 287.117C159.824 287.117 159.311 286.941 158.908 286.59C158.51 286.234 158.311 285.785 158.311 285.242C158.311 284.582 158.561 284.07 159.061 283.707C159.564 283.34 160.271 283.156 161.182 283.156H162.236V282.658C162.236 282.279 162.123 281.979 161.896 281.756C161.67 281.529 161.336 281.416 160.895 281.416C160.508 281.416 160.184 281.514 159.922 281.709C159.66 281.904 159.529 282.141 159.529 282.418H158.439C158.439 282.102 158.551 281.797 158.773 281.504C159 281.207 159.305 280.973 159.688 280.801C160.074 280.629 160.498 280.543 160.959 280.543C161.689 280.543 162.262 280.727 162.676 281.094C163.09 281.457 163.305 281.959 163.32 282.6V285.518C163.32 286.1 163.395 286.562 163.543 286.906V287H162.406ZM160.607 286.174C160.947 286.174 161.27 286.086 161.574 285.91C161.879 285.734 162.1 285.506 162.236 285.225V283.924H161.387C160.059 283.924 159.395 284.312 159.395 285.09C159.395 285.43 159.508 285.695 159.734 285.887C159.961 286.078 160.252 286.174 160.607 286.174ZM166.49 279.125V280.66H167.674V281.498H166.49V285.43C166.49 285.684 166.543 285.875 166.648 286.004C166.754 286.129 166.934 286.191 167.188 286.191C167.312 286.191 167.484 286.168 167.703 286.121V287C167.418 287.078 167.141 287.117 166.871 287.117C166.387 287.117 166.021 286.971 165.775 286.678C165.529 286.385 165.406 285.969 165.406 285.43V281.498H164.252V280.66H165.406V279.125H166.49Z" fill="black"/>
<path d="M51.9902 195V186.469H54.3984C55.1406 186.469 55.7969 186.633 56.3672 186.961C56.9375 187.289 57.377 187.756 57.6855 188.361C57.998 188.967 58.1562 189.662 58.1602 190.447V190.992C58.1602 191.797 58.0039 192.502 57.6914 193.107C57.3828 193.713 56.9395 194.178 56.3613 194.502C55.7871 194.826 55.1172 194.992 54.3516 195H51.9902ZM53.1152 187.395V194.08H54.2988C55.166 194.08 55.8398 193.811 56.3203 193.271C56.8047 192.732 57.0469 191.965 57.0469 190.969V190.471C57.0469 189.502 56.8184 188.75 56.3613 188.215C55.9082 187.676 55.2637 187.402 54.4277 187.395H53.1152ZM62.3262 195.117C61.4668 195.117 60.7676 194.836 60.2285 194.273C59.6895 193.707 59.4199 192.951 59.4199 192.006V191.807C59.4199 191.178 59.5391 190.617 59.7773 190.125C60.0195 189.629 60.3555 189.242 60.7852 188.965C61.2188 188.684 61.6875 188.543 62.1914 188.543C63.0156 188.543 63.6562 188.814 64.1133 189.357C64.5703 189.9 64.7988 190.678 64.7988 191.689V192.141H60.5039C60.5195 192.766 60.7012 193.271 61.0488 193.658C61.4004 194.041 61.8457 194.232 62.3848 194.232C62.7676 194.232 63.0918 194.154 63.3574 193.998C63.623 193.842 63.8555 193.635 64.0547 193.377L64.7168 193.893C64.1855 194.709 63.3887 195.117 62.3262 195.117ZM62.1914 189.434C61.7539 189.434 61.3867 189.594 61.0898 189.914C60.793 190.23 60.6094 190.676 60.5391 191.25H63.7148V191.168C63.6836 190.617 63.5352 190.191 63.2695 189.891C63.0039 189.586 62.6445 189.434 62.1914 189.434ZM69.75 193.318C69.75 193.025 69.6387 192.799 69.416 192.639C69.1973 192.475 68.8125 192.334 68.2617 192.217C67.7148 192.1 67.2793 191.959 66.9551 191.795C66.6348 191.631 66.3965 191.436 66.2402 191.209C66.0879 190.982 66.0117 190.713 66.0117 190.4C66.0117 189.881 66.2305 189.441 66.668 189.082C67.1094 188.723 67.6719 188.543 68.3555 188.543C69.0742 188.543 69.6562 188.729 70.1016 189.1C70.5508 189.471 70.7754 189.945 70.7754 190.523H69.6855C69.6855 190.227 69.5586 189.971 69.3047 189.756C69.0547 189.541 68.7383 189.434 68.3555 189.434C67.9609 189.434 67.6523 189.52 67.4297 189.691C67.207 189.863 67.0957 190.088 67.0957 190.365C67.0957 190.627 67.1992 190.824 67.4062 190.957C67.6133 191.09 67.9863 191.217 68.5254 191.338C69.0684 191.459 69.5078 191.604 69.8438 191.771C70.1797 191.939 70.4277 192.143 70.5879 192.381C70.752 192.615 70.834 192.902 70.834 193.242C70.834 193.809 70.6074 194.264 70.1543 194.607C69.7012 194.947 69.1133 195.117 68.3906 195.117C67.8828 195.117 67.4336 195.027 67.043 194.848C66.6523 194.668 66.3457 194.418 66.123 194.098C65.9043 193.773 65.7949 193.424 65.7949 193.049H66.8789C66.8984 193.412 67.043 193.701 67.3125 193.916C67.5859 194.127 67.9453 194.232 68.3906 194.232C68.8008 194.232 69.1289 194.15 69.375 193.986C69.625 193.818 69.75 193.596 69.75 193.318ZM74.877 195.117C74.0176 195.117 73.3184 194.836 72.7793 194.273C72.2402 193.707 71.9707 192.951 71.9707 192.006V191.807C71.9707 191.178 72.0898 190.617 72.3281 190.125C72.5703 189.629 72.9062 189.242 73.3359 188.965C73.7695 188.684 74.2383 188.543 74.7422 188.543C75.5664 188.543 76.207 188.814 76.6641 189.357C77.1211 189.9 77.3496 190.678 77.3496 191.689V192.141H73.0547C73.0703 192.766 73.252 193.271 73.5996 193.658C73.9512 194.041 74.3965 194.232 74.9355 194.232C75.3184 194.232 75.6426 194.154 75.9082 193.998C76.1738 193.842 76.4062 193.635 76.6055 193.377L77.2676 193.893C76.7363 194.709 75.9395 195.117 74.877 195.117ZM74.7422 189.434C74.3047 189.434 73.9375 189.594 73.6406 189.914C73.3438 190.23 73.1602 190.676 73.0898 191.25H76.2656V191.168C76.2344 190.617 76.0859 190.191 75.8203 189.891C75.5547 189.586 75.1953 189.434 74.7422 189.434ZM81.6738 189.633C81.5098 189.605 81.332 189.592 81.1406 189.592C80.4297 189.592 79.9473 189.895 79.6934 190.5V195H78.6094V188.66H79.6641L79.6816 189.393C80.0371 188.826 80.541 188.543 81.1934 188.543C81.4043 188.543 81.5645 188.57 81.6738 188.625V189.633ZM84.4395 187.125V188.66H85.623V189.498H84.4395V193.43C84.4395 193.684 84.4922 193.875 84.5977 194.004C84.7031 194.129 84.8828 194.191 85.1367 194.191C85.2617 194.191 85.4336 194.168 85.6523 194.121V195C85.3672 195.078 85.0898 195.117 84.8203 195.117C84.3359 195.117 83.9707 194.971 83.7246 194.678C83.4785 194.385 83.3555 193.969 83.3555 193.43V189.498H82.2012V188.66H83.3555V187.125H84.4395ZM89.5254 195.117C88.666 195.117 87.9668 194.836 87.4277 194.273C86.8887 193.707 86.6191 192.951 86.6191 192.006V191.807C86.6191 191.178 86.7383 190.617 86.9766 190.125C87.2188 189.629 87.5547 189.242 87.9844 188.965C88.418 188.684 88.8867 188.543 89.3906 188.543C90.2148 188.543 90.8555 188.814 91.3125 189.357C91.7695 189.9 91.998 190.678 91.998 191.689V192.141H87.7031C87.7188 192.766 87.9004 193.271 88.248 193.658C88.5996 194.041 89.0449 194.232 89.584 194.232C89.9668 194.232 90.291 194.154 90.5566 193.998C90.8223 193.842 91.0547 193.635 91.2539 193.377L91.916 193.893C91.3848 194.709 90.5879 195.117 89.5254 195.117ZM89.3906 189.434C88.9531 189.434 88.5859 189.594 88.2891 189.914C87.9922 190.23 87.8086 190.676 87.7383 191.25H90.9141V191.168C90.8828 190.617 90.7344 190.191 90.4688 189.891C90.2031 189.586 89.8438 189.434 89.3906 189.434ZM96.3223 189.633C96.1582 189.605 95.9805 189.592 95.7891 189.592C95.0781 189.592 94.5957 189.895 94.3418 190.5V195H93.2578V188.66H94.3125L94.3301 189.393C94.6855 188.826 95.1895 188.543 95.8418 188.543C96.0527 188.543 96.2129 188.57 96.3223 188.625V189.633Z" fill="black"/>
<path d="M53.4434 93.4688L56.2324 100.43L59.0215 93.4688H60.4805V102H59.3555V98.6777L59.4609 95.0918L56.6602 102H55.7988L53.0039 95.1094L53.1152 98.6777V102H51.9902V93.4688H53.4434ZM63.4746 102H62.3906V95.6602H63.4746V102ZM62.3027 93.9785C62.3027 93.8027 62.3555 93.6543 62.4609 93.5332C62.5703 93.4121 62.7305 93.3516 62.9414 93.3516C63.1523 93.3516 63.3125 93.4121 63.4219 93.5332C63.5312 93.6543 63.5859 93.8027 63.5859 93.9785C63.5859 94.1543 63.5312 94.3008 63.4219 94.418C63.3125 94.5352 63.1523 94.5938 62.9414 94.5938C62.7305 94.5938 62.5703 94.5352 62.4609 94.418C62.3555 94.3008 62.3027 94.1543 62.3027 93.9785ZM68.9062 100.318C68.9062 100.025 68.7949 99.7988 68.5723 99.6387C68.3535 99.4746 67.9688 99.334 67.418 99.2168C66.8711 99.0996 66.4355 98.959 66.1113 98.7949C65.791 98.6309 65.5527 98.4355 65.3965 98.209C65.2441 97.9824 65.168 97.7129 65.168 97.4004C65.168 96.8809 65.3867 96.4414 65.8242 96.082C66.2656 95.7227 66.8281 95.543 67.5117 95.543C68.2305 95.543 68.8125 95.7285 69.2578 96.0996C69.707 96.4707 69.9316 96.9453 69.9316 97.5234H68.8418C68.8418 97.2266 68.7148 96.9707 68.4609 96.7559C68.2109 96.541 67.8945 96.4336 67.5117 96.4336C67.1172 96.4336 66.8086 96.5195 66.5859 96.6914C66.3633 96.8633 66.252 97.0879 66.252 97.3652C66.252 97.627 66.3555 97.8242 66.5625 97.957C66.7695 98.0898 67.1426 98.2168 67.6816 98.3379C68.2246 98.459 68.6641 98.6035 69 98.7715C69.3359 98.9395 69.584 99.1426 69.7441 99.3809C69.9082 99.6152 69.9902 99.9023 69.9902 100.242C69.9902 100.809 69.7637 101.264 69.3105 101.607C68.8574 101.947 68.2695 102.117 67.5469 102.117C67.0391 102.117 66.5898 102.027 66.1992 101.848C65.8086 101.668 65.502 101.418 65.2793 101.098C65.0605 100.773 64.9512 100.424 64.9512 100.049H66.0352C66.0547 100.412 66.1992 100.701 66.4688 100.916C66.7422 101.127 67.1016 101.232 67.5469 101.232C67.957 101.232 68.2852 101.15 68.5312 100.986C68.7812 100.818 68.9062 100.596 68.9062 100.318ZM75.0938 100.318C75.0938 100.025 74.9824 99.7988 74.7598 99.6387C74.541 99.4746 74.1562 99.334 73.6055 99.2168C73.0586 99.0996 72.623 98.959 72.2988 98.7949C71.9785 98.6309 71.7402 98.4355 71.584 98.209C71.4316 97.9824 71.3555 97.7129 71.3555 97.4004C71.3555 96.8809 71.5742 96.4414 72.0117 96.082C72.4531 95.7227 73.0156 95.543 73.6992 95.543C74.418 95.543 75 95.7285 75.4453 96.0996C75.8945 96.4707 76.1191 96.9453 76.1191 97.5234H75.0293C75.0293 97.2266 74.9023 96.9707 74.6484 96.7559C74.3984 96.541 74.082 96.4336 73.6992 96.4336C73.3047 96.4336 72.9961 96.5195 72.7734 96.6914C72.5508 96.8633 72.4395 97.0879 72.4395 97.3652C72.4395 97.627 72.543 97.8242 72.75 97.957C72.957 98.0898 73.3301 98.2168 73.8691 98.3379C74.4121 98.459 74.8516 98.6035 75.1875 98.7715C75.5234 98.9395 75.7715 99.1426 75.9316 99.3809C76.0957 99.6152 76.1777 99.9023 76.1777 100.242C76.1777 100.809 75.9512 101.264 75.498 101.607C75.0449 101.947 74.457 102.117 73.7344 102.117C73.2266 102.117 72.7773 102.027 72.3867 101.848C71.9961 101.668 71.6895 101.418 71.4668 101.098C71.248 100.773 71.1387 100.424 71.1387 100.049H72.2227C72.2422 100.412 72.3867 100.701 72.6562 100.916C72.9297 101.127 73.2891 101.232 73.7344 101.232C74.1445 101.232 74.4727 101.15 74.7188 100.986C74.9688 100.818 75.0938 100.596 75.0938 100.318ZM78.7676 102H77.6836V95.6602H78.7676V102ZM77.5957 93.9785C77.5957 93.8027 77.6484 93.6543 77.7539 93.5332C77.8633 93.4121 78.0234 93.3516 78.2344 93.3516C78.4453 93.3516 78.6055 93.4121 78.7148 93.5332C78.8242 93.6543 78.8789 93.8027 78.8789 93.9785C78.8789 94.1543 78.8242 94.3008 78.7148 94.418C78.6055 94.5352 78.4453 94.5938 78.2344 94.5938C78.0234 94.5938 77.8633 94.5352 77.7539 94.418C77.6484 94.3008 77.5957 94.1543 77.5957 93.9785ZM80.2207 98.7715C80.2207 98.1504 80.3418 97.5918 80.584 97.0957C80.8301 96.5996 81.1699 96.2168 81.6035 95.9473C82.041 95.6777 82.5391 95.543 83.0977 95.543C83.9609 95.543 84.6582 95.8418 85.1895 96.4395C85.7246 97.0371 85.9922 97.832 85.9922 98.8242V98.9004C85.9922 99.5176 85.873 100.072 85.6348 100.564C85.4004 101.053 85.0625 101.434 84.6211 101.707C84.1836 101.98 83.6797 102.117 83.1094 102.117C82.25 102.117 81.5527 101.818 81.0176 101.221C80.4863 100.623 80.2207 99.832 80.2207 98.8477V98.7715ZM81.3105 98.9004C81.3105 99.6035 81.4727 100.168 81.7969 100.594C82.125 101.02 82.5625 101.232 83.1094 101.232C83.6602 101.232 84.0977 101.018 84.4219 100.588C84.7461 100.154 84.9082 99.5488 84.9082 98.7715C84.9082 98.0762 84.7422 97.5137 84.4102 97.084C84.082 96.6504 83.6445 96.4336 83.0977 96.4336C82.5625 96.4336 82.1309 96.6465 81.8027 97.0723C81.4746 97.498 81.3105 98.1074 81.3105 98.9004ZM88.377 95.6602L88.4121 96.457C88.8965 95.8477 89.5293 95.543 90.3105 95.543C91.6504 95.543 92.3262 96.2988 92.3379 97.8105V102H91.2539V97.8047C91.25 97.3477 91.1445 97.0098 90.9375 96.791C90.7344 96.5723 90.416 96.4629 89.9824 96.4629C89.6309 96.4629 89.3223 96.5566 89.0566 96.7441C88.791 96.9316 88.584 97.1777 88.4355 97.4824V102H87.3516V95.6602H88.377ZM97.8867 102C97.8242 101.875 97.7734 101.652 97.7344 101.332C97.2305 101.855 96.6289 102.117 95.9297 102.117C95.3047 102.117 94.791 101.941 94.3887 101.59C93.9902 101.234 93.791 100.785 93.791 100.242C93.791 99.582 94.041 99.0703 94.541 98.707C95.0449 98.3398 95.752 98.1562 96.6621 98.1562H97.7168V97.6582C97.7168 97.2793 97.6035 96.9785 97.377 96.7559C97.1504 96.5293 96.8164 96.416 96.375 96.416C95.9883 96.416 95.6641 96.5137 95.4023 96.709C95.1406 96.9043 95.0098 97.1406 95.0098 97.418H93.9199C93.9199 97.1016 94.0312 96.7969 94.2539 96.5039C94.4805 96.207 94.7852 95.9727 95.168 95.8008C95.5547 95.6289 95.9785 95.543 96.4395 95.543C97.1699 95.543 97.7422 95.7266 98.1562 96.0938C98.5703 96.457 98.7852 96.959 98.8008 97.5996V100.518C98.8008 101.1 98.875 101.562 99.0234 101.906V102H97.8867ZM96.0879 101.174C96.4277 101.174 96.75 101.086 97.0547 100.91C97.3594 100.734 97.5801 100.506 97.7168 100.225V98.9238H96.8672C95.5391 98.9238 94.875 99.3125 94.875 100.09C94.875 100.43 94.9883 100.695 95.2148 100.887C95.4414 101.078 95.7324 101.174 96.0879 101.174ZM103.564 96.6328C103.4 96.6055 103.223 96.5918 103.031 96.5918C102.32 96.5918 101.838 96.8945 101.584 97.5V102H100.5V95.6602H101.555L101.572 96.3926C101.928 95.8262 102.432 95.543 103.084 95.543C103.295 95.543 103.455 95.5703 103.564 95.625V96.6328ZM106.746 100.412L108.223 95.6602H109.383L106.834 102.979C106.439 104.033 105.812 104.561 104.953 104.561L104.748 104.543L104.344 104.467V103.588L104.637 103.611C105.004 103.611 105.289 103.537 105.492 103.389C105.699 103.24 105.869 102.969 106.002 102.574L106.242 101.93L103.98 95.6602H105.164L106.746 100.412Z" fill="black"/>
<path d="M258.504 133.197C257.539 132.92 256.836 132.58 256.395 132.178C255.957 131.771 255.738 131.271 255.738 130.678C255.738 130.006 256.006 129.451 256.541 129.014C257.08 128.572 257.779 128.352 258.639 128.352C259.225 128.352 259.746 128.465 260.203 128.691C260.664 128.918 261.02 129.23 261.27 129.629C261.523 130.027 261.65 130.463 261.65 130.936H260.52C260.52 130.42 260.355 130.016 260.027 129.723C259.699 129.426 259.236 129.277 258.639 129.277C258.084 129.277 257.65 129.4 257.338 129.646C257.029 129.889 256.875 130.227 256.875 130.66C256.875 131.008 257.021 131.303 257.314 131.545C257.611 131.783 258.113 132.002 258.82 132.201C259.531 132.4 260.086 132.621 260.484 132.863C260.887 133.102 261.184 133.381 261.375 133.701C261.57 134.021 261.668 134.398 261.668 134.832C261.668 135.523 261.398 136.078 260.859 136.496C260.32 136.91 259.6 137.117 258.697 137.117C258.111 137.117 257.564 137.006 257.057 136.783C256.549 136.557 256.156 136.248 255.879 135.857C255.605 135.467 255.469 135.023 255.469 134.527H256.6C256.6 135.043 256.789 135.451 257.168 135.752C257.551 136.049 258.061 136.197 258.697 136.197C259.291 136.197 259.746 136.076 260.062 135.834C260.379 135.592 260.537 135.262 260.537 134.844C260.537 134.426 260.391 134.104 260.098 133.877C259.805 133.646 259.273 133.42 258.504 133.197ZM265.576 137.117C264.717 137.117 264.018 136.836 263.479 136.273C262.939 135.707 262.67 134.951 262.67 134.006V133.807C262.67 133.178 262.789 132.617 263.027 132.125C263.27 131.629 263.605 131.242 264.035 130.965C264.469 130.684 264.938 130.543 265.441 130.543C266.266 130.543 266.906 130.814 267.363 131.357C267.82 131.9 268.049 132.678 268.049 133.689V134.141H263.754C263.77 134.766 263.951 135.271 264.299 135.658C264.65 136.041 265.096 136.232 265.635 136.232C266.018 136.232 266.342 136.154 266.607 135.998C266.873 135.842 267.105 135.635 267.305 135.377L267.967 135.893C267.436 136.709 266.639 137.117 265.576 137.117ZM265.441 131.434C265.004 131.434 264.637 131.594 264.34 131.914C264.043 132.23 263.859 132.676 263.789 133.25H266.965V133.168C266.934 132.617 266.785 132.191 266.52 131.891C266.254 131.586 265.895 131.434 265.441 131.434ZM270.486 137H269.402V128H270.486V137ZM273.404 137H272.32V128H273.404V137ZM276.322 137H275.238V130.66H276.322V137ZM275.15 128.979C275.15 128.803 275.203 128.654 275.309 128.533C275.418 128.412 275.578 128.352 275.789 128.352C276 128.352 276.16 128.412 276.27 128.533C276.379 128.654 276.434 128.803 276.434 128.979C276.434 129.154 276.379 129.301 276.27 129.418C276.16 129.535 276 129.594 275.789 129.594C275.578 129.594 275.418 129.535 275.309 129.418C275.203 129.301 275.15 129.154 275.15 128.979ZM279.088 130.66L279.123 131.457C279.607 130.848 280.24 130.543 281.021 130.543C282.361 130.543 283.037 131.299 283.049 132.811V137H281.965V132.805C281.961 132.348 281.855 132.01 281.648 131.791C281.445 131.572 281.127 131.463 280.693 131.463C280.342 131.463 280.033 131.557 279.768 131.744C279.502 131.932 279.295 132.178 279.146 132.482V137H278.062V130.66H279.088ZM284.426 133.777C284.426 132.789 284.654 132.004 285.111 131.422C285.568 130.836 286.174 130.543 286.928 130.543C287.701 130.543 288.305 130.816 288.738 131.363L288.791 130.66H289.781V136.848C289.781 137.668 289.537 138.314 289.049 138.787C288.564 139.26 287.912 139.496 287.092 139.496C286.635 139.496 286.188 139.398 285.75 139.203C285.312 139.008 284.979 138.74 284.748 138.4L285.311 137.75C285.775 138.324 286.344 138.611 287.016 138.611C287.543 138.611 287.953 138.463 288.246 138.166C288.543 137.869 288.691 137.451 288.691 136.912V136.367C288.258 136.867 287.666 137.117 286.916 137.117C286.174 137.117 285.572 136.818 285.111 136.221C284.654 135.623 284.426 134.809 284.426 133.777ZM285.516 133.9C285.516 134.615 285.662 135.178 285.955 135.588C286.248 135.994 286.658 136.197 287.186 136.197C287.869 136.197 288.371 135.887 288.691 135.266V132.371C288.359 131.766 287.861 131.463 287.197 131.463C286.67 131.463 286.258 131.668 285.961 132.078C285.664 132.488 285.516 133.096 285.516 133.9Z" fill="black"/>
<path d="M255.99 181V172.469H258.398C259.141 172.469 259.797 172.633 260.367 172.961C260.938 173.289 261.377 173.756 261.686 174.361C261.998 174.967 262.156 175.662 262.16 176.447V176.992C262.16 177.797 262.004 178.502 261.691 179.107C261.383 179.713 260.939 180.178 260.361 180.502C259.787 180.826 259.117 180.992 258.352 181H255.99ZM257.115 173.395V180.08H258.299C259.166 180.08 259.84 179.811 260.32 179.271C260.805 178.732 261.047 177.965 261.047 176.969V176.471C261.047 175.502 260.818 174.75 260.361 174.215C259.908 173.676 259.264 173.402 258.428 173.395H257.115ZM264.873 181H263.789V174.66H264.873V181ZM263.701 172.979C263.701 172.803 263.754 172.654 263.859 172.533C263.969 172.412 264.129 172.352 264.34 172.352C264.551 172.352 264.711 172.412 264.82 172.533C264.93 172.654 264.984 172.803 264.984 172.979C264.984 173.154 264.93 173.301 264.82 173.418C264.711 173.535 264.551 173.594 264.34 173.594C264.129 173.594 263.969 173.535 263.859 173.418C263.754 173.301 263.701 173.154 263.701 172.979ZM269.678 175.633C269.514 175.605 269.336 175.592 269.145 175.592C268.434 175.592 267.951 175.895 267.697 176.5V181H266.613V174.66H267.668L267.686 175.393C268.041 174.826 268.545 174.543 269.197 174.543C269.408 174.543 269.568 174.57 269.678 174.625V175.633ZM273.193 181.117C272.334 181.117 271.635 180.836 271.096 180.273C270.557 179.707 270.287 178.951 270.287 178.006V177.807C270.287 177.178 270.406 176.617 270.645 176.125C270.887 175.629 271.223 175.242 271.652 174.965C272.086 174.684 272.555 174.543 273.059 174.543C273.883 174.543 274.523 174.814 274.98 175.357C275.438 175.9 275.666 176.678 275.666 177.689V178.141H271.371C271.387 178.766 271.568 179.271 271.916 179.658C272.268 180.041 272.713 180.232 273.252 180.232C273.635 180.232 273.959 180.154 274.225 179.998C274.49 179.842 274.723 179.635 274.922 179.377L275.584 179.893C275.053 180.709 274.256 181.117 273.193 181.117ZM273.059 175.434C272.621 175.434 272.254 175.594 271.957 175.914C271.66 176.23 271.477 176.676 271.406 177.25H274.582V177.168C274.551 176.617 274.402 176.191 274.137 175.891C273.871 175.586 273.512 175.434 273.059 175.434ZM279.469 180.232C279.855 180.232 280.193 180.115 280.482 179.881C280.771 179.646 280.932 179.354 280.963 179.002H281.988C281.969 179.365 281.844 179.711 281.613 180.039C281.383 180.367 281.074 180.629 280.688 180.824C280.305 181.02 279.898 181.117 279.469 181.117C278.605 181.117 277.918 180.83 277.406 180.256C276.898 179.678 276.645 178.889 276.645 177.889V177.707C276.645 177.09 276.758 176.541 276.984 176.061C277.211 175.58 277.535 175.207 277.957 174.941C278.383 174.676 278.885 174.543 279.463 174.543C280.174 174.543 280.764 174.756 281.232 175.182C281.705 175.607 281.957 176.16 281.988 176.84H280.963C280.932 176.43 280.775 176.094 280.494 175.832C280.217 175.566 279.873 175.434 279.463 175.434C278.912 175.434 278.484 175.633 278.18 176.031C277.879 176.426 277.729 176.998 277.729 177.748V177.953C277.729 178.684 277.879 179.246 278.18 179.641C278.48 180.035 278.91 180.232 279.469 180.232ZM284.678 173.125V174.66H285.861V175.498H284.678V179.43C284.678 179.684 284.73 179.875 284.836 180.004C284.941 180.129 285.121 180.191 285.375 180.191C285.5 180.191 285.672 180.168 285.891 180.121V181C285.605 181.078 285.328 181.117 285.059 181.117C284.574 181.117 284.209 180.971 283.963 180.678C283.717 180.385 283.594 179.969 283.594 179.43V175.498H282.439V174.66H283.594V173.125H284.678ZM288.311 181H287.227V174.66H288.311V181ZM287.139 172.979C287.139 172.803 287.191 172.654 287.297 172.533C287.406 172.412 287.566 172.352 287.777 172.352C287.988 172.352 288.148 172.412 288.258 172.533C288.367 172.654 288.422 172.803 288.422 172.979C288.422 173.154 288.367 173.301 288.258 173.418C288.148 173.535 287.988 173.594 287.777 173.594C287.566 173.594 287.406 173.535 287.297 173.418C287.191 173.301 287.139 173.154 287.139 172.979ZM291.076 174.66L291.111 175.457C291.596 174.848 292.229 174.543 293.01 174.543C294.35 174.543 295.025 175.299 295.037 176.811V181H293.953V176.805C293.949 176.348 293.844 176.01 293.637 175.791C293.434 175.572 293.115 175.463 292.682 175.463C292.33 175.463 292.021 175.557 291.756 175.744C291.49 175.932 291.283 176.178 291.135 176.482V181H290.051V174.66H291.076ZM296.414 177.777C296.414 176.789 296.643 176.004 297.1 175.422C297.557 174.836 298.162 174.543 298.916 174.543C299.689 174.543 300.293 174.816 300.727 175.363L300.779 174.66H301.77V180.848C301.77 181.668 301.525 182.314 301.037 182.787C300.553 183.26 299.9 183.496 299.08 183.496C298.623 183.496 298.176 183.398 297.738 183.203C297.301 183.008 296.967 182.74 296.736 182.4L297.299 181.75C297.764 182.324 298.332 182.611 299.004 182.611C299.531 182.611 299.941 182.463 300.234 182.166C300.531 181.869 300.68 181.451 300.68 180.912V180.367C300.246 180.867 299.654 181.117 298.904 181.117C298.162 181.117 297.561 180.818 297.1 180.221C296.643 179.623 296.414 178.809 296.414 177.777ZM297.504 177.9C297.504 178.615 297.65 179.178 297.943 179.588C298.236 179.994 298.646 180.197 299.174 180.197C299.857 180.197 300.359 179.887 300.68 179.266V176.371C300.348 175.766 299.85 175.463 299.186 175.463C298.658 175.463 298.246 175.668 297.949 176.078C297.652 176.488 297.504 177.096 297.504 177.9Z" fill="black"/>
<path d="M169.99 181V172.469H172.398C173.141 172.469 173.797 172.633 174.367 172.961C174.938 173.289 175.377 173.756 175.686 174.361C175.998 174.967 176.156 175.662 176.16 176.447V176.992C176.16 177.797 176.004 178.502 175.691 179.107C175.383 179.713 174.939 180.178 174.361 180.502C173.787 180.826 173.117 180.992 172.352 181H169.99ZM171.115 173.395V180.08H172.299C173.166 180.08 173.84 179.811 174.32 179.271C174.805 178.732 175.047 177.965 175.047 176.969V176.471C175.047 175.502 174.818 174.75 174.361 174.215C173.908 173.676 173.264 173.402 172.428 173.395H171.115ZM180.326 181.117C179.467 181.117 178.768 180.836 178.229 180.273C177.689 179.707 177.42 178.951 177.42 178.006V177.807C177.42 177.178 177.539 176.617 177.777 176.125C178.02 175.629 178.355 175.242 178.785 174.965C179.219 174.684 179.688 174.543 180.191 174.543C181.016 174.543 181.656 174.814 182.113 175.357C182.57 175.9 182.799 176.678 182.799 177.689V178.141H178.504C178.52 178.766 178.701 179.271 179.049 179.658C179.4 180.041 179.846 180.232 180.385 180.232C180.768 180.232 181.092 180.154 181.357 179.998C181.623 179.842 181.855 179.635 182.055 179.377L182.717 179.893C182.186 180.709 181.389 181.117 180.326 181.117ZM180.191 175.434C179.754 175.434 179.387 175.594 179.09 175.914C178.793 176.23 178.609 176.676 178.539 177.25H181.715V177.168C181.684 176.617 181.535 176.191 181.27 175.891C181.004 175.586 180.645 175.434 180.191 175.434ZM185.236 181H184.152V172H185.236V181ZM189.607 181.117C188.748 181.117 188.049 180.836 187.51 180.273C186.971 179.707 186.701 178.951 186.701 178.006V177.807C186.701 177.178 186.82 176.617 187.059 176.125C187.301 175.629 187.637 175.242 188.066 174.965C188.5 174.684 188.969 174.543 189.473 174.543C190.297 174.543 190.938 174.814 191.395 175.357C191.852 175.9 192.08 176.678 192.08 177.689V178.141H187.785C187.801 178.766 187.982 179.271 188.33 179.658C188.682 180.041 189.127 180.232 189.666 180.232C190.049 180.232 190.373 180.154 190.639 179.998C190.904 179.842 191.137 179.635 191.336 179.377L191.998 179.893C191.467 180.709 190.67 181.117 189.607 181.117ZM189.473 175.434C189.035 175.434 188.668 175.594 188.371 175.914C188.074 176.23 187.891 176.676 187.82 177.25H190.996V177.168C190.965 176.617 190.816 176.191 190.551 175.891C190.285 175.586 189.926 175.434 189.473 175.434ZM193.082 177.777C193.082 176.789 193.311 176.004 193.768 175.422C194.225 174.836 194.83 174.543 195.584 174.543C196.357 174.543 196.961 174.816 197.395 175.363L197.447 174.66H198.438V180.848C198.438 181.668 198.193 182.314 197.705 182.787C197.221 183.26 196.568 183.496 195.748 183.496C195.291 183.496 194.844 183.398 194.406 183.203C193.969 183.008 193.635 182.74 193.404 182.4L193.967 181.75C194.432 182.324 195 182.611 195.672 182.611C196.199 182.611 196.609 182.463 196.902 182.166C197.199 181.869 197.348 181.451 197.348 180.912V180.367C196.914 180.867 196.322 181.117 195.572 181.117C194.83 181.117 194.229 180.818 193.768 180.221C193.311 179.623 193.082 178.809 193.082 177.777ZM194.172 177.9C194.172 178.615 194.318 179.178 194.611 179.588C194.904 179.994 195.314 180.197 195.842 180.197C196.525 180.197 197.027 179.887 197.348 179.266V176.371C197.016 175.766 196.518 175.463 195.854 175.463C195.326 175.463 194.914 175.668 194.617 176.078C194.32 176.488 194.172 177.096 194.172 177.9ZM203.992 181C203.93 180.875 203.879 180.652 203.84 180.332C203.336 180.855 202.734 181.117 202.035 181.117C201.41 181.117 200.896 180.941 200.494 180.59C200.096 180.234 199.896 179.785 199.896 179.242C199.896 178.582 200.146 178.07 200.646 177.707C201.15 177.34 201.857 177.156 202.768 177.156H203.822V176.658C203.822 176.279 203.709 175.979 203.482 175.756C203.256 175.529 202.922 175.416 202.48 175.416C202.094 175.416 201.77 175.514 201.508 175.709C201.246 175.904 201.115 176.141 201.115 176.418H200.025C200.025 176.102 200.137 175.797 200.359 175.504C200.586 175.207 200.891 174.973 201.273 174.801C201.66 174.629 202.084 174.543 202.545 174.543C203.275 174.543 203.848 174.727 204.262 175.094C204.676 175.457 204.891 175.959 204.906 176.6V179.518C204.906 180.1 204.98 180.562 205.129 180.906V181H203.992ZM202.193 180.174C202.533 180.174 202.855 180.086 203.16 179.91C203.465 179.734 203.686 179.506 203.822 179.225V177.924H202.973C201.645 177.924 200.98 178.312 200.98 179.09C200.98 179.43 201.094 179.695 201.32 179.887C201.547 180.078 201.838 180.174 202.193 180.174ZM208.076 173.125V174.66H209.26V175.498H208.076V179.43C208.076 179.684 208.129 179.875 208.234 180.004C208.34 180.129 208.52 180.191 208.773 180.191C208.898 180.191 209.07 180.168 209.289 180.121V181C209.004 181.078 208.727 181.117 208.457 181.117C207.973 181.117 207.607 180.971 207.361 180.678C207.115 180.385 206.992 179.969 206.992 179.43V175.498H205.838V174.66H206.992V173.125H208.076ZM211.709 181H210.625V174.66H211.709V181ZM210.537 172.979C210.537 172.803 210.59 172.654 210.695 172.533C210.805 172.412 210.965 172.352 211.176 172.352C211.387 172.352 211.547 172.412 211.656 172.533C211.766 172.654 211.82 172.803 211.82 172.979C211.82 173.154 211.766 173.301 211.656 173.418C211.547 173.535 211.387 173.594 211.176 173.594C210.965 173.594 210.805 173.535 210.695 173.418C210.59 173.301 210.537 173.154 210.537 172.979ZM214.475 174.66L214.51 175.457C214.994 174.848 215.627 174.543 216.408 174.543C217.748 174.543 218.424 175.299 218.436 176.811V181H217.352V176.805C217.348 176.348 217.242 176.01 217.035 175.791C216.832 175.572 216.514 175.463 216.08 175.463C215.729 175.463 215.42 175.557 215.154 175.744C214.889 175.932 214.682 176.178 214.533 176.482V181H213.449V174.66H214.475ZM219.812 177.777C219.812 176.789 220.041 176.004 220.498 175.422C220.955 174.836 221.561 174.543 222.314 174.543C223.088 174.543 223.691 174.816 224.125 175.363L224.178 174.66H225.168V180.848C225.168 181.668 224.924 182.314 224.436 182.787C223.951 183.26 223.299 183.496 222.479 183.496C222.021 183.496 221.574 183.398 221.137 183.203C220.699 183.008 220.365 182.74 220.135 182.4L220.697 181.75C221.162 182.324 221.73 182.611 222.402 182.611C222.93 182.611 223.34 182.463 223.633 182.166C223.93 181.869 224.078 181.451 224.078 180.912V180.367C223.645 180.867 223.053 181.117 222.303 181.117C221.561 181.117 220.959 180.818 220.498 180.221C220.041 179.623 219.812 178.809 219.812 177.777ZM220.902 177.9C220.902 178.615 221.049 179.178 221.342 179.588C221.635 179.994 222.045 180.197 222.572 180.197C223.256 180.197 223.758 179.887 224.078 179.266V176.371C223.746 175.766 223.248 175.463 222.584 175.463C222.057 175.463 221.645 175.668 221.348 176.078C221.051 176.488 220.902 177.096 220.902 177.9Z" fill="white"/>
<circle cx="235.5" cy="157.5" r="100" stroke="black"/>
</svg>
