<svg width="471" height="315" viewBox="0 0 471 315" fill="none" xmlns="http://www.w3.org/2000/svg">
<path d="M236 155.5V1H3L236 155.5Z" fill="white" stroke="black"/>
<path d="M3 1V155.5H236L3 1Z" fill="#FFF6BE" stroke="black"/>
<path d="M236 155.5V1H469L236 155.5Z" fill="white" stroke="black"/>
<path d="M469 1V155.5H236L469 1Z" fill="white" stroke="black"/>
<mask id="mask0" mask-type="alpha" maskUnits="userSpaceOnUse" x="138" y="61" width="196" height="196">
<circle r="97.5" transform="matrix(-1 0 0 1 236 159)" fill="#C4C4C4" stroke="#C32D29"/>
</mask>
<g mask="url(#mask0)">
<path d="M235 155.5V1H468L235 155.5Z" fill="#C4C4C4" stroke="black"/>
</g>
<circle r="97.5" transform="matrix(1 0 0 -1 235 159)" fill="#C4C4C4" stroke="#C32D29"/>
<path d="M236 155.5V310H3L236 155.5Z" fill="white" stroke="black"/>
<path d="M3 310V155.5H236L3 310Z" fill="white" stroke="black"/>
<mask id="mask1" mask-type="alpha" maskUnits="userSpaceOnUse" x="138" y="61" width="196" height="196">
<circle r="97.5" transform="matrix(1 0 0 -1 236 159)" fill="#C4C4C4" stroke="#C32D29"/>
</mask>
<g mask="url(#mask1)">
<path d="M237 162.5V317H4L237 162.5Z" fill="#C4C4C4" stroke="black"/>
</g>
<path d="M236 155.5V310H469L236 155.5Z" fill="white" stroke="black"/>
<path d="M469 310V155.5H236L469 310Z" fill="white" stroke="black"/>
<mask id="mask2" mask-type="alpha" maskUnits="userSpaceOnUse" x="139" y="61" width="196" height="196">
<circle cx="237" cy="159" r="97.5" transform="rotate(-180 237 159)" fill="#C4C4C4" stroke="#C32D29"/>
</mask>
<g mask="url(#mask2)">
<path d="M236 162.5V317H469L236 162.5Z" fill="#C4C4C4" stroke="black"/>
</g>
<circle cx="236" cy="158" r="100" fill="white"/>
<mask id="mask3" mask-type="alpha" maskUnits="userSpaceOnUse" x="136" y="56" width="203" height="203">
<circle cx="237.5" cy="157.5" r="101" fill="#EEEEEE" stroke="#C32D29"/>
</mask>
<g mask="url(#mask3)">
<path d="M236 156V2H3.5V156H236Z" fill="#DAB746" stroke="black"/>
</g>
<mask id="mask4" mask-type="alpha" maskUnits="userSpaceOnUse" x="136" y="56" width="203" height="203">
<circle cx="237.5" cy="157.5" r="101" fill="#EEEEEE" stroke="#C32D29"/>
</mask>
<g mask="url(#mask4)">
<path d="M236 156V2H468V156H236Z" stroke="black"/>
</g>
<mask id="mask5" mask-type="alpha" maskUnits="userSpaceOnUse" x="136" y="56" width="203" height="203">
<circle cx="237.5" cy="157.5" r="101" fill="#EEEEEE" stroke="#C32D29"/>
</mask>
<g mask="url(#mask5)">
<path d="M236 156V2H468V156H236Z" stroke="black"/>
</g>
<path d="M174.695 132.232H171.115V136H169.99V127.469H175.275V128.395H171.115V131.312H174.695V132.232ZM180.168 136C180.105 135.875 180.055 135.652 180.016 135.332C179.512 135.855 178.91 136.117 178.211 136.117C177.586 136.117 177.072 135.941 176.67 135.59C176.271 135.234 176.072 134.785 176.072 134.242C176.072 133.582 176.322 133.07 176.822 132.707C177.326 132.34 178.033 132.156 178.943 132.156H179.998V131.658C179.998 131.279 179.885 130.979 179.658 130.756C179.432 130.529 179.098 130.416 178.656 130.416C178.27 130.416 177.945 130.514 177.684 130.709C177.422 130.904 177.291 131.141 177.291 131.418H176.201C176.201 131.102 176.312 130.797 176.535 130.504C176.762 130.207 177.066 129.973 177.449 129.801C177.836 129.629 178.26 129.543 178.721 129.543C179.451 129.543 180.023 129.727 180.438 130.094C180.852 130.457 181.066 130.959 181.082 131.6V134.518C181.082 135.1 181.156 135.562 181.305 135.906V136H180.168ZM178.369 135.174C178.709 135.174 179.031 135.086 179.336 134.91C179.641 134.734 179.861 134.506 179.998 134.225V132.924H179.148C177.82 132.924 177.156 133.312 177.156 134.09C177.156 134.43 177.27 134.695 177.496 134.887C177.723 135.078 178.014 135.174 178.369 135.174ZM185.324 135.232C185.711 135.232 186.049 135.115 186.338 134.881C186.627 134.646 186.787 134.354 186.818 134.002H187.844C187.824 134.365 187.699 134.711 187.469 135.039C187.238 135.367 186.93 135.629 186.543 135.824C186.16 136.02 185.754 136.117 185.324 136.117C184.461 136.117 183.773 135.83 183.262 135.256C182.754 134.678 182.5 133.889 182.5 132.889V132.707C182.5 132.09 182.613 131.541 182.84 131.061C183.066 130.58 183.391 130.207 183.812 129.941C184.238 129.676 184.74 129.543 185.318 129.543C186.029 129.543 186.619 129.756 187.088 130.182C187.561 130.607 187.812 131.16 187.844 131.84H186.818C186.787 131.43 186.631 131.094 186.35 130.832C186.072 130.566 185.729 130.434 185.318 130.434C184.768 130.434 184.34 130.633 184.035 131.031C183.734 131.426 183.584 131.998 183.584 132.748V132.953C183.584 133.684 183.734 134.246 184.035 134.641C184.336 135.035 184.766 135.232 185.324 135.232ZM190.24 136H189.156V129.66H190.24V136ZM189.068 127.979C189.068 127.803 189.121 127.654 189.227 127.533C189.336 127.412 189.496 127.352 189.707 127.352C189.918 127.352 190.078 127.412 190.188 127.533C190.297 127.654 190.352 127.803 190.352 127.979C190.352 128.154 190.297 128.301 190.188 128.418C190.078 128.535 189.918 128.594 189.707 128.594C189.496 128.594 189.336 128.535 189.227 128.418C189.121 128.301 189.068 128.154 189.068 127.979ZM193.158 136H192.074V127H193.158V136ZM196.076 136H194.992V129.66H196.076V136ZM194.904 127.979C194.904 127.803 194.957 127.654 195.062 127.533C195.172 127.412 195.332 127.352 195.543 127.352C195.754 127.352 195.914 127.412 196.023 127.533C196.133 127.654 196.188 127.803 196.188 127.979C196.188 128.154 196.133 128.301 196.023 128.418C195.914 128.535 195.754 128.594 195.543 128.594C195.332 128.594 195.172 128.535 195.062 128.418C194.957 128.301 194.904 128.154 194.904 127.979ZM199.287 128.125V129.66H200.471V130.498H199.287V134.43C199.287 134.684 199.34 134.875 199.445 135.004C199.551 135.129 199.73 135.191 199.984 135.191C200.109 135.191 200.281 135.168 200.5 135.121V136C200.215 136.078 199.938 136.117 199.668 136.117C199.184 136.117 198.818 135.971 198.572 135.678C198.326 135.385 198.203 134.969 198.203 134.43V130.498H197.049V129.66H198.203V128.125H199.287ZM205.656 136C205.594 135.875 205.543 135.652 205.504 135.332C205 135.855 204.398 136.117 203.699 136.117C203.074 136.117 202.561 135.941 202.158 135.59C201.76 135.234 201.561 134.785 201.561 134.242C201.561 133.582 201.811 133.07 202.311 132.707C202.814 132.34 203.521 132.156 204.432 132.156H205.486V131.658C205.486 131.279 205.373 130.979 205.146 130.756C204.92 130.529 204.586 130.416 204.145 130.416C203.758 130.416 203.434 130.514 203.172 130.709C202.91 130.904 202.779 131.141 202.779 131.418H201.689C201.689 131.102 201.801 130.797 202.023 130.504C202.25 130.207 202.555 129.973 202.938 129.801C203.324 129.629 203.748 129.543 204.209 129.543C204.939 129.543 205.512 129.727 205.926 130.094C206.34 130.457 206.555 130.959 206.57 131.6V134.518C206.57 135.1 206.645 135.562 206.793 135.906V136H205.656ZM203.857 135.174C204.197 135.174 204.52 135.086 204.824 134.91C205.129 134.734 205.35 134.506 205.486 134.225V132.924H204.637C203.309 132.924 202.645 133.312 202.645 134.09C202.645 134.43 202.758 134.695 202.984 134.887C203.211 135.078 203.502 135.174 203.857 135.174ZM209.74 128.125V129.66H210.924V130.498H209.74V134.43C209.74 134.684 209.793 134.875 209.898 135.004C210.004 135.129 210.184 135.191 210.438 135.191C210.562 135.191 210.734 135.168 210.953 135.121V136C210.668 136.078 210.391 136.117 210.121 136.117C209.637 136.117 209.271 135.971 209.025 135.678C208.779 135.385 208.656 134.969 208.656 134.43V130.498H207.502V129.66H208.656V128.125H209.74ZM213.373 136H212.289V129.66H213.373V136ZM212.201 127.979C212.201 127.803 212.254 127.654 212.359 127.533C212.469 127.412 212.629 127.352 212.84 127.352C213.051 127.352 213.211 127.412 213.32 127.533C213.43 127.654 213.484 127.803 213.484 127.979C213.484 128.154 213.43 128.301 213.32 128.418C213.211 128.535 213.051 128.594 212.84 128.594C212.629 128.594 212.469 128.535 212.359 128.418C212.254 128.301 212.201 128.154 212.201 127.979ZM216.139 129.66L216.174 130.457C216.658 129.848 217.291 129.543 218.072 129.543C219.412 129.543 220.088 130.299 220.1 131.811V136H219.016V131.805C219.012 131.348 218.906 131.01 218.699 130.791C218.496 130.572 218.178 130.463 217.744 130.463C217.393 130.463 217.084 130.557 216.818 130.744C216.553 130.932 216.346 131.178 216.197 131.482V136H215.113V129.66H216.139ZM221.477 132.777C221.477 131.789 221.705 131.004 222.162 130.422C222.619 129.836 223.225 129.543 223.979 129.543C224.752 129.543 225.355 129.816 225.789 130.363L225.842 129.66H226.832V135.848C226.832 136.668 226.588 137.314 226.1 137.787C225.615 138.26 224.963 138.496 224.143 138.496C223.686 138.496 223.238 138.398 222.801 138.203C222.363 138.008 222.029 137.74 221.799 137.4L222.361 136.75C222.826 137.324 223.395 137.611 224.066 137.611C224.594 137.611 225.004 137.463 225.297 137.166C225.594 136.869 225.742 136.451 225.742 135.912V135.367C225.309 135.867 224.717 136.117 223.967 136.117C223.225 136.117 222.623 135.818 222.162 135.221C221.705 134.623 221.477 133.809 221.477 132.777ZM222.566 132.9C222.566 133.615 222.713 134.178 223.006 134.588C223.299 134.994 223.709 135.197 224.236 135.197C224.92 135.197 225.422 134.887 225.742 134.266V131.371C225.41 130.766 224.912 130.463 224.248 130.463C223.721 130.463 223.309 130.668 223.012 131.078C222.715 131.488 222.566 132.096 222.566 132.9Z" fill="white"/>
<path d="M124.99 46V37.4688H127.398C128.141 37.4688 128.797 37.6328 129.367 37.9609C129.938 38.2891 130.377 38.7559 130.686 39.3613C130.998 39.9668 131.156 40.6621 131.16 41.4473V41.9922C131.16 42.7969 131.004 43.502 130.691 44.1074C130.383 44.7129 129.939 45.1777 129.361 45.502C128.787 45.8262 128.117 45.9922 127.352 46H124.99ZM126.115 38.3945V45.0801H127.299C128.166 45.0801 128.84 44.8105 129.32 44.2715C129.805 43.7324 130.047 42.9648 130.047 41.9688V41.4707C130.047 40.502 129.818 39.75 129.361 39.2148C128.908 38.6758 128.264 38.4023 127.428 38.3945H126.115ZM135.326 46.1172C134.467 46.1172 133.768 45.8359 133.229 45.2734C132.689 44.707 132.42 43.9512 132.42 43.0059V42.8066C132.42 42.1777 132.539 41.6172 132.777 41.125C133.02 40.6289 133.355 40.2422 133.785 39.9648C134.219 39.6836 134.688 39.543 135.191 39.543C136.016 39.543 136.656 39.8145 137.113 40.3574C137.57 40.9004 137.799 41.6777 137.799 42.6895V43.1406H133.504C133.52 43.7656 133.701 44.2715 134.049 44.6582C134.4 45.041 134.846 45.2324 135.385 45.2324C135.768 45.2324 136.092 45.1543 136.357 44.998C136.623 44.8418 136.855 44.6348 137.055 44.377L137.717 44.8926C137.186 45.709 136.389 46.1172 135.326 46.1172ZM135.191 40.4336C134.754 40.4336 134.387 40.5938 134.09 40.9141C133.793 41.2305 133.609 41.6758 133.539 42.25H136.715V42.168C136.684 41.6172 136.535 41.1914 136.27 40.8906C136.004 40.5859 135.645 40.4336 135.191 40.4336ZM141.068 44.5293L142.639 39.6602H143.746L141.473 46H140.646L138.35 39.6602H139.457L141.068 44.5293ZM147.338 46.1172C146.479 46.1172 145.779 45.8359 145.24 45.2734C144.701 44.707 144.432 43.9512 144.432 43.0059V42.8066C144.432 42.1777 144.551 41.6172 144.789 41.125C145.031 40.6289 145.367 40.2422 145.797 39.9648C146.23 39.6836 146.699 39.543 147.203 39.543C148.027 39.543 148.668 39.8145 149.125 40.3574C149.582 40.9004 149.811 41.6777 149.811 42.6895V43.1406H145.516C145.531 43.7656 145.713 44.2715 146.061 44.6582C146.412 45.041 146.857 45.2324 147.396 45.2324C147.779 45.2324 148.104 45.1543 148.369 44.998C148.635 44.8418 148.867 44.6348 149.066 44.377L149.729 44.8926C149.197 45.709 148.4 46.1172 147.338 46.1172ZM147.203 40.4336C146.766 40.4336 146.398 40.5938 146.102 40.9141C145.805 41.2305 145.621 41.6758 145.551 42.25H148.727V42.168C148.695 41.6172 148.547 41.1914 148.281 40.8906C148.016 40.5859 147.656 40.4336 147.203 40.4336ZM152.248 46H151.164V37H152.248V46ZM153.701 42.7715C153.701 42.1504 153.822 41.5918 154.064 41.0957C154.311 40.5996 154.65 40.2168 155.084 39.9473C155.521 39.6777 156.02 39.543 156.578 39.543C157.441 39.543 158.139 39.8418 158.67 40.4395C159.205 41.0371 159.473 41.832 159.473 42.8242V42.9004C159.473 43.5176 159.354 44.0723 159.115 44.5645C158.881 45.0527 158.543 45.4336 158.102 45.707C157.664 45.9805 157.16 46.1172 156.59 46.1172C155.73 46.1172 155.033 45.8184 154.498 45.2207C153.967 44.623 153.701 43.832 153.701 42.8477V42.7715ZM154.791 42.9004C154.791 43.6035 154.953 44.168 155.277 44.5938C155.605 45.0195 156.043 45.2324 156.59 45.2324C157.141 45.2324 157.578 45.0176 157.902 44.5879C158.227 44.1543 158.389 43.5488 158.389 42.7715C158.389 42.0762 158.223 41.5137 157.891 41.084C157.562 40.6504 157.125 40.4336 156.578 40.4336C156.043 40.4336 155.611 40.6465 155.283 41.0723C154.955 41.498 154.791 42.1074 154.791 42.9004ZM166.188 42.9004C166.188 43.8652 165.967 44.6426 165.525 45.2324C165.084 45.8223 164.486 46.1172 163.732 46.1172C162.963 46.1172 162.357 45.873 161.916 45.3848V48.4375H160.832V39.6602H161.822L161.875 40.3633C162.316 39.8164 162.93 39.543 163.715 39.543C164.477 39.543 165.078 39.8301 165.52 40.4043C165.965 40.9785 166.188 41.7773 166.188 42.8008V42.9004ZM165.104 42.7773C165.104 42.0625 164.951 41.498 164.646 41.084C164.342 40.6699 163.924 40.4629 163.393 40.4629C162.736 40.4629 162.244 40.7539 161.916 41.3359V44.3652C162.24 44.9434 162.736 45.2324 163.404 45.2324C163.924 45.2324 164.336 45.0273 164.641 44.6172C164.949 44.2031 165.104 43.5898 165.104 42.7773ZM170.201 46.1172C169.342 46.1172 168.643 45.8359 168.104 45.2734C167.564 44.707 167.295 43.9512 167.295 43.0059V42.8066C167.295 42.1777 167.414 41.6172 167.652 41.125C167.895 40.6289 168.23 40.2422 168.66 39.9648C169.094 39.6836 169.562 39.543 170.066 39.543C170.891 39.543 171.531 39.8145 171.988 40.3574C172.445 40.9004 172.674 41.6777 172.674 42.6895V43.1406H168.379C168.395 43.7656 168.576 44.2715 168.924 44.6582C169.275 45.041 169.721 45.2324 170.26 45.2324C170.643 45.2324 170.967 45.1543 171.232 44.998C171.498 44.8418 171.73 44.6348 171.93 44.377L172.592 44.8926C172.061 45.709 171.264 46.1172 170.201 46.1172ZM170.066 40.4336C169.629 40.4336 169.262 40.5938 168.965 40.9141C168.668 41.2305 168.484 41.6758 168.414 42.25H171.59V42.168C171.559 41.6172 171.41 41.1914 171.145 40.8906C170.879 40.5859 170.52 40.4336 170.066 40.4336ZM176.998 40.6328C176.834 40.6055 176.656 40.5918 176.465 40.5918C175.754 40.5918 175.271 40.8945 175.018 41.5V46H173.934V39.6602H174.988L175.006 40.3926C175.361 39.8262 175.865 39.543 176.518 39.543C176.729 39.543 176.889 39.5703 176.998 39.625V40.6328Z" fill="black"/>
<path d="M260.812 42.0566H257.115V45.0801H261.41V46H255.99V37.4688H261.352V38.3945H257.115V41.1367H260.812V42.0566ZM264.768 41.9746L266.174 39.6602H267.439L265.365 42.7949L267.504 46H266.25L264.785 43.627L263.32 46H262.061L264.199 42.7949L262.125 39.6602H263.379L264.768 41.9746ZM271.107 46.1172C270.248 46.1172 269.549 45.8359 269.01 45.2734C268.471 44.707 268.201 43.9512 268.201 43.0059V42.8066C268.201 42.1777 268.32 41.6172 268.559 41.125C268.801 40.6289 269.137 40.2422 269.566 39.9648C270 39.6836 270.469 39.543 270.973 39.543C271.797 39.543 272.438 39.8145 272.895 40.3574C273.352 40.9004 273.58 41.6777 273.58 42.6895V43.1406H269.285C269.301 43.7656 269.482 44.2715 269.83 44.6582C270.182 45.041 270.627 45.2324 271.166 45.2324C271.549 45.2324 271.873 45.1543 272.139 44.998C272.404 44.8418 272.637 44.6348 272.836 44.377L273.498 44.8926C272.967 45.709 272.17 46.1172 271.107 46.1172ZM270.973 40.4336C270.535 40.4336 270.168 40.5938 269.871 40.9141C269.574 41.2305 269.391 41.6758 269.32 42.25H272.496V42.168C272.465 41.6172 272.316 41.1914 272.051 40.8906C271.785 40.5859 271.426 40.4336 270.973 40.4336ZM277.383 45.2324C277.77 45.2324 278.107 45.1152 278.396 44.8809C278.686 44.6465 278.846 44.3535 278.877 44.002H279.902C279.883 44.3652 279.758 44.7109 279.527 45.0391C279.297 45.3672 278.988 45.6289 278.602 45.8242C278.219 46.0195 277.812 46.1172 277.383 46.1172C276.52 46.1172 275.832 45.8301 275.32 45.2559C274.812 44.6777 274.559 43.8887 274.559 42.8887V42.707C274.559 42.0898 274.672 41.541 274.898 41.0605C275.125 40.5801 275.449 40.207 275.871 39.9414C276.297 39.6758 276.799 39.543 277.377 39.543C278.088 39.543 278.678 39.7559 279.146 40.1816C279.619 40.6074 279.871 41.1602 279.902 41.8398H278.877C278.846 41.4297 278.689 41.0938 278.408 40.832C278.131 40.5664 277.787 40.4336 277.377 40.4336C276.826 40.4336 276.398 40.6328 276.094 41.0312C275.793 41.4258 275.643 41.998 275.643 42.748V42.9531C275.643 43.6836 275.793 44.2461 276.094 44.6406C276.395 45.0352 276.824 45.2324 277.383 45.2324ZM285.035 45.373C284.613 45.8691 283.994 46.1172 283.178 46.1172C282.502 46.1172 281.986 45.9219 281.631 45.5312C281.279 45.1367 281.102 44.5547 281.098 43.7852V39.6602H282.182V43.7559C282.182 44.7168 282.572 45.1973 283.354 45.1973C284.182 45.1973 284.732 44.8887 285.006 44.2715V39.6602H286.09V46H285.059L285.035 45.373ZM289.213 38.125V39.6602H290.396V40.498H289.213V44.4297C289.213 44.6836 289.266 44.875 289.371 45.0039C289.477 45.1289 289.656 45.1914 289.91 45.1914C290.035 45.1914 290.207 45.168 290.426 45.1211V46C290.141 46.0781 289.863 46.1172 289.594 46.1172C289.109 46.1172 288.744 45.9707 288.498 45.6777C288.252 45.3848 288.129 44.9688 288.129 44.4297V40.498H286.975V39.6602H288.129V38.125H289.213ZM292.846 46H291.762V39.6602H292.846V46ZM291.674 37.9785C291.674 37.8027 291.727 37.6543 291.832 37.5332C291.941 37.4121 292.102 37.3516 292.312 37.3516C292.523 37.3516 292.684 37.4121 292.793 37.5332C292.902 37.6543 292.957 37.8027 292.957 37.9785C292.957 38.1543 292.902 38.3008 292.793 38.418C292.684 38.5352 292.523 38.5938 292.312 38.5938C292.102 38.5938 291.941 38.5352 291.832 38.418C291.727 38.3008 291.674 38.1543 291.674 37.9785ZM296.678 44.5293L298.248 39.6602H299.355L297.082 46H296.256L293.959 39.6602H295.066L296.678 44.5293ZM302.947 46.1172C302.088 46.1172 301.389 45.8359 300.85 45.2734C300.311 44.707 300.041 43.9512 300.041 43.0059V42.8066C300.041 42.1777 300.16 41.6172 300.398 41.125C300.641 40.6289 300.977 40.2422 301.406 39.9648C301.84 39.6836 302.309 39.543 302.812 39.543C303.637 39.543 304.277 39.8145 304.734 40.3574C305.191 40.9004 305.42 41.6777 305.42 42.6895V43.1406H301.125C301.141 43.7656 301.322 44.2715 301.67 44.6582C302.021 45.041 302.467 45.2324 303.006 45.2324C303.389 45.2324 303.713 45.1543 303.979 44.998C304.244 44.8418 304.477 44.6348 304.676 44.377L305.338 44.8926C304.807 45.709 304.01 46.1172 302.947 46.1172ZM302.812 40.4336C302.375 40.4336 302.008 40.5938 301.711 40.9141C301.414 41.2305 301.23 41.6758 301.16 42.25H304.336V42.168C304.305 41.6172 304.156 41.1914 303.891 40.8906C303.625 40.5859 303.266 40.4336 302.812 40.4336Z" fill="black"/>
<path d="M383.266 98.293C383.16 99.1953 382.826 99.8926 382.264 100.385C381.705 100.873 380.961 101.117 380.031 101.117C379.023 101.117 378.215 100.756 377.605 100.033C377 99.3105 376.697 98.3438 376.697 97.1328V96.3125C376.697 95.5195 376.838 94.8223 377.119 94.2207C377.404 93.6191 377.807 93.1582 378.326 92.8379C378.846 92.5137 379.447 92.3516 380.131 92.3516C381.037 92.3516 381.764 92.6055 382.311 93.1133C382.857 93.6172 383.176 94.3164 383.266 95.2109H382.135C382.037 94.5312 381.824 94.0391 381.496 93.7344C381.172 93.4297 380.717 93.2773 380.131 93.2773C379.412 93.2773 378.848 93.543 378.438 94.0742C378.031 94.6055 377.828 95.3613 377.828 96.3418V97.168C377.828 98.0938 378.021 98.8301 378.408 99.377C378.795 99.9238 379.336 100.197 380.031 100.197C380.656 100.197 381.135 100.057 381.467 99.7754C381.803 99.4902 382.025 98.9961 382.135 98.293H383.266ZM384.35 97.7715C384.35 97.1504 384.471 96.5918 384.713 96.0957C384.959 95.5996 385.299 95.2168 385.732 94.9473C386.17 94.6777 386.668 94.543 387.227 94.543C388.09 94.543 388.787 94.8418 389.318 95.4395C389.854 96.0371 390.121 96.832 390.121 97.8242V97.9004C390.121 98.5176 390.002 99.0723 389.764 99.5645C389.529 100.053 389.191 100.434 388.75 100.707C388.312 100.98 387.809 101.117 387.238 101.117C386.379 101.117 385.682 100.818 385.146 100.221C384.615 99.623 384.35 98.832 384.35 97.8477V97.7715ZM385.439 97.9004C385.439 98.6035 385.602 99.168 385.926 99.5938C386.254 100.02 386.691 100.232 387.238 100.232C387.789 100.232 388.227 100.018 388.551 99.5879C388.875 99.1543 389.037 98.5488 389.037 97.7715C389.037 97.0762 388.871 96.5137 388.539 96.084C388.211 95.6504 387.773 95.4336 387.227 95.4336C386.691 95.4336 386.26 95.6465 385.932 96.0723C385.604 96.498 385.439 97.1074 385.439 97.9004ZM392.5 94.6602L392.529 95.3633C392.994 94.8164 393.621 94.543 394.41 94.543C395.297 94.543 395.9 94.8828 396.221 95.5625C396.432 95.2578 396.705 95.0117 397.041 94.8242C397.381 94.6367 397.781 94.543 398.242 94.543C399.633 94.543 400.34 95.2793 400.363 96.752V101H399.279V96.8164C399.279 96.3633 399.176 96.0254 398.969 95.8027C398.762 95.5762 398.414 95.4629 397.926 95.4629C397.523 95.4629 397.189 95.584 396.924 95.8262C396.658 96.0645 396.504 96.3867 396.461 96.793V101H395.371V96.8457C395.371 95.9238 394.92 95.4629 394.018 95.4629C393.307 95.4629 392.82 95.7656 392.559 96.3711V101H391.475V94.6602H392.5ZM407.359 97.9004C407.359 98.8652 407.139 99.6426 406.697 100.232C406.256 100.822 405.658 101.117 404.904 101.117C404.135 101.117 403.529 100.873 403.088 100.385V103.438H402.004V94.6602H402.994L403.047 95.3633C403.488 94.8164 404.102 94.543 404.887 94.543C405.648 94.543 406.25 94.8301 406.691 95.4043C407.137 95.9785 407.359 96.7773 407.359 97.8008V97.9004ZM406.275 97.7773C406.275 97.0625 406.123 96.498 405.818 96.084C405.514 95.6699 405.096 95.4629 404.564 95.4629C403.908 95.4629 403.416 95.7539 403.088 96.3359V99.3652C403.412 99.9434 403.908 100.232 404.576 100.232C405.096 100.232 405.508 100.027 405.812 99.6172C406.121 99.2031 406.275 98.5898 406.275 97.7773ZM411.807 95.6328C411.643 95.6055 411.465 95.5918 411.273 95.5918C410.562 95.5918 410.08 95.8945 409.826 96.5V101H408.742V94.6602H409.797L409.814 95.3926C410.17 94.8262 410.674 94.543 411.326 94.543C411.537 94.543 411.697 94.5703 411.807 94.625V95.6328ZM412.404 97.7715C412.404 97.1504 412.525 96.5918 412.768 96.0957C413.014 95.5996 413.354 95.2168 413.787 94.9473C414.225 94.6777 414.723 94.543 415.281 94.543C416.145 94.543 416.842 94.8418 417.373 95.4395C417.908 96.0371 418.176 96.832 418.176 97.8242V97.9004C418.176 98.5176 418.057 99.0723 417.818 99.5645C417.584 100.053 417.246 100.434 416.805 100.707C416.367 100.98 415.863 101.117 415.293 101.117C414.434 101.117 413.736 100.818 413.201 100.221C412.67 99.623 412.404 98.832 412.404 97.8477V97.7715ZM413.494 97.9004C413.494 98.6035 413.656 99.168 413.98 99.5938C414.309 100.02 414.746 100.232 415.293 100.232C415.844 100.232 416.281 100.018 416.605 99.5879C416.93 99.1543 417.092 98.5488 417.092 97.7715C417.092 97.0762 416.926 96.5137 416.594 96.084C416.266 95.6504 415.828 95.4336 415.281 95.4336C414.746 95.4336 414.314 95.6465 413.986 96.0723C413.658 96.498 413.494 97.1074 413.494 97.9004ZM420.555 94.6602L420.584 95.3633C421.049 94.8164 421.676 94.543 422.465 94.543C423.352 94.543 423.955 94.8828 424.275 95.5625C424.486 95.2578 424.76 95.0117 425.096 94.8242C425.436 94.6367 425.836 94.543 426.297 94.543C427.688 94.543 428.395 95.2793 428.418 96.752V101H427.334V96.8164C427.334 96.3633 427.23 96.0254 427.023 95.8027C426.816 95.5762 426.469 95.4629 425.98 95.4629C425.578 95.4629 425.244 95.584 424.979 95.8262C424.713 96.0645 424.559 96.3867 424.516 96.793V101H423.426V96.8457C423.426 95.9238 422.975 95.4629 422.072 95.4629C421.361 95.4629 420.875 95.7656 420.613 96.3711V101H419.529V94.6602H420.555ZM431.236 101H430.152V94.6602H431.236V101ZM430.064 92.9785C430.064 92.8027 430.117 92.6543 430.223 92.5332C430.332 92.4121 430.492 92.3516 430.703 92.3516C430.914 92.3516 431.074 92.4121 431.184 92.5332C431.293 92.6543 431.348 92.8027 431.348 92.9785C431.348 93.1543 431.293 93.3008 431.184 93.418C431.074 93.5352 430.914 93.5938 430.703 93.5938C430.492 93.5938 430.332 93.5352 430.223 93.418C430.117 93.3008 430.064 93.1543 430.064 92.9785ZM436.668 99.3184C436.668 99.0254 436.557 98.7988 436.334 98.6387C436.115 98.4746 435.73 98.334 435.18 98.2168C434.633 98.0996 434.197 97.959 433.873 97.7949C433.553 97.6309 433.314 97.4355 433.158 97.209C433.006 96.9824 432.93 96.7129 432.93 96.4004C432.93 95.8809 433.148 95.4414 433.586 95.082C434.027 94.7227 434.59 94.543 435.273 94.543C435.992 94.543 436.574 94.7285 437.02 95.0996C437.469 95.4707 437.693 95.9453 437.693 96.5234H436.604C436.604 96.2266 436.477 95.9707 436.223 95.7559C435.973 95.541 435.656 95.4336 435.273 95.4336C434.879 95.4336 434.57 95.5195 434.348 95.6914C434.125 95.8633 434.014 96.0879 434.014 96.3652C434.014 96.627 434.117 96.8242 434.324 96.957C434.531 97.0898 434.904 97.2168 435.443 97.3379C435.986 97.459 436.426 97.6035 436.762 97.7715C437.098 97.9395 437.346 98.1426 437.506 98.3809C437.67 98.6152 437.752 98.9023 437.752 99.2422C437.752 99.8086 437.525 100.264 437.072 100.607C436.619 100.947 436.031 101.117 435.309 101.117C434.801 101.117 434.352 101.027 433.961 100.848C433.57 100.668 433.264 100.418 433.041 100.098C432.822 99.7734 432.713 99.4238 432.713 99.0488H433.797C433.816 99.4121 433.961 99.7012 434.23 99.916C434.504 100.127 434.863 100.232 435.309 100.232C435.719 100.232 436.047 100.15 436.293 99.9863C436.543 99.8184 436.668 99.5957 436.668 99.3184ZM441.795 101.117C440.936 101.117 440.236 100.836 439.697 100.273C439.158 99.707 438.889 98.9512 438.889 98.0059V97.8066C438.889 97.1777 439.008 96.6172 439.246 96.125C439.488 95.6289 439.824 95.2422 440.254 94.9648C440.688 94.6836 441.156 94.543 441.66 94.543C442.484 94.543 443.125 94.8145 443.582 95.3574C444.039 95.9004 444.268 96.6777 444.268 97.6895V98.1406H439.973C439.988 98.7656 440.17 99.2715 440.518 99.6582C440.869 100.041 441.314 100.232 441.854 100.232C442.236 100.232 442.561 100.154 442.826 99.998C443.092 99.8418 443.324 99.6348 443.523 99.377L444.186 99.8926C443.654 100.709 442.857 101.117 441.795 101.117ZM441.66 95.4336C441.223 95.4336 440.855 95.5938 440.559 95.9141C440.262 96.2305 440.078 96.6758 440.008 97.25H443.184V97.168C443.152 96.6172 443.004 96.1914 442.738 95.8906C442.473 95.5859 442.113 95.4336 441.66 95.4336ZM448.592 95.6328C448.428 95.6055 448.25 95.5918 448.059 95.5918C447.348 95.5918 446.865 95.8945 446.611 96.5V101H445.527V94.6602H446.582L446.6 95.3926C446.955 94.8262 447.459 94.543 448.111 94.543C448.322 94.543 448.482 94.5703 448.592 94.625V95.6328Z" fill="black"/>
<path d="M381.701 191.773H378.127L377.324 194H376.164L379.422 185.469H380.406L383.67 194H382.516L381.701 191.773ZM378.467 190.848H381.367L379.914 186.857L378.467 190.848ZM388.492 193.373C388.07 193.869 387.451 194.117 386.635 194.117C385.959 194.117 385.443 193.922 385.088 193.531C384.736 193.137 384.559 192.555 384.555 191.785V187.66H385.639V191.756C385.639 192.717 386.029 193.197 386.811 193.197C387.639 193.197 388.189 192.889 388.463 192.271V187.66H389.547V194H388.516L388.492 193.373ZM392.67 186.125V187.66H393.854V188.498H392.67V192.43C392.67 192.684 392.723 192.875 392.828 193.004C392.934 193.129 393.113 193.191 393.367 193.191C393.492 193.191 393.664 193.168 393.883 193.121V194C393.598 194.078 393.32 194.117 393.051 194.117C392.566 194.117 392.201 193.971 391.955 193.678C391.709 193.385 391.586 192.969 391.586 192.43V188.498H390.432V187.66H391.586V186.125H392.67ZM394.721 190.771C394.721 190.15 394.842 189.592 395.084 189.096C395.33 188.6 395.67 188.217 396.104 187.947C396.541 187.678 397.039 187.543 397.598 187.543C398.461 187.543 399.158 187.842 399.689 188.439C400.225 189.037 400.492 189.832 400.492 190.824V190.9C400.492 191.518 400.373 192.072 400.135 192.564C399.9 193.053 399.562 193.434 399.121 193.707C398.684 193.98 398.18 194.117 397.609 194.117C396.75 194.117 396.053 193.818 395.518 193.221C394.986 192.623 394.721 191.832 394.721 190.848V190.771ZM395.811 190.9C395.811 191.604 395.973 192.168 396.297 192.594C396.625 193.02 397.062 193.232 397.609 193.232C398.16 193.232 398.598 193.018 398.922 192.588C399.246 192.154 399.408 191.549 399.408 190.771C399.408 190.076 399.242 189.514 398.91 189.084C398.582 188.65 398.145 188.434 397.598 188.434C397.062 188.434 396.631 188.646 396.303 189.072C395.975 189.498 395.811 190.107 395.811 190.9ZM404.395 193.232C404.781 193.232 405.119 193.115 405.408 192.881C405.697 192.646 405.857 192.354 405.889 192.002H406.914C406.895 192.365 406.77 192.711 406.539 193.039C406.309 193.367 406 193.629 405.613 193.824C405.23 194.02 404.824 194.117 404.395 194.117C403.531 194.117 402.844 193.83 402.332 193.256C401.824 192.678 401.57 191.889 401.57 190.889V190.707C401.57 190.09 401.684 189.541 401.91 189.061C402.137 188.58 402.461 188.207 402.883 187.941C403.309 187.676 403.811 187.543 404.389 187.543C405.1 187.543 405.689 187.756 406.158 188.182C406.631 188.607 406.883 189.16 406.914 189.84H405.889C405.857 189.43 405.701 189.094 405.42 188.832C405.143 188.566 404.799 188.434 404.389 188.434C403.838 188.434 403.41 188.633 403.105 189.031C402.805 189.426 402.654 189.998 402.654 190.748V190.953C402.654 191.684 402.805 192.246 403.105 192.641C403.406 193.035 403.836 193.232 404.395 193.232ZM411.197 188.633C411.033 188.605 410.855 188.592 410.664 188.592C409.953 188.592 409.471 188.895 409.217 189.5V194H408.133V187.66H409.188L409.205 188.393C409.561 187.826 410.064 187.543 410.717 187.543C410.928 187.543 411.088 187.57 411.197 187.625V188.633ZM415.879 194C415.816 193.875 415.766 193.652 415.727 193.332C415.223 193.855 414.621 194.117 413.922 194.117C413.297 194.117 412.783 193.941 412.381 193.59C411.982 193.234 411.783 192.785 411.783 192.242C411.783 191.582 412.033 191.07 412.533 190.707C413.037 190.34 413.744 190.156 414.654 190.156H415.709V189.658C415.709 189.279 415.596 188.979 415.369 188.756C415.143 188.529 414.809 188.416 414.367 188.416C413.98 188.416 413.656 188.514 413.395 188.709C413.133 188.904 413.002 189.141 413.002 189.418H411.912C411.912 189.102 412.023 188.797 412.246 188.504C412.473 188.207 412.777 187.973 413.16 187.801C413.547 187.629 413.971 187.543 414.432 187.543C415.162 187.543 415.734 187.727 416.148 188.094C416.562 188.457 416.777 188.959 416.793 189.6V192.518C416.793 193.1 416.867 193.562 417.016 193.906V194H415.879ZM414.08 193.174C414.42 193.174 414.742 193.086 415.047 192.91C415.352 192.734 415.572 192.506 415.709 192.225V190.924H414.859C413.531 190.924 412.867 191.312 412.867 192.09C412.867 192.43 412.98 192.695 413.207 192.887C413.434 193.078 413.725 193.174 414.08 193.174ZM419.963 186.125V187.66H421.146V188.498H419.963V192.43C419.963 192.684 420.016 192.875 420.121 193.004C420.227 193.129 420.406 193.191 420.66 193.191C420.785 193.191 420.957 193.168 421.176 193.121V194C420.891 194.078 420.613 194.117 420.344 194.117C419.859 194.117 419.494 193.971 419.248 193.678C419.002 193.385 418.879 192.969 418.879 192.43V188.498H417.725V187.66H418.879V186.125H419.963ZM423.596 194H422.512V187.66H423.596V194ZM422.424 185.979C422.424 185.803 422.477 185.654 422.582 185.533C422.691 185.412 422.852 185.352 423.062 185.352C423.273 185.352 423.434 185.412 423.543 185.533C423.652 185.654 423.707 185.803 423.707 185.979C423.707 186.154 423.652 186.301 423.543 186.418C423.434 186.535 423.273 186.594 423.062 186.594C422.852 186.594 422.691 186.535 422.582 186.418C422.477 186.301 422.424 186.154 422.424 185.979ZM427.879 193.232C428.266 193.232 428.604 193.115 428.893 192.881C429.182 192.646 429.342 192.354 429.373 192.002H430.398C430.379 192.365 430.254 192.711 430.023 193.039C429.793 193.367 429.484 193.629 429.098 193.824C428.715 194.02 428.309 194.117 427.879 194.117C427.016 194.117 426.328 193.83 425.816 193.256C425.309 192.678 425.055 191.889 425.055 190.889V190.707C425.055 190.09 425.168 189.541 425.395 189.061C425.621 188.58 425.945 188.207 426.367 187.941C426.793 187.676 427.295 187.543 427.873 187.543C428.584 187.543 429.174 187.756 429.643 188.182C430.115 188.607 430.367 189.16 430.398 189.84H429.373C429.342 189.43 429.186 189.094 428.904 188.832C428.627 188.566 428.283 188.434 427.873 188.434C427.322 188.434 426.895 188.633 426.59 189.031C426.289 189.426 426.139 189.998 426.139 190.748V190.953C426.139 191.684 426.289 192.246 426.59 192.641C426.891 193.035 427.32 193.232 427.879 193.232Z" fill="black"/>
<path d="M259.99 286V277.469H262.779C263.705 277.469 264.4 277.66 264.865 278.043C265.334 278.426 265.568 278.992 265.568 279.742C265.568 280.141 265.455 280.494 265.229 280.803C265.002 281.107 264.693 281.344 264.303 281.512C264.764 281.641 265.127 281.887 265.393 282.25C265.662 282.609 265.797 283.039 265.797 283.539C265.797 284.305 265.549 284.906 265.053 285.344C264.557 285.781 263.855 286 262.949 286H259.99ZM261.115 282.01V285.08H262.973C263.496 285.08 263.908 284.945 264.209 284.676C264.514 284.402 264.666 284.027 264.666 283.551C264.666 282.523 264.107 282.01 262.99 282.01H261.115ZM261.115 281.107H262.814C263.307 281.107 263.699 280.984 263.992 280.738C264.289 280.492 264.438 280.158 264.438 279.736C264.438 279.268 264.301 278.928 264.027 278.717C263.754 278.502 263.338 278.395 262.779 278.395H261.115V281.107ZM269.928 286.117C269.068 286.117 268.369 285.836 267.83 285.273C267.291 284.707 267.021 283.951 267.021 283.006V282.807C267.021 282.178 267.141 281.617 267.379 281.125C267.621 280.629 267.957 280.242 268.387 279.965C268.82 279.684 269.289 279.543 269.793 279.543C270.617 279.543 271.258 279.814 271.715 280.357C272.172 280.9 272.4 281.678 272.4 282.689V283.141H268.105C268.121 283.766 268.303 284.271 268.65 284.658C269.002 285.041 269.447 285.232 269.986 285.232C270.369 285.232 270.693 285.154 270.959 284.998C271.225 284.842 271.457 284.635 271.656 284.377L272.318 284.893C271.787 285.709 270.99 286.117 269.928 286.117ZM269.793 280.434C269.355 280.434 268.988 280.594 268.691 280.914C268.395 281.23 268.211 281.676 268.141 282.25H271.316V282.168C271.285 281.617 271.137 281.191 270.871 280.891C270.605 280.586 270.246 280.434 269.793 280.434ZM274.686 279.66L274.721 280.457C275.205 279.848 275.838 279.543 276.619 279.543C277.959 279.543 278.635 280.299 278.646 281.811V286H277.562V281.805C277.559 281.348 277.453 281.01 277.246 280.791C277.043 280.572 276.725 280.463 276.291 280.463C275.939 280.463 275.631 280.557 275.365 280.744C275.1 280.932 274.893 281.178 274.744 281.482V286H273.66V279.66H274.686ZM282.912 286.117C282.053 286.117 281.354 285.836 280.814 285.273C280.275 284.707 280.006 283.951 280.006 283.006V282.807C280.006 282.178 280.125 281.617 280.363 281.125C280.605 280.629 280.941 280.242 281.371 279.965C281.805 279.684 282.273 279.543 282.777 279.543C283.602 279.543 284.242 279.814 284.699 280.357C285.156 280.9 285.385 281.678 285.385 282.689V283.141H281.09C281.105 283.766 281.287 284.271 281.635 284.658C281.986 285.041 282.432 285.232 282.971 285.232C283.354 285.232 283.678 285.154 283.943 284.998C284.209 284.842 284.441 284.635 284.641 284.377L285.303 284.893C284.771 285.709 283.975 286.117 282.912 286.117ZM282.777 280.434C282.34 280.434 281.973 280.594 281.676 280.914C281.379 281.23 281.195 281.676 281.125 282.25H284.301V282.168C284.27 281.617 284.121 281.191 283.855 280.891C283.59 280.586 283.23 280.434 282.777 280.434ZM288.654 284.529L290.225 279.66H291.332L289.059 286H288.232L285.936 279.66H287.043L288.654 284.529ZM291.994 282.771C291.994 282.15 292.115 281.592 292.357 281.096C292.604 280.6 292.943 280.217 293.377 279.947C293.814 279.678 294.312 279.543 294.871 279.543C295.734 279.543 296.432 279.842 296.963 280.439C297.498 281.037 297.766 281.832 297.766 282.824V282.9C297.766 283.518 297.646 284.072 297.408 284.564C297.174 285.053 296.836 285.434 296.395 285.707C295.957 285.98 295.453 286.117 294.883 286.117C294.023 286.117 293.326 285.818 292.791 285.221C292.26 284.623 291.994 283.832 291.994 282.848V282.771ZM293.084 282.9C293.084 283.604 293.246 284.168 293.57 284.594C293.898 285.02 294.336 285.232 294.883 285.232C295.434 285.232 295.871 285.018 296.195 284.588C296.52 284.154 296.682 283.549 296.682 282.771C296.682 282.076 296.516 281.514 296.184 281.084C295.855 280.65 295.418 280.434 294.871 280.434C294.336 280.434 293.904 280.646 293.576 281.072C293.248 281.498 293.084 282.107 293.084 282.9ZM300.303 286H299.219V277H300.303V286ZM304.674 286.117C303.814 286.117 303.115 285.836 302.576 285.273C302.037 284.707 301.768 283.951 301.768 283.006V282.807C301.768 282.178 301.887 281.617 302.125 281.125C302.367 280.629 302.703 280.242 303.133 279.965C303.566 279.684 304.035 279.543 304.539 279.543C305.363 279.543 306.004 279.814 306.461 280.357C306.918 280.9 307.146 281.678 307.146 282.689V283.141H302.852C302.867 283.766 303.049 284.271 303.396 284.658C303.748 285.041 304.193 285.232 304.732 285.232C305.115 285.232 305.439 285.154 305.705 284.998C305.971 284.842 306.203 284.635 306.402 284.377L307.064 284.893C306.533 285.709 305.736 286.117 304.674 286.117ZM304.539 280.434C304.102 280.434 303.734 280.594 303.438 280.914C303.141 281.23 302.957 281.676 302.887 282.25H306.062V282.168C306.031 281.617 305.883 281.191 305.617 280.891C305.352 280.586 304.992 280.434 304.539 280.434ZM309.432 279.66L309.467 280.457C309.951 279.848 310.584 279.543 311.365 279.543C312.705 279.543 313.381 280.299 313.393 281.811V286H312.309V281.805C312.305 281.348 312.199 281.01 311.992 280.791C311.789 280.572 311.471 280.463 311.037 280.463C310.686 280.463 310.377 280.557 310.111 280.744C309.846 280.932 309.639 281.178 309.49 281.482V286H308.406V279.66H309.432ZM316.498 278.125V279.66H317.682V280.498H316.498V284.43C316.498 284.684 316.551 284.875 316.656 285.004C316.762 285.129 316.941 285.191 317.195 285.191C317.32 285.191 317.492 285.168 317.711 285.121V286C317.426 286.078 317.148 286.117 316.879 286.117C316.395 286.117 316.029 285.971 315.783 285.678C315.537 285.385 315.414 284.969 315.414 284.43V280.498H314.26V279.66H315.414V278.125H316.498ZM326.811 283.773H323.236L322.434 286H321.273L324.531 277.469H325.516L328.779 286H327.625L326.811 283.773ZM323.576 282.848H326.477L325.023 278.857L323.576 282.848ZM333.602 285.373C333.18 285.869 332.561 286.117 331.744 286.117C331.068 286.117 330.553 285.922 330.197 285.531C329.846 285.137 329.668 284.555 329.664 283.785V279.66H330.748V283.756C330.748 284.717 331.139 285.197 331.92 285.197C332.748 285.197 333.299 284.889 333.572 284.271V279.66H334.656V286H333.625L333.602 285.373ZM337.779 278.125V279.66H338.963V280.498H337.779V284.43C337.779 284.684 337.832 284.875 337.938 285.004C338.043 285.129 338.223 285.191 338.477 285.191C338.602 285.191 338.773 285.168 338.992 285.121V286C338.707 286.078 338.43 286.117 338.16 286.117C337.676 286.117 337.311 285.971 337.064 285.678C336.818 285.385 336.695 284.969 336.695 284.43V280.498H335.541V279.66H336.695V278.125H337.779ZM339.83 282.771C339.83 282.15 339.951 281.592 340.193 281.096C340.439 280.6 340.779 280.217 341.213 279.947C341.65 279.678 342.148 279.543 342.707 279.543C343.57 279.543 344.268 279.842 344.799 280.439C345.334 281.037 345.602 281.832 345.602 282.824V282.9C345.602 283.518 345.482 284.072 345.244 284.564C345.01 285.053 344.672 285.434 344.23 285.707C343.793 285.98 343.289 286.117 342.719 286.117C341.859 286.117 341.162 285.818 340.627 285.221C340.096 284.623 339.83 283.832 339.83 282.848V282.771ZM340.92 282.9C340.92 283.604 341.082 284.168 341.406 284.594C341.734 285.02 342.172 285.232 342.719 285.232C343.27 285.232 343.707 285.018 344.031 284.588C344.355 284.154 344.518 283.549 344.518 282.771C344.518 282.076 344.352 281.514 344.02 281.084C343.691 280.65 343.254 280.434 342.707 280.434C342.172 280.434 341.74 280.646 341.412 281.072C341.084 281.498 340.92 282.107 340.92 282.9ZM349.504 285.232C349.891 285.232 350.229 285.115 350.518 284.881C350.807 284.646 350.967 284.354 350.998 284.002H352.023C352.004 284.365 351.879 284.711 351.648 285.039C351.418 285.367 351.109 285.629 350.723 285.824C350.34 286.02 349.934 286.117 349.504 286.117C348.641 286.117 347.953 285.83 347.441 285.256C346.934 284.678 346.68 283.889 346.68 282.889V282.707C346.68 282.09 346.793 281.541 347.02 281.061C347.246 280.58 347.57 280.207 347.992 279.941C348.418 279.676 348.92 279.543 349.498 279.543C350.209 279.543 350.799 279.756 351.268 280.182C351.74 280.607 351.992 281.16 352.023 281.84H350.998C350.967 281.43 350.811 281.094 350.529 280.832C350.252 280.566 349.908 280.434 349.498 280.434C348.947 280.434 348.52 280.633 348.215 281.031C347.914 281.426 347.764 281.998 347.764 282.748V282.953C347.764 283.684 347.914 284.246 348.215 284.641C348.516 285.035 348.945 285.232 349.504 285.232ZM356.307 280.633C356.143 280.605 355.965 280.592 355.773 280.592C355.062 280.592 354.58 280.895 354.326 281.5V286H353.242V279.66H354.297L354.314 280.393C354.67 279.826 355.174 279.543 355.826 279.543C356.037 279.543 356.197 279.57 356.307 279.625V280.633ZM360.988 286C360.926 285.875 360.875 285.652 360.836 285.332C360.332 285.855 359.73 286.117 359.031 286.117C358.406 286.117 357.893 285.941 357.49 285.59C357.092 285.234 356.893 284.785 356.893 284.242C356.893 283.582 357.143 283.07 357.643 282.707C358.146 282.34 358.854 282.156 359.764 282.156H360.818V281.658C360.818 281.279 360.705 280.979 360.479 280.756C360.252 280.529 359.918 280.416 359.477 280.416C359.09 280.416 358.766 280.514 358.504 280.709C358.242 280.904 358.111 281.141 358.111 281.418H357.021C357.021 281.102 357.133 280.797 357.355 280.504C357.582 280.207 357.887 279.973 358.27 279.801C358.656 279.629 359.08 279.543 359.541 279.543C360.271 279.543 360.844 279.727 361.258 280.094C361.672 280.457 361.887 280.959 361.902 281.6V284.518C361.902 285.1 361.977 285.562 362.125 285.906V286H360.988ZM359.189 285.174C359.529 285.174 359.852 285.086 360.156 284.91C360.461 284.734 360.682 284.506 360.818 284.225V282.924H359.969C358.641 282.924 357.977 283.312 357.977 284.09C357.977 284.43 358.09 284.695 358.316 284.887C358.543 285.078 358.834 285.174 359.189 285.174ZM365.072 278.125V279.66H366.256V280.498H365.072V284.43C365.072 284.684 365.125 284.875 365.23 285.004C365.336 285.129 365.516 285.191 365.77 285.191C365.895 285.191 366.066 285.168 366.285 285.121V286C366 286.078 365.723 286.117 365.453 286.117C364.969 286.117 364.604 285.971 364.357 285.678C364.111 285.385 363.988 284.969 363.988 284.43V280.498H362.834V279.66H363.988V278.125H365.072ZM368.705 286H367.621V279.66H368.705V286ZM367.533 277.979C367.533 277.803 367.586 277.654 367.691 277.533C367.801 277.412 367.961 277.352 368.172 277.352C368.383 277.352 368.543 277.412 368.652 277.533C368.762 277.654 368.816 277.803 368.816 277.979C368.816 278.154 368.762 278.301 368.652 278.418C368.543 278.535 368.383 278.594 368.172 278.594C367.961 278.594 367.801 278.535 367.691 278.418C367.586 278.301 367.533 278.154 367.533 277.979ZM372.988 285.232C373.375 285.232 373.713 285.115 374.002 284.881C374.291 284.646 374.451 284.354 374.482 284.002H375.508C375.488 284.365 375.363 284.711 375.133 285.039C374.902 285.367 374.594 285.629 374.207 285.824C373.824 286.02 373.418 286.117 372.988 286.117C372.125 286.117 371.438 285.83 370.926 285.256C370.418 284.678 370.164 283.889 370.164 282.889V282.707C370.164 282.09 370.277 281.541 370.504 281.061C370.73 280.58 371.055 280.207 371.477 279.941C371.902 279.676 372.404 279.543 372.982 279.543C373.693 279.543 374.283 279.756 374.752 280.182C375.225 280.607 375.477 281.16 375.508 281.84H374.482C374.451 281.43 374.295 281.094 374.014 280.832C373.736 280.566 373.393 280.434 372.982 280.434C372.432 280.434 372.004 280.633 371.699 281.031C371.398 281.426 371.248 281.998 371.248 282.748V282.953C371.248 283.684 371.398 284.246 371.699 284.641C372 285.035 372.43 285.232 372.988 285.232Z" fill="black"/>
<path d="M110.99 286V277.469H113.779C114.705 277.469 115.4 277.66 115.865 278.043C116.334 278.426 116.568 278.992 116.568 279.742C116.568 280.141 116.455 280.494 116.229 280.803C116.002 281.107 115.693 281.344 115.303 281.512C115.764 281.641 116.127 281.887 116.393 282.25C116.662 282.609 116.797 283.039 116.797 283.539C116.797 284.305 116.549 284.906 116.053 285.344C115.557 285.781 114.855 286 113.949 286H110.99ZM112.115 282.01V285.08H113.973C114.496 285.08 114.908 284.945 115.209 284.676C115.514 284.402 115.666 284.027 115.666 283.551C115.666 282.523 115.107 282.01 113.99 282.01H112.115ZM112.115 281.107H113.814C114.307 281.107 114.699 280.984 114.992 280.738C115.289 280.492 115.438 280.158 115.438 279.736C115.438 279.268 115.301 278.928 115.027 278.717C114.754 278.502 114.338 278.395 113.779 278.395H112.115V281.107ZM122.211 285.373C121.789 285.869 121.17 286.117 120.354 286.117C119.678 286.117 119.162 285.922 118.807 285.531C118.455 285.137 118.277 284.555 118.273 283.785V279.66H119.357V283.756C119.357 284.717 119.748 285.197 120.529 285.197C121.357 285.197 121.908 284.889 122.182 284.271V279.66H123.266V286H122.234L122.211 285.373ZM127.982 280.633C127.818 280.605 127.641 280.592 127.449 280.592C126.738 280.592 126.256 280.895 126.002 281.5V286H124.918V279.66H125.973L125.99 280.393C126.346 279.826 126.85 279.543 127.502 279.543C127.713 279.543 127.873 279.57 127.982 279.625V280.633ZM131.498 286.117C130.639 286.117 129.939 285.836 129.4 285.273C128.861 284.707 128.592 283.951 128.592 283.006V282.807C128.592 282.178 128.711 281.617 128.949 281.125C129.191 280.629 129.527 280.242 129.957 279.965C130.391 279.684 130.859 279.543 131.363 279.543C132.188 279.543 132.828 279.814 133.285 280.357C133.742 280.9 133.971 281.678 133.971 282.689V283.141H129.676C129.691 283.766 129.873 284.271 130.221 284.658C130.572 285.041 131.018 285.232 131.557 285.232C131.939 285.232 132.264 285.154 132.529 284.998C132.795 284.842 133.027 284.635 133.227 284.377L133.889 284.893C133.357 285.709 132.561 286.117 131.498 286.117ZM131.363 280.434C130.926 280.434 130.559 280.594 130.262 280.914C129.965 281.23 129.781 281.676 129.711 282.25H132.887V282.168C132.855 281.617 132.707 281.191 132.441 280.891C132.176 280.586 131.816 280.434 131.363 280.434ZM139.145 286C139.082 285.875 139.031 285.652 138.992 285.332C138.488 285.855 137.887 286.117 137.188 286.117C136.562 286.117 136.049 285.941 135.646 285.59C135.248 285.234 135.049 284.785 135.049 284.242C135.049 283.582 135.299 283.07 135.799 282.707C136.303 282.34 137.01 282.156 137.92 282.156H138.975V281.658C138.975 281.279 138.861 280.979 138.635 280.756C138.408 280.529 138.074 280.416 137.633 280.416C137.246 280.416 136.922 280.514 136.66 280.709C136.398 280.904 136.268 281.141 136.268 281.418H135.178C135.178 281.102 135.289 280.797 135.512 280.504C135.738 280.207 136.043 279.973 136.426 279.801C136.812 279.629 137.236 279.543 137.697 279.543C138.428 279.543 139 279.727 139.414 280.094C139.828 280.457 140.043 280.959 140.059 281.6V284.518C140.059 285.1 140.133 285.562 140.281 285.906V286H139.145ZM137.346 285.174C137.686 285.174 138.008 285.086 138.312 284.91C138.617 284.734 138.838 284.506 138.975 284.225V282.924H138.125C136.797 282.924 136.133 283.312 136.133 284.09C136.133 284.43 136.246 284.695 136.473 284.887C136.699 285.078 136.99 285.174 137.346 285.174ZM145.672 285.373C145.25 285.869 144.631 286.117 143.814 286.117C143.139 286.117 142.623 285.922 142.268 285.531C141.916 285.137 141.738 284.555 141.734 283.785V279.66H142.818V283.756C142.818 284.717 143.209 285.197 143.99 285.197C144.818 285.197 145.369 284.889 145.643 284.271V279.66H146.727V286H145.695L145.672 285.373ZM150.922 285.232C151.309 285.232 151.646 285.115 151.936 284.881C152.225 284.646 152.385 284.354 152.416 284.002H153.441C153.422 284.365 153.297 284.711 153.066 285.039C152.836 285.367 152.527 285.629 152.141 285.824C151.758 286.02 151.352 286.117 150.922 286.117C150.059 286.117 149.371 285.83 148.859 285.256C148.352 284.678 148.098 283.889 148.098 282.889V282.707C148.098 282.09 148.211 281.541 148.438 281.061C148.664 280.58 148.988 280.207 149.41 279.941C149.836 279.676 150.338 279.543 150.916 279.543C151.627 279.543 152.217 279.756 152.686 280.182C153.158 280.607 153.41 281.16 153.441 281.84H152.416C152.385 281.43 152.229 281.094 151.947 280.832C151.67 280.566 151.326 280.434 150.916 280.434C150.365 280.434 149.938 280.633 149.633 281.031C149.332 281.426 149.182 281.998 149.182 282.748V282.953C149.182 283.684 149.332 284.246 149.633 284.641C149.934 285.035 150.363 285.232 150.922 285.232ZM157.725 280.633C157.561 280.605 157.383 280.592 157.191 280.592C156.48 280.592 155.998 280.895 155.744 281.5V286H154.66V279.66H155.715L155.732 280.393C156.088 279.826 156.592 279.543 157.244 279.543C157.455 279.543 157.615 279.57 157.725 279.625V280.633ZM162.406 286C162.344 285.875 162.293 285.652 162.254 285.332C161.75 285.855 161.148 286.117 160.449 286.117C159.824 286.117 159.311 285.941 158.908 285.59C158.51 285.234 158.311 284.785 158.311 284.242C158.311 283.582 158.561 283.07 159.061 282.707C159.564 282.34 160.271 282.156 161.182 282.156H162.236V281.658C162.236 281.279 162.123 280.979 161.896 280.756C161.67 280.529 161.336 280.416 160.895 280.416C160.508 280.416 160.184 280.514 159.922 280.709C159.66 280.904 159.529 281.141 159.529 281.418H158.439C158.439 281.102 158.551 280.797 158.773 280.504C159 280.207 159.305 279.973 159.688 279.801C160.074 279.629 160.498 279.543 160.959 279.543C161.689 279.543 162.262 279.727 162.676 280.094C163.09 280.457 163.305 280.959 163.32 281.6V284.518C163.32 285.1 163.395 285.562 163.543 285.906V286H162.406ZM160.607 285.174C160.947 285.174 161.27 285.086 161.574 284.91C161.879 284.734 162.1 284.506 162.236 284.225V282.924H161.387C160.059 282.924 159.395 283.312 159.395 284.09C159.395 284.43 159.508 284.695 159.734 284.887C159.961 285.078 160.252 285.174 160.607 285.174ZM166.49 278.125V279.66H167.674V280.498H166.49V284.43C166.49 284.684 166.543 284.875 166.648 285.004C166.754 285.129 166.934 285.191 167.188 285.191C167.312 285.191 167.484 285.168 167.703 285.121V286C167.418 286.078 167.141 286.117 166.871 286.117C166.387 286.117 166.021 285.971 165.775 285.678C165.529 285.385 165.406 284.969 165.406 284.43V280.498H164.252V279.66H165.406V278.125H166.49Z" fill="black"/>
<path d="M51.9902 194V185.469H54.3984C55.1406 185.469 55.7969 185.633 56.3672 185.961C56.9375 186.289 57.377 186.756 57.6855 187.361C57.998 187.967 58.1562 188.662 58.1602 189.447V189.992C58.1602 190.797 58.0039 191.502 57.6914 192.107C57.3828 192.713 56.9395 193.178 56.3613 193.502C55.7871 193.826 55.1172 193.992 54.3516 194H51.9902ZM53.1152 186.395V193.08H54.2988C55.166 193.08 55.8398 192.811 56.3203 192.271C56.8047 191.732 57.0469 190.965 57.0469 189.969V189.471C57.0469 188.502 56.8184 187.75 56.3613 187.215C55.9082 186.676 55.2637 186.402 54.4277 186.395H53.1152ZM62.3262 194.117C61.4668 194.117 60.7676 193.836 60.2285 193.273C59.6895 192.707 59.4199 191.951 59.4199 191.006V190.807C59.4199 190.178 59.5391 189.617 59.7773 189.125C60.0195 188.629 60.3555 188.242 60.7852 187.965C61.2188 187.684 61.6875 187.543 62.1914 187.543C63.0156 187.543 63.6562 187.814 64.1133 188.357C64.5703 188.9 64.7988 189.678 64.7988 190.689V191.141H60.5039C60.5195 191.766 60.7012 192.271 61.0488 192.658C61.4004 193.041 61.8457 193.232 62.3848 193.232C62.7676 193.232 63.0918 193.154 63.3574 192.998C63.623 192.842 63.8555 192.635 64.0547 192.377L64.7168 192.893C64.1855 193.709 63.3887 194.117 62.3262 194.117ZM62.1914 188.434C61.7539 188.434 61.3867 188.594 61.0898 188.914C60.793 189.23 60.6094 189.676 60.5391 190.25H63.7148V190.168C63.6836 189.617 63.5352 189.191 63.2695 188.891C63.0039 188.586 62.6445 188.434 62.1914 188.434ZM69.75 192.318C69.75 192.025 69.6387 191.799 69.416 191.639C69.1973 191.475 68.8125 191.334 68.2617 191.217C67.7148 191.1 67.2793 190.959 66.9551 190.795C66.6348 190.631 66.3965 190.436 66.2402 190.209C66.0879 189.982 66.0117 189.713 66.0117 189.4C66.0117 188.881 66.2305 188.441 66.668 188.082C67.1094 187.723 67.6719 187.543 68.3555 187.543C69.0742 187.543 69.6562 187.729 70.1016 188.1C70.5508 188.471 70.7754 188.945 70.7754 189.523H69.6855C69.6855 189.227 69.5586 188.971 69.3047 188.756C69.0547 188.541 68.7383 188.434 68.3555 188.434C67.9609 188.434 67.6523 188.52 67.4297 188.691C67.207 188.863 67.0957 189.088 67.0957 189.365C67.0957 189.627 67.1992 189.824 67.4062 189.957C67.6133 190.09 67.9863 190.217 68.5254 190.338C69.0684 190.459 69.5078 190.604 69.8438 190.771C70.1797 190.939 70.4277 191.143 70.5879 191.381C70.752 191.615 70.834 191.902 70.834 192.242C70.834 192.809 70.6074 193.264 70.1543 193.607C69.7012 193.947 69.1133 194.117 68.3906 194.117C67.8828 194.117 67.4336 194.027 67.043 193.848C66.6523 193.668 66.3457 193.418 66.123 193.098C65.9043 192.773 65.7949 192.424 65.7949 192.049H66.8789C66.8984 192.412 67.043 192.701 67.3125 192.916C67.5859 193.127 67.9453 193.232 68.3906 193.232C68.8008 193.232 69.1289 193.15 69.375 192.986C69.625 192.818 69.75 192.596 69.75 192.318ZM74.877 194.117C74.0176 194.117 73.3184 193.836 72.7793 193.273C72.2402 192.707 71.9707 191.951 71.9707 191.006V190.807C71.9707 190.178 72.0898 189.617 72.3281 189.125C72.5703 188.629 72.9062 188.242 73.3359 187.965C73.7695 187.684 74.2383 187.543 74.7422 187.543C75.5664 187.543 76.207 187.814 76.6641 188.357C77.1211 188.9 77.3496 189.678 77.3496 190.689V191.141H73.0547C73.0703 191.766 73.252 192.271 73.5996 192.658C73.9512 193.041 74.3965 193.232 74.9355 193.232C75.3184 193.232 75.6426 193.154 75.9082 192.998C76.1738 192.842 76.4062 192.635 76.6055 192.377L77.2676 192.893C76.7363 193.709 75.9395 194.117 74.877 194.117ZM74.7422 188.434C74.3047 188.434 73.9375 188.594 73.6406 188.914C73.3438 189.23 73.1602 189.676 73.0898 190.25H76.2656V190.168C76.2344 189.617 76.0859 189.191 75.8203 188.891C75.5547 188.586 75.1953 188.434 74.7422 188.434ZM81.6738 188.633C81.5098 188.605 81.332 188.592 81.1406 188.592C80.4297 188.592 79.9473 188.895 79.6934 189.5V194H78.6094V187.66H79.6641L79.6816 188.393C80.0371 187.826 80.541 187.543 81.1934 187.543C81.4043 187.543 81.5645 187.57 81.6738 187.625V188.633ZM84.4395 186.125V187.66H85.623V188.498H84.4395V192.43C84.4395 192.684 84.4922 192.875 84.5977 193.004C84.7031 193.129 84.8828 193.191 85.1367 193.191C85.2617 193.191 85.4336 193.168 85.6523 193.121V194C85.3672 194.078 85.0898 194.117 84.8203 194.117C84.3359 194.117 83.9707 193.971 83.7246 193.678C83.4785 193.385 83.3555 192.969 83.3555 192.43V188.498H82.2012V187.66H83.3555V186.125H84.4395ZM89.5254 194.117C88.666 194.117 87.9668 193.836 87.4277 193.273C86.8887 192.707 86.6191 191.951 86.6191 191.006V190.807C86.6191 190.178 86.7383 189.617 86.9766 189.125C87.2188 188.629 87.5547 188.242 87.9844 187.965C88.418 187.684 88.8867 187.543 89.3906 187.543C90.2148 187.543 90.8555 187.814 91.3125 188.357C91.7695 188.9 91.998 189.678 91.998 190.689V191.141H87.7031C87.7188 191.766 87.9004 192.271 88.248 192.658C88.5996 193.041 89.0449 193.232 89.584 193.232C89.9668 193.232 90.291 193.154 90.5566 192.998C90.8223 192.842 91.0547 192.635 91.2539 192.377L91.916 192.893C91.3848 193.709 90.5879 194.117 89.5254 194.117ZM89.3906 188.434C88.9531 188.434 88.5859 188.594 88.2891 188.914C87.9922 189.23 87.8086 189.676 87.7383 190.25H90.9141V190.168C90.8828 189.617 90.7344 189.191 90.4688 188.891C90.2031 188.586 89.8438 188.434 89.3906 188.434ZM96.3223 188.633C96.1582 188.605 95.9805 188.592 95.7891 188.592C95.0781 188.592 94.5957 188.895 94.3418 189.5V194H93.2578V187.66H94.3125L94.3301 188.393C94.6855 187.826 95.1895 187.543 95.8418 187.543C96.0527 187.543 96.2129 187.57 96.3223 187.625V188.633Z" fill="black"/>
<path d="M53.4434 92.4688L56.2324 99.4297L59.0215 92.4688H60.4805V101H59.3555V97.6777L59.4609 94.0918L56.6602 101H55.7988L53.0039 94.1094L53.1152 97.6777V101H51.9902V92.4688H53.4434ZM63.4746 101H62.3906V94.6602H63.4746V101ZM62.3027 92.9785C62.3027 92.8027 62.3555 92.6543 62.4609 92.5332C62.5703 92.4121 62.7305 92.3516 62.9414 92.3516C63.1523 92.3516 63.3125 92.4121 63.4219 92.5332C63.5312 92.6543 63.5859 92.8027 63.5859 92.9785C63.5859 93.1543 63.5312 93.3008 63.4219 93.418C63.3125 93.5352 63.1523 93.5938 62.9414 93.5938C62.7305 93.5938 62.5703 93.5352 62.4609 93.418C62.3555 93.3008 62.3027 93.1543 62.3027 92.9785ZM68.9062 99.3184C68.9062 99.0254 68.7949 98.7988 68.5723 98.6387C68.3535 98.4746 67.9688 98.334 67.418 98.2168C66.8711 98.0996 66.4355 97.959 66.1113 97.7949C65.791 97.6309 65.5527 97.4355 65.3965 97.209C65.2441 96.9824 65.168 96.7129 65.168 96.4004C65.168 95.8809 65.3867 95.4414 65.8242 95.082C66.2656 94.7227 66.8281 94.543 67.5117 94.543C68.2305 94.543 68.8125 94.7285 69.2578 95.0996C69.707 95.4707 69.9316 95.9453 69.9316 96.5234H68.8418C68.8418 96.2266 68.7148 95.9707 68.4609 95.7559C68.2109 95.541 67.8945 95.4336 67.5117 95.4336C67.1172 95.4336 66.8086 95.5195 66.5859 95.6914C66.3633 95.8633 66.252 96.0879 66.252 96.3652C66.252 96.627 66.3555 96.8242 66.5625 96.957C66.7695 97.0898 67.1426 97.2168 67.6816 97.3379C68.2246 97.459 68.6641 97.6035 69 97.7715C69.3359 97.9395 69.584 98.1426 69.7441 98.3809C69.9082 98.6152 69.9902 98.9023 69.9902 99.2422C69.9902 99.8086 69.7637 100.264 69.3105 100.607C68.8574 100.947 68.2695 101.117 67.5469 101.117C67.0391 101.117 66.5898 101.027 66.1992 100.848C65.8086 100.668 65.502 100.418 65.2793 100.098C65.0605 99.7734 64.9512 99.4238 64.9512 99.0488H66.0352C66.0547 99.4121 66.1992 99.7012 66.4688 99.916C66.7422 100.127 67.1016 100.232 67.5469 100.232C67.957 100.232 68.2852 100.15 68.5312 99.9863C68.7812 99.8184 68.9062 99.5957 68.9062 99.3184ZM75.0938 99.3184C75.0938 99.0254 74.9824 98.7988 74.7598 98.6387C74.541 98.4746 74.1562 98.334 73.6055 98.2168C73.0586 98.0996 72.623 97.959 72.2988 97.7949C71.9785 97.6309 71.7402 97.4355 71.584 97.209C71.4316 96.9824 71.3555 96.7129 71.3555 96.4004C71.3555 95.8809 71.5742 95.4414 72.0117 95.082C72.4531 94.7227 73.0156 94.543 73.6992 94.543C74.418 94.543 75 94.7285 75.4453 95.0996C75.8945 95.4707 76.1191 95.9453 76.1191 96.5234H75.0293C75.0293 96.2266 74.9023 95.9707 74.6484 95.7559C74.3984 95.541 74.082 95.4336 73.6992 95.4336C73.3047 95.4336 72.9961 95.5195 72.7734 95.6914C72.5508 95.8633 72.4395 96.0879 72.4395 96.3652C72.4395 96.627 72.543 96.8242 72.75 96.957C72.957 97.0898 73.3301 97.2168 73.8691 97.3379C74.4121 97.459 74.8516 97.6035 75.1875 97.7715C75.5234 97.9395 75.7715 98.1426 75.9316 98.3809C76.0957 98.6152 76.1777 98.9023 76.1777 99.2422C76.1777 99.8086 75.9512 100.264 75.498 100.607C75.0449 100.947 74.457 101.117 73.7344 101.117C73.2266 101.117 72.7773 101.027 72.3867 100.848C71.9961 100.668 71.6895 100.418 71.4668 100.098C71.248 99.7734 71.1387 99.4238 71.1387 99.0488H72.2227C72.2422 99.4121 72.3867 99.7012 72.6562 99.916C72.9297 100.127 73.2891 100.232 73.7344 100.232C74.1445 100.232 74.4727 100.15 74.7188 99.9863C74.9688 99.8184 75.0938 99.5957 75.0938 99.3184ZM78.7676 101H77.6836V94.6602H78.7676V101ZM77.5957 92.9785C77.5957 92.8027 77.6484 92.6543 77.7539 92.5332C77.8633 92.4121 78.0234 92.3516 78.2344 92.3516C78.4453 92.3516 78.6055 92.4121 78.7148 92.5332C78.8242 92.6543 78.8789 92.8027 78.8789 92.9785C78.8789 93.1543 78.8242 93.3008 78.7148 93.418C78.6055 93.5352 78.4453 93.5938 78.2344 93.5938C78.0234 93.5938 77.8633 93.5352 77.7539 93.418C77.6484 93.3008 77.5957 93.1543 77.5957 92.9785ZM80.2207 97.7715C80.2207 97.1504 80.3418 96.5918 80.584 96.0957C80.8301 95.5996 81.1699 95.2168 81.6035 94.9473C82.041 94.6777 82.5391 94.543 83.0977 94.543C83.9609 94.543 84.6582 94.8418 85.1895 95.4395C85.7246 96.0371 85.9922 96.832 85.9922 97.8242V97.9004C85.9922 98.5176 85.873 99.0723 85.6348 99.5645C85.4004 100.053 85.0625 100.434 84.6211 100.707C84.1836 100.98 83.6797 101.117 83.1094 101.117C82.25 101.117 81.5527 100.818 81.0176 100.221C80.4863 99.623 80.2207 98.832 80.2207 97.8477V97.7715ZM81.3105 97.9004C81.3105 98.6035 81.4727 99.168 81.7969 99.5938C82.125 100.02 82.5625 100.232 83.1094 100.232C83.6602 100.232 84.0977 100.018 84.4219 99.5879C84.7461 99.1543 84.9082 98.5488 84.9082 97.7715C84.9082 97.0762 84.7422 96.5137 84.4102 96.084C84.082 95.6504 83.6445 95.4336 83.0977 95.4336C82.5625 95.4336 82.1309 95.6465 81.8027 96.0723C81.4746 96.498 81.3105 97.1074 81.3105 97.9004ZM88.377 94.6602L88.4121 95.457C88.8965 94.8477 89.5293 94.543 90.3105 94.543C91.6504 94.543 92.3262 95.2988 92.3379 96.8105V101H91.2539V96.8047C91.25 96.3477 91.1445 96.0098 90.9375 95.791C90.7344 95.5723 90.416 95.4629 89.9824 95.4629C89.6309 95.4629 89.3223 95.5566 89.0566 95.7441C88.791 95.9316 88.584 96.1777 88.4355 96.4824V101H87.3516V94.6602H88.377ZM97.8867 101C97.8242 100.875 97.7734 100.652 97.7344 100.332C97.2305 100.855 96.6289 101.117 95.9297 101.117C95.3047 101.117 94.791 100.941 94.3887 100.59C93.9902 100.234 93.791 99.7852 93.791 99.2422C93.791 98.582 94.041 98.0703 94.541 97.707C95.0449 97.3398 95.752 97.1562 96.6621 97.1562H97.7168V96.6582C97.7168 96.2793 97.6035 95.9785 97.377 95.7559C97.1504 95.5293 96.8164 95.416 96.375 95.416C95.9883 95.416 95.6641 95.5137 95.4023 95.709C95.1406 95.9043 95.0098 96.1406 95.0098 96.418H93.9199C93.9199 96.1016 94.0312 95.7969 94.2539 95.5039C94.4805 95.207 94.7852 94.9727 95.168 94.8008C95.5547 94.6289 95.9785 94.543 96.4395 94.543C97.1699 94.543 97.7422 94.7266 98.1562 95.0938C98.5703 95.457 98.7852 95.959 98.8008 96.5996V99.5176C98.8008 100.1 98.875 100.562 99.0234 100.906V101H97.8867ZM96.0879 100.174C96.4277 100.174 96.75 100.086 97.0547 99.9102C97.3594 99.7344 97.5801 99.5059 97.7168 99.2246V97.9238H96.8672C95.5391 97.9238 94.875 98.3125 94.875 99.0898C94.875 99.4297 94.9883 99.6953 95.2148 99.8867C95.4414 100.078 95.7324 100.174 96.0879 100.174ZM103.564 95.6328C103.4 95.6055 103.223 95.5918 103.031 95.5918C102.32 95.5918 101.838 95.8945 101.584 96.5V101H100.5V94.6602H101.555L101.572 95.3926C101.928 94.8262 102.432 94.543 103.084 94.543C103.295 94.543 103.455 94.5703 103.564 94.625V95.6328ZM106.746 99.4121L108.223 94.6602H109.383L106.834 101.979C106.439 103.033 105.812 103.561 104.953 103.561L104.748 103.543L104.344 103.467V102.588L104.637 102.611C105.004 102.611 105.289 102.537 105.492 102.389C105.699 102.24 105.869 101.969 106.002 101.574L106.242 100.93L103.98 94.6602H105.164L106.746 99.4121Z" fill="black"/>
<path d="M258.504 132.197C257.539 131.92 256.836 131.58 256.395 131.178C255.957 130.771 255.738 130.271 255.738 129.678C255.738 129.006 256.006 128.451 256.541 128.014C257.08 127.572 257.779 127.352 258.639 127.352C259.225 127.352 259.746 127.465 260.203 127.691C260.664 127.918 261.02 128.23 261.27 128.629C261.523 129.027 261.65 129.463 261.65 129.936H260.52C260.52 129.42 260.355 129.016 260.027 128.723C259.699 128.426 259.236 128.277 258.639 128.277C258.084 128.277 257.65 128.4 257.338 128.646C257.029 128.889 256.875 129.227 256.875 129.66C256.875 130.008 257.021 130.303 257.314 130.545C257.611 130.783 258.113 131.002 258.82 131.201C259.531 131.4 260.086 131.621 260.484 131.863C260.887 132.102 261.184 132.381 261.375 132.701C261.57 133.021 261.668 133.398 261.668 133.832C261.668 134.523 261.398 135.078 260.859 135.496C260.32 135.91 259.6 136.117 258.697 136.117C258.111 136.117 257.564 136.006 257.057 135.783C256.549 135.557 256.156 135.248 255.879 134.857C255.605 134.467 255.469 134.023 255.469 133.527H256.6C256.6 134.043 256.789 134.451 257.168 134.752C257.551 135.049 258.061 135.197 258.697 135.197C259.291 135.197 259.746 135.076 260.062 134.834C260.379 134.592 260.537 134.262 260.537 133.844C260.537 133.426 260.391 133.104 260.098 132.877C259.805 132.646 259.273 132.42 258.504 132.197ZM265.576 136.117C264.717 136.117 264.018 135.836 263.479 135.273C262.939 134.707 262.67 133.951 262.67 133.006V132.807C262.67 132.178 262.789 131.617 263.027 131.125C263.27 130.629 263.605 130.242 264.035 129.965C264.469 129.684 264.938 129.543 265.441 129.543C266.266 129.543 266.906 129.814 267.363 130.357C267.82 130.9 268.049 131.678 268.049 132.689V133.141H263.754C263.77 133.766 263.951 134.271 264.299 134.658C264.65 135.041 265.096 135.232 265.635 135.232C266.018 135.232 266.342 135.154 266.607 134.998C266.873 134.842 267.105 134.635 267.305 134.377L267.967 134.893C267.436 135.709 266.639 136.117 265.576 136.117ZM265.441 130.434C265.004 130.434 264.637 130.594 264.34 130.914C264.043 131.23 263.859 131.676 263.789 132.25H266.965V132.168C266.934 131.617 266.785 131.191 266.52 130.891C266.254 130.586 265.895 130.434 265.441 130.434ZM270.486 136H269.402V127H270.486V136ZM273.404 136H272.32V127H273.404V136ZM276.322 136H275.238V129.66H276.322V136ZM275.15 127.979C275.15 127.803 275.203 127.654 275.309 127.533C275.418 127.412 275.578 127.352 275.789 127.352C276 127.352 276.16 127.412 276.27 127.533C276.379 127.654 276.434 127.803 276.434 127.979C276.434 128.154 276.379 128.301 276.27 128.418C276.16 128.535 276 128.594 275.789 128.594C275.578 128.594 275.418 128.535 275.309 128.418C275.203 128.301 275.15 128.154 275.15 127.979ZM279.088 129.66L279.123 130.457C279.607 129.848 280.24 129.543 281.021 129.543C282.361 129.543 283.037 130.299 283.049 131.811V136H281.965V131.805C281.961 131.348 281.855 131.01 281.648 130.791C281.445 130.572 281.127 130.463 280.693 130.463C280.342 130.463 280.033 130.557 279.768 130.744C279.502 130.932 279.295 131.178 279.146 131.482V136H278.062V129.66H279.088ZM284.426 132.777C284.426 131.789 284.654 131.004 285.111 130.422C285.568 129.836 286.174 129.543 286.928 129.543C287.701 129.543 288.305 129.816 288.738 130.363L288.791 129.66H289.781V135.848C289.781 136.668 289.537 137.314 289.049 137.787C288.564 138.26 287.912 138.496 287.092 138.496C286.635 138.496 286.188 138.398 285.75 138.203C285.312 138.008 284.979 137.74 284.748 137.4L285.311 136.75C285.775 137.324 286.344 137.611 287.016 137.611C287.543 137.611 287.953 137.463 288.246 137.166C288.543 136.869 288.691 136.451 288.691 135.912V135.367C288.258 135.867 287.666 136.117 286.916 136.117C286.174 136.117 285.572 135.818 285.111 135.221C284.654 134.623 284.426 133.809 284.426 132.777ZM285.516 132.9C285.516 133.615 285.662 134.178 285.955 134.588C286.248 134.994 286.658 135.197 287.186 135.197C287.869 135.197 288.371 134.887 288.691 134.266V131.371C288.359 130.766 287.861 130.463 287.197 130.463C286.67 130.463 286.258 130.668 285.961 131.078C285.664 131.488 285.516 132.096 285.516 132.9Z" fill="black"/>
<path d="M255.99 180V171.469H258.398C259.141 171.469 259.797 171.633 260.367 171.961C260.938 172.289 261.377 172.756 261.686 173.361C261.998 173.967 262.156 174.662 262.16 175.447V175.992C262.16 176.797 262.004 177.502 261.691 178.107C261.383 178.713 260.939 179.178 260.361 179.502C259.787 179.826 259.117 179.992 258.352 180H255.99ZM257.115 172.395V179.08H258.299C259.166 179.08 259.84 178.811 260.32 178.271C260.805 177.732 261.047 176.965 261.047 175.969V175.471C261.047 174.502 260.818 173.75 260.361 173.215C259.908 172.676 259.264 172.402 258.428 172.395H257.115ZM264.873 180H263.789V173.66H264.873V180ZM263.701 171.979C263.701 171.803 263.754 171.654 263.859 171.533C263.969 171.412 264.129 171.352 264.34 171.352C264.551 171.352 264.711 171.412 264.82 171.533C264.93 171.654 264.984 171.803 264.984 171.979C264.984 172.154 264.93 172.301 264.82 172.418C264.711 172.535 264.551 172.594 264.34 172.594C264.129 172.594 263.969 172.535 263.859 172.418C263.754 172.301 263.701 172.154 263.701 171.979ZM269.678 174.633C269.514 174.605 269.336 174.592 269.145 174.592C268.434 174.592 267.951 174.895 267.697 175.5V180H266.613V173.66H267.668L267.686 174.393C268.041 173.826 268.545 173.543 269.197 173.543C269.408 173.543 269.568 173.57 269.678 173.625V174.633ZM273.193 180.117C272.334 180.117 271.635 179.836 271.096 179.273C270.557 178.707 270.287 177.951 270.287 177.006V176.807C270.287 176.178 270.406 175.617 270.645 175.125C270.887 174.629 271.223 174.242 271.652 173.965C272.086 173.684 272.555 173.543 273.059 173.543C273.883 173.543 274.523 173.814 274.98 174.357C275.438 174.9 275.666 175.678 275.666 176.689V177.141H271.371C271.387 177.766 271.568 178.271 271.916 178.658C272.268 179.041 272.713 179.232 273.252 179.232C273.635 179.232 273.959 179.154 274.225 178.998C274.49 178.842 274.723 178.635 274.922 178.377L275.584 178.893C275.053 179.709 274.256 180.117 273.193 180.117ZM273.059 174.434C272.621 174.434 272.254 174.594 271.957 174.914C271.66 175.23 271.477 175.676 271.406 176.25H274.582V176.168C274.551 175.617 274.402 175.191 274.137 174.891C273.871 174.586 273.512 174.434 273.059 174.434ZM279.469 179.232C279.855 179.232 280.193 179.115 280.482 178.881C280.771 178.646 280.932 178.354 280.963 178.002H281.988C281.969 178.365 281.844 178.711 281.613 179.039C281.383 179.367 281.074 179.629 280.688 179.824C280.305 180.02 279.898 180.117 279.469 180.117C278.605 180.117 277.918 179.83 277.406 179.256C276.898 178.678 276.645 177.889 276.645 176.889V176.707C276.645 176.09 276.758 175.541 276.984 175.061C277.211 174.58 277.535 174.207 277.957 173.941C278.383 173.676 278.885 173.543 279.463 173.543C280.174 173.543 280.764 173.756 281.232 174.182C281.705 174.607 281.957 175.16 281.988 175.84H280.963C280.932 175.43 280.775 175.094 280.494 174.832C280.217 174.566 279.873 174.434 279.463 174.434C278.912 174.434 278.484 174.633 278.18 175.031C277.879 175.426 277.729 175.998 277.729 176.748V176.953C277.729 177.684 277.879 178.246 278.18 178.641C278.48 179.035 278.91 179.232 279.469 179.232ZM284.678 172.125V173.66H285.861V174.498H284.678V178.43C284.678 178.684 284.73 178.875 284.836 179.004C284.941 179.129 285.121 179.191 285.375 179.191C285.5 179.191 285.672 179.168 285.891 179.121V180C285.605 180.078 285.328 180.117 285.059 180.117C284.574 180.117 284.209 179.971 283.963 179.678C283.717 179.385 283.594 178.969 283.594 178.43V174.498H282.439V173.66H283.594V172.125H284.678ZM288.311 180H287.227V173.66H288.311V180ZM287.139 171.979C287.139 171.803 287.191 171.654 287.297 171.533C287.406 171.412 287.566 171.352 287.777 171.352C287.988 171.352 288.148 171.412 288.258 171.533C288.367 171.654 288.422 171.803 288.422 171.979C288.422 172.154 288.367 172.301 288.258 172.418C288.148 172.535 287.988 172.594 287.777 172.594C287.566 172.594 287.406 172.535 287.297 172.418C287.191 172.301 287.139 172.154 287.139 171.979ZM291.076 173.66L291.111 174.457C291.596 173.848 292.229 173.543 293.01 173.543C294.35 173.543 295.025 174.299 295.037 175.811V180H293.953V175.805C293.949 175.348 293.844 175.01 293.637 174.791C293.434 174.572 293.115 174.463 292.682 174.463C292.33 174.463 292.021 174.557 291.756 174.744C291.49 174.932 291.283 175.178 291.135 175.482V180H290.051V173.66H291.076ZM296.414 176.777C296.414 175.789 296.643 175.004 297.1 174.422C297.557 173.836 298.162 173.543 298.916 173.543C299.689 173.543 300.293 173.816 300.727 174.363L300.779 173.66H301.77V179.848C301.77 180.668 301.525 181.314 301.037 181.787C300.553 182.26 299.9 182.496 299.08 182.496C298.623 182.496 298.176 182.398 297.738 182.203C297.301 182.008 296.967 181.74 296.736 181.4L297.299 180.75C297.764 181.324 298.332 181.611 299.004 181.611C299.531 181.611 299.941 181.463 300.234 181.166C300.531 180.869 300.68 180.451 300.68 179.912V179.367C300.246 179.867 299.654 180.117 298.904 180.117C298.162 180.117 297.561 179.818 297.1 179.221C296.643 178.623 296.414 177.809 296.414 176.777ZM297.504 176.9C297.504 177.615 297.65 178.178 297.943 178.588C298.236 178.994 298.646 179.197 299.174 179.197C299.857 179.197 300.359 178.887 300.68 178.266V175.371C300.348 174.766 299.85 174.463 299.186 174.463C298.658 174.463 298.246 174.668 297.949 175.078C297.652 175.488 297.504 176.096 297.504 176.9Z" fill="black"/>
<path d="M169.99 180V171.469H172.398C173.141 171.469 173.797 171.633 174.367 171.961C174.938 172.289 175.377 172.756 175.686 173.361C175.998 173.967 176.156 174.662 176.16 175.447V175.992C176.16 176.797 176.004 177.502 175.691 178.107C175.383 178.713 174.939 179.178 174.361 179.502C173.787 179.826 173.117 179.992 172.352 180H169.99ZM171.115 172.395V179.08H172.299C173.166 179.08 173.84 178.811 174.32 178.271C174.805 177.732 175.047 176.965 175.047 175.969V175.471C175.047 174.502 174.818 173.75 174.361 173.215C173.908 172.676 173.264 172.402 172.428 172.395H171.115ZM180.326 180.117C179.467 180.117 178.768 179.836 178.229 179.273C177.689 178.707 177.42 177.951 177.42 177.006V176.807C177.42 176.178 177.539 175.617 177.777 175.125C178.02 174.629 178.355 174.242 178.785 173.965C179.219 173.684 179.688 173.543 180.191 173.543C181.016 173.543 181.656 173.814 182.113 174.357C182.57 174.9 182.799 175.678 182.799 176.689V177.141H178.504C178.52 177.766 178.701 178.271 179.049 178.658C179.4 179.041 179.846 179.232 180.385 179.232C180.768 179.232 181.092 179.154 181.357 178.998C181.623 178.842 181.855 178.635 182.055 178.377L182.717 178.893C182.186 179.709 181.389 180.117 180.326 180.117ZM180.191 174.434C179.754 174.434 179.387 174.594 179.09 174.914C178.793 175.23 178.609 175.676 178.539 176.25H181.715V176.168C181.684 175.617 181.535 175.191 181.27 174.891C181.004 174.586 180.645 174.434 180.191 174.434ZM185.236 180H184.152V171H185.236V180ZM189.607 180.117C188.748 180.117 188.049 179.836 187.51 179.273C186.971 178.707 186.701 177.951 186.701 177.006V176.807C186.701 176.178 186.82 175.617 187.059 175.125C187.301 174.629 187.637 174.242 188.066 173.965C188.5 173.684 188.969 173.543 189.473 173.543C190.297 173.543 190.938 173.814 191.395 174.357C191.852 174.9 192.08 175.678 192.08 176.689V177.141H187.785C187.801 177.766 187.982 178.271 188.33 178.658C188.682 179.041 189.127 179.232 189.666 179.232C190.049 179.232 190.373 179.154 190.639 178.998C190.904 178.842 191.137 178.635 191.336 178.377L191.998 178.893C191.467 179.709 190.67 180.117 189.607 180.117ZM189.473 174.434C189.035 174.434 188.668 174.594 188.371 174.914C188.074 175.23 187.891 175.676 187.82 176.25H190.996V176.168C190.965 175.617 190.816 175.191 190.551 174.891C190.285 174.586 189.926 174.434 189.473 174.434ZM193.082 176.777C193.082 175.789 193.311 175.004 193.768 174.422C194.225 173.836 194.83 173.543 195.584 173.543C196.357 173.543 196.961 173.816 197.395 174.363L197.447 173.66H198.438V179.848C198.438 180.668 198.193 181.314 197.705 181.787C197.221 182.26 196.568 182.496 195.748 182.496C195.291 182.496 194.844 182.398 194.406 182.203C193.969 182.008 193.635 181.74 193.404 181.4L193.967 180.75C194.432 181.324 195 181.611 195.672 181.611C196.199 181.611 196.609 181.463 196.902 181.166C197.199 180.869 197.348 180.451 197.348 179.912V179.367C196.914 179.867 196.322 180.117 195.572 180.117C194.83 180.117 194.229 179.818 193.768 179.221C193.311 178.623 193.082 177.809 193.082 176.777ZM194.172 176.9C194.172 177.615 194.318 178.178 194.611 178.588C194.904 178.994 195.314 179.197 195.842 179.197C196.525 179.197 197.027 178.887 197.348 178.266V175.371C197.016 174.766 196.518 174.463 195.854 174.463C195.326 174.463 194.914 174.668 194.617 175.078C194.32 175.488 194.172 176.096 194.172 176.9ZM203.992 180C203.93 179.875 203.879 179.652 203.84 179.332C203.336 179.855 202.734 180.117 202.035 180.117C201.41 180.117 200.896 179.941 200.494 179.59C200.096 179.234 199.896 178.785 199.896 178.242C199.896 177.582 200.146 177.07 200.646 176.707C201.15 176.34 201.857 176.156 202.768 176.156H203.822V175.658C203.822 175.279 203.709 174.979 203.482 174.756C203.256 174.529 202.922 174.416 202.48 174.416C202.094 174.416 201.77 174.514 201.508 174.709C201.246 174.904 201.115 175.141 201.115 175.418H200.025C200.025 175.102 200.137 174.797 200.359 174.504C200.586 174.207 200.891 173.973 201.273 173.801C201.66 173.629 202.084 173.543 202.545 173.543C203.275 173.543 203.848 173.727 204.262 174.094C204.676 174.457 204.891 174.959 204.906 175.6V178.518C204.906 179.1 204.98 179.562 205.129 179.906V180H203.992ZM202.193 179.174C202.533 179.174 202.855 179.086 203.16 178.91C203.465 178.734 203.686 178.506 203.822 178.225V176.924H202.973C201.645 176.924 200.98 177.312 200.98 178.09C200.98 178.43 201.094 178.695 201.32 178.887C201.547 179.078 201.838 179.174 202.193 179.174ZM208.076 172.125V173.66H209.26V174.498H208.076V178.43C208.076 178.684 208.129 178.875 208.234 179.004C208.34 179.129 208.52 179.191 208.773 179.191C208.898 179.191 209.07 179.168 209.289 179.121V180C209.004 180.078 208.727 180.117 208.457 180.117C207.973 180.117 207.607 179.971 207.361 179.678C207.115 179.385 206.992 178.969 206.992 178.43V174.498H205.838V173.66H206.992V172.125H208.076ZM211.709 180H210.625V173.66H211.709V180ZM210.537 171.979C210.537 171.803 210.59 171.654 210.695 171.533C210.805 171.412 210.965 171.352 211.176 171.352C211.387 171.352 211.547 171.412 211.656 171.533C211.766 171.654 211.82 171.803 211.82 171.979C211.82 172.154 211.766 172.301 211.656 172.418C211.547 172.535 211.387 172.594 211.176 172.594C210.965 172.594 210.805 172.535 210.695 172.418C210.59 172.301 210.537 172.154 210.537 171.979ZM214.475 173.66L214.51 174.457C214.994 173.848 215.627 173.543 216.408 173.543C217.748 173.543 218.424 174.299 218.436 175.811V180H217.352V175.805C217.348 175.348 217.242 175.01 217.035 174.791C216.832 174.572 216.514 174.463 216.08 174.463C215.729 174.463 215.42 174.557 215.154 174.744C214.889 174.932 214.682 175.178 214.533 175.482V180H213.449V173.66H214.475ZM219.812 176.777C219.812 175.789 220.041 175.004 220.498 174.422C220.955 173.836 221.561 173.543 222.314 173.543C223.088 173.543 223.691 173.816 224.125 174.363L224.178 173.66H225.168V179.848C225.168 180.668 224.924 181.314 224.436 181.787C223.951 182.26 223.299 182.496 222.479 182.496C222.021 182.496 221.574 182.398 221.137 182.203C220.699 182.008 220.365 181.74 220.135 181.4L220.697 180.75C221.162 181.324 221.73 181.611 222.402 181.611C222.93 181.611 223.34 181.463 223.633 181.166C223.93 180.869 224.078 180.451 224.078 179.912V179.367C223.645 179.867 223.053 180.117 222.303 180.117C221.561 180.117 220.959 179.818 220.498 179.221C220.041 178.623 219.812 177.809 219.812 176.777ZM220.902 176.9C220.902 177.615 221.049 178.178 221.342 178.588C221.635 178.994 222.045 179.197 222.572 179.197C223.256 179.197 223.758 178.887 224.078 178.266V175.371C223.746 174.766 223.248 174.463 222.584 174.463C222.057 174.463 221.645 174.668 221.348 175.078C221.051 175.488 220.902 176.096 220.902 176.9Z" fill="black"/>
<circle cx="236" cy="157" r="100.5" stroke="black"/>
<mask id="mask6" mask-type="alpha" maskUnits="userSpaceOnUse" x="136" y="56" width="203" height="203">
<circle r="101" transform="matrix(1 0 0 -1 237.5 157.5)" fill="#EEEEEE" stroke="#C32D29"/>
</mask>
<g mask="url(#mask6)">
<path d="M236 156V310H3.5V156H236Z" stroke="black"/>
</g>
</svg>
