<svg xmlns="http://www.w3.org/2000/svg" width="180" height="180" viewBox="0 0 180 180"><defs><style>.a{fill:#fff2f9;}.b{fill:#ffb8b8;}.c{fill:#f2c3dc;}.d{fill:#fff;}.e{fill:#df2689;}.f{fill:#570412;}.g{fill:#2f2e41;}.h{fill:rgba(63,61,86,0.3);}</style></defs><g transform="translate(-770 -317)"><rect class="a" width="180" height="180" rx="20" transform="translate(770 317)"/><g transform="translate(767.76 355.096)"><path class="b" d="M829.417,460.042l-1.958,2.669a1.89,1.89,0,0,1-2.382.566h0a1.889,1.889,0,0,1-.183-3.259l2.5-1.65,7.138-7.138.793-2.556H840.7l-2.82,6.081Z" transform="translate(-696.373 -391.581)"/><path class="c" d="M556.227,504.065a.938.938,0,0,0-.937.937v44.432a.939.939,0,0,0,.937.938H616.22a.939.939,0,0,0,.937-.937V505a.938.938,0,0,0-.937-.937Z" transform="translate(-482.023 -435.759)"/><path class="d" d="M568.162,557.827h56.656V516.591H568.162Z" transform="translate(-492.29 -445.749)"/><path class="c" d="M669.348,574.912H635.227a1.219,1.219,0,0,0,0,2.437h34.121a1.219,1.219,0,0,0,0-2.437Z" transform="translate(-544.806 -492.264)"/><path class="c" d="M635.227,611.956a1.219,1.219,0,0,0,0,2.437h34.121a1.219,1.219,0,0,0,0-2.437Z" transform="translate(-544.806 -521.809)"/><path class="c" d="M635.227,649a1.219,1.219,0,0,0,0,2.437h34.121a1.219,1.219,0,0,0,0-2.437Z" transform="translate(-544.806 -551.354)"/><circle class="e" cx="1.5" cy="1.5" r="1.5" transform="translate(82.453 82.46)"/><circle class="c" cx="1.5" cy="1.5" r="1.5" transform="translate(82.453 89.96)"/><circle class="c" cx="1.5" cy="1.5" r="1.5" transform="translate(82.453 97.459)"/><path class="e" d="M655.756,576.13h0a1.219,1.219,0,0,1-1.219,1.219H635.271a1.248,1.248,0,0,1-1.252-1.057,1.221,1.221,0,0,1,1.208-1.381h19.31a1.219,1.219,0,0,1,1.219,1.219Z" transform="translate(-544.807 -492.264)"/><circle class="c" cx="4.874" cy="4.874" r="4.874" transform="translate(99.326 53.308)"/><circle class="d" cx="2.437" cy="2.437" r="2.437" transform="translate(101.763 55.745)"/><path class="b" d="M933.071,623.8l-2.468,1.146-3.75-7.125a38.219,38.219,0,0,1-4.887-12.439l3.877.264a24.989,24.989,0,0,1,4.57,9.918Z" transform="translate(-774.471 -516.569)"/><path class="f" d="M735.976,408.772h-4.935v-8.548l3.966-.7Z" transform="translate(-583.81 -318.809)"/><path class="e" d="M884.966,412.115a24.313,24.313,0,0,0-7.3-.275l1.426-7.113a3.329,3.329,0,0,1,2.833-2.646h0a3.329,3.329,0,0,1,3.739,3.666Z" transform="translate(-739.141 -354.398)"/><circle class="b" cx="4.142" cy="4.142" r="4.142" transform="translate(138.199 34.841)"/><path class="b" d="M900.808,364.54l-5.464,3.877L893.89,361.5l4.1-1.63A6.679,6.679,0,0,0,900.808,364.54Z" transform="translate(-752.078 -320.754)"/><path class="g" d="M882.619,332.931c-.306-.631-.69-.193-1.031.577l-.489-1.955-.586-.2-.391-1.564c-1.793-.428-3.232.468-5.082,1.463l-.7,1.674h0a4.25,4.25,0,0,1,2.863-6.011,4.465,4.465,0,0,1,.935-.108h0a4.439,4.439,0,0,1,4.483,4.578Z" transform="translate(-736.137 -294.389)"/><path class="g" d="M941.027,693.022l-8.431,2.75a1.282,1.282,0,0,1-1.435-.723h0a1.283,1.283,0,0,1,.444-1.589,9.784,9.784,0,0,0,3.6-3.729c.562-2.282,1.2-2.287,1.887-.585,1.905,1.127,1.6.224,2.784-1.178l1.829,3.463a1.115,1.115,0,0,1-.673,1.591Z" transform="translate(-781.713 -582.408)"/><path class="b" d="M870.808,633.693l-2.82-1.234L869,625.234l1.985-14.19,5.375.705a32.822,32.822,0,0,1-3.581,14.155Z" transform="translate(-731.42 -521.082)"/><path class="f" d="M890.389,549.713l-9.341-1.851,2.468-12.954-.441-3.525h12.249C894.877,535.947,892.746,542.684,890.389,549.713Z" transform="translate(-741.836 -457.547)"/><path class="e" d="M898.36,409.017a24.54,24.54,0,0,0-13.307,0,124.263,124.263,0,0,1-.325-23.69,6.837,6.837,0,0,1,2.4-4.579l5.153-4.336,3.826,1.913a3.032,3.032,0,0,1,1.675,2.649C898.617,392.1,899.257,402.68,898.36,409.017Z" transform="translate(-744.432 -333.947)"/><path class="b" d="M947.477,449.617l.77,2.7a2.061,2.061,0,0,1-1.66,2.6h0a2.061,2.061,0,0,1-2.365-2.3l.347-2.642-1.851-13.395-2.468-5.287,4.935-2.2,2.027,6.609Z" transform="translate(-789.053 -375.957)"/><path class="g" d="M840.059,706.748l-8.636-2.017a1.282,1.282,0,0,1-.853-1.362h0a1.283,1.283,0,0,1,1.2-1.129,9.783,9.783,0,0,0,5.007-1.326c1.663-1.661,2.209-1.336,1.917.478,1.045,1.951,1.25,1.02,2.991.435l-.23,3.909a1.115,1.115,0,0,1-1.4,1.012Z" transform="translate(-701.569 -591.896)"/><path class="e" d="M934.7,399.54c-2.086.172-4.363,1.381-6.7,2.908l-1.791-7.03a3.329,3.329,0,0,1,1.41-3.612h0a3.329,3.329,0,0,1,4.957,1.688Z" transform="translate(-777.773 -345.796)"/><g transform="translate(21 -2)"><path class="c" d="M190.549,240.618a.93.93,0,0,0-.929.929V285.58a.93.93,0,0,0,.929.929H250a.93.93,0,0,0,.929-.929V241.547a.93.93,0,0,0-.929-.929Z" transform="translate(-189.62 -225.476)"/><path class="d" d="M201.12,293.354h56.656V252.118H201.12Z" transform="translate(-198.792 -234.648)"/><path class="c" d="M223.869,348.243a1.208,1.208,0,1,0,0,2.415h45.52a1.208,1.208,0,0,0,0-2.415Z" transform="translate(-215.973 -311.314)"/><path class="c" d="M223.869,384.955a1.208,1.208,0,1,0,0,2.415h45.52a1.208,1.208,0,0,0,0-2.415Z" transform="translate(-215.973 -340.594)"/><path class="e" d="M324.367,423.5a1.208,1.208,0,1,0,0,2.415H329.2a1.208,1.208,0,1,0,0-2.415Z" transform="translate(-296.126 -371.337)"/><path class="e" d="M307.616,272.493a.372.372,0,0,0-.372.372V282.3a.372.372,0,0,0,.372.372h12.946a.372.372,0,0,0,.372-.372v-9.433a.372.372,0,0,0-.372-.372Z" transform="translate(-283.433 -250.898)"/><circle class="d" cx="2.044" cy="2.044" r="2.044" transform="translate(28.612 23.596)"/><path class="d" d="M331.222,310.119a2.027,2.027,0,0,1-.223.929h-6.243a2.044,2.044,0,0,1,1.821-2.973h2.6a2.042,2.042,0,0,1,2.044,2.044Z" transform="translate(-297.222 -279.277)"/><circle class="c" cx="4.831" cy="4.831" r="4.831" transform="translate(25.826 0)"/><circle class="e" cx="2.415" cy="2.415" r="2.415" transform="translate(28.241 2.415)"/></g><path class="h" d="M362.5,565.956H246.283v-.442h116.3Z" transform="translate(-197.185 -451.201)"/></g></g></svg>