<svg xmlns="http://www.w3.org/2000/svg" xmlns:xlink="http://www.w3.org/1999/xlink" width="180" height="180" viewBox="0 0 180 180"><defs><style>.a{fill:#ebd5ff;}.b,.d,.j{fill:#6c63ff;}.b,.c,.l{opacity:0.1;}.e{fill:#fff;}.f{fill:#3f3d56;}.g{fill:#fa5959;}.g,.h,.i{opacity:0.8;}.h{fill:#fed253;}.i{fill:#8ccf4d;}.j,.r,.s{opacity:0.2;}.k,.n,.o{fill:none;stroke:#3f3d56;stroke-miterlimit:10;}.k,.n{stroke-linecap:round;}.k{stroke-linejoin:round;}.m,.s{fill:#8554fb;}.p{fill:#46455b;}.q{fill:#a8a8a8;}.t{fill:url(#a);}.u{fill:#454b69;}.v{fill:#fbbebe;}.w{opacity:0.05;}</style><linearGradient id="a" x1="-2.396" y1="1" x2="-2.396" gradientUnits="objectBoundingBox"><stop offset="0" stop-color="gray" stop-opacity="0.251"/><stop offset="0.54" stop-color="gray" stop-opacity="0.122"/><stop offset="1" stop-color="gray" stop-opacity="0.102"/></linearGradient></defs><g transform="translate(-770 -317)"><rect class="a" width="180" height="180" rx="20" transform="translate(770 317)"/><g transform="translate(773.385 347.803)"><ellipse class="b" cx="30.153" cy="6.753" rx="30.153" ry="6.753" transform="translate(103.268 104.651)"/><g class="c" transform="translate(98.127 4.207)"><path class="d" d="M673.12,122.89c0,24.515,15.379,44.351,34.393,44.351" transform="translate(-673.12 -122.89)"/></g><path class="b" d="M146.6,155.908c-11.111.085-21.787-2.426-31.995-5.225s-20.333-5.946-31.219-7.23c-7.007-.828-14.982-.7-20.49,2.513-5.3,3.087-6.869,8.149-7.643,12.82-.583,3.515-.867,7.2,1.184,10.4,1.417,2.219,3.863,4.041,5.591,6.155,6.009,7.354,2.282,16.82-3.676,24.422-2.794,3.567-6.062,6.989-8.182,10.754s-3.012,8.025-.909,11.716c2.086,3.656,6.838,6.282,11.95,8.08,10.385,3.628,22.49,4.35,34.277,4.579,26.091.51,52.25-1.041,78.339-2.591a285.257,285.257,0,0,0,28.815-2.693c5.255-.856,10.667-2.111,14.407-4.807,4.751-3.424,5.76-8.969,2.356-12.93-5.712-6.641-20.887-7.8-24.97-15-2.247-3.964-.247-8.539,2.67-12.394,6.272-8.267,17.016-15.7,17.275-24.91.173-6.321-5.34-12.451-13.613-15.144-8.677-2.827-20.54-2.009-26.674,3.394C167.777,153.375,156.416,155.834,146.6,155.908Z" transform="translate(-48.1 -135.487)"/><path class="e" d="M346.017,101v81.414c0,2.422-2.337,4.4-5.22,4.4H230.329c-2.883,0-5.219-1.969-5.219-4.4V101a5.257,5.257,0,0,1,5.219-4.9l110.455.269C343.662,96.369,346.017,98.572,346.017,101Z" transform="translate(-197.341 -96.1)"/><path class="f" d="M346.017,101.023v3.769H225.11v-3.769a4.923,4.923,0,0,1,4.922-4.923H341.086A4.925,4.925,0,0,1,346.017,101.023Z" transform="translate(-197.341 -96.1)"/><circle class="g" cx="1.74" cy="1.74" r="1.74" transform="translate(31.886 2.605)"/><circle class="h" cx="1.74" cy="1.74" r="1.74" transform="translate(36.947 2.605)"/><circle class="i" cx="1.74" cy="1.74" r="1.74" transform="translate(42.009 2.605)"/><rect class="j" width="10.995" height="5.217" rx="2.609" transform="translate(71.74 26.808)"/><rect class="j" width="10.995" height="5.217" rx="2.609" transform="translate(94.016 26.808)"/><path class="k" d="M491.81,202.808l11.006,14.371,11.337-14.439" transform="translate(-414.603 -170.901)"/><rect class="l" width="16.809" height="7.976" rx="3.988" transform="translate(79.808 45.818)"/><rect class="m" width="16.125" height="7.653" rx="3.826" transform="translate(80.15 45.981)"/><line class="n" x1="0.143" y1="5.08" transform="translate(77.14 21.727)"/><path class="k" d="M604.066,139.93l-6.461,4.832-6.8-4.832" transform="translate(-498.055 -117.955)"/><rect class="j" width="10.995" height="5.217" rx="2.609" transform="translate(71.679 16.757)"/><line class="n" x1="0.042" y2="13.898" transform="translate(88.171 53.632)"/><path class="o" d="M609.53,558.59Z" transform="translate(-521.389 -485.958)"/><path class="k" d="M462.42,467.29l15.547-4.81,15.61,4.776" transform="translate(-389.828 -389.85)"/><rect class="j" width="10.995" height="5.217" rx="2.609" transform="translate(82.674 67.531)"/><rect class="j" width="10.995" height="5.217" rx="2.609" transform="translate(98.253 77.37)"/><rect class="j" width="10.995" height="5.217" rx="2.609" transform="translate(78.09 82.588) rotate(180)"/><rect class="j" width="10.995" height="5.217" rx="2.609" transform="translate(93.942 82.588) rotate(180)"/><line class="n" x2="14.021" y2="0.413" transform="translate(96.276 49.807)"/><rect class="j" width="10.995" height="5.217" rx="2.609" transform="translate(115.514 44.69) rotate(90)"/><rect class="j" width="10.995" height="5.217" rx="2.609" transform="translate(45.767 36.218) rotate(90)"/><rect class="j" width="10.995" height="5.217" rx="2.609" transform="translate(40.55 64.431) rotate(-90)"/><line class="n" x1="4.895" y2="8.557" transform="translate(45.767 50.325)"/><line class="n" x1="5.135" transform="translate(55.873 50.22)"/><line class="n" x1="14.021" y2="0.413" transform="translate(66.129 49.807)"/><line class="n" x2="4.87" y2="8.572" transform="translate(45.767 41.716)"/><rect class="j" width="10.995" height="5.217" rx="2.609" transform="translate(66.129 44.692) rotate(90)"/><rect class="j" width="10.995" height="5.217" rx="2.609" transform="translate(55.879 44.827) rotate(90)"/><path class="p" d="M156.12,598c0,7.89,4.95,14.275,11.067,14.275" transform="translate(-139.185 -519.179)"/><path class="d" d="M226.59,611.406c0-7.979,5.525-14.436,12.352-14.436" transform="translate(-198.588 -518.311)"/><path class="m" d="M181.66,602.55c0,7.494,3.157,13.559,7.056,13.559" transform="translate(-160.714 -523.014)"/><path class="p" d="M226.59,589.885c0-10.2,6.385-18.445,14.275-18.445" transform="translate(-198.588 -496.79)"/><ellipse class="b" cx="2.751" cy="0.465" rx="2.751" ry="0.465" transform="translate(24.77 94.891)"/><path class="q" d="M211.77,684.978a5.757,5.757,0,0,0,2.042-.385c.471-.336,2.414-.74,2.532-.2s2.356,2.687.586,2.7a15.014,15.014,0,0,1-4.589-.564C211.869,686.244,211.77,684.978,211.77,684.978Z" transform="translate(-186.096 -591.783)"/><path class="r" d="M216.962,691.45a14.967,14.967,0,0,1-4.589-.564c-.36-.218-.5-1-.551-1.366h-.052s.1,1.266.572,1.553a15.016,15.016,0,0,0,4.589.564c.512,0,.688-.187.678-.455C217.538,691.346,217.344,691.447,216.962,691.45Z" transform="translate(-186.096 -596.326)"/><rect class="s" width="10.995" height="5.217" rx="2.609" transform="translate(100.513 16.757)"/><rect class="j" width="10.995" height="5.217" rx="2.609" transform="translate(87.258 16.757)"/><g transform="translate(120.356 22.866)"><path class="t" d="M150.924,308.765h8.538a.562.562,0,0,1,.549.449l2.31,11.4a.4.4,0,0,1,0,.093l.22.024.2.02.035-.009a.264.264,0,0,0,.11-.183,8.408,8.408,0,0,0,.243-1.238,11.137,11.137,0,0,0,0-1.377c-.011-.366,0-.723,0-1.084a10.145,10.145,0,0,1-.108-1.225,4.427,4.427,0,0,1,.128-1.3,4.525,4.525,0,0,1,.256-.672c.081-.615.168-1.232.258-1.845.068-.456.135-.915.225-1.366-.02-.075-.037-.15-.049-.227a2.166,2.166,0,0,1,.807-1.986,2.6,2.6,0,0,1,.6-.366,5.572,5.572,0,0,1,.549-.192l2.946-.915c.273-.4.549-.8.795-1.208a8.151,8.151,0,0,0,.624-1.161,4.6,4.6,0,0,1-1.217-6.2c.049-.077.1-.154.154-.227a3,3,0,0,1,.123-1.049,1.632,1.632,0,0,1,.112-.366,1.874,1.874,0,0,1,.3-.436c.024-.027.051-.053.077-.081a4.784,4.784,0,0,1,.805-.707A11.068,11.068,0,0,1,174,293.473a4.153,4.153,0,0,1,1.8-.009l.092-.026.174-.035c-.044.018-.086.042-.13.062a4.039,4.039,0,0,1,1.906.035c.776.231,1.047.846,1.375,1.518a6.874,6.874,0,0,0,2.34,2.675c.644.432,1.408.805,1.717,1.514a4.32,4.32,0,0,1,.026,2.136,5.886,5.886,0,0,0,2.25,5.139c.881.677,2.056,1.245,2.244,2.336a3.979,3.979,0,0,1-.637,2.239,5.353,5.353,0,0,0-.117,4.811,5.783,5.783,0,0,1,.674,1.245,2.087,2.087,0,0,1-.946,2.166,4.263,4.263,0,0,1-2.422.595,3.24,3.24,0,0,1-.439-.02c.073.708.165,1.417.28,2.12a14.014,14.014,0,0,1,.322,3.129,2.7,2.7,0,0,1-.533,1.593,3.028,3.028,0,0,1-2.488.8c-1.428-.055-2.832-.427-4.253-.509a.434.434,0,0,1,.04.183c0,.247-.152.52-.082.765a.832.832,0,0,0,.128.238,2.518,2.518,0,0,1,.674,1.778c-.062.311-.256.622-.167.928a1.447,1.447,0,0,0,.234.394,3.739,3.739,0,0,1,.271,2.622l-.168.048c.048.1.1.207.139.311a4.134,4.134,0,0,1,.35,1.465,5.872,5.872,0,0,1-.286,1.67c-.249.915-.507,1.831-.835,2.715-.278.76-.606,1.5-.93,2.237-.1.227-.2.456-.3.685q-.937,2.124-1.878,4.251a2.564,2.564,0,0,0-.183.509c-.033.15-.04.3-.064.454a5.6,5.6,0,0,1-.765,1.615c-.95,1.785-.714,3.938-.456,5.942a2.416,2.416,0,0,1-.47.366c.027.2.055.4.1.6.251,1.144.549,2.279.723,3.442a10.884,10.884,0,0,1,.128,1.708c0,.549-.2,1.108-.2,1.648-.134.549-.337,1.073-.48,1.617-.059.844-.157,1.688-.284,2.53q-.062,1.146-.128,2.294a3.937,3.937,0,0,0,.234,2c0,.02.022.04.033.06a1.572,1.572,0,0,1,1.378.644,3.048,3.048,0,0,1,.533,1.576,1.322,1.322,0,0,1-.079.707c-.088.183-.242.306-.342.474a1.8,1.8,0,0,0-.183.626c-.205,1.267-.412,2.537-.522,3.817a2.192,2.192,0,0,1-.293,1.12.723.723,0,0,1-1.02.205,22.518,22.518,0,0,0,.428-4.452,1.02,1.02,0,0,0-.289,0c-.057.258-.135.514-.209.769a4.412,4.412,0,0,1-.183.549c.029.251,0,.628.011.811q.022,1.214,0,2.426-.017.692-.049,1.384a.324.324,0,0,1-.029.148.068.068,0,0,1-.059.026h-.463a5.076,5.076,0,0,1-.02-.549q0-.632,0-1.26v-1.076c-.108.643-.262,1.281-.417,1.913l-.33,1.351-.033.135-.28,1.144a.535.535,0,0,1-.04.119.474.474,0,0,1-.137.139,4.1,4.1,0,0,1-4.059.436.46.46,0,0,1-.137-.086.483.483,0,0,1-.093-.342,2.253,2.253,0,0,0-.209-1.06,1.792,1.792,0,0,1-.205-.394,1.036,1.036,0,0,1,.124-.654l.3-.7a3.332,3.332,0,0,1-.427-.044c-.214-.183-.059-.562-.236-.778a1.934,1.934,0,0,0-.236-.183.762.762,0,0,1-.1-.829,4.384,4.384,0,0,1,2.014-1.986l.106-.066c.666-3.112,1.842-6.178,1.529-9.336-.068-.674-.2-1.34-.313-2.014-.549-3.313-.514-6.713-1.148-10.01a1.837,1.837,0,0,1-1.8-1.876c-.071-.624.015-1.254,0-1.884a12.22,12.22,0,0,0-.449-2.669c-.253-1.027.183-2.116-.081-3.14a7.594,7.594,0,0,1-.238-.961,5.857,5.857,0,0,0-.126-1.38c-.073-.2-.2-.377-.284-.573-.366-.827.037-1.831-.331-2.662a2.2,2.2,0,0,1-.262-.622,1.281,1.281,0,0,1,.064-.505c.093-.381.183-.765.243-1.151a1.763,1.763,0,0,0,.035-.4,2.141,2.141,0,0,0-.1-.423,12.061,12.061,0,0,1-.344-2.984,3.467,3.467,0,0,1,.194-1.578,1.791,1.791,0,0,1,.256-.4l-.027-.015a3.173,3.173,0,0,0,.048-1.794,1.649,1.649,0,0,1-.207-.714c.027-.251.2-.423.269-.646a2.037,2.037,0,0,0-.168-1.139,5.947,5.947,0,0,1-.1-2,.9.9,0,0,1,.1-.416c.048-.079.119-.139.165-.22a.7.7,0,0,0-.013-.622,3.276,3.276,0,0,1-.247-.593.615.615,0,0,1,0-.192c-.135-.059-.256-.146-.386-.216a4.02,4.02,0,0,0-1.818-.265,2.106,2.106,0,0,1-1.677-.632.47.47,0,0,0-.146-.154.254.254,0,0,0-.062-.022c-.225.031-.366.029-.335-.029-.1-.046-.15-.157-.211-.251a.617.617,0,0,0-.051-.07,5.131,5.131,0,0,0-.718-.355.547.547,0,0,1,.134,0,3.426,3.426,0,0,0-1.183-.165c-.383,0-1.042.053-1.34-.243-.549-.35-.712-1.051-.967-1.648a6.031,6.031,0,0,0-.284-.566l-1.422-.139a.564.564,0,0,1-.5-.447L150.4,309.435a.56.56,0,0,1,.527-.67Zm26.938,14.462a2.523,2.523,0,0,0,2,0c.1-.042.2-.159.123-.229s-.139-.011-.2-.04c-.119-.059-.033-.234.033-.348a1.157,1.157,0,0,0-.124-1.08,2.392,2.392,0,0,1-.421-1.042,2.013,2.013,0,0,0,0-.366,1.362,1.362,0,0,0-.271-.469c-.033-.048-.06-.1-.09-.15-.049.077-.1.152-.15.227q-.247.379-.492.763a1.228,1.228,0,0,0-.24.591.977.977,0,0,1-.02.381c-.073.161-.3.295-.216.45a.6.6,0,0,1,0,.538c-.086.148-.214.271-.3.417a.926.926,0,0,0-.062.137C177.571,323.082,177.716,323.163,177.862,323.227ZM160.1,321.252c.108.026.216.051.324.081.015-.066.02-.1.02-.1l.571.17a1.31,1.31,0,0,0,.63-.13l-2.358-.231C159.561,321.116,159.832,321.188,160.1,321.252Z" transform="translate(-150.386 -293.368)"/><path class="f" d="M170.7,297.674a6.837,6.837,0,0,0,2.312,2.662c.639.43,1.393.8,1.7,1.5a4.341,4.341,0,0,1,.026,2.125,5.858,5.858,0,0,0,2.21,5.089c.87.676,2.032,1.239,2.219,2.325a3.977,3.977,0,0,1-.632,2.226,5.357,5.357,0,0,0-.115,4.785,5.487,5.487,0,0,1,.666,1.239,2.076,2.076,0,0,1-.935,2.153,4.208,4.208,0,0,1-2.395.593,2.368,2.368,0,0,1-1.7-.518,2.713,2.713,0,0,1-.568-1.065l-1.053-2.982a3.822,3.822,0,0,0-.791-1.5c-.848-.864-2.228-.773-3.438-.758a15.844,15.844,0,0,1-5.241-.826c-.989-.335-2.061-.9-2.292-1.919s.454-1.94,1.053-2.764q.672-.915,1.27-1.895a5.468,5.468,0,0,0,.87-2.027,7.216,7.216,0,0,0-.835-3.548,4.1,4.1,0,0,1-.108-3.555,3.845,3.845,0,0,1,1.042-1.034,10.918,10.918,0,0,1,3.447-1.847,3.993,3.993,0,0,1,1.928.026C170.107,296.4,170.377,297.014,170.7,297.674Z" transform="translate(-143.627 -295.545)"/><path class="u" d="M275.172,382.73a14.866,14.866,0,0,0-.5,2.471,35.826,35.826,0,0,0-.533,6.094,11.723,11.723,0,0,1,0,1.368,8.563,8.563,0,0,1-.243,1.232.258.258,0,0,1-.108.183c-.07.035-.152,0-.229-.009-.262-.031-.456.221-.657.392a1.252,1.252,0,0,1-1.421.106,1.582,1.582,0,0,1-.606,1.622,2.149,2.149,0,0,1-1.759.32.82.82,0,0,1,.762.423c.059.091.106.2.207.249s.275-.013.394.049a.485.485,0,0,1,.145.154,2.071,2.071,0,0,0,1.657.628,3.951,3.951,0,0,1,1.8.265c.134.071.258.163.4.221a1.21,1.21,0,0,0,1.261-.313,2.714,2.714,0,0,0,.648-1.2,15.474,15.474,0,0,0,.328-5.521A32.043,32.043,0,0,0,275.172,382.73Z" transform="translate(-261.099 -366.371)"/><path class="l" d="M275.172,382.73a14.866,14.866,0,0,0-.5,2.471,35.826,35.826,0,0,0-.533,6.094,11.723,11.723,0,0,1,0,1.368,8.563,8.563,0,0,1-.243,1.232.258.258,0,0,1-.108.183c-.07.035-.152,0-.229-.009-.262-.031-.456.221-.657.392a1.252,1.252,0,0,1-1.421.106,1.582,1.582,0,0,1-.606,1.622,2.149,2.149,0,0,1-1.759.32.82.82,0,0,1,.762.423c.059.091.106.2.207.249s.275-.013.394.049a.485.485,0,0,1,.145.154,2.071,2.071,0,0,0,1.657.628,3.951,3.951,0,0,1,1.8.265c.134.071.258.163.4.221a1.21,1.21,0,0,0,1.261-.313,2.714,2.714,0,0,0,.648-1.2,15.474,15.474,0,0,0,.328-5.521A32.043,32.043,0,0,0,275.172,382.73Z" transform="translate(-261.099 -366.371)"/><path class="v" d="M234.859,638.282c-.154.639-.406,1.252-.549,1.893a10.905,10.905,0,0,0-.183,1.673l-.157,2.841a3.933,3.933,0,0,0,.231,1.986,5.977,5.977,0,0,1,.668,1.227,2.4,2.4,0,0,1-.829,1.944l-2.354,2.728a5.69,5.69,0,0,1-2.636,2.045.876.876,0,0,1-.5.018.717.717,0,0,1-.408-.787,2,2,0,0,1,.419-.855,13.48,13.48,0,0,0,1.677-2.7,9.946,9.946,0,0,0,.531-3.989c-.124-5.51-1.51-10.956-1.353-16.476,1.2-.092,2.453-.291,3.661-.28,1.075.011.946,1.1,1.133,1.968.249,1.139.549,2.268.716,3.423a10.8,10.8,0,0,1,.126,1.7C235.048,637.195,234.859,637.75,234.859,638.282Z" transform="translate(-211.846 -568.004)"/><path class="w" d="M234.859,638.282c-.154.639-.406,1.252-.549,1.893a10.905,10.905,0,0,0-.183,1.673l-.157,2.841a3.933,3.933,0,0,0,.231,1.986,5.977,5.977,0,0,1,.668,1.227,2.4,2.4,0,0,1-.829,1.944l-2.354,2.728a5.69,5.69,0,0,1-2.636,2.045.876.876,0,0,1-.5.018.717.717,0,0,1-.408-.787,2,2,0,0,1,.419-.855,13.48,13.48,0,0,0,1.677-2.7,9.946,9.946,0,0,0,.531-3.989c-.124-5.51-1.51-10.956-1.353-16.476,1.2-.092,2.453-.291,3.661-.28,1.075.011.946,1.1,1.133,1.968.249,1.139.549,2.268.716,3.423a10.8,10.8,0,0,1,.126,1.7C235.048,637.195,234.859,637.75,234.859,638.282Z" transform="translate(-211.846 -568.004)"/><path class="f" d="M229.873,723.392a1.534,1.534,0,0,1,1.465.63,3.032,3.032,0,0,1,.527,1.567,1.281,1.281,0,0,1-.079.7c-.086.174-.238.306-.337.472a1.773,1.773,0,0,0-.183.622c-.205,1.261-.41,2.524-.516,3.8a2.188,2.188,0,0,1-.291,1.115.716.716,0,0,1-1.009.205,22.574,22.574,0,0,0,.427-4.41,1.979,1.979,0,0,0-1.622.915,14.192,14.192,0,0,0-1.177,1.6,10.091,10.091,0,0,1-1.033,1.5,3.778,3.778,0,0,1-3.335,1.14c-.212-.183-.057-.56-.232-.774a1.922,1.922,0,0,0-.234-.183.761.761,0,0,1-.1-.824,4.364,4.364,0,0,1,1.99-1.977c1.465-.915,2.947-1.831,4.421-2.717a2.93,2.93,0,0,0,1.214-1.5C229.822,725.114,230.052,723.331,229.873,723.392Z" transform="translate(-207.572 -644.649)"/><path class="w" d="M229.873,723.392a1.534,1.534,0,0,1,1.465.63,3.032,3.032,0,0,1,.527,1.567,1.281,1.281,0,0,1-.079.7c-.086.174-.238.306-.337.472a1.773,1.773,0,0,0-.183.622c-.205,1.261-.41,2.524-.516,3.8a2.188,2.188,0,0,1-.291,1.115.716.716,0,0,1-1.009.205,22.574,22.574,0,0,0,.427-4.41,1.979,1.979,0,0,0-1.622.915,14.192,14.192,0,0,0-1.177,1.6,10.091,10.091,0,0,1-1.033,1.5,3.778,3.778,0,0,1-3.335,1.14c-.212-.183-.057-.56-.232-.774a1.922,1.922,0,0,0-.234-.183.761.761,0,0,1-.1-.824,4.364,4.364,0,0,1,1.99-1.977c1.465-.915,2.947-1.831,4.421-2.717a2.93,2.93,0,0,0,1.214-1.5C229.822,725.114,230.052,723.331,229.873,723.392Z" transform="translate(-207.572 -644.649)"/><path class="v" d="M237.7,636.776c.295,3.682-.531,7.347-1.265,10.966a4.116,4.116,0,0,0-.112.882,6.775,6.775,0,0,0,.183,1.1,10.933,10.933,0,0,1-.43,4.5c-.245,1.023-.591,2.178-1.545,2.625a3.541,3.541,0,0,1-2.2.035,1.3,1.3,0,0,1-.661-.266,1.253,1.253,0,0,1-.251-1.014c.253-4.064,2.31-7.962,1.909-12.015-.066-.67-.2-1.333-.309-2-.568-3.445-.494-6.991-1.227-10.4a.628.628,0,0,1,0-.366.612.612,0,0,1,.28-.267,5.845,5.845,0,0,1,2.147-.86,2.654,2.654,0,0,1,1.86.353c.505.372.564,1.23.719,1.844A29.405,29.405,0,0,1,237.7,636.776Z" transform="translate(-215.161 -568.098)"/><path class="f" d="M237.176,759.713a.308.308,0,0,1-.027.146.07.07,0,0,1-.059.027h-.46c-.018-.183-.018-.366-.02-.549v-1.252c0-.992,0-1.988.044-2.975a.327.327,0,0,1,.016-.108.1.1,0,0,1,.051-.048c.108-.051.366-.21.458-.027a3.76,3.76,0,0,1,.057,1q.022,1.206,0,2.413Q237.2,759.026,237.176,759.713Z" transform="translate(-215.598 -670.361)"/><path class="f" d="M200.333,514.657a1.763,1.763,0,0,1-.035.4c-.066.384-.148.765-.242,1.144a1.319,1.319,0,0,0-.062.5,2.242,2.242,0,0,0,.258.619c.366.818-.027,1.831.328,2.647.084.2.209.366.282.571a5.89,5.89,0,0,1,.123,1.373,7.51,7.51,0,0,0,.236.956c.258,1.018-.168,2.1.081,3.123a12.19,12.19,0,0,1,.443,2.656c.013.624-.073,1.25,0,1.873a2.126,2.126,0,0,0,.86,1.593,2.754,2.754,0,0,0,1.43.3c.95.016,1.906-.011,2.856-.084a4.044,4.044,0,0,0,2.638-.9c-.254-1.994-.487-4.134.452-5.911a5.568,5.568,0,0,0,.756-1.605c.026-.15.033-.3.064-.45a2.614,2.614,0,0,1,.183-.507q.928-2.118,1.858-4.231c.1-.227.2-.454.3-.681.32-.732.643-1.465.915-2.222.324-.886.58-1.794.826-2.7a5.858,5.858,0,0,0,.282-1.662,4.13,4.13,0,0,0-.346-1.448c-.11-.267-.238-.529-.366-.785a38.727,38.727,0,0,0-11.246-.963,6.192,6.192,0,0,0-1.778.295,2.584,2.584,0,0,0-1.023.668,1.789,1.789,0,0,0-.317.474,3.519,3.519,0,0,0-.192,1.571,12.179,12.179,0,0,0,.341,2.968,2.093,2.093,0,0,1,.1.421Z" transform="translate(-186.793 -468.862)"/><path class="f" d="M235.175,743.478a4.189,4.189,0,0,0,1.906.8,2.276,2.276,0,0,0,1.767-.366,3.2,3.2,0,0,0,.9-1.869l.211-.915c.077-.329.152-.659.212-.992a10.674,10.674,0,0,0,.137-2.667,1.526,1.526,0,0,1,.835,1.327,4.655,4.655,0,0,1-.286,1.578,3,3,0,0,1-.273.716c-.09.15-.207.284-.284.441a2.2,2.2,0,0,0-.163.732,20.413,20.413,0,0,1-.492,2.453l-.326,1.344-.033.136-.276,1.139a.494.494,0,0,1-.04.117.447.447,0,0,1-.135.139,4.028,4.028,0,0,1-4.013.434.481.481,0,0,1-.137-.086.49.49,0,0,1-.09-.339,2.28,2.28,0,0,0-.209-1.056,1.8,1.8,0,0,1-.2-.392,1.051,1.051,0,0,1,.123-.65l.677-1.585A1.562,1.562,0,0,1,235.175,743.478Z" transform="translate(-219.054 -656.17)"/><path class="v" d="M211.951,358.982a4.209,4.209,0,0,0,.205,1.025,1.441,1.441,0,0,0,.419.622c.315-.425.877-.571,1.3-.884a4.715,4.715,0,0,0,.906-1.033c.549-.732,1.175-1.382,1.761-2.074.09-.106.183-.211.262-.317a9.264,9.264,0,0,0,.811-1.159,8.873,8.873,0,0,1,1.56-2.448,13.126,13.126,0,0,0,1.259-.97,3.262,3.262,0,0,1-.416-1.206c-.084-.408-.167-.818-.211-1.234-.013-.11-.02-.22-.024-.329v-.141c0-.339.218-.915-.128-1.109a2.525,2.525,0,0,0-1.21-.172h-.068a4.461,4.461,0,0,0-2.433.754,1.487,1.487,0,0,0-.421.386,1.614,1.614,0,0,0-.183,1,1.494,1.494,0,0,0,.013.24v.117a1.423,1.423,0,0,1-.3,1.084,2.831,2.831,0,0,1-1.162.432c-.066.022-.128.044-.192.07a2.58,2.58,0,0,0-1.082.915,4.423,4.423,0,0,0-.628,1.51,8.666,8.666,0,0,0-.211,1.464,20.9,20.9,0,0,0,.168,3.456Z" transform="translate(-194.241 -337.63)"/><path class="l" d="M215.039,349.877v.117c.489.183,1.681-.322,2.232-.322,1.1,0,1.432.214,2.222-.423-.016-.156-.027-.313-.031-.471,0-.339.218-.915-.128-1.109a2.688,2.688,0,0,0-1.27-.172,4.462,4.462,0,0,0-2.433.754,1.489,1.489,0,0,0-.421.386A2.012,2.012,0,0,0,215.039,349.877Z" transform="translate(-193.928 -337.584)"/><path class="v" d="M205.835,315.064a4.6,4.6,0,1,0,4.6-4.6,4.6,4.6,0,0,0-4.6,4.6Z" transform="translate(-187.753 -307.331)"/><path class="d" d="M207.6,364.348a.957.957,0,0,1,.509-.218.719.719,0,0,1,.606.469c.112.247.146.52.243.774a1.7,1.7,0,0,0,.681.828,1.962,1.962,0,0,1,.624.439,1.117,1.117,0,0,1-.106,1.15,9.136,9.136,0,0,1-3.348,3l-1.443.915a18.8,18.8,0,0,1-1.8,1.053c-1,.494-2.085.811-3.081,1.316a5.024,5.024,0,0,1-1.415.586,4.639,4.639,0,0,1-.2-1.049,19.816,19.816,0,0,1,0-6.6,2.36,2.36,0,0,1,.509-1.137,2.474,2.474,0,0,1,.641-.443,18.151,18.151,0,0,1,1.8-.846,2.057,2.057,0,0,1,.926-.205,1.967,1.967,0,0,1-.212.688q-1.159,2.583-2.321,5.168a2.354,2.354,0,0,0-.282,1.02c.016.507.366,1,.218,1.488a34.721,34.721,0,0,1,4.622-5.43.743.743,0,0,0,.183-.229.926.926,0,0,0,.026-.427.994.994,0,0,1,.267-.815,5.932,5.932,0,0,1,.564-.273C206.418,365.192,207,364.758,207.6,364.348Z" transform="translate(-181.771 -351.176)"/><path class="l" d="M201.77,509.632a9.919,9.919,0,0,0,3.729,1.031,29.666,29.666,0,0,0,3.89.022l2.951-.112a14.9,14.9,0,0,0,3.934-.564c-.11-.267-.238-.529-.366-.785a38.727,38.727,0,0,0-11.246-.963,6.192,6.192,0,0,0-1.778.295,2.584,2.584,0,0,0-1.023.668C201.832,509.362,201.8,509.5,201.77,509.632Z" transform="translate(-188.247 -468.862)"/><path class="u" d="M176.411,380.084a11.85,11.85,0,0,1-.157,5.375.516.516,0,0,0-.209.562,3.43,3.43,0,0,0,.245.589.7.7,0,0,1,.015.617c-.046.081-.117.143-.165.221a.9.9,0,0,0-.093.412,6.039,6.039,0,0,0,.1,1.99,2.024,2.024,0,0,1,.165,1.131,3.543,3.543,0,0,0-.265.644,1.744,1.744,0,0,0,.205.708,3.158,3.158,0,0,1-.048,1.785,9.919,9.919,0,0,0,3.729,1.031,29.346,29.346,0,0,0,3.89.022l2.951-.112a14.741,14.741,0,0,0,3.963-.571,3.727,3.727,0,0,0-.269-2.607,1.53,1.53,0,0,1-.231-.394c-.088-.3.1-.613.165-.915a2.488,2.488,0,0,0-.665-1.767.789.789,0,0,1-.128-.238c-.068-.245.081-.514.082-.762a.427.427,0,0,0-.048-.205c-.053-.1-.156-.183-.211-.278a.741.741,0,0,1-.051-.425q.1-1.382.333-2.746c.015-.081.029-.165.049-.247a1.316,1.316,0,0,1,.134-.366c.086-.148.212-.267.3-.416a.6.6,0,0,0,0-.536c-.082-.154.143-.287.214-.447a1.007,1.007,0,0,0,.02-.379,1.225,1.225,0,0,1,.238-.589c.161-.255.322-.507.487-.758q1.1-1.7,2.29-3.35c.377-.525.763-1.049,1.153-1.565a4.615,4.615,0,0,0,.8-1.34,1.937,1.937,0,0,0,.066-.265,2.268,2.268,0,0,0-.2-1.413,7.147,7.147,0,0,0-.732-1.027,12.5,12.5,0,0,0-.842-1.131,1.756,1.756,0,0,0-1.225-.617c-.273,0-.591.077-.78-.119-.07-.07-.106-.163-.183-.231-.2-.183-.527-.06-.767.075l-4.61,2.605-.747.425c-.135.081-.275.161-.41.243a16.047,16.047,0,0,0-1.834,1.249,22.783,22.783,0,0,0-2.543,2.116c-.071.075-.139.15-.205.229q-.2-1.406-.4-2.816a3.525,3.525,0,0,1-.053-.82,3.479,3.479,0,0,1,.2-.789c.029-.091.06-.183.09-.275.167-.5.333-.994.5-1.492a4.886,4.886,0,0,1,1.053-2.027,2.834,2.834,0,0,0,.366-.375h0a.549.549,0,0,0,.092-.485l-3.883,1.212c-.183.059-.366.115-.549.183a2.536,2.536,0,0,0-.6.366,2.16,2.16,0,0,0-.8,1.975c.038.243.123.474.174.714a2.2,2.2,0,0,1,.04,1.336c-.189.4-.366.758-.536,1.137a5.721,5.721,0,0,0-.366.9,4.393,4.393,0,0,0-.126,1.294,9.768,9.768,0,0,0,.5,2.856C176.2,379.484,176.319,379.78,176.411,380.084Z" transform="translate(-162.681 -353.7)"/><path class="f" d="M174.406,371.727l-9.206-.866-1.609-.181,1.479.524Z" transform="translate(-152.752 -343.161)"/><path class="f" d="M172.7,373.6V372.9l-9.759-.481-.476.408Z" transform="translate(-150.835 -344.583)"/><path class="v" d="M230.342,443.024c-.205-.055-.425-.044-.632-.093a7.769,7.769,0,0,0-.785-.264,1.68,1.68,0,0,0-.505.037l-1.263.22c-.1.018-.211.048-.245.141a.24.24,0,0,0,.077.232,1.332,1.332,0,0,0,.915.295l.881.053a1.06,1.06,0,0,1,.494.113.366.366,0,0,1,.165.436.461.461,0,0,1-.2.183,1.881,1.881,0,0,1-1.151.218,5.5,5.5,0,0,1-.941-.267,5.93,5.93,0,0,0-2.4-.254c-.211.02-.456.081-.531.278a.447.447,0,0,0,.084.406c.315.438.941.452,1.465.571a3.016,3.016,0,0,1,1.346.7.891.891,0,0,0,.1.763,4.868,4.868,0,0,0,.472.784,1,1,0,0,0,.4.357,1.071,1.071,0,0,0,.331.059,14.29,14.29,0,0,0,3.271-.183.533.533,0,0,0,.315-.132.52.52,0,0,0,.1-.254c.112-.549.211-1.1.295-1.66a1.648,1.648,0,0,0-.1-1.042c-.135-.254-.348-.337-.564-.509C231.263,443.836,230.962,443.188,230.342,443.024Z" transform="translate(-208.513 -415.331)"/><path class="f" d="M297.576,380.106l2.285,11.332a.549.549,0,0,1-.6.663l-8.617-.846a.549.549,0,0,1-.491-.443l-2.111-10.488a.549.549,0,0,1,.549-.665h8.439A.549.549,0,0,1,297.576,380.106Z" transform="translate(-287.637 -363.862)"/><path class="v" d="M295.847,434.741c-.549-.346-.7-1.045-.956-1.637a10.288,10.288,0,0,0-.692-1.254,1.346,1.346,0,0,1-.265-1.19,1.1,1.1,0,0,1,.633-.514,1.235,1.235,0,0,1,.782-.1,1.564,1.564,0,0,1,.716.558l.71.824a4.639,4.639,0,0,0,1.084,1.016,4.144,4.144,0,0,0,.82.346c.509.168,1.025.317,1.547.441a4.241,4.241,0,0,1,.873.271.456.456,0,0,1,.256.238.529.529,0,0,1-.09.392c-.183.335-.386,1.018-.762,1.137a6.312,6.312,0,0,1-1.089.17,1.868,1.868,0,0,1-.967-.245,3.193,3.193,0,0,0-1.281-.205C296.793,434.985,296.142,435.038,295.847,434.741Z" transform="translate(-290.196 -405.007)"/><path class="u" d="M293.517,447.4s-.324,2.18-2.356,1.94c0,0,1.082.43.968.672s2.508-.47,2.508-.47l.135-1.137s.086-.628,0-.644S293.517,447.4,293.517,447.4Z" transform="translate(-283.148 -419.202)"/><path class="l" d="M293.517,447.4s-.324,2.18-2.356,1.94c0,0,1.082.43.968.672s2.508-.47,2.508-.47l.135-1.137s.086-.628,0-.644S293.517,447.4,293.517,447.4Z" transform="translate(-283.148 -419.202)"/><path class="l" d="M248.211,397.63a1.1,1.1,0,0,0-.472.458,3.19,3.19,0,0,0-.383.875,2.236,2.236,0,0,1-.427,1.067" transform="translate(-228.451 -378.543)"/><path class="l" d="M175.85,405.932a2.136,2.136,0,0,0,.172,1.583q1.1-1.7,2.29-3.35c.377-.525.763-1.049,1.153-1.565a4.615,4.615,0,0,0,.8-1.34,1.938,1.938,0,0,0,.066-.265,1.465,1.465,0,0,0-.826-.595c-.535,1.551-1.889,2.662-2.86,3.987A4.577,4.577,0,0,0,175.85,405.932Z" transform="translate(-147.546 -380.806)"/><path class="l" d="M206.93,455.356l3.207.11c.273.009.61.062.7.322.026.082.022.172.048.254.09.291.48.326.785.324.265,0,.531.011.795.031a.427.427,0,0,0-.048-.205c-.053-.1-.156-.183-.211-.278a.741.741,0,0,1-.051-.425q.1-1.382.333-2.746c.015-.081.029-.165.049-.247a1.531,1.531,0,0,0-.837-.253,5.034,5.034,0,0,1-.769.17c-.458-.024-.774-.535-1.232-.564a.761.761,0,0,1-.289-.035c-.145-.073-.168-.266-.243-.408a.586.586,0,0,0-.65-.209,9.39,9.39,0,0,1-.093,1.45,2.529,2.529,0,0,1-.146.615,2.959,2.959,0,0,1-.326.568C207.6,454.344,207.274,454.84,206.93,455.356Z" transform="translate(-185.451 -422.289)"/><path class="u" d="M178.669,399.45a1.737,1.737,0,0,1,1.141,1.241,5.613,5.613,0,0,1,.121,1.752,34.819,34.819,0,0,0,.445,6.515,14.083,14.083,0,0,1,.32,3.112,2.709,2.709,0,0,1-.527,1.585,2.992,2.992,0,0,1-2.462.791c-1.6-.062-3.178-.533-4.784-.522-.306,0-.694-.035-.785-.326-.026-.081-.02-.17-.048-.253-.084-.26-.421-.315-.7-.324l-3.207-.108c.344-.507.674-1.005,1.018-1.512a3.135,3.135,0,0,0,.328-.568,2.635,2.635,0,0,0,.146-.617,9.354,9.354,0,0,0,.092-1.448.6.6,0,0,1,.652.207c.075.145.1.335.242.408a.7.7,0,0,0,.291.035c.456.031.773.549,1.23.566a5.207,5.207,0,0,0,.769-.17,2.431,2.431,0,0,1,1.168.4,2.47,2.47,0,0,0,1.981,0c.093-.04.2-.157.121-.227s-.137-.011-.2-.04c-.117-.059-.031-.233.033-.346a1.155,1.155,0,0,0-.123-1.073,2.435,2.435,0,0,1-.416-1.038,1.978,1.978,0,0,0,0-.366,1.361,1.361,0,0,0-.269-.467,2.1,2.1,0,0,1-.234-1.682,4.578,4.578,0,0,1,.8-1.543C176.778,402.114,178.133,401,178.669,399.45Z" transform="translate(-146.532 -380.03)"/><path class="l" d="M176.313,381.111l-.747.425a6.843,6.843,0,0,0,.7.28c1.684.566,1.084,1.351,2.86,1.329,1.21-.013,2.59-.106,3.438.758a3.945,3.945,0,0,1,.791,1.5c.088.245.174.491.26.732.377-.525.763-1.049,1.153-1.565a4.617,4.617,0,0,0,.8-1.34,2.27,2.27,0,0,0-.13-1.679,7.149,7.149,0,0,0-.732-1.027,12.508,12.508,0,0,0-.842-1.131,1.756,1.756,0,0,0-1.225-.617c-.273,0-.591.077-.78-.119-.07-.07-.106-.163-.183-.231-.2-.183-.527-.06-.767.075Z" transform="translate(-152.851 -362.78)"/><path class="f" d="M150.4,299.917a2.444,2.444,0,0,1,.161-.639,1.905,1.905,0,0,1,.3-.434,4.176,4.176,0,0,1,3.09-1.4.683.683,0,0,1,.3.048.3.3,0,0,1,.066.04,9.14,9.14,0,0,1,2.746-1.349,3.992,3.992,0,0,1,1.928.026c.767.231,1.034.842,1.36,1.51a6.823,6.823,0,0,0,2.312,2.662c.637.43,1.393.8,1.7,1.5a4.32,4.32,0,0,1,.024,2.125,5.876,5.876,0,0,0,2.21,5.089c.871.676,2.034,1.239,2.219,2.325a3.974,3.974,0,0,1-.63,2.226,5.351,5.351,0,0,0-.117,4.785,5.494,5.494,0,0,1,.668,1.239,2.079,2.079,0,0,1-.935,2.153,4.2,4.2,0,0,1-2.395.593,2.363,2.363,0,0,1-1.7-.518,2.717,2.717,0,0,1-.569-1.065q-.527-1.492-1.056-2.982a3.822,3.822,0,0,0-.791-1.5c-.846-.864-2.228-.773-3.436-.758-1.778.022-1.177-.762-2.859-1.329-.989-.333-2.063-.9-2.294-1.919s.454-1.941,1.053-2.764q.674-.915,1.27-1.895a5.469,5.469,0,0,0,.87-2.027c.183-1.217-2.773-1.9-3.216-3.044a8.471,8.471,0,0,1-.319-.992c-.212-.016-.408-.037-.549-.042a1.482,1.482,0,0,1-1.395-.778A1.79,1.79,0,0,1,150.4,299.917Z" transform="translate(-131.39 -295.578)"/><g class="c" transform="translate(18.953 0.531)"><path d="M214.171,297.244a.72.72,0,0,0-.3-.046h-.042a7.631,7.631,0,0,1,2.014-.893l.17-.035a12.1,12.1,0,0,0-1.787,1.014A.4.4,0,0,0,214.171,297.244Z" transform="translate(-209.147 -296.27)"/><path d="M157.453,306.1a2.443,2.443,0,0,1,.161-.639,1.865,1.865,0,0,1,.3-.434,4.183,4.183,0,0,1,2.4-1.342,4.106,4.106,0,0,0-1.281.974,1.784,1.784,0,0,0-.3.432,2.336,2.336,0,0,0-.161.641,1.79,1.79,0,0,0,.011.886,1.474,1.474,0,0,0,1.393.776c.137,0,.335.027.549.042a8.4,8.4,0,0,0,.319.994c.443,1.146,3.394,1.831,3.215,3.044a5.464,5.464,0,0,1-.868,2.027c-.388.63-.824,1.281-1.27,1.895-.6.824-1.281,1.77-1.053,2.764s1.3,1.585,2.292,1.919c1.684.568,1.084,1.351,2.859,1.329,1.21-.015,2.592-.106,3.438.758a3.945,3.945,0,0,1,.791,1.5l1.056,2.982a2.746,2.746,0,0,0,.568,1.065,2.376,2.376,0,0,0,1.7.516,6.061,6.061,0,0,0,1.031-.077,4.473,4.473,0,0,1-2.151.447,2.363,2.363,0,0,1-1.7-.518,2.717,2.717,0,0,1-.569-1.065q-.527-1.49-1.056-2.982a3.821,3.821,0,0,0-.791-1.5c-.846-.864-2.228-.773-3.436-.758-1.778.022-1.177-.762-2.86-1.329-.989-.333-2.063-.9-2.294-1.919s.454-1.941,1.053-2.764q.674-.915,1.27-1.895a5.469,5.469,0,0,0,.87-2.027c.183-1.217-2.773-1.9-3.217-3.044a8.472,8.472,0,0,1-.319-.992c-.212-.016-.408-.037-.549-.042a1.482,1.482,0,0,1-1.395-.778A1.79,1.79,0,0,1,157.453,306.1Z" transform="translate(-157.4 -302.332)"/></g></g></g></g></svg>