<svg xmlns="http://www.w3.org/2000/svg" width="354.403" height="104.989" viewBox="0 0 354.403 104.989"><defs><style>.a{fill:#fff;}.b{fill:#f1304b;}</style></defs><g transform="translate(79.116 16.38)"><rect width="354.403" height="104.989" rx="24.998" transform="translate(-79.116 -16.38)"/><path class="a" d="M-13.758,36.877c-.069-7.554,6.185-11.23,6.472-11.4a13.913,13.913,0,0,0-10.961-5.926c-4.612-.484-9.082,2.76-11.432,2.76-2.4,0-6.014-2.712-9.91-2.632a14.6,14.6,0,0,0-12.284,7.492c-5.311,9.195-1.349,22.71,3.738,30.143,2.546,3.64,5.521,7.7,9.413,7.561,3.81-.158,5.232-2.429,9.83-2.429,4.556,0,5.89,2.429,9.862,2.338,4.087-.067,6.663-3.656,9.119-7.331a30.1,30.1,0,0,0,4.17-8.492A13.135,13.135,0,0,1-13.758,36.877Z"/><path class="a" d="M-21.26,14.661A13.381,13.381,0,0,0-18.2,5.075a13.617,13.617,0,0,0-8.809,4.557c-1.888,2.208-3.577,5.829-3.141,9.232C-26.818,19.111-23.4,17.183-21.26,14.661Z"/><path class="a" d="M43.717,52.9H31.27l-2.989,8.827H23.009L34.8,29.071h5.477l11.79,32.655H46.7ZM32.559,48.826h9.867L37.562,34.5h-.136Z"/><path class="a" d="M77.528,49.823c0,7.4-3.96,12.152-9.936,12.152A8.072,8.072,0,0,1,60.1,57.809h-.113V69.6H55.1V37.917h4.731v3.96h.089A8.447,8.447,0,0,1,67.5,37.668C73.545,37.668,77.528,42.445,77.528,49.823Zm-5.023,0c0-4.82-2.491-7.989-6.292-7.989-3.734,0-6.245,3.235-6.245,7.989,0,4.8,2.511,8.009,6.245,8.009C70.014,57.832,72.5,54.686,72.5,49.823Z"/><path class="a" d="M103.732,49.823c0,7.4-3.96,12.152-9.936,12.152a8.072,8.072,0,0,1-7.491-4.166h-.113V69.6H81.305V37.917h4.73v3.96h.09a8.447,8.447,0,0,1,7.581-4.209C99.749,37.668,103.732,42.445,103.732,49.823Zm-5.023,0c0-4.82-2.491-7.989-6.292-7.989-3.734,0-6.245,3.235-6.245,7.989,0,4.8,2.511,8.009,6.245,8.009C96.218,57.832,98.709,54.686,98.709,49.823Z"/><path class="a" d="M121.05,52.627c.362,3.238,3.508,5.365,7.807,5.365,4.119,0,7.083-2.127,7.083-5.047,0-2.534-1.788-4.052-6.02-5.092l-4.232-1.019c-6-1.449-8.78-4.253-8.78-8.8,0-5.634,4.91-9.5,11.882-9.5,6.9,0,11.631,3.87,11.79,9.5h-4.933c-.3-3.258-2.989-5.225-6.926-5.225s-6.631,1.99-6.631,4.886c0,2.309,1.721,3.668,5.93,4.708l3.6.883c6.7,1.585,9.483,4.276,9.483,9.052,0,6.11-4.866,9.936-12.606,9.936-7.242,0-12.131-3.737-12.447-9.643Z"/><path class="a" d="M151.648,32.283v5.634h4.527v3.87h-4.527V54.913c0,2.039.907,2.989,2.9,2.989a15.445,15.445,0,0,0,1.607-.113v3.847a13.427,13.427,0,0,1-2.714.226c-4.82,0-6.7-1.811-6.7-6.428V41.787h-3.462v-3.87h3.462V32.283Z"/><path class="a" d="M158.8,49.823c0-7.491,4.412-12.2,11.292-12.2,6.9,0,11.294,4.707,11.294,12.2,0,7.511-4.368,12.2-11.294,12.2S158.8,57.334,158.8,49.823Zm17.607,0c0-5.139-2.355-8.172-6.315-8.172s-6.312,3.056-6.312,8.172c0,5.159,2.352,8.169,6.312,8.169S176.4,54.982,176.4,49.823Z"/><path class="a" d="M185.412,37.917h4.661V41.97h.113a5.679,5.679,0,0,1,5.727-4.3,7.519,7.519,0,0,1,1.674.183v4.571a6.8,6.8,0,0,0-2.2-.3c-3.145,0-5.092,2.129-5.092,5.478V61.726h-4.887Z"/><path class="a" d="M220.119,54.733c-.658,4.322-4.867,7.288-10.252,7.288-6.926,0-11.224-4.641-11.224-12.085,0-7.468,4.322-12.311,11.019-12.311,6.587,0,10.729,4.525,10.729,11.743v1.674H203.576v.3c0,4.073,2.557,6.744,6.4,6.744,2.715,0,4.844-1.29,5.5-3.349ZM203.6,47.627h11.9c-.113-3.644-2.445-6.042-5.84-6.042C206.29,41.585,203.848,44.029,203.6,47.627Z"/><path class="a" d="M31.947,4.491c4.653,0,7.383,2.859,7.383,7.8,0,5.013-2.709,7.894-7.383,7.894H26.279V4.491ZM28.716,17.963h2.959c3.282,0,5.174-2.044,5.174-5.644,0-3.545-1.923-5.611-5.174-5.611H28.716Z"/><path class="a" d="M42.083,14.256c0-3.817,2.131-6.144,5.588-6.144s5.58,2.327,5.58,6.144c0,3.838-2.121,6.154-5.58,6.154S42.083,18.094,42.083,14.256Zm8.764,0c0-2.567-1.153-4.068-3.176-4.068s-3.174,1.5-3.174,4.068c0,2.587,1.142,4.077,3.174,4.077S50.847,16.833,50.847,14.256Z"/><path class="a" d="M68.1,20.181H65.672l-2.447-8.72H63.04L60.6,20.181H58.2L54.938,8.34h2.371l2.121,9.036H59.6L62.039,8.34h2.242l2.434,9.036H66.9L69.011,8.34h2.337Z"/><path class="a" d="M74.093,8.34h2.249v1.881h.175a3.545,3.545,0,0,1,3.534-2.109c2.642,0,4.1,1.587,4.1,4.4v7.665H81.812V13.1c0-1.9-.826-2.849-2.555-2.849a2.716,2.716,0,0,0-2.827,3v6.927H74.093Z"/><path class="a" d="M87.873,3.718H90.21V20.181H87.873Z"/><path class="a" d="M93.458,14.256c0-3.817,2.132-6.144,5.588-6.144s5.582,2.327,5.582,6.144c0,3.838-2.123,6.154-5.582,6.154S93.458,18.094,93.458,14.256Zm8.765,0c0-2.567-1.153-4.068-3.177-4.068s-3.174,1.5-3.174,4.068c0,2.587,1.143,4.077,3.174,4.077S102.223,16.833,102.223,14.256Z"/><path class="a" d="M107.088,16.833c0-2.132,1.587-3.36,4.4-3.535l3.208-.185V12.091c0-1.251-.827-1.957-2.425-1.957-1.3,0-2.208.479-2.468,1.316h-2.262c.239-2.034,2.152-3.338,4.838-3.338,2.969,0,4.643,1.478,4.643,3.979v8.09h-2.249V18.517h-.185a3.984,3.984,0,0,1-3.557,1.86C108.752,20.377,107.088,19,107.088,16.833Zm7.612-1.012v-.99l-2.892.185c-1.631.109-2.37.664-2.37,1.708,0,1.065.924,1.686,2.195,1.686A2.792,2.792,0,0,0,114.7,15.821Z"/><path class="a" d="M120.1,14.256c0-3.742,1.924-6.112,4.916-6.112a3.9,3.9,0,0,1,3.631,2.077h.174v-6.5h2.337V20.181h-2.239v-1.87h-.185a4.11,4.11,0,0,1-3.718,2.066C122,20.377,120.1,18.006,120.1,14.256Zm2.414,0c0,2.511,1.184,4.023,3.164,4.023s3.187-1.534,3.187-4.013-1.23-4.023-3.187-4.023S122.511,11.765,122.511,14.256Z"/><path class="a" d="M140.824,14.256c0-3.817,2.131-6.144,5.588-6.144s5.58,2.327,5.58,6.144c0,3.838-2.121,6.154-5.58,6.154S140.824,18.094,140.824,14.256Zm8.764,0c0-2.567-1.153-4.068-3.176-4.068s-3.174,1.5-3.174,4.068c0,2.587,1.143,4.077,3.174,4.077S149.588,16.833,149.588,14.256Z"/><path class="a" d="M155.128,8.34h2.249v1.881h.175a3.544,3.544,0,0,1,3.533-2.109c2.643,0,4.1,1.587,4.1,4.4v7.665h-2.337V13.1c0-1.9-.827-2.849-2.555-2.849a2.716,2.716,0,0,0-2.827,3v6.927h-2.337Z"/><path class="a" d="M178.389,5.392v3h2.565v1.969h-2.565v6.089c0,1.24.511,1.783,1.674,1.783a7.813,7.813,0,0,0,.891-.054v1.947a7.682,7.682,0,0,1-1.271.119c-2.6,0-3.634-.914-3.634-3.2V10.363h-1.88V8.394h1.88v-3Z"/><path class="a" d="M184.146,3.718h2.317v6.525h.184a3.645,3.645,0,0,1,3.611-2.121c2.522,0,4.078,1.6,4.078,4.415v7.644H192V13.113c0-1.891-.881-2.849-2.532-2.849a2.766,2.766,0,0,0-2.982,3v6.915h-2.337Z"/><path class="a" d="M207.962,16.984c-.532,2.121-2.424,3.426-5.131,3.426-3.392,0-5.47-2.327-5.47-6.112s2.121-6.186,5.46-6.186c3.295,0,5.282,2.251,5.282,5.969V14.9h-8.361v.132c.077,2.076,1.284,3.392,3.153,3.392a2.838,2.838,0,0,0,2.817-1.436Zm-8.22-3.816h5.981a2.857,2.857,0,0,0-2.915-3.067A3.028,3.028,0,0,0,199.742,13.168Z"/><path class="b" d="M275.287,63.611V40.192L145.563-16.38H37.538l228.3,99.56A24.947,24.947,0,0,0,275.287,63.611Z"/><path class="a" d="M142.412,5.432c2.114-4.849,5.442-6.767,8.762-5.319,2.819,1.229,3.9,4.581,2.457,8.129L150.9,7.053c.623-1.811.193-3.371-1.051-3.913-1.544-.674-3.292.659-4.549,3.542-1.271,2.914-1.067,5.1.494,5.779,1.242.541,2.622-.156,3.56-1.818l2.724,1.188c-1.67,3.475-4.74,4.9-7.612,3.653C141.135,14.029,140.292,10.292,142.412,5.432Z"/><path class="a" d="M164.88,15.243c-2.065,4.736-5.474,6.754-8.847,5.283s-4.222-5.346-2.157-10.082,5.485-6.761,8.86-5.289S166.945,10.507,164.88,15.243Zm-8.117-3.54c-1.23,2.821-.984,5.061.608,5.755s3.4-.65,4.628-3.471.98-5.074-.6-5.764S158,8.872,156.763,11.7Z"/><path class="a" d="M175.233,28.593l-2.5-1.089,4.045-9.276-.053-.023L170,26.125l-1.623-.708L169.6,15.1l-.061-.027-4.046,9.276L163,23.259,169.481,8.4l3.274,1.428L171.4,20.6l.062.027,6.973-8.318,3.274,1.427Z"/><path class="a" d="M176.89,29.315l6.479-14.856,2.833,1.236-6.478,14.856Z"/><path class="a" d="M181.4,31.282l6.479-14.856,2.262.987.957,10.7.062.027,3.767-8.638,2.689,1.173-6.479,14.857-2.24-.977-.946-10.791-.061-.027-3.8,8.72Z"/><path class="a" d="M197.882,38.776c-3.437-1.5-4.272-5.232-2.143-10.112,2.1-4.818,5.409-6.758,8.776-5.289,2.7,1.178,3.8,4.192,2.762,7.343l-2.8-1.223a2.546,2.546,0,0,0-1.274-3.08c-1.606-.7-3.29.563-4.551,3.456-1.284,2.945-1.011,5.184.62,5.895a2.558,2.558,0,0,0,3.344-1.519l.107-.223-2.039-.889,1.132-2.595,4.773,2.082-.8,1.822C204.021,38.5,201.055,40.16,197.882,38.776Z"/><path class="a" d="M211.842,39.436a2.093,2.093,0,0,0,1.267,2.574,1.771,1.771,0,0,0,2.5-.759c.359-.824.063-1.431-1.051-2.334L213.267,37.9c-1.826-1.422-2.238-3.366-1.255-5.62,1.257-2.883,3.919-3.928,6.5-2.8,2.786,1.215,3.645,3.734,2.459,6.538l-2.609-1.138a1.881,1.881,0,0,0-1.068-2.524,1.623,1.623,0,0,0-2.3.785c-.351.8-.049,1.462.977,2.289l1.286.99c1.954,1.526,2.363,3.285,1.34,5.633-1.289,2.954-3.941,4.04-6.811,2.788-2.842-1.239-3.864-3.682-2.638-6.578Z"/><path class="a" d="M231.837,44.443c-2.065,4.736-5.472,6.755-8.847,5.283s-4.22-5.345-2.154-10.081,5.485-6.761,8.858-5.29S233.9,39.707,231.837,44.443ZM223.723,40.9c-1.231,2.821-.984,5.061.6,5.754s3.4-.649,4.631-3.47.98-5.074-.6-5.765S224.957,38.073,223.723,40.9Z"/><path class="a" d="M243.891,49.7c-2.065,4.736-5.472,6.754-8.847,5.283s-4.22-5.345-2.154-10.081,5.485-6.761,8.857-5.29S245.957,44.964,243.891,49.7Zm-8.115-3.539c-1.23,2.821-.984,5.06.606,5.754s3.4-.649,4.631-3.47.98-5.075-.6-5.765S237.011,43.33,235.776,46.161Z"/><path class="a" d="M242.015,57.717l6.479-14.857,2.263.987.957,10.7.061.027,3.767-8.638,2.689,1.173-6.478,14.856-2.241-.977-.945-10.791-.062-.027-3.8,8.72Z"/></g></svg>