<svg xmlns="http://www.w3.org/2000/svg" width="40" height="40" viewBox="0 0 40 40"><defs><style>.a{fill:#fff;}.b,.d{fill:none;}.b{stroke:#fff;stroke-width:3.5px;}.c{stroke:none;}</style></defs><g transform="translate(-310 -1955)"><path class="a" d="M40,20A20,20,0,1,0,20,40c.117,0,.234,0,.352-.008V24.43h-4.3V19.422h4.3V15.734c0-4.273,2.609-6.6,6.422-6.6a34.9,34.9,0,0,1,3.852.2V13.8H28c-2.07,0-2.477.984-2.477,2.43v3.188h4.961l-.648,5.008H25.523v14.8A20.006,20.006,0,0,0,40,20Z" transform="translate(310 1955)"/><g class="b" transform="translate(310 1955)"><rect class="c" width="40" height="40" rx="12"/><rect class="d" x="1.75" y="1.75" width="36.5" height="36.5" rx="10.25"/></g></g></svg>