<svg xmlns="http://www.w3.org/2000/svg" xmlns:xlink="http://www.w3.org/1999/xlink" width="354" height="105" viewBox="0 0 354 105"><defs><style>.a,.b,.i{fill:#fff;}.a{stroke:#fff;stroke-miterlimit:10;stroke-width:0.2px;}.c{fill:#00e1ff;}.d{fill:url(#a);}.e{fill:#f1304b;}.f{fill:url(#b);}.g{opacity:0.2;}.g,.h,.i{isolation:isolate;}.h{opacity:0.12;}.i{opacity:0.25;}</style><linearGradient id="a" x1="1.076" y1="17.098" x2="-1.305" y2="17.098" gradientUnits="objectBoundingBox"><stop offset="0" stop-color="#ffe000"/><stop offset="0.409" stop-color="#ffbd00"/><stop offset="0.775" stop-color="orange"/><stop offset="1" stop-color="#ff9c00"/></linearGradient><linearGradient id="b" x1="-0.188" y1="13.583" x2="0.421" y2="12.793" gradientUnits="objectBoundingBox"><stop offset="0" stop-color="#32a071"/><stop offset="0.068" stop-color="#2da771"/><stop offset="0.476" stop-color="#15cf74"/><stop offset="0.801" stop-color="#06e775"/><stop offset="1" stop-color="#00f076"/></linearGradient></defs><g transform="translate(-783 -1551)"><rect width="354" height="105" rx="25" transform="translate(783 1551)"/><g transform="translate(891.434 1569.005)"><path class="a" d="M67.258,25.721A7.1,7.1,0,0,1,65.3,30.974,7.625,7.625,0,0,1,59.525,33.3a8.1,8.1,0,0,1-8.173-8.218,8.1,8.1,0,0,1,8.173-8.218,8.145,8.145,0,0,1,3.231.658,6.472,6.472,0,0,1,2.46,1.76l-1.382,1.382A5.322,5.322,0,0,0,59.525,18.8a6.084,6.084,0,0,0-6.11,6.283,6.188,6.188,0,0,0,10.5,4.529,4.961,4.961,0,0,0,1.319-3.189H59.525V24.536h7.625A6.706,6.706,0,0,1,67.258,25.721Z" transform="translate(-51.352 -16.866)"/><path class="a" d="M67.711,18.933H60.544v4.99h6.461v1.888H60.544V30.8h7.167v1.933H58.525V17h9.186Z" transform="translate(-39.716 -16.649)"/><path class="a" d="M69.249,32.733H67.224v-13.8H62.832V17H73.643v1.933H69.249Z" transform="translate(-32.729 -16.649)"/><path class="a" d="M69.938,32.733V17h2.019V32.733Z" transform="translate(-21.201 -16.649)"/><path class="a" d="M78.1,32.733H76.076v-13.8H71.681V17H82.492v1.933H78.1Z" transform="translate(-18.374 -16.649)"/><path class="a" d="M92.179,30.918a8.17,8.17,0,0,1-11.535,0,8.046,8.046,0,0,1-2.318-5.834,8.046,8.046,0,0,1,2.318-5.834,8.144,8.144,0,0,1,11.525.01A8.043,8.043,0,0,1,94.5,25.084,8.056,8.056,0,0,1,92.179,30.918ZM82.136,29.6a6.052,6.052,0,0,0,8.548,0,6.158,6.158,0,0,0,1.749-4.515,6.158,6.158,0,0,0-1.749-4.515,6.052,6.052,0,0,0-8.548,0,6.166,6.166,0,0,0-1.746,4.515A6.166,6.166,0,0,0,82.136,29.6Z" transform="translate(-7.594 -16.866)"/><path class="a" d="M85.575,32.733V17h2.462l7.646,12.238h.087l-.087-3.031V17h2.022V32.733H95.6L87.6,19.9H87.51l.087,3.034v9.8Z" transform="translate(4.165 -16.649)"/></g><path class="b" d="M122.088,39.385a11.152,11.152,0,1,0,11.194,11.152A10.992,10.992,0,0,0,122.088,39.385Zm0,17.91a6.452,6.452,0,0,1-6.3-6.757,6.311,6.311,0,1,1,12.589,0A6.45,6.45,0,0,1,122.088,57.294ZM97.668,39.385a11.152,11.152,0,1,0,11.194,11.152A10.993,10.993,0,0,0,97.668,39.385Zm0,17.91a6.452,6.452,0,0,1-6.3-6.757,6.311,6.311,0,1,1,12.589,0A6.452,6.452,0,0,1,97.668,57.294ZM68.616,42.807v4.73h11.32a9.874,9.874,0,0,1-2.575,5.955,11.591,11.591,0,0,1-8.745,3.464,12.589,12.589,0,0,1,0-25.176,12.062,12.062,0,0,1,8.533,3.38l3.338-3.338a16.508,16.508,0,0,0-11.871-4.775A17.564,17.564,0,0,0,51.042,44.369a17.562,17.562,0,0,0,17.574,17.32A15.828,15.828,0,0,0,80.7,56.83c3.126-3.126,4.1-7.518,4.1-11.068a15.285,15.285,0,0,0-.254-2.955ZM187.424,46.48c-.928-2.491-3.76-7.1-9.548-7.1-5.745,0-10.518,4.518-10.518,11.152a10.914,10.914,0,0,0,11.068,11.152,11.091,11.091,0,0,0,9.293-4.943l-3.8-2.536a6.371,6.371,0,0,1-5.491,3.084,5.677,5.677,0,0,1-5.41-3.377l14.913-6.17ZM172.215,50.2a6.118,6.118,0,0,1,5.829-6.506,4.314,4.314,0,0,1,4.141,2.365ZM160.092,61.013h4.9V28.23h-4.9Zm-8.029-19.137H151.9a7.73,7.73,0,0,0-5.871-2.491,11.162,11.162,0,0,0,0,22.3,7.6,7.6,0,0,0,5.871-2.536h.168v1.607c0,4.266-2.279,6.548-5.955,6.548a6.172,6.172,0,0,1-5.619-3.973l-4.266,1.775a10.627,10.627,0,0,0,9.886,6.59c5.745,0,10.6-3.38,10.6-11.616V40.058h-4.649Zm-5.617,15.419a6.4,6.4,0,0,1-6.209-6.716c0-3.928,2.829-6.8,6.209-6.8,3.338,0,5.955,2.874,5.955,6.8C152.4,54.465,149.784,57.294,146.446,57.294Zm63.932-29.062H198.655v32.78h4.89V48.594h6.834c5.423,0,10.754-3.928,10.754-10.182S215.8,28.232,210.379,28.232Zm.126,15.8h-6.959V32.795H210.5a5.619,5.619,0,1,1,0,11.236Zm30.239-4.707c-3.543,0-7.214,1.56-8.732,5.016l4.345,1.815a4.635,4.635,0,0,1,4.471-2.4c2.53,0,5.1,1.518,5.145,4.219v.336a10.823,10.823,0,0,0-5.1-1.264c-4.681,0-9.448,2.572-9.448,7.379,0,4.387,3.839,7.214,8.139,7.214a6.9,6.9,0,0,0,6.244-3.207h.168v2.53H250.7V48.389C250.7,42.571,246.353,39.324,240.744,39.324Zm-.59,17.965c-1.6,0-3.839-.8-3.839-2.782,0-2.53,2.782-3.5,5.187-3.5a8.729,8.729,0,0,1,4.471,1.1A5.931,5.931,0,0,1,240.154,57.289ZM267.9,40.04l-5.609,14.212h-.168L256.3,40.04h-5.271L259.763,59.9l-4.977,11.05h5.1L273.343,40.04ZM223.831,61.013h4.893V28.232h-4.893Z" transform="translate(839.579 1568.654)"/><g transform="translate(809.151 1569.724)"><path class="c" d="M21.184,17.656a5.263,5.263,0,0,0-1.211,3.684V79.334a5.258,5.258,0,0,0,1.211,3.684l.194.189L53.865,50.72v-.766L21.379,17.465Z" transform="translate(-19.973 -16.614)"/><path class="d" d="M43.728,48.157,32.9,37.322v-.766L43.73,25.724l.244.142L56.8,33.155c3.663,2.082,3.663,5.488,0,7.57l-12.831,7.29Z" transform="translate(0.994 -3.216)"/><path class="e" d="M64.192,41.077,53.116,30,20.435,62.682c1.209,1.28,3.2,1.437,5.452.16L64.192,41.077" transform="translate(-19.224 3.722)"/><path class="f" d="M64.192,39.787,25.887,18.023c-2.247-1.277-4.243-1.12-5.452.16L53.116,50.864Z" transform="translate(-19.224 -17.14)"/><g transform="translate(0 44.556)"><path class="g" d="M63.948,34.132,25.887,55.757c-2.129,1.211-4.033,1.13-5.255.029h0l-.2.194h0l.194.191,0,0c1.222,1.1,3.126,1.183,5.255-.029L64.192,34.376Z" transform="translate(-19.224 -34.132)"/><path class="h" d="M21.184,44.6a5.258,5.258,0,0,1-1.211-3.684V41.3a5.251,5.251,0,0,0,1.211,3.682l.2-.194Z" transform="translate(-19.973 -23.132)"/></g><path class="h" d="M50.1,33.4,37.029,40.833l.244.244L50.1,33.787c1.83-1.041,2.748-2.412,2.748-3.786h0A4.879,4.879,0,0,1,50.1,33.4Z" transform="translate(7.696 3.722)"/><path class="i" d="M26.636,18.406,77.772,47.46a4.879,4.879,0,0,1,2.748,3.4h0c0-1.371-.915-2.745-2.748-3.786L26.636,18.023c-3.666-2.082-6.663-.351-6.663,3.844v.385C19.973,18.054,22.97,16.324,26.636,18.406Z" transform="translate(-19.973 -17.14)"/></g></g></svg>