<svg xmlns="http://www.w3.org/2000/svg" xmlns:xlink="http://www.w3.org/1999/xlink" width="204" height="201" viewBox="0 0 204 201"><defs><style>.a{fill:#fbfaff;}.b{clip-path:url(#a);}.c{fill:rgba(58,120,242,0.3);}.d{fill:#fff;}</style><clipPath id="a"><rect class="a" width="204" height="201" rx="20" transform="translate(1656 976)"/></clipPath></defs><g class="b" transform="translate(-1656 -976)"><g transform="translate(1662.651 982.166)"><g transform="translate(0)"><path class="c" d="M222.8,502.5c41.081-20.894,50.4-59.679,48.776-94.542-.268-5.819.608-11.953-3.193-17.06s-12.677-8.594-19.835-6.143c-5.937,2.035-8.522,7.061-11.844,11.218a43.71,43.71,0,0,1-18.748,13.037c-5.09,1.923-11.389,3.1-16.415,1.082-6.895-2.77-7.706-9.706-7.658-15.493q.14-16.184.278-32.363c.05-5.786.074-11.7-2.4-17.188a21.791,21.791,0,0,0-15.5-12.14c-7.565-1.542-16.917,1.632-18.514,7.3-.665,2.357,0,4.8-.225,7.206a6.278,6.278,0,0,1-4.894,5.732c-3.173.678-6.354-.963-8.73-2.657-8.206-5.843-13.775-13.371-18.98-20.859s-10.255-15.15-17.7-21.525S89.47,296.675,78.083,296.207s-23.518,4.646-26.4,12.784c-2.884,8.159,3.654,16.438,10.772,23.042a166.477,166.477,0,0,0,36.951,25.642c2.506,1.294,5.222,2.693,6.179,4.838,1.728,3.859-3.3,7.69-8.529,8.96-5.926,1.436-12.356.988-18.554,1.519s-12.916,2.523-15.261,6.788c-3.255,5.916,3.54,12.117,10.228,16.178a172.7,172.7,0,0,0,44.994,18.908c5.847,1.558,12,2.923,16.719,5.915s7.562,8.194,4.715,12.27-10.166,5.387-16.293,4.558-11.609-3.247-17.446-4.85c-10.925-3-25.035-2.455-32.035,4.42-4.6,4.519-5,10.81-2.678,16.2S78.49,463.4,83.5,467.678a162.1,162.1,0,0,0,65.277,33.4c25.344,6.4,48.828,8.129,74.019,1.423" transform="translate(-50.988 -296.177)"/></g><g transform="translate(12.184 4.874)"><path class="d" d="M56.08,298.975a5.3,5.3,0,0,0,.771.551c.589.38,1.369.887,2.362,1.531,2.082,1.34,5.153,3.317,9.01,5.941a265.265,265.265,0,0,1,30.367,23.861c5.918,5.364,12.064,11.437,18.5,18.044s13.225,13.723,19.99,21.385A257.459,257.459,0,0,1,156.7,395.024c3.066,4.425,5.8,9.054,8.587,13.776q4.161,7.079,8.434,14.354c11.3,19.408,21.235,38.171,28.335,55.7,7.141,17.511,11.389,33.739,13.249,47.492a138.1,138.1,0,0,1,.747,32.691c-.416,3.852-.821,6.843-1.194,8.861-.153.969-.275,1.73-.366,2.3a3.28,3.28,0,0,0-.079.791,3.314,3.314,0,0,0,.227-.774c.124-.568.294-1.326.51-2.289.469-2.01.967-5,1.469-8.857a131.809,131.809,0,0,0-.285-32.8c-1.735-13.812-5.894-30.122-12.99-47.7-7.048-17.593-16.972-36.412-28.278-55.836q-4.279-7.273-8.446-14.359c-2.788-4.707-5.552-9.378-8.642-13.823a255.414,255.414,0,0,0-19.768-24.8c-6.813-7.667-13.66-14.763-20.132-21.363-6.49-6.594-12.7-12.655-18.684-18.006A253.751,253.751,0,0,0,68.6,306.688c-3.922-2.58-7.055-4.509-9.2-5.8-1.034-.61-1.843-1.091-2.453-1.451A6.2,6.2,0,0,0,56.08,298.975Z" transform="translate(-56.08 -298.975)"/></g><g transform="translate(113.619 36.729)"><path class="d" d="M98.506,380.936a9.061,9.061,0,0,0,.778-2.469c.419-1.6.917-3.927,1.474-6.81,1.125-5.763,2.3-13.76,3.559-22.579s2.587-16.788,3.829-22.521c.61-2.868,1.134-5.187,1.527-6.786a8.625,8.625,0,0,0,.443-2.512,9.578,9.578,0,0,0-1,2.425c-.562,1.577-1.244,3.882-1.986,6.742a210.68,210.68,0,0,0-4.265,22.535c-1.206,8.708-2.3,16.584-3.13,22.6-.4,2.716-.742,5.005-1.015,6.843A8.553,8.553,0,0,0,98.506,380.936Z" transform="translate(-98.464 -317.259)"/></g><g transform="translate(11.443 86.423)"><path class="d" d="M55.77,345.858a29.609,29.609,0,0,0,4.076.355c2.623.171,6.421.4,11.1.8,9.365.735,22.247,2.082,36.372,4.019,14.127,1.958,26.806,4.124,35.912,5.885,4.566.855,8.233,1.622,10.774,2.139a29.008,29.008,0,0,0,3.987.713,26.644,26.644,0,0,0-3.82-1.113c-2.494-.641-6.127-1.521-10.669-2.476-9.063-1.953-21.749-4.244-35.917-6.207-14.165-1.943-27.122-3.174-36.539-3.718-4.707-.3-8.527-.416-11.169-.455A29.739,29.739,0,0,0,55.77,345.858Z" transform="translate(-55.77 -345.783)"/></g><g transform="translate(158.18 88.057)"><path class="d" d="M117.093,441.761a3.916,3.916,0,0,0,.7-.908c.471-.728,1.048-1.617,1.747-2.692,1.5-2.343,3.559-5.775,6.021-10.039,4.93-8.525,11.234-20.455,17.944-33.691s12.859-25.2,17.537-33.785c2.3-4.174,4.183-7.606,5.586-10.16.6-1.106,1.094-2.021,1.5-2.772.325-.636.476-.979.431-.995a3.828,3.828,0,0,0-.7.909c-.474.726-1.051,1.613-1.749,2.69-1.5,2.341-3.556,5.774-6.019,10.037-4.932,8.525-11.234,20.457-17.949,33.7s-12.854,25.192-17.535,33.781c-2.3,4.173-4.181,7.608-5.583,10.159-.6,1.108-1.094,2.023-1.5,2.772C117.2,441.4,117.045,441.746,117.093,441.761Z" transform="translate(-117.084 -346.721)"/></g><g transform="translate(22.356 151.218)"><path class="d" d="M60.33,382.984a6.655,6.655,0,0,0,1.347.4l3.944.962c3.645.861,8.563,2.023,14.546,3.432,12.282,2.9,29.18,7.047,47.847,11.647s35.639,8.639,48,11.354c6.184,1.361,11.2,2.423,14.689,3.1l4.023.77a7.377,7.377,0,0,0,1.431.2,6.766,6.766,0,0,0-1.347-.408c-1.06-.256-2.365-.575-3.946-.96-3.642-.861-8.558-2.019-14.543-3.43-12.282-2.9-29.182-7.047-47.852-11.648s-35.632-8.64-48-11.354c-6.182-1.359-11.2-2.422-14.689-3.1-1.613-.307-2.941-.563-4.025-.768A7.006,7.006,0,0,0,60.33,382.984Z" transform="translate(-60.33 -382.974)"/></g></g></g></svg>