<svg xmlns="http://www.w3.org/2000/svg" width="40" height="40" viewBox="0 0 40 40"><defs><style>.a{fill:#fff;stroke:#fff;stroke-width:3.5px;}.b{fill:#305574;}.c{stroke:none;}.d{fill:none;}</style></defs><g transform="translate(-370 -1955)"><g class="a" transform="translate(370 1955)"><rect class="c" width="40" height="40" rx="12"/><rect class="d" x="1.75" y="1.75" width="36.5" height="36.5" rx="10.25"/></g><path class="b" d="M7.232,14.653A13.182,13.182,0,0,0,20.5,1.381q0-.3-.013-.6a9.493,9.493,0,0,0,2.327-2.416A9.307,9.307,0,0,1,20.139-.9a4.682,4.682,0,0,0,2.051-2.58A9.355,9.355,0,0,1,19.228-2.35,4.667,4.667,0,0,0,11.158.84,4.66,4.66,0,0,0,11.279,1.9,13.244,13.244,0,0,1,1.664-2.97,4.654,4.654,0,0,0,1.032-.625,4.661,4.661,0,0,0,3.108,3.257,4.628,4.628,0,0,1,1,2.674c0,.02,0,.039,0,.06A4.666,4.666,0,0,0,4.737,7.306a4.682,4.682,0,0,1-1.23.164,4.636,4.636,0,0,1-.877-.084,4.67,4.67,0,0,0,4.358,3.24,9.358,9.358,0,0,1-5.794,2,9.493,9.493,0,0,1-1.113-.065,13.2,13.2,0,0,0,7.15,2.1" transform="translate(378.55 1970.839)"/></g></svg>