<svg xmlns="http://www.w3.org/2000/svg" xmlns:xlink="http://www.w3.org/1999/xlink" width="632.46" height="681" viewBox="0 0 632.46 681"><defs><style>.a,.b{fill:#eaedf5;}.b{font-size:65px;font-family:Roboto-Medium, Roboto;font-weight:500;}.c{fill:#fff;}.d{fill:#ebf5ff;}.e{fill:#adaede;}.f{fill:#c1ddf7;}.g{fill:#dbdff1;}.h{fill:#ccc6c4;}.i{clip-path:url(#a);}.j{fill:#ffb95b;}.k{fill:#ffa833;}.l{fill:#ffa021;}.m{fill:#214a81;}.n{fill:#faf9ff;}.o{fill:#e1edf8;}.p{fill:#6e839f;}.q{fill:#eef4fc;}.r{fill:#d9e6f8;}.s{fill:#f67723;}.t{fill:#eb6734;}</style><clipPath id="a"><ellipse class="a" cx="297" cy="258" rx="297" ry="258" transform="translate(-40 -0.033)"/></clipPath></defs><g transform="translate(-933.54 -226)"><text class="b" transform="translate(969 352)"><tspan x="0" y="0">COMING</tspan></text><text class="b" transform="translate(1385 352)"><tspan x="0" y="0">SOON</tspan></text><g transform="translate(783.157 94.462)"><ellipse class="a" cx="297" cy="258" rx="297" ry="258" transform="translate(188.843 296.538)"/><g transform="translate(188.843 131.538)"><path class="c" d="M157.238,273.6a10.011,10.011,0,0,1,10.22-2.221c1.89-4.869,5.961-10.418,14.7-10.418,15.575,0,16.821,15.322,16.821,15.322,10.963-3.321,13.081,6.383,13.081,6.766H153.127A12.366,12.366,0,0,1,157.238,273.6Z" transform="translate(343.751 100.673)"/><g transform="translate(67.793 302.619)"><path class="c" d="M294.969,285.706a15.612,15.612,0,0,1,7.841,2.113,25.151,25.151,0,0,1,43.05-1.509,19.551,19.551,0,0,1,38.323,3.473,15.654,15.654,0,0,1,2.484-.218,15.946,15.946,0,0,1,14.166,8.784H279.4A16.086,16.086,0,0,1,294.969,285.706Z" transform="translate(-279.404 -271.955)"/></g><g transform="translate(76.395 47.011)"><circle class="d" cx="8.388" cy="8.388" r="8.388" transform="translate(384.96 -30)"/><path class="e" d="M185.626,228.847a5.613,5.613,0,1,1-5.613-5.61A5.613,5.613,0,0,1,185.626,228.847Z" transform="translate(-86.707 -45.195)"/><path class="d" d="M278.752,217.235l-3.362-1.8a1.207,1.207,0,0,1-.5-.5l-1.8-3.362a1.21,1.21,0,0,0-2.133,0l-1.8,3.362a1.206,1.206,0,0,1-.5.5l-3.362,1.8a1.21,1.21,0,0,0,0,2.133l3.362,1.8a1.206,1.206,0,0,1,.5.5l1.8,3.362a1.21,1.21,0,0,0,2.133,0l1.8-3.362a1.206,1.206,0,0,1,.5-.5l3.362-1.8A1.21,1.21,0,0,0,278.752,217.235Z" transform="translate(-135.449 -112.086)"/><path class="f" d="M200.18,172.358l-4.238-2.273a1.525,1.525,0,0,1-.623-.623l-2.273-4.239a1.524,1.524,0,0,0-2.687,0l-2.273,4.239a1.54,1.54,0,0,1-.623.623l-4.241,2.273a1.526,1.526,0,0,0,0,2.687l4.241,2.273a1.54,1.54,0,0,1,.623.623l2.273,4.239a1.524,1.524,0,0,0,2.687,0l2.273-4.239a1.525,1.525,0,0,1,.623-.623l4.238-2.273A1.524,1.524,0,0,0,200.18,172.358Z" transform="translate(-55.046 -168.731)"/><path class="f" d="M322.186,208.029l-5.124-2.749a1.856,1.856,0,0,1-.754-.753l-2.749-5.127a1.844,1.844,0,0,0-3.25,0l-2.749,5.127a1.857,1.857,0,0,1-.753.753l-5.125,2.749a1.842,1.842,0,0,0,0,3.249l5.125,2.749a1.842,1.842,0,0,1,.753.753l2.749,5.124a1.842,1.842,0,0,0,3.25,0l2.749-5.124a1.842,1.842,0,0,1,.754-.753l5.124-2.749A1.842,1.842,0,0,0,322.186,208.029Z" transform="translate(96.978 -81.273)"/><path class="e" d="M158.335,199.506l-4.693-2.516a1.682,1.682,0,0,1-.69-.69l-2.518-4.693a1.687,1.687,0,0,0-2.975,0l-2.516,4.693a1.7,1.7,0,0,1-.692.69l-4.693,2.516a1.689,1.689,0,0,0,0,2.977L144.252,205a1.7,1.7,0,0,1,.692.69l2.516,4.693a1.687,1.687,0,0,0,2.975,0l2.518-4.693a1.682,1.682,0,0,1,.69-.69l4.693-2.516A1.689,1.689,0,0,0,158.335,199.506Z" transform="translate(-138.669 -92.487)"/><path class="e" d="M282.893,186.19l-3.433-1.843a1.248,1.248,0,0,1-.506-.5l-1.841-3.436a1.235,1.235,0,0,0-2.177,0l-1.843,3.436a1.233,1.233,0,0,1-.506.5l-3.433,1.843a1.235,1.235,0,0,0,0,2.177l3.433,1.841a1.239,1.239,0,0,1,.506.506l1.843,3.434a1.235,1.235,0,0,0,2.177,0l1.841-3.434a1.254,1.254,0,0,1,.506-.506l3.433-1.841A1.235,1.235,0,0,0,282.893,186.19Z" transform="translate(54.141 -91.427)"/></g><rect class="g" width="48.907" height="201.812" transform="translate(304.96 372.768)"/><path class="h" d="M254.321,299.367a17.884,17.884,0,0,0-35.768,0s-2.312,42.287,17.884,64.8C256.63,341.654,254.321,299.367,254.321,299.367Z" transform="translate(93.78 86.52)"/><g transform="translate(40 165.032)"><g class="i"><g transform="translate(-82.263 305.102)"><ellipse class="g" cx="56.901" cy="56.098" rx="56.901" ry="56.098" transform="translate(259.936 52.609)"/><ellipse class="g" cx="50.974" cy="50.254" rx="50.974" ry="50.254" transform="translate(439.915 58.452)"/><ellipse class="g" cx="39.859" cy="39.297" rx="39.859" ry="39.297" transform="translate(366.947 25.86)"/><ellipse class="g" cx="27.769" cy="27.377" rx="27.769" ry="27.377" transform="translate(306.406 13.944)"/><ellipse class="g" cx="18.973" cy="18.705" rx="18.973" ry="18.705" transform="translate(385.999)"/><ellipse class="g" cx="33.625" cy="33.15" rx="33.625" ry="33.15" transform="translate(337.609 31.577)"/><ellipse class="g" cx="102.801" cy="101.35" rx="102.801" ry="101.35" transform="translate(0 91.161)"/><ellipse class="g" cx="77.08" cy="75.992" rx="77.08" ry="75.992" transform="translate(149.141 58.452)"/><ellipse class="g" cx="108.952" cy="107.415" rx="108.952" ry="107.415" transform="translate(494.236 78.744)"/><ellipse class="g" cx="77.079" cy="75.992" rx="77.079" ry="75.992" transform="translate(255.919 84.999)"/><ellipse class="g" cx="86.642" cy="85.42" rx="86.642" ry="85.42" transform="translate(338.972 66.144)"/></g></g></g><g transform="translate(218.018)"><path class="j" d="M197.648,365.993c9.412-16.286,25.188-35.245,49.924-42.817l-19.855-78.163s-17.99,38.3-47.369,117.166c-1.556,4.18,3.895,7.9,7.947,7.9h2.653A7.8,7.8,0,0,0,197.648,365.993Z" transform="translate(-180.076 33.484)"/><path class="j" d="M227.717,245.013s-17.99,38.3-47.369,117.166c-1.23,3.306,1.924,6.317,5.3,7.436,10.688-38.468,28.239-73.87,45.985-109.185Z" transform="translate(-180.076 33.484)"/><path class="k" d="M182.347,360.48a8.565,8.565,0,0,0,2.646.466h2.653a7.8,7.8,0,0,0,6.7-4.089c9.412-16.286,25.188-35.245,49.924-42.817L228.332,251.3C210.586,286.609,193.035,322.012,182.347,360.48Z" transform="translate(-176.774 42.619)"/><path class="l" d="M294.189,365.993c-9.41-16.286-25.188-35.245-49.922-42.817l19.855-78.163s17.987,38.3,47.367,117.166c1.556,4.18-3.895,7.9-7.947,7.9h-2.653A7.8,7.8,0,0,1,294.189,365.993Z" transform="translate(-86.727 33.484)"/><path class="m" d="M266.969,299.094H219.828a4.108,4.108,0,0,1-3.885-3.465l-2.587-12.755c-.567-2.783,1.328-5.431,3.883-5.431h52.317c2.555,0,4.45,2.648,3.885,5.431l-2.589,12.755A4.1,4.1,0,0,1,266.969,299.094Z" transform="translate(-131.826 80.645)"/><path class="c" d="M198.791,329.579s7.235,74.229,29.6,121.264c0,0,35.52-19.109,77.616,0,0,0,25.654-39.688,30.916-127.145,3.031-50.393-.589-107.93-15.528-157.5H217.063C203.177,206.579,193.289,260.808,198.791,329.579Z" transform="translate(-155.111 -81.134)"/><path class="n" d="M333.67,225.072a374.628,374.628,0,0,0-12.335-58.811H217c-13.886,40.382-23.772,94.611-18.272,163.382a557.408,557.408,0,0,0,8.9,55.39C269.825,358.988,315.351,296.334,333.67,225.072Z" transform="translate(-155.195 -81.041)"/><path class="o" d="M201.444,350.184c4.639,21.772,11.339,46.2,20.694,65.875,0,0,35.52-19.109,77.616,0,0,0,25.654-39.688,30.914-127.145a524.707,524.707,0,0,0-3.191-98.69C309.158,261.486,263.632,324.14,201.444,350.184Z" transform="translate(-149.002 -46.193)"/><path class="k" d="M247.7,136.327c-10.494,13.268-28.489,39.855-42.439,80.431H309.59c-9.559-31.724-23.742-60.188-43.821-81.412C260.6,129.884,252.411,130.373,247.7,136.327Z" transform="translate(-143.45 -131.538)"/><path class="k" d="M258.037,131.6a11.965,11.965,0,0,0-10.335,4.693c-10.494,13.265-28.489,39.855-42.441,80.431h61.1a27.787,27.787,0,0,0,3.637-8.911C272.635,179.758,268.151,154.369,258.037,131.6Z" transform="translate(-143.451 -131.5)"/><path class="j" d="M233.557,169.52c7.321-12.374,10.1-24.741,6.2-27.618s-12.99,4.823-20.311,17.2-10.1,24.741-6.2,27.618S226.236,181.894,233.557,169.52Z" transform="translate(-134.401 -117.341)"/><path class="l" d="M234.5,135.288a11.737,11.737,0,0,0-7.733-3.711c10.114,22.773,14.6,48.162,11.957,76.212a27.787,27.787,0,0,1-3.637,8.911h43.234C268.76,184.977,254.577,156.512,234.5,135.288Z" transform="translate(-112.179 -131.48)"/><path class="k" d="M241.867,383.359a261.441,261.441,0,0,0-8.236-151.989s-26.388,67.06-7.23,151.763c.9,3.978,4.091,6.788,7.763,6.788h0A8.188,8.188,0,0,0,241.867,383.359Z" transform="translate(-122.851 13.643)"/><path class="k" d="M232.9,232.183C229.083,243,211.846,297.272,223.3,366.1,236.364,323.267,236.73,277.722,232.9,232.183Z" transform="translate(-122.851 14.826)"/><path class="l" d="M231.338,231.37s-.272.7-.729,2c3.829,45.539,3.463,91.084-9.606,133.921q1.3,7.8,3.1,15.847c.9,3.978,4.091,6.788,7.763,6.788a8.188,8.188,0,0,0,7.7-6.563A261.441,261.441,0,0,0,231.338,231.37Z" transform="translate(-120.558 13.643)"/><circle class="p" cx="44.977" cy="44.977" r="44.977" transform="translate(69.095 124.489)"/><circle class="q" cx="31.225" cy="31.225" r="31.225" transform="translate(76.538 192.729) rotate(-76.79)"/><path class="q" d="M242.261,187.912c-8.636,17.506-16.281,35.214-24.94,52.545a31.256,31.256,0,0,0,14.274,8.6c7.243-19.5,15.756-38.164,24.69-56.639A31.089,31.089,0,0,0,242.261,187.912Z" transform="translate(-125.913 -49.555)"/><path class="r" d="M247.827,189.749c-8.933,18.476-17.447,37.143-24.69,56.639a31.188,31.188,0,0,0,24.69-56.639Z" transform="translate(-117.455 -46.884)"/><path class="r" d="M245.058,187.865a31.195,31.195,0,0,0-22.665,52.661c8.659-17.332,16.3-35.039,24.94-52.545C246.58,187.926,245.827,187.865,245.058,187.865Z" transform="translate(-130.985 -49.624)"/><g transform="translate(-256.478 363.476)"><circle class="k" cx="43.565" cy="43.565" r="43.565" transform="translate(5.095 78.38) rotate(-64.101)"/><path class="s" d="M414.874,331.413a43.453,43.453,0,0,0-25.438-29.853A43.511,43.511,0,0,1,342.4,373.084a43.541,43.541,0,0,0,72.471-41.671Z" transform="translate(-309.217 -283.442)"/><g transform="translate(0 38.699)"><path class="t" d="M431.235,310.145a42.037,42.037,0,0,1,2.82,7.328c8.2-.353,13.317.322,15.162,1.3-1.225,1.8-5.667,4.842-13.523,8.425-9.027,4.123-22.55,8.951-40.817,13.371s-32.5,6.307-42.414,6.769c-8.624.4-13.965-.27-15.877-1.313,1.193-1.716,5.429-4.653,12.887-8.092a42.085,42.085,0,0,1-.842-7.8c-11.778,5.2-21.114,11.41-19.587,17.722,1.6,6.626,13.844,7.67,27.5,6.636,17.111-1.284,36.446-5.809,40.085-6.69s22.93-5.7,38.733-12.382c12.615-5.321,23-11.839,21.4-18.466C455.23,310.638,444.086,309.382,431.235,310.145Z" transform="translate(-328.881 -309.946)"/></g></g></g></g></g></g></svg>