<svg xmlns="http://www.w3.org/2000/svg" width="584.66" height="314.487" viewBox="0 0 584.66 314.487"><defs><style>.a,.x{fill:none;}.a{stroke:#eaedf5;stroke-width:3px;}.b{fill:#ffa833;}.c{fill:#eaedf5;}.d{fill:#4cb076;}.e{fill:#3dab6f;}.f{fill:#6aba82;}.g{fill:#82b378;}.h{fill:#65b881;}.i{fill:#2c3a64;}.j{fill:#273756;}.k{fill:#162036;}.l{fill:#fdd0a5;}.m{fill:#f49d9f;}.n{fill:#fff;}.o{fill:#f68d23;}.p{fill:#fcecdb;}.q{fill:#efcbab;}.r{fill:#ff9c3a;}.s{opacity:0.5;}.t{fill:#cde0fb;}.u{fill:#b1cff2;}.v{fill:#afcdfb;}.w{stroke:none;}</style></defs><g transform="translate(-1051 -646)"><g class="a" transform="translate(1119 693)"><circle class="w" cx="13.5" cy="13.5" r="13.5"/><circle class="x" cx="13.5" cy="13.5" r="12"/></g><ellipse class="b" cx="7" cy="6.5" rx="7" ry="6.5" transform="translate(1620 799)"/><g transform="translate(1051 646)"><path class="c" d="M218.61,965.5s-51.775-78.746,4.889-164c50.275-75.643,129.6-15.495,174.546-92.465,61.3-104.966,367.191-63.974,328.451,97.519-18.747,78.151,85.086,80.992,46.461,159.111Z" transform="translate(-196.982 -651.181)"/><g transform="translate(410.168 133.889)"><path class="d" d="M606.987,802.159s-9.353-12.4.579-19.282c0,0,7.176-3.754,12.792-3.062,0,0-8.825,12.9-6.324,14.391s8.8-15.079,8.8-15.079,15.829-.543,20.738,2.206c0,0-14.138,10.168-11.346,11s17.995-9.064,17.995-9.064,14.488,3.406,13.149,12.291-6.556,11.328-8.759,10.952-14.867-6.138-15.262-4.339,7.042,8.226,12.493,8.844c0,0-11.034,10.741-17.691,7.026s-6.916-8.96-11.071-11.18-7.807-2.443-6.166-.341,9.261,4.523,11.437,9,4.188,7.535-2.844,6.023-18.247-7.426-18.382-13.405Z" transform="translate(-588.145 -779.082)"/><g transform="translate(0 15.538)"><path class="d" d="M656.414,794.655s-39.677-4.017-49.171,6.81a28.823,28.823,0,0,1-8.614,10.621l-1.09,2.481s7.346-6.837,9.839-7.121C607.378,807.445,604.4,793.112,656.414,794.655Z" transform="translate(-588.4 -793.926)"/><path class="d" d="M599.037,811.312a25.022,25.022,0,0,0-10.228,17.024l1.541.235s3.454-11.494,8.667-15.747S599.037,811.312,599.037,811.312Z" transform="translate(-588.809 -793.153)"/></g></g><g transform="translate(369.494 73.628)"><path class="e" d="M563.586,775.214s-20.736-11.612-11.06-27.372c0,0,7.742-9.677,16.037-12.165,0,0-4.425,23.5,0,24.054s3.041-26.542,3.041-26.542,21.842-10.507,30.413-9.677c0,0-13.548,22.948-9.124,22.394s19.631-23.777,19.631-23.777,22.394-4.147,25.989,9.124-2.212,19.907-5.53,20.736-24.606.553-24.054,3.317,14.931,7.188,22.948,4.7c0,0-8.848,21.843-20.46,20.736s-15.206-8.294-22.4-8.847-12.441,1.382-8.847,3.317,15.759.634,21.565,5.57,10.506,7.978-.276,10.19-30.137.829-34.008-7.465Z" transform="translate(-549.953 -721.516)"/><g transform="translate(2.681 13.885)"><path class="f" d="M627.92,734.78s-58.061,18.8-64.7,39.813a44.114,44.114,0,0,1-5.529,20.184v4.148s6.082-14.1,9.4-16.036C567.094,782.888,554.1,764.64,627.92,734.78Z" transform="translate(-552.272 -734.78)"/><path class="g" d="M557.936,792.209s-8.954,13.6-3.849,30.148l2.3-.619s-2.236-18.23,2.449-27.4S557.936,792.209,557.936,792.209Z" transform="translate(-552.514 -732.213)"/></g></g><g transform="translate(194.645 67.306)"><path class="e" d="M462.053,781.448s24.132-10.213,15.437-28.655c0,0-7.311-11.543-16.1-15.275,0,0,2,26.291-2.915,26.36s-.116-29.455-.116-29.455-22.662-14.16-32.156-14.29c0,0,12.066,26.79,7.285,25.648s-18.63-28.437-18.63-28.437-24.04-7.259-29.587,6.849.012,22.082,3.547,23.394,26.9,3.588,25.958,6.551-17.233,6.068-25.717,2.37c0,0,7.048,25.008,19.907,25.2s17.67-7.246,25.614-6.981,13.467,3.022,9.294,4.708-17.347-1.214-24.308,3.491-12.48,7.469-.932,11.2,32.925,4.561,38.172-4.06Z" transform="translate(-382.923 -715.477)"/><g transform="translate(13.057 14.501)"><path class="f" d="M395.4,729.329s61.349,27.639,66.074,51.471c0,0-1.441,10.268,3.614,22.788l-.5,4.545s-4.957-16.19-8.358-18.713C456.223,789.42,472.675,771,395.4,729.329Z" transform="translate(-395.396 -729.329)"/><path class="g" d="M462.09,800.408s8.165,15.986.565,33.505l-2.45-.957s4.659-19.707.638-30.323S462.09,800.408,462.09,800.408Z" transform="translate(-392.403 -726.149)"/></g></g><path class="h" d="M413.624,836.939a26.953,26.953,0,0,1-4.74-11.88s11.8-8.472,4.844-17.381c0,0-5.364-5.348-10.572-6.291,0,0,4.3,13.971,1.646,14.609s-3.664-15.913-3.664-15.913-13.984-4.887-19.134-3.8c0,0,9.8,13.011,7.074,12.977s-13.55-13.1-13.55-13.1-13.887-.986-15.161,7.32,2.7,11.94,4.778,12.216,14.983-1.348,14.836.37-8.577,5.388-13.616,4.425c0,0,6.868,12.661,13.845,11.195s8.669-6.079,13-6.907,7.651-.012,5.6,1.41-9.528,1.463-12.717,4.859-5.836,5.564.865,6.17,18.361-1.559,20.145-6.862q.116-.347.223-.663a2.7,2.7,0,0,1-.223.663c1.288.568,3.478,3.726,5.026,6.163.228.419.58.993,1.095,1.77h0c.212.353.383.643.5.845,2.959,5.517,2.861,15.629,2.861,15.629l1.441.218A23.409,23.409,0,0,0,413.624,836.939Z" transform="translate(-189.345 -644.396)"/><g transform="translate(103.019 44.494)"><path class="i" d="M336.6,700.122c-.117-.638-1.614-7.469-12.183-6.3,0,0,5.26-.134,6.484,2.009,0,0-3.929-2.3-6.665-.978s-3.691,6.588-3.468,8.243,2.589,6.75,4.475,6.938a5.58,5.58,0,0,0,2.2-.317,25.165,25.165,0,0,0-1.046,2.727c-2.946,9.222,2.6,17.012,6.02,15.566,2.192-.926,3.4,2.867,3.4,2.867l19.532-21.132S344.787,694.1,336.6,700.122Z" transform="translate(-294.207 -693.685)"/><path class="j" d="M361.95,949.564l-4.751,1.769s-20.635-28.619-23.175-53.8a38.247,38.247,0,0,1,.679-12.874s-.2-1.151-.555-3.187c-.163-.951-.364-2.095-.594-3.405-.671-3.844-1.594-9.1-2.648-15.092-2.429-13.781-5.574-31.4-8.018-44.348l1.28-.411,13.85-4.468,2.862-9.092,10.313-2.715s2.3,4.508,4.363,25.8c.381,2.793.725,5.873.986,9.212a182.376,182.376,0,0,1-.982,37.293q-.71,5.551-1.811,11.446a51.016,51.016,0,0,0-.4,11.3C354.394,917.575,361.95,949.564,361.95,949.564Z" transform="translate(-294.107 -688.618)"/><path class="k" d="M356.543,836.95l-22.4,44.523c-.163-.951-.364-2.095-.594-3.405-.671-3.844-1.594-9.1-2.648-15.092-2.429-13.781-5.574-31.4-8.018-44.348l1.28-.411,13.85-4.468,2.862-9.092,10.313-2.715s2.3,4.508,4.363,25.8C355.938,830.531,356.282,833.611,356.543,836.95Z" transform="translate(-294.107 -688.618)"/><path class="j" d="M347.616,807.888l-.518-4.447c-8.685,2.307-31.892-6.446-31.892-6.446s-8.414,7.4-7.31,25.127c.539,8.653,1.524,45.425,2.553,56.307.372,3.943.7,6.75.83,7.871l0,.012a1.554,1.554,0,0,1-.253.963,51.187,51.187,0,0,0-3.8,7.985c-10.1,26.907,1.556,60.042,1.556,60.042l3.023-1.219s6.632-36.876,12.018-53.166a32.29,32.29,0,0,1,2.6-6.232c2.343-3.781,4.517-9.959,6.49-17.307,3.729-13.891,6.731-31.962,8.728-45.911C341.919,831.48,347.616,807.888,347.616,807.888Z" transform="translate(-295.032 -688.849)"/><path class="l" d="M359.426,774.594a5.935,5.935,0,0,0,.536.511c7.423,6.917,17.421,13.034,22.769,14.382,3.519.9,11.276-.306,17.717-1.631,4.293-.846,8.03-1.783,9.572-2.149.491-.114.765-.2.765-.2l-.673-4.344s-3.861-.306-8.658-.847c-6.682-.786-15.152-1.991-17.322-3.273-5.033-2.991-13.864-15.534-20.949-23.419-.372-.43-.74-.843-1.1-1.249-.267-.3-.534-.586-.8-.871a.981.981,0,0,0-.209-.2c-.326-.312-.6-.6-.87-.859-.01-.031-.058-.054-.1-.082a31.31,31.31,0,0,0-3.467-2.8c-1.238-.706-2.258-.843-2.975-.241a11.425,11.425,0,0,0-1.834,2.615c-.194.357-.383.751-.564,1.18a2.658,2.658,0,0,0-.3.734,15.032,15.032,0,0,0-.961,5.87,18.616,18.616,0,0,0,1.166,5.811C352.406,767.026,355.533,770.911,359.426,774.594Z" transform="translate(-292.838 -691.192)"/><path class="l" d="M354.229,757.2a27.051,27.051,0,0,1-9.563,3.755c-14.66,2.955-19.895-9.513-21.753-18.022a12.513,12.513,0,0,1,4.978-1.378c1.056-.094,2.165-.146,3.084-.165,1.671-1.206,4.252-6.265,5.015-14.21l.68.2,11.39,3.466s-.629,3.635-.984,7.075c-.275,2.693-.379,5.272.114,5.918.891.22,1.425.361,1.425.361l.005.012A73.876,73.876,0,0,1,354.229,757.2Z" transform="translate(-294.106 -692.118)"/><path class="b" d="M360.016,765.714c-.068.312-.15.618-.241.932-2.573,8.6-4.655,43-4.655,43,1.364,4.3-23.631,5.18-37.415,3.194-5.012-.72-8.541-1.82-8.784-3.273-2.466-5.56,3.57-15.943,7.054-21.22a13.449,13.449,0,0,0,2.212-7.868c-.1-2.728-.338-5.375-.622-7.856-.534-4.678-1.248-8.763-1.62-11.653v0c.724-.72,1.431-1.39,2.088-2.027a21.085,21.085,0,0,0,2.5-2.769,4.352,4.352,0,0,0,.972-2.882,14.431,14.431,0,0,0-.384-2.24q-.13-.528-.29-1.051a30.711,30.711,0,0,0-3.179-6.84c3.732-2.182,10.921-2.25,10.921-2.25s.049.395.14,1.035c.35,2.578,1.333,9.189,2.34,10.321,1.259,1.41,21.137,5.5,21.829,3.236.68-2.222-3.424-11.577-3.578-11.932l-.005-.012c6.367,1.513,9.131,3.224,9.257,3.325l-.006,0C355.095,749.906,361.829,757.468,360.016,765.714Z" transform="translate(-294.788 -691.475)"/><path class="m" d="M347.446,730.84s-.63,3.631-.983,7.075c-6.485-.834-9.329-7.111-10.408-10.54Z" transform="translate(-293.49 -692.108)"/><path class="l" d="M349.349,735.2s-15.412-1.286-14.464-10.872-.4-16.208,9.48-15.791,11.428,4.263,11.89,7.539S353.382,735.29,349.349,735.2Z" transform="translate(-293.547 -692.991)"/><path class="i" d="M356.539,710.79c-2.089-3.12-3.951-2.668-5.045-1.9a10.809,10.809,0,0,0-14.051.828,18.4,18.4,0,0,1-7.071,10.217s2.631,2.013,9.263,1a11.038,11.038,0,0,0,5.6-3.089,36.077,36.077,0,0,1-6.933,6.928c8.08-2.8,12.257-13.229,12.68-14.333a12.122,12.122,0,0,1,2.907,4.808c.523,2.518.365,7.577,1.847,7.553C355.734,722.8,359.673,715.471,356.539,710.79Z" transform="translate(-293.757 -693.078)"/><path class="l" d="M421.842,779.219c-1.541,1.469-3.1,5.141-7.847,5.072a68.405,68.405,0,0,0-8.476.556c-.646.113-1.022.158-1.022.158l-.17-5.377a.923.923,0,0,0,.222-.019c1.148-.173,6.972-1.068,9.277-2.6,2.588-1.735,8.638-.127,8.638-.127S423.395,777.778,421.842,779.219Z" transform="translate(-290.295 -689.823)"/><path class="k" d="M326.4,951.185H302.476a13.138,13.138,0,0,1,.676-6.414c1.2-2.655,3.072-3.861,2.623-7.073a8.616,8.616,0,0,0,7.458,2.854c.423.687,2.735,4.364,4.152,5.382C318.948,947.057,325.921,946.657,326.4,951.185Z" transform="translate(-295.068 -682.263)"/><path class="k" d="M375.486,951.137H351.559s-.9-3.816.676-6.414c1.39-2.3.857-3.606-.173-5.507a9.287,9.287,0,0,0,4.03.759,8.423,8.423,0,0,0,3.558-1.251c1.03,1.173,5.44,6.171,6.818,7.161C368.033,947.008,375,946.609,375.486,951.137Z" transform="translate(-292.777 -682.215)"/><path class="n" d="M345.189,728.74s.216,1.269,3.338,1.271c0,0,2.622,0,2.629-1.375A8.412,8.412,0,0,0,345.189,728.74Z" transform="translate(-293.063 -692.072)"/><path class="o" d="M320.971,787.651c-.946,6-5.282,18.024-3.266,23.771-5.012-.72-8.541-1.82-8.784-3.273-2.466-5.56,3.57-15.943,7.054-21.22a13.449,13.449,0,0,0,2.212-7.868c-.1-2.728-.338-5.375-.622-7.856C317.565,771.205,321.978,781.281,320.971,787.651Z" transform="translate(-294.788 -690.057)"/><path class="b" d="M352.761,748.355c.166,5.328,4.02,19.956,4.935,18.025,1.045-2.2,5.091-10.574,6.991-10.882-.1-.386-7.877-8.986-8.217-8.885A15.615,15.615,0,0,0,352.761,748.355Z" transform="translate(-292.708 -691.208)"/><g transform="translate(0 49.472)"><path class="l" d="M318.758,823.916l-1.246,2.234-2.724.409s-1-1.255-2.6-3.263c-.475-.6-.73-.967-.73-.967-1.258-1.622-2.722-3.61-4.321-5.767l-.026-.025c-2.681-3.765-5.626-8.048-7.879-11.919a37.715,37.715,0,0,1-3.38-7.284,4.17,4.17,0,0,1-.142-.6c-1.165-5.066.971-15.125,4.374-24.94.467-1.358.961-2.692,1.432-4a98.268,98.268,0,0,1,5.885-12.994,38.481,38.481,0,0,1,3.541-5.544,16.192,16.192,0,0,1,1.179-1.407c.22-.248.439-.488.655-.716a16.567,16.567,0,0,1,11.1,5.435c-.064.225-.13.45-.2.679-1.5,4.843-3.82,10.785-6.222,16.609-1.307,3.2-2.645,6.373-3.817,9.359-.742,1.785-1.414,3.488-2.021,5.058a49.585,49.585,0,0,0-2.327,7.269,17.372,17.372,0,0,0,.712,5.916,161.006,161.006,0,0,0,4.924,16.019c.762,2.191,1.513,4.228,2.141,5.919C318.075,822.129,318.758,823.916,318.758,823.916Z" transform="translate(-295.394 -740.655)"/><path class="b" d="M320.056,768.01c-3.965-5.985-15.329-8.559-15.329-8.559,6.413-20.347,23.248-18.46,23.248-18.46S321.851,762.159,320.056,768.01Z" transform="translate(-294.957 -740.945)"/><path class="l" d="M313.921,823.125a7.684,7.684,0,0,1,1.159,2.646c.116,1.108,1.108,4.779,2.39,5.944s4.2,3.5,4.6,3.148,1.588-3.1.494-5.041c-.494-.876-1.164-3.321-2.049-3.914-1.073-.719-2.629-5.426-2.629-5.426Z" transform="translate(-294.527 -737.222)"/><path class="l" d="M317.728,821.053s3.157,1.6,3.584,2.885,2.191,3.868,2.011,4.167c-.194.32-2.938-1.429-3.871-3.022A25.13,25.13,0,0,1,317.728,821.053Z" transform="translate(-294.348 -737.195)"/></g></g><g transform="translate(201.519 90.843)"><path class="o" d="M389.49,810.032l115.6-69.208a20.157,20.157,0,0,1,20.708,0l115.6,69.208v112.8L389.49,910.2Z" transform="translate(-389.49 -737.962)"/><rect class="p" width="208.545" height="180.224" transform="translate(21.684 22.092)"/><g transform="translate(28.049 27.811)"><circle class="q" cx="2.144" cy="2.144" r="2.144" transform="translate(0 0)"/><path class="q" d="M599.124,766.674a2.144,2.144,0,1,1,2.145,2.144A2.144,2.144,0,0,1,599.124,766.674Z" transform="translate(-407.727 -764.529)"/><g transform="translate(2.144 1.911)"><rect class="q" width="191.398" height="0.466"/></g><g transform="translate(1.911 1.292)"><rect class="q" width="0.466" height="191.398"/></g><g transform="translate(193.384 1.292)"><rect class="q" width="0.466" height="191.398"/></g></g><g transform="translate(0 71.76)"><path class="b" d="M641.4,806.512V957.326H389.49V806.512L515.446,881.92Z" transform="translate(-389.49 -806.512)"/><path class="r" d="M389.49,954.433l115.383-82.722a18.147,18.147,0,0,1,21.148,0L641.4,954.433Z" transform="translate(-389.49 -803.619)"/></g><path class="q" d="M550.038,783.1H474a2.013,2.013,0,0,1-2.007-2.008h0A2.013,2.013,0,0,1,474,779.082h76.037a2.013,2.013,0,0,1,2.007,2.008h0A2.013,2.013,0,0,1,550.038,783.1Z" transform="translate(-385.628 -736.037)"/><path class="q" d="M570.5,790.792H455.292a2.014,2.014,0,0,1-2.008-2.008h0a2.013,2.013,0,0,1,2.008-2.007H570.5a2.013,2.013,0,0,1,2.007,2.007h0A2.013,2.013,0,0,1,570.5,790.792Z" transform="translate(-386.504 -735.677)"/><g transform="translate(69.114 77.192)"><path class="q" d="M554.777,814.606H471.421a1.456,1.456,0,0,1-1.452-1.452h0a1.456,1.456,0,0,1,1.452-1.452h83.356a1.456,1.456,0,0,1,1.452,1.452h0A1.456,1.456,0,0,1,554.777,814.606Z" transform="translate(-454.836 -811.702)"/><g transform="translate(0 7.585)"><path class="q" d="M480.468,821.853h-23.5a1.456,1.456,0,0,1-1.452-1.452h0a1.456,1.456,0,0,1,1.452-1.453h23.5a1.457,1.457,0,0,1,1.453,1.453h0A1.457,1.457,0,0,1,480.468,821.853Z" transform="translate(-455.513 -818.948)"/><path class="q" d="M514.548,821.853H486.153A1.456,1.456,0,0,1,484.7,820.4h0a1.456,1.456,0,0,1,1.452-1.453h28.395A1.457,1.457,0,0,1,516,820.4h0A1.457,1.457,0,0,1,514.548,821.853Z" transform="translate(-454.147 -818.948)"/><path class="q" d="M567.7,821.853H518.613a1.456,1.456,0,0,1-1.452-1.452h0a1.456,1.456,0,0,1,1.452-1.453H567.7a1.456,1.456,0,0,1,1.452,1.453h0A1.456,1.456,0,0,1,567.7,821.853Z" transform="translate(-452.627 -818.948)"/></g><g transform="translate(13.479 16.405)"><path class="q" d="M515.5,830.278H469.842a1.456,1.456,0,0,1-1.453-1.452h0a1.457,1.457,0,0,1,1.453-1.453H515.5a1.458,1.458,0,0,1,1.453,1.453h0A1.457,1.457,0,0,1,515.5,830.278Z" transform="translate(-468.389 -827.373)"/><path class="q" d="M554.237,830.278h-35.96a1.457,1.457,0,0,1-1.453-1.452h0a1.458,1.458,0,0,1,1.453-1.453h35.96a1.458,1.458,0,0,1,1.453,1.453h0A1.457,1.457,0,0,1,554.237,830.278Z" transform="translate(-466.122 -827.373)"/></g></g></g><g class="s" transform="translate(282.952 38.923)"><path class="t" d="M507.3,688.363l10.86,23.96-40.021,18.14-10.86-23.96,25.441,2.91Z" transform="translate(-467.281 -688.363)"/><path class="u" d="M467.281,706.5l40.022-18.14L495.338,708.53a4.445,4.445,0,0,1-4.594,2.109Z" transform="translate(-467.281 -688.363)"/></g><g class="s" transform="translate(62.098 195.372)"><path class="t" d="M281.892,837.816l5.713,15.32-25.589,9.542-5.713-15.32,15.651,2.889Z" transform="translate(-256.303 -837.816)"/><path class="u" d="M256.3,847.359l25.589-9.543-8.279,12a2.762,2.762,0,0,1-2.938,1.112Z" transform="translate(-256.303 -837.816)"/></g><g class="s" transform="translate(467.631 90.782)"><path class="t" d="M701.977,751.312l-8.028,30.082L643.7,767.985,651.73,737.9l21.11,21.746Z" transform="translate(-643.702 -737.903)"/><path class="u" d="M651.371,737.9l50.247,13.409-26.08,9.49a5.26,5.26,0,0,1-5.789-1.515Z" transform="translate(-643.343 -737.903)"/></g><g transform="translate(367.936 23.66)"><path class="v" d="M568.528,691.608l32.6,5.16-21.457-15.11-1.175,4.721-7.968,1.318Z" transform="translate(-547.526 -673.414)"/><path class="n" d="M602.069,696.816l-26.976-14.434-26.628-1.748Z" transform="translate(-548.465 -673.462)"/><path class="n" d="M579.175,682.026l21.457,15.11L584.2,673.782Z" transform="translate(-547.028 -673.782)"/></g><path class="l" d="M405.4,779.575s3.417-1.295,3.806-2.188,1.515-1.282,2.875-1.9,2.176-1.748,2.37-1.593a1.293,1.293,0,0,1-.311,1.516c-.543.583-2.847,4.663-3.716,5.128S405.4,779.575,405.4,779.575Z" transform="translate(-187.226 -645.437)"/><path class="h" d="M695.157,951.487H673.19c-1.177-1,.815-3.266,2.9-3.419a12.872,12.872,0,0,1,3.353.4c.3-4.015,2.028-22.064,8.535-21.338,7.315.811,0,7.948-2.069,12.173a100.526,100.526,0,0,0-3.886,9.735c.594.129,1.208.255,1.836.371.97-2.977,4.578-12.991,9.166-12.408,5.387.684,3.221,4.7-.6,7.082-2.8,1.752-6.241,4.244-7.875,5.448a23.394,23.394,0,0,0,4.3.343C692.609,949.782,694.445,950.891,695.157,951.487Z" transform="translate(-174.707 -638.265)"/><g transform="translate(58.046 292.574)"><path class="h" d="M274.546,951.767s-8.35-22.931-14.214-20.977S274.546,951.767,274.546,951.767Z" transform="translate(-252.112 -930.672)"/><path class="h" d="M271.476,951.307c-.711,0-14.036-13.827-14.923-10.207S271.476,951.307,271.476,951.307Z" transform="translate(-252.241 -930.212)"/><path class="h" d="M285.88,951s-5.51-5.053-12.487-3.737-9.957,2.756-14.339,1.76A6.488,6.488,0,0,0,252.432,951Z" transform="translate(-252.432 -929.906)"/></g></g></g></svg>