<svg xmlns="http://www.w3.org/2000/svg" viewBox="0 0 1061.4 909.6"><defs><style>.c{fill:#f9fbff}.d{fill:#b7b4d9}.e{fill:#3dab6f}.f{fill:#ebf0f9}.g{fill:#273756}.h{fill:#534c9a}.i{fill:#ffa833}.j{fill:#dbdff1}.k{fill:#eb6734}.l{fill:#fdd0a5}.m{fill:#65b881}.n{fill:#ffc49c}.p{fill:#9494c8}.q{fill:#f67723}.r{fill:#66b881}.s{fill:#46398e}.t{fill:#eb4438}.u{fill:#da4631}.y{fill:#f49d9f}.z{fill:#ffa834}.ac{fill:#162036}.ai{fill:#ffd768}.aj{fill:#dbd8fb}.am{fill:#3fac6f}.an{fill:#fefeff}.ao{fill:#fff}.bh{fill:#4cb076}.bi{fill:#2ea768}.bp{fill:#fca155}.cd{fill:#fca154}</style></defs><g><path d="M1061 871a317 317 0 01-33 10 338 338 0 01-35 7l-26 3h-54l-27-1-34-3-34-4-22-4-37-6-30-5-33-6-35-6-29-4-32-5-22-2-20-2h-8l-14-1-20-1h-51l-21 1-27 1-24 1-17 2-4-1-28 2h-11l-19 1-36 1h-48l-31-2-34-5a300 300 0 01-40-11 194 194 0 01-40-18 155 155 0 01-26-19 130 130 0 01-24-30 116 116 0 01-13-36 123 123 0 01-3-28 151 151 0 015-30 138 138 0 0111-31 129 129 0 0115-23 203 203 0 0118-19 257 257 0 0127-23 406 406 0 0147-28l32-17c16-8 31-16 46-26 10-7 19-14 28-23a121 121 0 0021-33 5 5 0 011 0l1 1a54 54 0 0010 14 83 83 0 0112 13 18 18 0 012 4c0 1 1 2-1 3h-7c-4 0-4 1-4 4v15a12 12 0 006 11c1 0 2 0 1 2a10 10 0 01-4 0h-43a7 7 0 00-4 1 6 6 0 00-2 7c1 2 2 3 5 3h63a11 11 0 014 0c2 1 1 2 1 3l-3 13-3 12-27 108-28 112c-2 6-1 6 5 6h2c3 0 4-1 5-4l1-5 30-118 27-112 4-12 1-3a11 11 0 014 0h183a13 13 0 014 0 2 2 0 011 0c0 2-1 2-2 3-17 10-32 22-48 34-12 9-20 20-25 35-6 18-13 36-17 55l-11 55a125 125 0 01-4 17c-1 2-1 4 1 6l-3 6a62 62 0 01-12 16 5 5 0 01-3 2c-18 2-37 5-54 12a35 35 0 00-9 4c-4 4-4 7 0 10 5 4 11 6 17 8 16 5 32 7 49 9l41 4 20 2 34 1a883 883 0 0080-1l35-2a671 671 0 0089-16 38 38 0 007-3c7-5 7-9 0-13l-15-6a217 217 0 00-27-6l-4-2-1-6-8-73-8-64-5-51a25 25 0 010-4 7 7 0 00-2-6l-4-18 3-7c2-2 4-1 5-1h96l1 3 3 13 17 67 22 89a24 24 0 011 6l1 24 2 4c2 9 0 16-9 20-15 2-29 5-43 11a48 48 0 00-11 5c-7 5-7 11 0 17a59 59 0 0018 8 591 591 0 00159 9 245 245 0 0042-9 65 65 0 0018-8c8-5 8-12 0-17-7-5-14-7-22-10a228 228 0 00-37-7l-3-1a27 27 0 010-16c2-2 2-4 2-7a748 748 0 013-48l2-28 1-19 2-23a277 277 0 001-35v-48l-1-32-2-28v-13l2-7c5-9 9-19 12-28l5-23-2-16-4-38a7 7 0 010-3v-9l-4-31c-2-9-4-19-9-27-6-11-15-17-26-19l-15-3a6 6 0 01-3-1 9 9 0 01-2-3 11 11 0 00-5-7 32 32 0 010-16l9-13a37 37 0 006-21 61 61 0 00-1-17c-2-6-5-10-12-12l-3-2c-1-7-6-9-11-10-7-2-14-2-21-2a143 143 0 00-15 2c-13 2-16 10-12 22l1 1-2 4a32 32 0 000 19l2 6a45 45 0 010 8 50 50 0 001 14c1 7 5 12 11 14a46 46 0 0012 2 5 5 0 012 1 2 2 0 010 2c-2 2-2 6-4 9a127 127 0 00-14 2 103 103 0 00-25 9c-6 3-11 8-12 15l-9 51-2 13a57 57 0 01-4 16l-2-1c-9-9-18-17-25-27a19 19 0 01-4-11v-7c0-7-3-12-8-17a19 19 0 01-2-3 4 4 0 00-4-2l-2-3-4-10c-1-2-2-3-4-2l-8 4c-3 0-3 1-3 4l5 12v7a22 22 0 008 15c7 6 12 14 15 23 5 12 9 24 16 36a179 179 0 0020 29 97 97 0 006 7c4 4 6 4 10 0l2-1h2a91 91 0 01-1 13h-2a26 26 0 00-3-3c-3-3-6-2-8 1l-3 15a82 82 0 001 11c-1 2-2 2-3 1a19 19 0 00-6-5c-4-1-7 0-8 4-2 4-1 7 1 11 2 5 6 9 9 13a75 75 0 018 11v2l-6 1c-3 0-4 1-4 4a113 113 0 000 16 12 12 0 007 10s2 0 1 2a7 7 0 01-3 0h-39a7 7 0 01-3 0c-2-1-1-3-1-4l4-26 2-16a8 8 0 010-2 5 5 0 00-2-6l2-13 2-11 1-5c0-1 0-2-2-2s-2 0-3 1v4l-2 7a2 2 0 01-3-1 8 8 0 010-5c0-2 1-5-3-6a13 13 0 010-4 4 4 0 00-1-3l-1-4-1-1-1 1c0 2 1 4-1 5l-2-1c-3-1-5 0-5 3l-1 2a4 4 0 01-1 0c-4-1-5 0-5 4v8l-1 3c-2 0-1-1-2-2l-2-12v-3c0-2 0-3-2-3s-1 2-1 3a4 4 0 010 2c-3 1-3 4-3 7l4 23a6 6 0 010 3c-2 3-1 6 0 9l6 41c0 1 1 3-1 4a5 5 0 01-2 0h-24a6 6 0 01-3 0v-2c8-6 9-16 10-25a222 222 0 002-38c-1-13-1-27-5-40-3-13-11-24-23-30l-18-7c-5-3-12-4-17-8-2-3-3-6-6-8l-2-2 1-15c0-3 2-6 4-9 4-13 8-26 7-39a35 35 0 00-3-14c-3-5-7-8-13-7-3 0-4-1-5-3-6-8-20-15-34-9a55 55 0 00-9 6 61 61 0 01-10 6l-7 2c-1-1-2-1-2 1-2 5-2 11 4 16l5 3a2 2 0 011 0v5a147 147 0 005 37 32 32 0 004 10 15 15 0 0018 5h4c1 2 0 4-1 6l-7 9-25 17c-1 1-1 2-3 1l-1-13-3-24a15 15 0 00-4-9 14 14 0 00-13-5H312a14 14 0 00-5 1c-5 2-8 6-7 12l7 62a7 7 0 010 2l-1 1a8 8 0 01-2-2 15 15 0 00-6-5 6 6 0 00-8 3c-3 3-3 8-4 12a40 40 0 001 14v3l-2-1c-2-3-4-5-8-6a1 1 0 010-1l2-6a258 258 0 007-32l4-31c1-13 2-25 5-38a245 245 0 0117-55 202 202 0 0121-37l14-17a188 188 0 0139-33 251 251 0 0126-14c11-5 23-10 35-13a437 437 0 0145-12l30-5c8-1 17-3 26-3l1 3v63q5 30 32 42a47 47 0 0019 3h88a51 51 0 0051-44v-16-1-68l1-3 14-1 25 1 36 4a257 257 0 0141 9 194 194 0 0130 14l14 7v3c-4 13-1 24 8 34a6 6 0 011 4v2c0 6-1 7 6 4a16 16 0 019 0c13 3 23 0 33-9 1-1 1-2 3-2l16 7a141 141 0 0035 11 92 92 0 0037-1l13-4z" fill="#eaedf5"/><path d="M1061 102a8 8 0 01-4 2l-2-2a90 90 0 016-13z" fill="#ecf0f9"/><path class="c" d="M548 181v-51-78c0-15 6-28 17-38a50 50 0 0128-14 74 74 0 019 0h88c11 0 22 4 31 12 10 8 16 18 18 31a38 38 0 011 7v131H548z"/><path class="d" d="M960 179l-9 8c-9 5-18 6-28 3a12 12 0 00-8 1c-6 2-7 2-6-5 0-3-1-5-3-7-9-11-11-23-6-36a36 36 0 0115-17 34 34 0 0139 3c9 7 14 17 14 28a33 33 0 01-7 20l-1 2z"/><path class="e" d="M295 481l-3-6a81 81 0 00-10-11 58 58 0 01-12-17l-2-9c0-6 2-10 9-11 4 0 7 3 9 7a5 5 0 013 2 71 71 0 019 29l1 12a14 14 0 01-1 4 1 1 0 01-2 0c0-3 0-6-2-10-3-10-8-18-14-27l-3-5 13 22c3 6 5 11 6 18a7 7 0 010 2 1 1 0 01-1 0z"/><path class="f" d="M0 677a139 139 0 015-25c4-15 13-29 22-41a37 37 0 016-6 4 4 0 015 0c2 2 1 3 1 5a126 126 0 01-9 14c-10 13-17 27-20 44l-2 10c-1 3-2 5-4 4-2 0-4-1-4-4v-1zM792 906l-20-3-27-5a40 40 0 01-11-3c-2 0-4-2-3-4 0-2 2-3 4-3l14 2 30 5 20 3c3 1 4 4 2 6a2 2 0 01-1 1l-8 1zM275 286c0-5 2-9 3-13 2-7 4-15 9-22a45 45 0 014-5 3 3 0 014 0 3 3 0 011 3c-2 9-6 16-9 24l-5 14c-1 4-2 5-4 4-3-1-3-3-3-5zM836 98a4 4 0 01-5 4l-19-3-10-1c-3-1-4-1-4-4 0-2 2-4 4-4a93 93 0 0125 3l6 1c2 1 3 2 3 4zM827 910a22 22 0 01-6-2c-2-1-4-4-3-6s4-4 6-3a23 23 0 016 2c2 1 3 3 2 5 0 3-2 4-5 4zM275 314a22 22 0 01-2 10 3 3 0 01-3 2l-3-2c-1-5-1-9 1-13a4 4 0 014-3c2 1 3 2 3 4a11 11 0 010 2zM49 598c-3 0-5-3-4-5 1-4 4-5 7-6a3 3 0 013 1c1 1 2 2 1 4l-7 6z"/><path class="g" d="M307 409l-4-29-4-37a11 11 0 0111-13h190c7 2 11 6 12 14l4 33 4 33 5 48 1 7c1 7-3 12-10 14h-74a8 8 0 00-3 1c-2 0-2-1-2-2l-9-56c-1-5-1-6-6-6h-33c-4 0-4 1-4 5l9 54v4a6 6 0 01-4 0h-61c-9 0-16-5-17-15v-4l-2-18-4-30 1-3zM898 451a1057 1057 0 010 200l-4 57-1 21c0 3-2 3-3 4-1 2-4 3-6 3a43 43 0 01-20-3 5 5 0 01-2-4c-4-20-9-40-11-61l-4-38a477 477 0 00-9-55l-7-41a17 17 0 010-6c-2 20-7 39-8 60a735 735 0 00-5 65l-4 39-4 34c-1 2-1 5-3 7-3 2-7 2-10 2l-2-4-17-68-10-42a35 35 0 01-1-6l-2-36-1-42-1-8a6 6 0 011-4h45c4 0 5-1 5-5s-1-5-5-5l-41-1a10 10 0 01-4 0c-1-1 0-2 1-3 4-3 5-7 5-12l-1-13a5 5 0 00-1-4l-6-1a2 2 0 01-1-2l5-4a78 78 0 0010-9c4-3 5-7 3-12 0-1-1-1 1-2 10 2 21 1 31 1a20 20 0 013 0 12 12 0 004 1h20c2 0 5-2 7 0v-1a2 2 0 012-1l24-1a6 6 0 012 0 2 2 0 011 3 64 64 0 01-4 19c-3 0-4 1-2 4 2 6 9 9 15 6l2-2-2-1v-3l13-23 2-3z"/><path class="h" d="M815 454h-24a58 58 0 01-12-1 1 1 0 01-1-1c-3-2-6-3-10-2l-4-4-1-11a57 57 0 00-2-12 3 3 0 010-2v-19l1-29v-19-10l4-37-5 36-2 1-11-5a3 3 0 01-1-1 4 4 0 010-3c3-11 3-22 6-34l5-27c2-7 6-12 13-16a105 105 0 0132-10 26 26 0 017-1l1 2a17 17 0 005 10c1 1 2 1 3-1a67 67 0 013-7v-4a8 8 0 016 1v1c-2 1-2 1-1 2l2 8c1 2 1 2 3 2 8-4 16-8 22-15 3 2 6 2 9 2 7 1 13 2 19 5 9 5 15 12 19 21 5 11 7 22 9 34l3 26-1 3c-2 2-5 2-7 3-8 2-15 5-23 6l-8 1a2 2 0 01-1-1 42 42 0 00-1-10l-5-22a16 16 0 00-2-5 11 11 0 001 5c1 11 4 21 6 32a3 3 0 001 1c1 11 4 22 7 33l7 18a5 5 0 011 4c-6 14-10 28-13 43-1 2 0 5-2 7-9-1-18 1-27 1a3 3 0 00-1 0l-11 1a181 181 0 01-19 0z"/><path class="g" d="M628 533a98 98 0 013 18c1 4 0 8-1 12a51 51 0 01-13 22l-4 4a221 221 0 01-24 19 58 58 0 01-6 4c-2 1-3 2-2 4a143 143 0 016 16c3 10 4 20 4 30l2 27 1 13a112 112 0 001 15v9a47 47 0 010 7 3 3 0 01-1 3c-7 3-14 6-22 4-2-1-2-3-3-5l-4-14-1-6-14-44-14-38a176 176 0 01-7-26 17 17 0 012-11 57 57 0 013-7l8-13 7-11-49 35-18 14c-1 1-3 3-3 5a134 134 0 01-10 39l-31 74c-1 3-3 5-7 5-6 0-13-1-19-4l-3-3c-2-1-2-3-1-5 4-12 6-23 8-35 5-33 13-65 26-97 5-12 12-23 23-31 16-12 31-24 47-34l4-2h29c5 0 9 2 14 3l37 7a136 136 0 0020 1 16 16 0 0010-3c0-1 1-2 2-1z"/><path class="i" d="M594 363c8 5 17 8 26 11 20 7 30 21 34 41a250 250 0 013 58l-1 17c-2 9-4 18-11 24l-4 1h-75a7 7 0 01-3-1l-1-2a4 4 0 00-2-6 12 12 0 00-4 0h-34a1 1 0 01-1 0l-1-9v-15a6 6 0 010-3l3-2a11 11 0 007-12l-9-78v-5l25-17 2-1 10 6a6 6 0 012 2 14 14 0 003 3l1 4-7 38-4 38-1 22v18c0 4 0 4 3 3a164 164 0 0118-6c3-1 3-1 3-5a103 103 0 000-13l-1-23-4-31-4-38a10 10 0 013-9 6 6 0 013-1l17-7 4-2z"/><path class="j" d="M656 755l23 5c8 2 17 4 24 10 5 3 5 8 0 11-6 5-13 7-20 9a293 293 0 01-66 10l-27 3h-10l-18 1h-20l-48 1-19-1-23-1-22-1-34-4a425 425 0 01-64-14 32 32 0 01-4-3c-4-3-4-8 0-11a36 36 0 018-5 175 175 0 0135-9l18-3a32 32 0 014 0l-1 2-10 10a17 17 0 00-3 3 7 7 0 001 9c3 4 12 7 19 4a36 36 0 009-7 47 47 0 0112-8c6-3 10-8 11-15 0-1 0-2 2-3l11-1 29-1a5 5 0 013 0v3l-2 24a30 30 0 000 3v1l1-1a12 12 0 001-2l3-24 1-4a88 88 0 0114-1h44l33 1v3a53 53 0 01-9 13l-7 8a20 20 0 00-5 8c-1 3 0 5 3 6a33 33 0 0018 0c3 0 5-3 7-5a83 83 0 006-7 23 23 0 017-5c6-4 9-9 8-16l1-2h10a589 589 0 0141 3l1 2 3 20 1 3c2 0 1-2 1-3l-2-15 1-4z"/><path class="c" d="M740 181c0 8 0 16-2 24-3 10-8 18-16 25a54 54 0 01-24 11 37 37 0 01-8 1h-92c-12 0-22-5-31-12-7-6-12-13-16-22a46 46 0 01-3-15v-12a6 6 0 013 0h186a6 6 0 013 0z"/><path class="j" d="M891 749l10 2a205 205 0 0133 7 68 68 0 0119 9c7 5 7 12 0 17s-16 8-24 10a230 230 0 01-34 7l-23 2-21 1-31 1-30-2a310 310 0 01-47-8c-10-2-19-5-28-11a16 16 0 01-4-4c-4-5-1-10 4-13 7-6 16-8 24-11l23-5a69 69 0 017 0l-2 2-23 19c-5 4-4 12 4 14a16 16 0 0010-1l26-10 8-2 2 3a4 4 0 003 3 20 20 0 008 0c1 0 2-1 1-3l-1-6a6 6 0 010-3l2-4a20 20 0 003-14l1-3a81 81 0 0110-1h26l14 1c2 1 2 2 2 4a30 30 0 002 14 17 17 0 003 5 49 49 0 019 13 52 52 0 005 8c2 3 6 5 10 5 5 0 9-4 11-9 1-6-1-11-3-16-3-6-7-11-9-18v-3z"/><path class="k" d="M562 513l3 1h110a4 4 0 013-1h18a4 4 0 013 1h46l4-1h11a21 21 0 013 0 2 2 0 011 1h45c5 0 8 4 6 9-1 2-3 3-5 3h-50l-15 1-14-1h-98c-1 0-2-1-3 1l-11-1h-68a7 7 0 00-2 1l-3-1H241c-3 0-5-2-5-4-1-4 0-7 3-8a4 4 0 012 0l98-1h14c34 2 68 1 102 1h103a4 4 0 012 1v-1H363h-1a4 4 0 014-1h196z"/><path class="e" d="M152 595a16 16 0 01-1-9c1-3 4-5 8-6 3 0 4-1 3-5l-4-10c-2-3-3-5-3-8 0-4 3-7 7-7 5 1 6-1 7-5a19 19 0 013-8c4-6 11-6 15 0a55 55 0 013 5c2 4 5 5 9 4 5-1 8 1 8 6a13 13 0 01-2 6 26 26 0 00-3 7v4c1 1 2 0 4-1a7 7 0 001 0c2-2 7-2 9 2a17 17 0 013 3c4 10 3 19-2 29-2 3-1 7-2 11v2a51 51 0 007-7 69 69 0 009-12 11 11 0 011-2 1 1 0 011 0 1 1 0 011 1 7 7 0 01-1 2 63 63 0 01-17 22c-2 1-3 2-2 3 5 7 4 13 0 21l5-4 5-5h3l-1 2a76 76 0 01-10 9l-7 4c-3 1-3 4-4 7l-7 18a2 2 0 01-1 1 2 2 0 01-1 0 1 1 0 010-1c-1-2 0-4 1-5l5-14c-5 6-10 12-12 19a2 2 0 01-2 0 3 3 0 01-2 0l-1-5a163 163 0 001-21c0-4 3-7 5-9a31 31 0 0114-7 31 31 0 00-16 9l-2 1-1-3v-24c-1-9 4-16 8-22a46 46 0 0113-11 49 49 0 00-18 19 17 17 0 01-1 1l-1 1-1-1-2-22-1-7a11 11 0 011-7c2-3 4-7 8-10a23 23 0 00-7 8 7 7 0 01-1 2c-1 1-1 1-2-1v-5a95 95 0 01-1-11 187 187 0 002 20l1 9v2l-2-1a65 65 0 00-8-12l-6-6c7 6 12 13 16 21a24 24 0 011 8l1 14v18l-2-1a47 47 0 00-2-5l-20-26a8 8 0 010-1l16 21a69 69 0 018 13 9 9 0 010 4v20c0 2 1 3-1 4l-2-2c-2 0-2-2-3-3-1 1 0 3-2 2a5 5 0 011-5c2-1 2 1 3 2 0-7-2-13-6-18l-3-3a7 7 0 01-3-2l-3-2a7 7 0 01-3-4c-2-7-5-14-11-19l-1-2z"/><path class="l" d="M874 347a78 78 0 0018-4c6-2 13-3 19-6h1l4 36 2 19a187 187 0 01-18 55 9 9 0 00-2 4l-3 5-12 24-2 1a24 24 0 01-11-5l-1-3c2-7 4-14 4-21 2-18 7-34 14-50a4 4 0 000-4 74 74 0 01-7-18c2 0 1-2 1-3l-4-12a130 130 0 01-3-18z"/><path class="d" d="M491 245c0 8-4 16-10 22a6 6 0 00-1 5v6c0 1-1 2-3 1a10 10 0 01-1 0c-5-3-11-2-17-1-8 2-15 0-22-4-12-8-18-20-16-35a32 32 0 0117-25c14-8 27-7 39 2 9 7 14 17 14 29z"/><path class="k" d="M805 767l2 9c1 3 0 4-2 4h-8a4 4 0 01-4-3 11 11 0 00-1-4l-1-3-9-36-7-27a44 44 0 00-1-5l-8-33-31-127a9 9 0 010-1h3l11 1 1 2 16 65 1 6 29 118 1 2a5 5 0 011 2l7 27v3zM320 541l-9 36-49 198c-1 4-2 5-6 5h-5c-4 0-4-1-3-5l5-23 53-210a10 10 0 010-1h14z"/><path class="l" d="M829 248h-7a1 1 0 01-1-1 5 5 0 011-3 55 55 0 0114-17c-7 6-14 9-22 10a40 40 0 01-15-3c-8-3-11-9-12-17a92 92 0 011-19l1-14a26 26 0 013-7l2-2 5 1a24 24 0 0013 0 41 41 0 0110-1 33 33 0 018 1 4 4 0 013 4 32 32 0 010 6 13 13 0 002 7c1 2 2 2 4 0 2-3 5-5 7-4 3 2 5 5 4 9a9 9 0 010 2c-3 6-3 12-3 19a7 7 0 010 2 43 43 0 001 16c-6 4-11 9-17 11h-2zM762 373c1 11 0 22-1 33l-4 4c-3 2-5 2-8-1a151 151 0 01-15-17c-12-15-19-33-26-51l-6-14a36 36 0 00-10-12c-7-6-10-14-9-23l-1-1a3 3 0 011-1 3 3 0 012-2c1 0 1 2 3 2l2 4 1 2c2 3 1 6 0 10 0 3 1 4 4 3a52 52 0 008-4 2 2 0 001-3 9 9 0 00-1-3l-4-6a21 21 0 01-1-3 9 9 0 010-3l1-1c2-1 3-1 4 1a68 68 0 005 6c4 5 6 11 6 17v7c0 7 5 10 8 15l21 21v1c6 7 11 14 15 22a4 4 0 000-3 61 61 0 00-6-11c-5-5-6-12-5-19l1-4a40 40 0 0012 4 1 1 0 012 0v22a26 26 0 000 8z"/><path class="g" d="M525 292c-11-3-13-7-11-22 4 2 8 1 11-1l11-7c8-6 18-9 29-5 5 2 10 6 13 12h2c9-2 14 3 16 10 3 7 3 14 3 21a104 104 0 01-9 33l-3 6c-1 1-1 0-2-1-1-3-2-7-1-11a22 22 0 001-8 9 9 0 000-3c-1-2-3-5-6-5-2-1-4 1-6 3a20 20 0 00-2 5 13 13 0 01-3 4c-1 1-2 0-2-1a8 8 0 010-3v-12c0-4-2-5-6-6a4 4 0 01-3-3c-2-7-6-9-13-8a64 64 0 00-7 2 30 30 0 01-10 1 4 4 0 01-2-1z"/><path class="l" d="M525 292c5 1 10-1 15-2a25 25 0 017-1 11 11 0 0111 9l2 2c5 0 6 2 6 7v13l1 3a18 18 0 003-4 18 18 0 014-7c3-3 7-3 10 1a12 12 0 012 9 19 19 0 01-1 4c-2 4-1 8 1 12l1 1v16l-5 1a113 113 0 00-14 5h-3c0-2-3-2-5-4a7 7 0 011-4l9-17c-4 6-9 10-15 13l-6 2c-8 1-13-3-17-10-3-5-4-12-5-18a156 156 0 01-2-31z"/><path class="g" d="M847 221v-16l2-7a7 7 0 000-3c0-3-2-5-4-5s-5 1-6 4c-1 2-3 2-4 0-2-2-2-4-2-7l-1-7c0-2-1-3-3-3-5-2-11-2-17 0a23 23 0 01-18-2c-3-1-5-3-7-6-6-9-2-20 9-23 13-3 25-4 38-1 6 1 12 4 13 11l2 1c7 2 12 7 13 14 2 10 2 21-2 31a41 41 0 01-6 10l-7 9z"/><path class="k" d="M186 674h2a31 31 0 011 6v26l1 15-1 26-1 10-2 24a4 4 0 01-1 2c-3 1-11 0-13-2a38 38 0 00-1-7 6 6 0 011-4 3 3 0 000-4 3 3 0 01-2-3l-2-31v-15c-1-2-1-3 1-4v-3c-2-1-2-2-2-3l-1-20 2 25v21l3 33 1 12a5 5 0 000 2c-1 2-1 1-2 0a7 7 0 01-3-3 23 23 0 01-3-10l-4-24-3-34-1-26c0-5 0-6 5-7l6-1 2-1h5a28 28 0 005-1 38 38 0 015 0 3 3 0 012 1z"/><path class="m" d="M174 674a16 16 0 01-5 1l-1-4a83 83 0 00-3-15c-2-7-1-14 2-21l1-3a26 26 0 00-4 11 4 4 0 010 2h-2a18 18 0 01-1-4 175 175 0 00-16-35 183 183 0 0116 37c1 2 2 3 0 4l-2-2c-4-6-10-9-16-13 8 5 15 10 19 18 3 6 4 13 5 19 1 2 2 4 1 6l-7 1c-3-8-7-15-12-22l-14-15c-2-2-4-4-4-7a7 7 0 014-7c3-2 4-4 3-8-2-4-4-9-4-13a16 16 0 010-3c0-4 2-8 6-9 4-2 7 0 10 3l1 1 1-1 1 2a43 43 0 017 14l3 9a4 4 0 004 1l3 1 3 2 3 4a32 32 0 013 11 19 19 0 000 3 1 1 0 010 1 14 14 0 000 5 3 3 0 010 3c0 7-2 14-4 21a4 4 0 01-1 2zM218 574l-1-2c-3-5-5-6-10-4 0-4 1-7 3-11a19 19 0 011-2c4-4 8-4 11 1 3 6 4 12 3 19a35 35 0 001 8c0 2 1 3 4 1l4-3c3-3 7-2 8 2a17 17 0 011 9c-2 8-5 15-11 22a17 17 0 00-3 7c-1 2 0 3 2 3 3 1 4 3 4 5 1 8-2 14-7 20l-8 8a39 39 0 00-13 19c-2 1-8 0-9-2l7-18a8 8 0 011-2l10-10 9-8c1-1 2-1 1-2l-2 1-5 5c-2-1-1-2-1-4 0-3 0-6-2-10a8 8 0 00-3-3 4 4 0 012-4 62 62 0 0018-23 17 17 0 000-1v-2l-8 13a52 52 0 01-11 11v-3c3-4 6-7 7-12 3-10 3-19-3-28z"/><path class="n" d="M891 749c1 8 6 14 9 21 3 5 4 10 3 16-1 7-8 11-15 9-5-2-8-6-10-10-3-6-6-11-11-16-3-4-5-9-5-15v-7a32 32 0 012-14 53 53 0 0016 2 22 22 0 0010-2v13a24 24 0 001 3zM432 749c0 9-5 14-13 18a35 35 0 00-10 7 43 43 0 01-10 7c-7 4-16 1-20-4a8 8 0 010-10l7-8 7-6c7-6 13-14 16-23 7 5 15 6 23 6a3 3 0 010 2 68 68 0 001 9 3 3 0 01-1 2z"/><path class="j" d="M172 781c4 2 8 2 13 2a3 3 0 011-1 32 32 0 005 0 8 8 0 011-1 10 10 0 004 0 6 6 0 011 0 9 9 0 006-5 14 14 0 001-2c1-2 0-5 2-6 3 2 7 2 11 3l8 4c5 4 5 8 1 11-6 4-13 6-19 7a132 132 0 01-32 2c-10-1-20-2-30-6a31 31 0 01-7-3c-4-3-4-7 0-10a27 27 0 017-4 73 73 0 0116-4 4 4 0 003-1l2 7c1 3 3 6 6 7z"/><path class="d" d="M656 755l1 17 1 5-1 1c-1 1-2 0-2-1l-1-6-3-19-1-4-3-22c-1-5-1-5-5-5h-43c-3 0-4 1-4 3a2 2 0 010 2l-1-9c1-2 3-2 5-2h43c3 0 4 0 3-3l-13-100-2-20c-1-2-2-3-4-3h-10c-1 0-2 1-3-1l4-4c9-9 14-20 14-33 2 1 3 2 2 5l3 25 2 15 2 21 2 16 2 21 2 16 2 21 2 20 3 21 2 20a24 24 0 001 3zM699 514h-24l-3-20-4-22v-4a4 4 0 013-1h33a3 3 0 012 1l-3 19-4 27z"/><path class="k" d="M203 776a8 8 0 01-6 5l2-19 2-29c1-2 0-6 2-8a1 1 0 000-1c-2-3-1-6-1-9l1-25c0-3 1-6-1-8v-2a433 433 0 01-2 72l-2 24-1 5a9 9 0 01-5 1c-2-3 0-5 0-8l2-18 2-26v-13-39a8 8 0 011-4h1l9 2c9 2 8 1 7 10-1 22-2 45-5 67l-3 15-2 6v-2l4-36 1-34v-2 1l-1 31a399 399 0 01-4 40 20 20 0 00-1 4z"/><path class="n" d="M782 733l7 29c1 3 3 7 3 11l-27 10c-4 2-9 4-14 4-4 0-7-2-9-5a7 7 0 010-9 35 35 0 015-5l22-17c4-3 7-5 8-10a39 39 0 001-9c2-1 3 1 4 1z"/><path class="m" d="M307 409l3 33-5 18a76 76 0 00-3 16l-1 5a1 1 0 01-1 0 2 2 0 01-1-2 375 375 0 001-45v26l-1 21a1 1 0 01-1 0v-7a72 72 0 00-9-36l-3-4c1-4-1-7-1-11 0-6 1-12 3-17 3-6 7-7 12-4l7 7z"/><path d="M761 514h-16a42 42 0 01-4-3c-4-3-5-7-5-11v-14c0-4 2-5 5-5h6a2 2 0 012 0l1-1h2a13 13 0 013 1l13 1c2 0 2 1 2 3v17a12 12 0 01-5 9l-1 3h-1-2z" fill="#b7b3d9"/><path class="p" d="M300 481h1l4-1a53 53 0 017 1c3 0 4 1 4 5v16a12 12 0 01-10 12h-15l-6-4a12 12 0 01-3-8v-17c0-3 1-4 4-4h12a1 1 0 012 0z"/><path class="e" d="M755 481h-3c-1-3 1-6 1-10v-2l1-31v-11l-2 47c-2-1-1-3-1-4a45 45 0 00-3-17 17 17 0 00-2-3 8 8 0 01-1-5 68 68 0 010-21 20 20 0 011-3c1-3 2-6 6-7 4 0 6 3 8 5l1 2c3 8 4 17 4 25l-1 6a101 101 0 01-3 16l9-10a10 10 0 012-2h2v2c-4 2-6 6-9 9-4 4-7 9-9 14a1 1 0 01-1 0z"/><path class="h" d="M521 382l4 33 4 34 1 15c1 8-1 12-10 15a3 3 0 01-1 0c-2 0-3 1-4-1 7-2 10-5 10-11a88 88 0 00-1-10l-3-25-3-30-3-25-3-24-1-9c-1-7-4-11-11-13a3 3 0 010-1c9 0 16 6 17 16l4 36z"/><path class="q" d="M548 526h80c1 0 2-1 2 1l-2 6-2 1c-3 2-6 3-10 3-13 1-26-1-39-4l-27-6-2-1z"/><path class="r" d="M745 445l4 9a52 52 0 013 19l2-47v44a53 53 0 01-2 11h-2l-1-3-12-30s-1 1 0 0v1c5 9 9 19 12 30v2h-2c-2-5-5-9-9-13-3-4-7-8-9-13-1-3-2-7-1-10 1-5 5-7 10-5a16 16 0 016 5h1z"/><path class="s" d="M829 248a47 47 0 0014-8 10 10 0 015-3c2 0 3 2 3 3l3 6c0 2-2 3-3 5-6 5-13 8-20 11l-2-1-3-11c-1 0-1-1 1-1a2 2 0 002-1z"/><path class="p" d="M706 468h-38c-1-5-2-6 1-8l4-1a12 12 0 011 0h21a72 72 0 017 0 2 2 0 012 1c2 1 2 2 2 4v4z"/><path class="q" d="M568 360l11-4a15 15 0 018-1c4 1 5 5 7 8l-1 2-20 7a10 10 0 00-2 1l-1-1-2-11a1 1 0 010-1z"/><path class="t" d="M689 460h-7l-1-3v-27l1-3v-2c0-2 0-4 2-4 3-1 5-1 6 2 2 2 1 5 1 7l-1 21-1 8c-6 1-6 1-6-5v-26 28c0 3 0 3 3 3h2l1 1z"/><path class="u" d="M749 542c-3 2-6 0-9 0a49 49 0 01-5-1l-4-15h14a2 2 0 011 1l3 13a2 2 0 010 2z"/><path d="M682 427v33h-7v-4l-1-12a3 3 0 011-2v-2-9c0-2 0-4 2-5a4 4 0 015 1z" fill="#dad5e8"/><path class="u" d="M320 541a10 10 0 01-2 0l-9 1a3 3 0 01-3-1l4-15h14l-4 15z"/><path class="q" d="M561 357l2 1a3 3 0 012 3v3l-3 6c0 1-1 2-2 1l-10-5-2-2 2-4a8 8 0 015-4 4 4 0 016 1z"/><path class="s" d="M822 247a1 1 0 000 1 2 2 0 011 3 97 97 0 00-4 9h-2c-4-3-7-7-7-13 1-3 1-6 4-8a2 2 0 012 1l6 7z"/><path d="M291 514h16a17 17 0 015-1h46a12 12 0 014 0 2 2 0 010 1h196a6 6 0 013 1l-322-1h52z" fill="#f36f38"/><path d="M703 460h-8v-7-10c1-2 1-3 4-3a3 3 0 002 0c2 0 3 0 3 3l-1 16a2 2 0 010 1z" fill="#dad6eb"/><path class="q" d="M675 442v15l-1 3h-1l-1-2-4-27a10 10 0 010-4l-1-3c0-2 0-3 2-3s2 1 2 2l3 18a12 12 0 001 1z"/><path class="y" d="M822 247a23 23 0 01-6-6 8 8 0 00-2-2v-2l4-1a38 38 0 0017-9h1c-6 6-11 12-14 20z"/><path class="z" d="M668 427l4 27 1 6h-4l-4-27c-1-5-1-5 3-6z"/><path d="M696 443l-1 17h-3c-2-3-1-6-1-9l1-26c0-1 0-3 2-3 1 0 2 0 2 2v13a26 26 0 010 6z" fill="#ed5b42"/><path d="M694 422l-1 3-1 35h-3a1 1 0 000-1h-1 1l1-36 1-5 1-2 2 2v4z" fill="#1f225f"/><path class="y" d="M748 339v16l4 6 7 12a10 10 0 010 1v3c-1 1-2-1-2-2-3-7-8-13-13-19a3 3 0 01-1-2l4-16 1 1zM561 357a11 11 0 00-6-1v-7c1-2 4-3 6-4a53 53 0 0010-10 197 197 0 00-10 22z"/><path class="ac" d="M790 184l-1 12-1 2a35 35 0 01-3-23 6 6 0 011-3c3 4 5 7 4 12z"/><path class="d" d="M740 181H548h192z"/><path class="z" d="M703 460v-17c1-2 0-3-2-3l1-6c2-1 4-1 6 1l-1 9-3 16h-1z"/><path d="M782 733l-4-1a7 7 0 01-3-6 163 163 0 00-1-21v-3c3 7 4 15 6 22l2 9z" fill="#21225f"/><path d="M699 286l-1 1-1-2-4-9c-1-3-2-3-4-2l-6 3c-4 1-4 1-3 5l3 5a5 5 0 010 3l-1 1-5-13c0-2 0-3 2-4l10-4c3-1 4 0 5 2l5 14z" fill="#544d9b"/><path class="ac" d="M790 184c1-5-3-8-4-12l1-3 7 6-4 9z"/><path d="M708 435a6 6 0 00-6-1l1-3c0-3 1-4 4-3 2 0 2 1 2 3l-1 4z" fill="#232460"/><path d="M696 443v-10-3c3-1 3-1 3 2v8a3 3 0 00-3 3z" fill="#f1715b"/><path d="M516 526h29a3 3 0 012 0h-31z" fill="#20225f"/><path class="g" d="M621 100a24 24 0 01-10-6c-5-5-6-12-4-19a59 59 0 015-10 50 50 0 006-20c1-8 5-13 12-17 2-1 5-2 7 0h2c5-3 9-3 14 0a28 28 0 0116 19c2 9 6 17 10 25a38 38 0 013 8c1 7 0 12-6 17-3 1-5 3-8 3v-3a44 44 0 00-2-16l-7-25-1-3c-3-6-7-8-12-4h-6c-3-2-6-1-8 3a100 100 0 00-6 17l-3 12a33 33 0 00-2 9v10z"/><path class="m" d="M656 102c0 6-1 5 4 5h10c7-1 13 5 13 14 1 3 0 6-3 8a57 57 0 01-9 5l-1-7 1 7a52 52 0 01-20 6c-11 1-23 0-34-6v-5 5a61 61 0 01-8-5c-3-2-4-4-4-7 0-7 3-13 9-15h16c2 0 3 0 3-3a3 3 0 010-1h1c0 6 5 6 8 6 4 1 7 0 11-2a3 3 0 001-2l1-3z"/><path class="ai" d="M614 166c1-2 0-4-2-6s-1-4 1-4a7 7 0 006-4c1-2 2-2 3 0a7 7 0 006 4c2 0 3 2 1 4s-2 3-2 6c1 2-1 3-3 2a7 7 0 00-7 0c-2 1-3 0-3-2zM590 166c1-3 0-4-2-6-1-2-1-4 1-4a7 7 0 006-4c1-2 3-2 4 0a7 7 0 005 4c3 0 3 2 1 4a7 7 0 00-2 6c1 2-1 3-3 2a7 7 0 00-7 0c-2 1-3 0-3-2zM638 166c1-3-1-4-2-6-2-2-1-4 1-4a6 6 0 005-4c1-2 3-2 4 0a6 6 0 005 4c3 0 4 2 2 4a6 6 0 00-2 6c0 2-1 4-4 2h-6c-2 1-3 0-3-2zM661 166c1-3 0-4-2-6s-1-4 1-4a7 7 0 005-4c2-2 3-2 5 0a7 7 0 005 4c2 0 3 2 1 4a6 6 0 00-2 6c1 2-1 3-3 2a7 7 0 00-7 0c-2 1-3 0-3-2z"/><path class="aj" d="M692 167l-4 1a2 2 0 01-3-2c1-2 0-4-1-6-3-2-2-3 1-4a5 5 0 004-3c2-3 4-3 5 0a5 5 0 004 3c4 0 4 2 2 5-2 1-2 2-2 4a3 3 0 010 3h-4a5 5 0 00-2-1z"/><path class="ac" d="M667 81c0 4 2 9 1 13v6c-4 2-8 2-12 2h-1a2 2 0 010-2 8 8 0 010-3 3 3 0 011-1c4-4 7-8 9-13l2-2zM621 100a39 39 0 010-16 26 26 0 011-3 1 1 0 011 1c2 5 5 9 9 12a6 6 0 012 3 10 10 0 010 4 1 1 0 01-1 1 32 32 0 01-12-2z"/><path d="M633 102v-1h3a18 18 0 0016 0h3v1a2 2 0 000 2c1 3-1 4-4 5a21 21 0 01-16-1c-3-1-1-3-2-5v-1z" fill="#3eab6e"/><path d="M671 134l-1-9c2 3 1 6 1 9z" fill="#40ac6f"/><path class="am" d="M617 134v-8h1c0 3 1 5-1 8z"/><path class="an" d="M932 162a5 5 0 01-4-5 5 5 0 015-5c2 0 4 3 4 6a5 5 0 01-5 4zM948 162a5 5 0 01-4-5c0-2 2-5 5-5 2 1 5 3 4 5a5 5 0 01-5 5z"/><path class="ao" d="M920 158a5 5 0 11-9-1 5 5 0 119 1z"/><path d="M296 481c-1-8-4-16-8-23-3-7-8-13-12-19v-1l1 1c6 9 12 18 16 28 2 4 4 9 3 14z" fill="#67b981"/><path class="ac" d="M394 479l-4-21-4-28-2-11c0-2 1-3 3-3h37c3 0 4 1 5 3l6 39 3 17v5l1 3 2 12 2 9c0 1 1 2-1 3a9 9 0 01-3 0h-37l-4-1-2-6-3-18 1-3z"/><path class="f" d="M394 479l4 27c-1 2-2 1-3 1h-29c-5 0-5 1-4 6a3 3 0 010 1h-55l6-5a14 14 0 002-8v-16c0-3 0-4-3-4h-7a3 3 0 010-3 54 54 0 016-17l1-2 1 6a15 15 0 0016 14h65z"/><path class="i" d="M442 504a61 61 0 01-1-9l2-1c12-5 25-9 37-12a21 21 0 007-3l28-1 4 1v9c0 2-2 4-3 5l-8 11c-1 1-1 2-3 2h-59c-2 0-3 0-4-2z"/><path class="f" d="M487 479a9 9 0 01-6 3l-39 13h-1l-3-15 2-1h47z"/><path d="M312 459a49 49 0 00-7 22h-4a89 89 0 015-25l3-12a4 4 0 011-2l2 17z" fill="#3eab6f"/><path class="f" d="M864 733l-2 14c-17-1-34-2-52 0v-1c-2-4-4-8-4-13a1197 1197 0 0012-84l3-46c1-19 3-37 6-56l3-22 1 1c0 15 4 29 7 43a545 545 0 0111 72 519 519 0 0011 73l3 15a5 5 0 001 4z"/><path d="M749 542l-4-16h19l3 78v11l-7-28-11-44a3 3 0 000-1z" fill="#ebeff9"/><path class="r" d="M756 481a19 19 0 015-10l13-14v-1c-6 3-10 9-15 14l5-18a5 5 0 014-3c5-1 8 0 11 4 3 5 2 9-1 13l-10 8-6 4c-2 2-3 4-6 3z"/><path class="y" d="M806 733a93 93 0 004 14c2 7 1 14-5 20l-8-30v-2l9-2z"/><path class="ac" d="M869 473c3 5 8 6 12 7h2c1 0 2-1 3 1l-2 3c-8 3-16-1-18-9a2 2 0 011-3c1-1 2 0 2 1z"/><path d="M815 454l30-1h3a51 51 0 01-9 1h-23a2 2 0 01-1 0z" fill="#1c1f56"/><path d="M756 481c1 1 2 0 4-1a5 5 0 012-2v3h6a1 1 0 000 1h-3l-10-1a1 1 0 011 0z" fill="#c3c5e0"/><ellipse cx=".2" cy="13" rx=".2" ry="13" transform="translate(771 480)" fill="#141c50"/><path d="M768 481h-6 6z" fill="#131a4b"/><path class="s" d="M872 347l-1-4c-2-9-5-19-6-29l-1-5 1-2 1 2c2 4 2 9 3 13l5 22a2 2 0 01-1 2 1 1 0 01-1 1z"/><path class="y" d="M872 347l1-1 1 1c2 3 2 6 2 10l5 20a15 15 0 011 2c0 3-1 3-2 2-4-12-7-23-8-34z"/><path d="M762 343h-2l1-8 3-21 2-9h1a74 74 0 010 8l-4 25a18 18 0 01-1 5z" fill="#46388d"/><path d="M768 449a20 20 0 00-4 3 19 19 0 011-6l3 3z" fill="#20265e"/><path d="M762 373a1 1 0 010-1v-16a1 1 0 010-2v19z" fill="#f8a797"/><path class="f" d="M535 589c-6 8-6 17-3 26 3 14 8 27 13 40l16 48a118 118 0 013 12c1 1 0 2-1 2h-75c-5 0-5 0-4-6l13-106 3-3 21-13a5 5 0 013-1 78 78 0 009 0c1 0 2-1 2 1zM613 588h15c2 0 2 1 2 3l4 26 3 22 3 26 3 21 3 27c1 3 0 3-3 3h-45a15 15 0 00-4 1 60 60 0 01-1-10l-3-57a110 110 0 00-10-35c-1-1-1-2 1-3 11-6 20-14 29-22l3-2zM432 749a100 100 0 010-13c2 1 4-1 5-3l33-80a110 110 0 008-33 4 4 0 011-2l6-5a53 53 0 014-3c1-1 2-2 3-1l-2 21-7 58-3 33-3 21-1 4-25 2-19 1zM571 747l-28-1h-63v-2l2-20c1-4 1-4 5-4h76a3 3 0 013 1l5 16 1 2 1 2c0 2 1 4-2 6zM595 726v-5h48c3 0 4 0 5 3 0 9 2 18 3 26a11 11 0 010 2c0 2-1 2-3 2l-25-3-24-2a1 1 0 01-1-1 118 118 0 00-4-11 1 1 0 010-1l1-2v-8z"/><path class="n" d="M594 736a105 105 0 015 13 16 16 0 01-3 14 11 11 0 01-3 3c-6 3-10 8-14 13s-8 7-14 7a79 79 0 01-10 0c-6-1-8-4-5-10a26 26 0 017-9 61 61 0 0014-20l2-6a2 2 0 00-1-2 42 42 0 0022-3z"/><path class="d" d="M566 721h-80c-2 0-3 0-3 2l-3 23-4 28v3c0 2-1 2-2 1a3079 3079 0 002-28v-4l4-30 2-25 4-29 2-21 2-20 1-12a10 10 0 017-5l-2 16-2 18-3 22-2 18-3 22-2 14c0 2 0 2 2 2h75c1 0 3 2 3-1z"/><path class="ac" d="M498 604l-7 5-11 8-1 1c0-2 2-3 3-4 18-15 37-28 55-41l11-10h2a1 1 0 010 1c-3 4-4 9-8 12-2 4-7 5-10 7s-5 4-9 5l-25 16z"/><path d="M516 526h32l40 9a162 162 0 0025 2 33 33 0 0013-3c1 1 0 1-1 1a22 22 0 01-9 2c-13 1-26-1-39-3l-31-7a11 11 0 00-2 0h-25l-3-1z" fill="#1c2360"/><path d="M523 588l20-12-8 13-2-1h-10z" fill="#b6b3d9"/><path class="ao" d="M560 371l2-2 3-8 3-1 2 11 1 2c-6 7-2 14-2 21l7 60a338 338 0 011 35c0 2-1 3-3 3a149 149 0 00-23 8 117 117 0 010-13 563 563 0 014-58c2-17 4-34 9-51a2 2 0 00-1-2 7 7 0 01-3-5z"/><path class="ac" d="M562 513a6 6 0 01-2 1h-79c-2-3-1-5-1-8a1 1 0 011 0h80c3 1 3 4 1 7z"/><path d="M575 494a91 91 0 0111-4 322 322 0 0136-8c1 0 2-1 2-3-2-8-2-16-3-25s0-19 1-28v-6-1l1 1v10c0 16 1 32 4 48 0 2 1 3 3 3a13 13 0 014 0h2c0 2-1 1-2 1l-9 1a229 229 0 00-31 6l-17 5a19 19 0 01-2 0z" fill="#f57622"/><path d="M521 506h-2c-1-6-2-11 0-17v-10h1l1 27z" fill="#f57723"/><path d="M561 506h-39l2-1h36l1 1z" fill="#ffc730"/><path class="aj" d="M644 199h-52a15 15 0 01-3 0 2 2 0 01-1-2 2 2 0 011-2 13 13 0 012 0h107a12 12 0 012 0 2 2 0 010 4 15 15 0 01-3 0h-53zM644 204h41a12 12 0 012 1 2 2 0 010 4 10 10 0 01-2 0h-81a11 11 0 01-2 0 2 2 0 01-2-3 2 2 0 012-1 12 12 0 012-1h40zM644 214h34a12 12 0 012 0 2 2 0 010 4 12 12 0 01-3 0h-67a12 12 0 01-2 0 2 2 0 010-4 13 13 0 013 0h33z"/><path class="g" d="M480 506l1 8H362a4 4 0 01-1-4c-1-3 0-4 4-4h33a4 4 0 002 0h43a3 3 0 012 0h33a3 3 0 012 0z"/><path d="M699 515h-24v-1h24z" fill="#ef6329"/><path d="M761 514c2-2 2-2 2 0z" fill="#e0e1f0"/><path d="M186 674h-2a2 2 0 010-2v-12c1-3 1-6-1-9v-2-1a17 17 0 012 3 12 12 0 001-5v-15c0-5-1-9-4-14l-17-23-5-7 7 8a178 178 0 0113 17l6 9a59 59 0 000-8 52 52 0 01-1-8 93 93 0 00-1-19c-1-5-4-10-8-15a72 72 0 00-8-10l-2-2c4 1 11 9 18 21-1-11-4-22-3-33l2 20c3-5 5-10 11-12l-6 6a19 19 0 00-4 16 121 121 0 012 24 2 2 0 001 2c5-10 12-18 21-23v2c-7 4-13 10-17 17-3 4-4 8-4 13v30l10-8c3-2 6-4 11-3a34 34 0 00-16 8c-3 3-6 6-5 10l-1 25z" fill="#6aba82"/><path class="bh" d="M218 574c3 2 4 6 5 9 2 12 0 22-8 30a5 5 0 01-1 1l3-15a27 27 0 002-23l-1-2z"/><path class="bi" d="M183 649a3 3 0 000 2c1 6 0 11-2 17 0 2 0 4-2 6a18 18 0 01-5 0l5-26v-3z"/><path class="bh" d="M189 674l5-10c3-4 5-8 9-10l-7 20-3 1-4-1z"/><path d="M186 783h-1l1-12c2-14 2-28 3-43l-1-36c0-5 1-10-1-16a3 3 0 011-2 2 2 0 011 1l1 6v52a393 393 0 01-3 46 5 5 0 01-1 4z" fill="#de4d32"/><path d="M197 674a5 5 0 010 3v41l-2 31-1 19-2 14h-1v-6l2-25 2-39 1-24-1-12a2 2 0 011-2z" fill="#e25534"/><path class="bi" d="M160 611a58 58 0 00-6-12 5 5 0 01-1-2c6 5 10 12 12 19 0 3 2 3 4 5a15 15 0 001 1c-3 0-6 1-7-2l-3-9zM179 643v-1-2c-1-6-2-11-6-16 1-1 2 0 3 1 5 6 7 13 7 21-2-1-2-3-4-3z"/><path class="e" d="M212 615v1c-1 5-2 6-6 3a2 2 0 01-1-2 13 13 0 014-6c1 1 3 2 3 4z"/><path d="M213 623c2 0 3 2 4 4a22 22 0 011 9l1 4-6 4c4-7 6-14 0-21z" fill="#4cb077"/><path class="bh" d="M216 644c-1 3-3 5-5 6l-6 6c0-4 2-7 6-9l5-3z"/><path class="k" d="M196 674v1l-3 1c-3-1-3 0-3 2l-1 2-1-6a9 9 0 015 0h3zM193 674h-5 5z"/><path class="an" d="M472 240a5 5 0 015 4 6 6 0 01-4 5 5 5 0 01-1-9zM444 245a5 5 0 01-5 4c-2 0-4-2-4-5a5 5 0 015-4 5 5 0 014 5zM461 244a5 5 0 11-5-4 5 5 0 015 4z"/><path d="M845 204l2-7-1-1a1 1 0 00-1 1c0 3-2 4-4 5a12 12 0 012-8c1-2 2-2 4 0s1 8-2 10z" fill="#f1878b"/><path d="M683 290l-4-9c-1-3 0-4 2-5l8-3c2-1 4 0 4 2l5 12 1 3a2 2 0 01-2 2c-2 1-4 3-7 2l-3-4-4-8 2 7z" fill="#dedbed"/><path d="M690 306c1-3 2-7 0-11l9-3 4 7a2 2 0 01-1 3 58 58 0 01-11 5 1 1 0 01-1-1z" fill="#dbd8ec"/><path class="h" d="M690 306l12-4a2 2 0 001-3l2 4-1 2a62 62 0 01-9 5c-4 1-5 0-5-4z"/><path class="bp" d="M685 289l-2-6c-1 0-2-1 0-2l1 2 3 7-2-1z"/><path d="M699 292l-9 3a1 1 0 010-1l9-4v2z" fill="#534d9b"/><path class="y" d="M583 319l-2-1h-3a2 2 0 000 2 8 8 0 01-1 8 3 3 0 01-3 1l-1-1a85 85 0 011-9c1-2 1-4 4-5 3 0 4 3 5 5z"/><path d="M168 675l-4-17c-2-8-6-14-12-19-3-2-6-5-10-6l-1-1h1c5 1 8 4 11 6a34 34 0 018 9l-3-12a183 183 0 00-10-22l-5-10c9 13 15 27 20 42l1-2a26 26 0 014-12h2l-1 1c-5 9-5 19-2 28 2 5 2 10 2 15z" fill="#3cab6e"/><path d="M172 781l-1-6-1-5a2 2 0 01-1-1c2-8 0-16-1-24v-9l-1-19-1-29a8 8 0 011-3v10a121 121 0 001 13l1 1c2 0 2 2 2 3l-2 2-1 2 1 25 1 10 1 12 1 2c2 2 2 4 0 6v3a29 29 0 010 7z" fill="#df4f32"/><path d="M179 778v-8-40l-1-34v-9a3 3 0 011 3v14l1 26v40a46 46 0 01-1 8z" fill="#e15333"/><path d="M179 674c2-7 4-14 4-21a6 6 0 010-2c3 2 3 6 2 9l-1 14h-5z" fill="#3eac6f"/><path class="u" d="M162 681c0 2-2 5-3 5a1 1 0 01-1-2c0-2 2-5 3-5l1 2z"/><path d="M165 738l1 16h-1v-16z" fill="#e35734"/><path class="bi" d="M160 611a25 25 0 013 6v3a19 19 0 01-3-9z"/><path class="e" d="M179 640v2-2z"/><path class="k" d="M189 680v-1c0-5 0-5 5-4a21 21 0 002 0l1 24-1 34-2 27-3 22a10 10 0 01-5 1l2-17 1-14a889 889 0 000-72z"/><path d="M203 776a2 2 0 010-2l2-15 1-13 2-30 1-14v-3 20l-2 28-3 27a3 3 0 01-1 2z" fill="#e35834"/><path d="M197 781v-9l2-17 2-24v-6c-1-1 0-3 1-5v-5-26-11a4 4 0 010 3 3 3 0 002 3c2 1 1 2 0 3l-1 2v21l-1 10c0 1 0 2 2 3 1 1 1 2-1 3a4 4 0 00-1 3l-2 28-2 17a2 2 0 000 1c1 1 2 2 0 3l-1 3z" fill="#e25433"/><path d="M300 481h-2a357 357 0 001-62h1v5l1 36a159 159 0 01-2 19 4 4 0 001 2z" fill="#40ac70"/><path class="am" d="M749 481c-3-12-8-23-14-34 2 0 3 4 5 6 4 9 8 18 10 28z"/><path d="M674 460v-14l1-2v16z" fill="#f46d14"/><path class="t" d="M689 459c-7 0-7 0-7-6v-24a5 5 0 011-3v30c0 2 0 3 3 3a19 19 0 013 0z"/><path class="l" d="M634 97l-7-7a22 22 0 01-5-9l9-30c3-4 6-5 10-2h3c6-5 12-3 14 4l9 28c-3 7-6 12-12 16-1 2-4 2-6 3a20 20 0 01-13-1l-2-2z"/><path d="M645 130l-1-1a1 1 0 011-1 1 1 0 010 1 1 1 0 010 1z" fill="#42ad70"/><path class="y" d="M634 97c7 4 14 3 21 0v4c-7 4-14 4-22 0z"/><path d="M480 506h-37l-1-2 1-1c0 3 1 2 3 2h60v1h-26z" fill="#ffc42e"/><path d="M506 506v-1l12-15 1-1v17z" fill="#eaedf6"/><path class="cd" d="M696 288a1 1 0 010 2 1 1 0 01-1-1l-4-8 1-1a1 1 0 011 0l3 8z"/><path class="bp" d="M690 292l-1-1-3-5 1-2 1 1 2 6v1z"/><path class="cd" d="M693 290a1 1 0 01-1 1 1 1 0 01-1-1l-1-4a1 1 0 010-1h1l2 5z"/><path class="u" d="M190 749c0-1 0-2 2-2l1 2a2 2 0 01-2 2l-1-2z"/></g><path class="bh" d="M219 607s-6 8-3 18l-3-2s-3-12 3-21c4-1 3 5 3 5z"/></svg>
