<svg id="f00c0d3c-9629-45bc-9464-54ea79fd6c50" xmlns="http://www.w3.org/2000/svg" viewBox="0 0 180 180"><title>undraw_subscriptions_1xdv</title><rect width="180" height="180" rx="20" fill="#dcf3ff"/><path d="M164.45,160.92a8.22,8.22,0,0,1-.88-3.29,22.85,22.85,0,0,1,1.69-10.14,20.49,20.49,0,0,0-.81-16.28l.2-.12a18.19,18.19,0,0,1,1.7,4.8,21,21,0,0,1-.87,11.68c-3.33,9-.85,13.19-.83,13.23Z" transform="translate(-0.71 -0.71)" fill="#73d13d"/><circle cx="162.44" cy="128.45" r="1.52" fill="#ffadd2"/><circle cx="167.23" cy="134.07" r="1.52" fill="#f9bddc"/><circle cx="163.96" cy="137.81" r="1.52" fill="#efdbff"/><circle cx="167.94" cy="140.97" r="1.52" fill="#e6e6e6"/><circle cx="162.79" cy="145.88" r="1.52" fill="#e6e6e6"/><path d="M165.37,161s-1.52-3.74,3-6.55Z" transform="translate(-0.71 -0.71)" fill="#b7eb8f"/><path d="M163.5,160.91s-.69-4-6.05-3.95Z" transform="translate(-0.71 -0.71)" fill="#b7eb8f"/><ellipse cx="140.81" cy="162.07" rx="28.49" ry="3.81" fill="#e6e6e6"/><path d="M144.78,75.18l2.09-.51a5.37,5.37,0,0,0,5.37-5.37,5.55,5.55,0,0,0-.11-1.07h0a7,7,0,0,0-7-7h0a7,7,0,0,0-7,7h0a5.59,5.59,0,0,0,3.83,6.9A5.44,5.44,0,0,0,144.78,75.18Z" transform="translate(-0.71 -0.71)" fill="#2f2e41"/><polygon points="147.57 71.37 150.77 76.86 149.87 79.54 145.28 78.77 142.98 73.92 147.57 71.37" fill="#ffd9d9"/><circle cx="151.1" cy="62.17" r="3.33" fill="#2f2e41"/><path d="M148.74,61.09a3.33,3.33,0,0,1,3.32-3.33,3,3,0,0,1,.66.07,3.33,3.33,0,1,0-2.84,6,3.49,3.49,0,0,0,.77.26A3.33,3.33,0,0,1,148.74,61.09Z" transform="translate(-0.71 -0.71)" fill="#2f2e41"/><path d="M127.73,115.86s-.51,3.58,1.28,3.32,1.28-3.32,1.28-3.32Z" transform="translate(-0.71 -0.71)" fill="#ffd9d9"/><polygon points="125.24 148.34 123.96 152.43 127.02 153.7 128.3 148.34 125.24 148.34" fill="#ffb8b8"/><polygon points="147.7 151.01 147.65 155.29 150.96 155.63 150.64 150.13 147.7 151.01" fill="#ffb8b8"/><polygon points="134.43 96.26 149.75 96.77 150.77 131.24 154.09 151.15 145.92 152.68 139.02 119.49 130.85 149.62 123.45 148.85 134.43 96.26" fill="#2f2e41"/><path d="M126.46,153.14s-1.28-2.3-2.3-1-5.11,6.13-5.11,6.13-4.59,4.6,2.81,4.09c0,0,2.3,0,2.81-1.54,0,0,4.34-.76,4.34-2a53.83,53.83,0,0,0-.94-5.75Z" transform="translate(-0.71 -0.71)" fill="#2f2e41"/><path d="M150.2,155.43s-1.28-2.29-2.3-1-5.1,6.13-5.1,6.13-4.6,4.59,2.8,4.08c0,0,2.3,0,2.81-1.53,0,0,4.34-.76,4.34-2a53.39,53.39,0,0,0-.94-5.75Z" transform="translate(-0.71 -0.71)" fill="#2f2e41"/><circle cx="142.72" cy="69.58" r="5.87" fill="#ffd9d9"/><path d="M152.88,78.72l-9.19-.26-5.36,6.13s-4.85,4.85-2.56,8.42v5.87h14.81l3.83-9.95Z" transform="translate(-0.71 -0.71)" fill="#d0cde1"/><path d="M152,93.65s-5.25-10.9-2.37-15l1-2.47,2.86-.64v.77l7.4.77-1.79,12.76-1.53,29.36-14.42-2.68,8.42-17.87Z" transform="translate(-0.71 -0.71)" fill="#315573"/><path d="M145,77.44l-8.3,5.49s-4.34,8.68-5.36,12.76-7.66,20.94-7.66,20.94h7.91l10.72-34.47,3.45-3.44Z" transform="translate(-0.71 -0.71)" fill="#315573"/><path d="M156.58,94.42l-4.59.76s-4.34,2.56-3.32,5.62,4.08-3.32,4.08-3.32l5.36-.51Z" transform="translate(-0.71 -0.71)" fill="#ffd9d9"/><polygon points="158.17 77.37 160.21 76.35 168.89 93.71 158.68 98.56 154.6 92.94 159.96 91.41 156.13 85.03 158.17 77.37" fill="#315573"/><path d="M147.26,63.33l-4.49-.82-3.46,2.17a5.24,5.24,0,0,0-2.4,5.12l3.45-.89.78-1.94.92,1.51,2.27-.58,5.23,6.48.42-6.26Z" transform="translate(-0.71 -0.71)" fill="#2f2e41"/><ellipse cx="146.11" cy="69.91" rx="0.64" ry="1.15" transform="translate(-15.8 53.42) rotate(-19.98)" fill="#ffd9d9"/><rect x="23.54" y="47.48" width="19.35" height="19.35" fill="#8eb7ce"/><rect x="27.16" y="51.04" width="12.31" height="12.31" fill="#b7eb8f"/><rect x="13.76" y="9.11" width="38.92" height="27.05" fill="#7d7df9"/><path d="M33.92,15.1a8.25,8.25,0,1,0,8.25,8.24h0A8.26,8.26,0,0,0,33.92,15.1Zm0,2.47A2.48,2.48,0,1,1,31.45,20h0A2.48,2.48,0,0,1,33.92,17.57Zm0,11.91A6,6,0,0,1,29,26.84c0-1.65,3.3-2.56,4.94-2.56s4.91.91,4.95,2.56a6,6,0,0,1-4.95,2.64Z" transform="translate(-0.71 -0.71)" fill="#fff"/><rect x="62.24" y="47.48" width="19.35" height="19.35" fill="#8eb7ce"/><rect x="65.86" y="51.04" width="12.31" height="12.31" fill="#b7eb8f"/><rect x="52.45" y="9.11" width="38.92" height="27.05" fill="#8f8ff7"/><path d="M72.62,15.1a8.25,8.25,0,1,0,8.25,8.24A8.25,8.25,0,0,0,72.62,15.1Zm0,2.47A2.48,2.48,0,1,1,70.15,20a2.47,2.47,0,0,1,2.47-2.47Zm0,11.91a6,6,0,0,1-5-2.64c0-1.65,3.3-2.56,5-2.56s4.91.91,4.95,2.56a6,6,0,0,1-4.95,2.64Z" transform="translate(-0.71 -0.71)" fill="#fff"/><rect x="91.17" y="9.11" width="38.92" height="27.05" fill="#e6e6e6"/><path d="M111.34,15.1a8.25,8.25,0,1,0,8.25,8.24A8.24,8.24,0,0,0,111.34,15.1Zm0,2.47A2.48,2.48,0,1,1,108.87,20,2.48,2.48,0,0,1,111.34,17.57Zm0,11.91a6,6,0,0,1-4.94-2.64c0-1.65,3.29-2.56,4.94-2.56s4.91.91,5,2.56a6,6,0,0,1-5,2.64Z" transform="translate(-0.71 -0.71)" fill="#fff"/><rect x="100.96" y="47.48" width="19.35" height="19.35" fill="#8eb7ce"/><rect x="104.58" y="51.04" width="12.31" height="12.31" fill="#fff"/><polygon points="32.59 59.82 30.45 57.07 31.69 56.11 32.7 57.41 36.12 53.8 37.26 54.88 32.59 59.82" fill="#fff"/><polygon points="71.25 59.82 69.11 57.07 70.35 56.11 71.36 57.41 74.78 53.8 75.92 54.88 71.25 59.82" fill="#fff"/><polygon points="109.91 59.82 107.77 57.07 109.01 56.11 110.02 57.41 113.44 53.8 114.58 54.88 109.91 59.82" fill="#e6e6e6"/></svg>